<svg width="81" height="59" viewBox="0 0 81 59" fill="none" xmlns="http://www.w3.org/2000/svg"><g filter="url(#filter01_d)" fill="#fff"><path d="M10 48.3h60.871v-3.668h-60.87V48.3zm0-6.63h57.768v-3.668H10v3.667z"/><path opacity=".35" d="M10 35.04h42.956v-3.668H10.001v3.668zm.071-6.63h31.67v-3.67h-31.67v3.668z"/><path opacity=".52" d="M38.356 12.398a1.129 1.129 0 100 2.257 1.129 1.129 0 000-2.257z"/><path d="M38.355 10.07a3.456 3.456 0 100 6.912 3.456 3.456 0 000-6.912z"/><path opacity=".44" d="M14.727 12.398a1.129 1.129 0 100 2.257 1.129 1.129 0 000-2.257z"/><path opacity=".41" d="M11.341 14.302c-.07-.211-.07-.493-.07-.776a3.462 3.462 0 013.456-3.456c.423 0 .776.07 1.199.212"/><path d="M15.925 10.282c1.34.493 2.328 1.763 2.328 3.244a3.462 3.462 0 01-3.456 3.456c-1.693 0-3.033-1.128-3.386-2.75m15.165-1.834a1.129 1.129 0 100 2.257 1.129 1.129 0 000-2.257z"/><path d="M24.39 10.776c.564-.494 1.34-.776 2.186-.776a3.462 3.462 0 013.456 3.456 3.462 3.462 0 01-3.456 3.456 3.277 3.277 0 01-1.622-.423"/><path opacity=".35" d="M24.953 16.63c-1.128-.564-1.834-1.763-1.834-3.104 0-1.128.494-2.116 1.34-2.75"/></g><defs><filter id="filter01_d" x="0" y="0" width="80.871" height="58.3" filterUnits="userSpaceOnUse" color-interpolation-filters="sRGB"><feFlood flood-opacity="0" result="BackgroundImageFix"/><feColorMatrix in="SourceAlpha" values="0 0 0 0 0 0 0 0 0 0 0 0 0 0 0 0 0 0 127 0"/><feOffset/><feGaussianBlur stdDeviation="5"/><feColorMatrix values="0 0 0 0 0.101961 0 0 0 0 0.596078 0 0 0 0 1 0 0 0 1 0"/><feBlend in2="BackgroundImageFix" result="effect1_dropShadow"/><feBlend in="SourceGraphic" in2="effect1_dropShadow" result="shape"/></filter></defs></svg>