<svg width="600" height="600" viewBox="0 0 600 600" fill="none" xmlns="http://www.w3.org/2000/svg">
<g filter="url(#filter0_d)">
<path fill-rule="evenodd" clip-rule="evenodd" d="M301.339 0C303.845 0.179012 305.277 0.179023 305.277 0.179023L304.919 23.9877C304.919 23.9877 303.666 23.8086 301.339 23.8086C300.328 23.8086 299.147 23.8425 297.812 23.8807C296.076 23.9304 294.078 23.9877 291.851 23.9877C288.078 23.9877 283.646 24.3164 279.03 24.6589L278.426 24.7037C273.413 24.8827 268.222 25.5987 263.031 26.3148L263.03 26.3148L259.092 26.8519C258.309 26.9498 257.579 27.1013 256.873 27.2477C256.289 27.369 255.722 27.4868 255.154 27.5679C253.901 27.7469 252.648 27.9706 251.395 28.1943L251.395 28.1944L251.395 28.1945L251.394 28.1945C250.141 28.4183 248.888 28.642 247.635 28.821C243.711 29.5218 240.225 30.3324 237.006 31.0809L237.006 31.081C236.114 31.2884 235.243 31.491 234.389 31.6852C232.133 32.2222 230.071 32.8237 228.318 33.335C227.149 33.6758 226.118 33.9766 225.259 34.1914C223.111 34.9074 221.858 35.2654 221.858 35.2654L215.055 12.5309C215.055 12.5309 216.487 12.1728 218.814 11.4568C219.925 11.2188 221.211 10.8403 222.658 10.4145L222.658 10.4145C224.476 9.87948 226.546 9.27003 228.839 8.77161C230.296 8.45498 231.864 8.07114 233.513 7.66765L233.513 7.66754C236.525 6.93046 239.805 6.1278 243.16 5.54939C244.496 5.26322 245.933 5.02788 247.39 4.7892C248.668 4.57996 249.961 4.36816 251.216 4.11729C251.775 4.03741 252.37 3.92189 252.984 3.80253C253.747 3.6544 254.54 3.50037 255.333 3.40124L259.629 2.86421C265.179 2.14816 270.907 1.43211 276.277 1.07409C281.648 0.537048 286.66 0.179023 290.956 0.179023C293.392 0.179023 295.598 0.121475 297.508 0.0716354C298.967 0.0335695 300.254 0 301.339 0ZM169.944 30.0739C177.821 26.4937 183.012 24.1665 183.012 24.1665L192.142 45.827C192.142 45.827 187.309 48.1542 180.148 51.3764C176.568 53.1665 172.451 55.3147 168.154 57.6418C166.498 58.6499 164.755 59.6581 162.972 60.6895L162.971 60.6897C160.321 62.2223 157.582 63.8064 154.907 65.5184C153.997 66.1007 153.088 66.6756 152.182 67.2477L152.174 67.2532L152.173 67.2533L152.173 67.2535L152.173 67.2537L152.17 67.2556C148.626 69.4944 145.152 71.6894 142.019 74.111C141.522 74.4717 141.029 74.8297 140.54 75.1847C137.145 77.6488 133.938 79.976 131.278 82.1665C125.012 86.9999 121.074 90.5801 121.074 90.5801L105.5 72.6789C105.5 72.6789 109.796 68.7406 116.599 63.5492C120 60.864 124.117 57.8208 128.414 54.7776C131.26 52.6431 134.341 50.6658 137.502 48.6373L137.503 48.6372L137.503 48.6368L137.503 48.6367L137.503 48.6367C139.114 47.6032 140.745 46.5565 142.377 45.469C146.783 42.6947 151.338 40.0692 155.635 37.5925L155.643 37.5874L156.341 37.1851L156.877 36.8764C161.71 34.3702 166.185 32.0431 169.944 30.0739ZM81.6914 96.3086C81.6914 96.3086 80.6174 97.3827 79.0063 99.1728C77.3951 101.142 75.068 103.827 72.2038 107.049C70.595 108.859 68.9862 110.952 67.2822 113.168L67.2821 113.168C65.9525 114.897 64.5649 116.702 63.0742 118.506C60.6575 121.728 58.2409 125.253 55.8243 128.777C55.0187 129.952 54.2131 131.126 53.4075 132.29C52.7098 133.398 52.0027 134.506 51.297 135.612C48.9245 139.33 46.5675 143.024 44.6359 146.611C43.5593 148.611 42.4496 150.544 41.3779 152.411L41.3778 152.411C39.9547 154.891 38.5986 157.254 37.4754 159.5C35.5063 163.259 33.8951 166.481 32.8211 168.809C31.747 171.136 31.21 172.389 31.21 172.389L52.8704 182.414C52.8704 182.414 53.4075 181.16 54.3026 179.191C54.9909 177.929 55.8262 176.226 56.8086 174.224L56.8088 174.223C57.3593 173.101 57.956 171.884 58.5989 170.599C59.6334 168.3 61.0369 165.853 62.5251 163.259C63.3546 161.813 64.2104 160.321 65.0433 158.784C66.9373 155.537 69.0357 152.29 71.1841 148.966L71.1845 148.966L71.1849 148.965L71.1943 148.95C71.8854 147.881 72.5816 146.804 73.2779 145.716C74.2225 144.382 75.15 143.031 76.0709 141.69C78.1166 138.71 80.13 135.777 82.2285 133.185C82.9786 132.214 83.707 131.255 84.419 130.316L84.4191 130.316L84.4193 130.316C86.5957 127.448 88.6189 124.781 90.6421 122.623C93.1482 119.58 95.2964 117.074 96.9075 115.284C98.5186 113.494 99.4137 112.599 99.4137 112.599L81.6914 96.3086ZM14.7407 217.5C16.8889 209.086 18.858 203.716 18.858 203.716L41.4136 211.235C41.4136 211.235 39.6234 216.068 37.6543 223.765C37.4435 224.819 37.1087 225.997 36.7593 227.226C36.5152 228.085 36.2641 228.968 36.0432 229.852L34.4321 236.833C33.358 241.667 32.463 246.858 31.5679 252.049C30.8841 255.354 30.4905 258.732 30.11 261.997C29.8929 263.861 29.6799 265.688 29.4197 267.444C29.0959 270.359 28.9022 273.209 28.721 275.875C28.6017 277.631 28.4878 279.307 28.3457 280.87C27.9876 284.809 27.9877 288.031 27.9877 290.358C27.8086 292.685 27.8086 293.938 27.8086 293.938L4 293.759C4 293.759 4.17901 292.327 4.17901 289.821C4.27953 288.414 4.32361 286.668 4.37463 284.646C4.41447 283.068 4.45854 281.322 4.53703 279.438C4.71604 275.142 5.07408 270.13 5.61111 264.759C5.81505 263.23 6.00447 261.671 6.19591 260.096C6.67663 256.14 7.1701 252.08 7.93827 248.111C8.27883 246.352 8.6014 244.574 8.92309 242.801L8.92315 242.801C9.61599 238.983 10.3048 235.187 11.1605 231.642C11.6859 229.803 12.1149 227.868 12.5182 226.049L12.5183 226.048L12.5183 226.048L12.5183 226.048L12.5184 226.048L12.5184 226.048L12.5185 226.047L12.5185 226.047C12.6648 225.387 12.8077 224.743 12.9506 224.123C13.2527 222.814 13.6115 221.562 13.9632 220.334L13.9633 220.334C14.2367 219.379 14.5059 218.44 14.7407 217.5ZM5.96875 327.593C5.96875 327.593 6.14777 329.025 6.50579 331.531C6.61943 332.326 6.73306 333.23 6.85813 334.224C7.12714 336.364 7.4491 338.924 7.93788 341.734C8.65393 346.031 9.54899 350.864 10.6231 356.234C11.0318 357.928 11.4214 359.678 11.8169 361.454L11.817 361.455C12.634 365.125 13.4758 368.906 14.5613 372.525C17.6046 383.623 21.1848 394.543 24.228 402.42C25.4477 405.401 26.4622 408.075 27.2715 410.208C27.5312 410.892 27.7698 411.521 27.9873 412.086C29.0613 414.413 29.5984 415.667 29.5984 415.667L51.2589 406C51.2589 406 50.7218 404.747 49.8268 402.778C48.9317 400.63 47.6786 397.586 46.2465 393.827C43.3823 386.488 39.9811 376.463 37.2959 366.259C36.1003 362.075 35.1543 357.765 34.2495 353.644C34.0705 352.828 33.8931 352.02 33.7157 351.222C33.2138 348.512 32.7682 345.914 32.3473 343.461L32.3472 343.46L32.3463 343.455L32.3461 343.454C32.0168 341.535 31.7027 339.703 31.3885 337.975C31.153 336.248 30.952 334.659 30.7703 333.223C30.5375 331.383 30.3365 329.794 30.1354 328.488C29.7774 326.16 29.5984 324.907 29.5984 324.907L5.96875 327.593ZM52.5122 457.914C47.6788 450.753 44.9937 445.741 44.9937 445.741L65.043 433.926C65.043 433.926 67.5492 438.401 72.0245 445.025C72.7527 445.961 73.4204 447.018 74.0979 448.091C74.5863 448.864 75.0798 449.645 75.6048 450.395C76.8578 452.185 78.2899 454.154 79.722 456.124C81.692 458.832 83.9161 461.626 86.1612 464.446L86.1618 464.446L86.1633 464.448C87.1817 465.727 88.2044 467.012 89.2097 468.296C91.317 470.989 93.5774 473.528 95.7906 476.015L95.7908 476.015C96.9618 477.331 98.1195 478.631 99.2344 479.932C100.838 481.62 102.402 483.229 103.888 484.757L103.895 484.765L103.896 484.766C105.56 486.476 107.126 488.087 108.543 489.599C114.45 494.969 118.21 498.549 118.21 498.549L102.457 516.272C102.457 516.272 98.3393 512.333 92.0739 506.426C89.3228 503.675 86.279 500.485 82.9427 496.988L81.8702 495.864C80.3626 494.039 78.7495 492.214 77.1088 490.358L77.1087 490.358L77.1086 490.358L77.1084 490.358L77.1079 490.357C75.0474 488.026 72.9435 485.646 70.9504 483.154C69.6972 481.505 68.3953 479.881 67.0986 478.262C64.8761 475.489 62.6686 472.734 60.7467 469.908C59.618 468.214 58.3781 466.521 57.2023 464.916L57.2012 464.914L57.2006 464.914L57.1999 464.913L57.1992 464.912C56.8842 464.482 56.5738 464.058 56.2714 463.642C55.4817 462.556 54.8009 461.47 54.1389 460.415C53.6004 459.556 53.0743 458.717 52.5122 457.914ZM129.129 537.395C129.129 537.395 130.382 538.29 132.352 539.722C132.692 539.949 133.05 540.194 133.427 540.451C134.238 541.006 135.133 541.617 136.111 542.229L136.361 542.384L136.498 542.469C136.644 542.56 136.793 542.652 136.945 542.747L136.975 542.765L136.976 542.766C138.233 543.544 139.678 544.439 141.123 545.451C144.703 547.778 149 550.463 153.654 552.969C155.981 554.222 158.487 555.654 160.815 557.087C163.321 558.34 165.827 559.593 168.512 560.846C178.716 566.037 189.278 570.333 197.333 573.377C199.707 574.348 201.951 575.059 203.868 575.666L203.869 575.667C205.133 576.067 206.255 576.422 207.179 576.778C209.506 577.494 210.938 578.031 210.938 578.031L218.099 555.296C218.099 555.296 216.845 554.938 214.697 554.222C214.116 554.029 213.455 553.822 212.73 553.594C210.778 552.982 208.358 552.224 205.747 551.179C198.407 548.315 188.561 544.377 179.253 539.722C178.089 539.096 176.926 538.514 175.762 537.932C174.599 537.35 173.435 536.769 172.271 536.142C169.944 534.889 167.796 533.636 165.648 532.383C161.541 530.158 157.762 527.771 154.466 525.688L154.012 525.401C153.291 524.921 152.57 524.476 151.881 524.051L151.879 524.05L151.877 524.049L151.875 524.047C151.027 523.524 150.228 523.031 149.537 522.537L149.535 522.536C148.282 521.641 147.03 520.747 146.136 520.21C144.166 518.957 143.092 518.062 143.092 518.062L129.129 537.395ZM243.697 586.265C243.697 586.265 245.129 586.444 247.636 586.981C248.581 587.116 249.653 587.302 250.853 587.51L250.858 587.511C252.838 587.855 255.165 588.258 257.839 588.592C259.113 588.752 260.449 588.926 261.835 589.108C265.123 589.538 268.687 590.005 272.339 590.383L272.38 590.385C275.052 590.563 277.724 590.741 280.574 590.919C281.29 591.009 282.006 591.054 282.722 591.099C283.438 591.143 284.154 591.188 284.87 591.278L289.166 591.457C294.895 591.636 300.623 591.815 305.994 591.636C307.359 591.636 308.679 591.589 309.975 591.544H309.977H309.978H309.979H309.98H309.981H309.982H309.983H309.984H309.985H309.985C311.235 591.5 312.463 591.457 313.691 591.457C316.197 591.278 318.524 591.099 320.673 590.919C322.084 590.802 323.417 590.704 324.661 590.612C327.205 590.425 329.372 590.265 331.055 590.024C333.561 589.666 334.994 589.487 334.994 589.487L332.129 565.858C332.129 565.858 330.876 566.037 328.549 566.395C326.222 566.753 323 566.932 319.061 567.111C317.092 567.29 314.944 567.469 312.617 567.469C311.475 567.469 310.333 567.512 309.17 567.556C307.963 567.602 306.733 567.648 305.457 567.648C300.444 567.827 295.253 567.648 290.061 567.469L286.123 567.29C285.497 567.2 284.825 567.156 284.154 567.111C283.483 567.066 282.811 567.021 282.185 566.932L281.698 566.897L281.038 566.851L280.329 566.801L279.647 566.753C277.934 566.634 276.22 566.514 274.666 566.395C270.659 566.098 266.775 565.555 263.32 565.072L263.318 565.072C262.606 564.972 261.913 564.875 261.24 564.784C258.804 564.452 256.642 564.051 254.797 563.709L254.795 563.708C253.657 563.498 252.64 563.309 251.753 563.173C249.426 562.815 248.173 562.457 248.173 562.457L243.697 586.265ZM356.694 584.46C356.694 584.46 362.286 583.414 370.782 581.777C374.898 580.743 379.794 579.529 385.079 578.224C385.395 578.131 385.711 578.038 386.029 577.944L386.453 577.819C391.211 576.418 396.255 574.932 401.188 573.266C403.029 572.591 404.86 571.956 406.668 571.328C410.217 570.096 413.676 568.895 416.943 567.487C421.833 565.534 426.548 563.54 430.484 561.726C438.313 558.272 443.412 555.449 443.412 555.449L432.463 534.399C432.463 534.399 427.796 536.957 420.573 540.189C417.474 541.695 413.81 543.207 409.932 544.807L409.913 544.815L409.792 544.865C409.279 545.077 408.763 545.29 408.244 545.505C404.632 547.125 400.742 548.445 396.774 549.791L396.773 549.791L396.77 549.792C395.751 550.138 394.727 550.485 393.701 550.84C390.7 551.878 387.666 552.777 384.731 553.646C382.755 554.231 380.824 554.803 378.978 555.395C374.256 556.652 369.751 557.776 365.851 558.678C358.135 560.133 352.891 561.264 352.891 561.264L356.694 584.46ZM426.469 28.4631C426.469 28.4631 421.278 26.136 413.401 22.7347C410.565 21.5745 407.357 20.3213 403.912 18.9753C402.573 18.4524 401.199 17.9154 399.796 17.3644C397.439 16.6328 395.045 15.8274 392.63 15.0152L392.63 15.0151C389.727 14.0387 386.796 13.0525 383.864 12.173C381.848 11.6527 379.855 11.085 377.877 10.5217L377.874 10.5208L377.874 10.5208C374.41 9.53396 370.992 8.56031 367.574 7.87672C362.383 6.62363 357.37 5.54956 353.253 4.83351C351.273 4.50355 349.484 4.17359 347.884 3.87866L347.883 3.87849L347.883 3.87842C346.011 3.53343 344.4 3.23639 343.049 3.04339C340.543 2.68537 339.111 2.50635 339.111 2.50635L336.068 26.136C336.068 26.136 337.321 26.315 339.648 26.673C341.975 27.031 345.198 27.5681 349.136 28.2841C352.436 28.7341 356.113 29.5611 360.061 30.4493L360.065 30.45C360.827 30.6216 361.6 30.7955 362.383 30.9693C365.972 31.6339 369.659 32.6934 373.446 33.7811C374.758 34.1583 376.083 34.5389 377.42 34.9076C381.77 36.1504 386.12 37.663 390.236 39.0941L390.237 39.0945C390.863 39.3123 391.484 39.5281 392.099 39.7409C393.538 40.2945 394.943 40.831 396.304 41.3504L396.308 41.3521L396.309 41.3526C399.345 42.5118 402.158 43.5857 404.63 44.5742C411.79 47.7965 416.623 49.9446 416.623 49.9446L426.469 28.4631ZM522.599 101.142C524.389 103.111 525.284 104.185 525.284 104.185L507.204 119.58C507.204 119.58 506.488 118.685 504.877 116.895C504.389 116.353 503.868 115.745 503.3 115.082C501.991 113.554 500.429 111.731 498.432 109.734C493.062 104.006 485.543 96.4875 477.488 89.685C476.503 88.8795 475.519 88.0291 474.534 87.1788L474.532 87.1769C473.548 86.3272 472.564 85.4776 471.581 84.6727C470.64 83.9675 469.734 83.2624 468.848 82.5722L468.848 82.5721C467.709 81.6854 466.601 80.8236 465.494 80.0184C462.836 77.9647 460.26 76.1556 457.876 74.481L457.875 74.4803C456.726 73.6737 455.622 72.8983 454.574 72.1418L454.574 72.1414C452.963 71.0675 451.352 69.9936 450.099 69.0986C449.101 68.5995 448.189 68.0133 447.426 67.5221L447.425 67.5218L447.425 67.5214L447.421 67.5188C447.091 67.3067 446.789 67.1123 446.519 66.9505C444.55 65.6974 443.476 64.9813 443.476 64.9813L456.006 44.7529C456.006 44.7529 457.26 45.648 459.408 46.9011C460.132 47.2632 460.937 47.788 461.824 48.3659C462.253 48.6451 462.7 48.9367 463.167 49.2282C464.156 49.9698 465.23 50.7113 466.389 51.5117C466.909 51.8707 467.446 52.2415 468 52.6295C469.171 53.4918 470.447 54.3753 471.785 55.3019C474.337 57.0683 477.115 58.9911 479.815 61.2221C480.453 61.7006 481.107 62.1791 481.767 62.6623C483.33 63.806 484.928 64.976 486.439 66.2344C487.513 67.1294 488.586 68.0691 489.66 69.0088L489.661 69.0093C490.735 69.9491 491.809 70.8888 492.883 71.7838C501.655 79.1233 509.71 87.1788 515.618 93.4443C517.818 95.6446 519.644 97.7514 521.096 99.4262C521.652 100.068 522.153 100.646 522.599 101.142ZM584 213.92C584 213.92 583.642 212.488 582.926 210.161C582.514 208.236 581.679 205.889 580.665 203.038L580.662 203.029L580.659 203.022C580.355 202.166 580.034 201.264 579.704 200.315C579.417 199.524 579.129 198.676 578.83 197.793L578.826 197.783L578.824 197.777C578.38 196.466 577.91 195.079 577.377 193.692C576.482 191.364 575.587 189.037 574.513 186.531C573.848 184.98 573.252 183.429 572.639 181.835C572.262 180.854 571.879 179.857 571.469 178.834C570.843 177.581 570.261 176.283 569.68 174.985C569.098 173.687 568.516 172.389 567.889 171.136C563.056 160.753 557.507 150.729 553.21 143.389C551.951 141.186 550.693 139.291 549.614 137.666L549.613 137.665L549.613 137.664L549.611 137.662C548.85 136.516 548.179 135.506 547.661 134.617L545.513 131.395L525.821 144.642C525.821 144.642 526.537 145.716 527.79 147.685C528.123 148.208 528.506 148.781 528.922 149.404C530.076 151.13 531.488 153.242 532.803 155.741C536.92 162.543 541.932 171.673 546.408 181.34C546.945 182.503 547.482 183.712 548.019 184.92L548.019 184.921C548.556 186.129 549.093 187.337 549.63 188.5C550.317 189.988 550.93 191.549 551.517 193.042L551.518 193.044C551.849 193.886 552.171 194.707 552.494 195.482C553.389 197.809 554.284 199.957 555.179 202.105C555.359 202.644 555.539 203.172 555.716 203.692L555.723 203.712L555.723 203.713C556.248 205.255 556.748 206.723 557.148 208.192C557.364 208.839 557.575 209.466 557.778 210.071C558.756 212.978 559.568 215.395 560.013 217.321C560.729 219.469 561.087 220.722 561.087 220.722L584 213.92ZM593.309 334.037C592.951 336.543 592.772 337.975 592.772 337.975L569.5 334.216C569.5 334.216 569.679 332.963 570.037 330.636C570.122 329.529 570.288 328.221 570.477 326.73C570.686 325.083 570.923 323.214 571.111 321.148C571.19 319.417 571.338 317.582 571.494 315.643V315.642V315.641C571.693 313.17 571.906 310.53 572.006 307.722C572.006 306.58 572.049 305.352 572.093 304.101C572.139 302.802 572.185 301.48 572.185 300.203C572.185 299.303 572.205 298.423 572.225 297.549L572.226 297.545V297.544C572.265 295.814 572.304 294.11 572.185 292.327C572.141 291.029 572.107 289.72 572.073 288.411C571.973 284.484 571.872 280.557 571.469 276.932C571.111 272.099 570.753 267.444 570.216 263.506C569.981 261.779 569.78 260.19 569.598 258.753C569.365 256.914 569.164 255.325 568.963 254.018C568.426 251.691 568.247 250.438 568.247 250.438L591.698 246.5C591.698 246.5 592.056 247.932 592.414 250.438C592.63 251.841 592.845 253.699 593.1 255.895C593.268 257.342 593.453 258.935 593.667 260.642C594.383 264.938 594.741 269.95 595.099 275.321C595.503 279.364 595.603 283.61 595.704 287.906C595.737 289.317 595.771 290.732 595.815 292.148C595.994 295.012 595.994 297.876 595.815 300.741C595.815 302.196 595.769 303.605 595.723 304.991V304.993C595.679 306.335 595.636 307.655 595.636 308.975C595.278 314.345 594.92 319.358 594.562 323.654C594.233 327.602 593.753 330.946 593.399 333.407L593.399 333.41L593.357 333.701L593.309 334.037ZM549.451 454.691C549.451 454.691 550.167 453.438 551.599 451.29C552.033 450.639 552.466 449.923 552.94 449.142C553.248 448.633 553.573 448.096 553.926 447.531C554.396 446.779 554.866 445.929 555.361 445.031C555.81 444.219 556.28 443.369 556.79 442.518C556.95 442.239 557.112 441.956 557.275 441.67L557.405 441.443C559.408 437.946 561.663 434.008 563.772 429.63C565.025 427.302 566.278 424.796 567.531 422.29C567.915 421.393 568.322 420.474 568.736 419.54L568.738 419.536C569.48 417.86 570.243 416.137 570.932 414.413C575.587 404.031 579.346 393.111 582.031 385.055C583.029 382.185 583.68 379.662 584.225 377.549L584.226 377.545C584.462 376.628 584.679 375.789 584.895 375.031C585.611 372.704 585.969 371.271 585.969 371.271L563.056 365.185C563.056 365.185 562.698 366.438 562.161 368.586C561.852 369.511 561.544 370.635 561.193 371.915L561.193 371.916C560.728 373.609 560.189 375.575 559.475 377.716C556.969 385.234 553.568 395.259 549.272 404.747C548.735 405.91 548.198 407.118 547.661 408.327C547.124 409.535 546.587 410.744 546.05 411.907C545.327 413.472 544.524 415.037 543.748 416.548L543.748 416.549C543.371 417.284 543 418.007 542.648 418.71C540.686 422.799 538.574 426.439 536.722 429.631C536.547 429.933 536.374 430.231 536.204 430.525C535.309 432.314 534.414 433.746 533.519 435.178L533.519 435.179C533.332 435.478 533.153 435.761 532.982 436.032C532.333 437.059 531.796 437.909 531.371 438.759C530.117 440.728 529.401 441.802 529.401 441.802L549.451 454.691ZM473.907 535.247C466.926 540.26 462.093 543.303 462.093 543.303L448.846 523.432C448.846 523.432 453.321 520.568 459.586 515.914C460.325 515.34 461.101 514.803 461.897 514.252C462.838 513.601 463.808 512.93 464.778 512.155L464.785 512.149C466.573 510.719 468.361 509.288 470.327 507.679C473.281 505.397 476.235 502.812 479.189 500.227C480.173 499.366 481.158 498.505 482.142 497.655C484.875 495.278 487.372 492.822 489.789 490.444C491.013 489.241 492.216 488.057 493.42 486.914C496.821 483.334 500.043 479.932 502.728 477.068C507.92 470.982 511.321 467.043 511.321 467.043L529.759 482.08C529.759 482.08 526 486.377 520.451 493C517.586 496.222 514.185 499.803 510.426 503.741C509.107 505 507.787 506.3 506.454 507.613C503.809 510.219 501.11 512.877 498.253 515.377C497.053 516.426 495.868 517.49 494.688 518.548C491.644 521.28 488.64 523.974 485.543 526.297C483.395 527.908 481.426 529.519 479.457 531.13C477.488 532.741 475.698 533.994 473.908 535.246L473.907 535.247Z" fill="#EB2629"/>
</g>
<defs>
<filter id="filter0_d" x="0" y="0" width="599.949" height="599.71" filterUnits="userSpaceOnUse" color-interpolation-filters="sRGB">
<feFlood flood-opacity="0" result="BackgroundImageFix"/>
<feColorMatrix in="SourceAlpha" type="matrix" values="0 0 0 0 0 0 0 0 0 0 0 0 0 0 0 0 0 0 127 0"/>
<feOffset dy="4"/>
<feGaussianBlur stdDeviation="2"/>
<feColorMatrix type="matrix" values="0 0 0 0 0 0 0 0 0 0 0 0 0 0 0 0 0 0 0.25 0"/>
<feBlend mode="normal" in2="BackgroundImageFix" result="effect1_dropShadow"/>
<feBlend mode="normal" in="SourceGraphic" in2="effect1_dropShadow" result="shape"/>
</filter>
</defs>
</svg>
