<svg xmlns="http://www.w3.org/2000/svg"><defs><font id="DINPro-Italic" horiz-adv-x="304"><font-face font-family="DIN Pro Regular" font-weight="400" font-style="italic" panose-1="2 11 5 4 2 1 1 2 1 2" ascent="800" descent="-200" x-height="493" cap-height="712" bbox="-148 -225 1204 1141" underline-thickness="49" underline-position="-281" slope="-11.31" unicode-range="U+000D-FEFF"/><glyph glyph-name=".notdef" horiz-adv-x="535" d="M37 0v712h461V0H37zm49 49h363v614H86V49z"/><glyph glyph-name=".null" horiz-adv-x="0"/><glyph glyph-name=".null" horiz-adv-x="0"/><glyph glyph-name="nonmarkingreturn" horiz-adv-x="333"/><glyph glyph-name="CR" horiz-adv-x="236"/><glyph glyph-name="space" horiz-adv-x="236"/><glyph glyph-name="exclam" unicode="!" horiz-adv-x="301" d="M297 712L185 197h-60l91 515h81zM176 86L160 0H77l17 86h82z"/><glyph glyph-name="quotedbl" unicode="&quot;" horiz-adv-x="403" d="M414 712l-35-172h-76l35 172h76zm-162 0l-34-172h-76l35 172h75z"/><glyph glyph-name="numbersign" unicode="#" horiz-adv-x="627" d="M629 498l-13-63h-90l-53-146h88l-12-62h-97L372 0h-72l79 227H227L148 0H74l80 227H70l12 62h93l53 146h-91l13 63h98l76 216h73l-75-216h152l75 216h73l-75-216h82zm-176-63H300l-52-146h152z"/><glyph glyph-name="dollar" unicode="$" horiz-adv-x="567" d="M560 636l-52-45q-50 58-124 63l-51-267 25-5q79-17 116.5-58.5T512 211q0-99-72-156T262-6l-20-108h-57L206-5Q144-1 99.5 21.5T16 92l55 48q59-75 150-81l52 272-21 5q-143 35-143 157 0 37 13.5 74t40 70.5T236 693t106 25l17 88h57l-17-90q100-8 161-80zM439 207q0 55-29 78t-89 36L271 58q73 7 120.5 48T439 207zM334 655q-68-7-110.5-53T181 496q0-76 104-98z"/><glyph glyph-name="percent" unicode="%" horiz-adv-x="800" d="M737 264q0-20-4-40l-19-95Q687-6 564-6q-45 0-78 25t-33 79q0 20 4 40l19 95q27 135 150 135 45 0 78-25t33-79zm-55-5q0 60-61 60-74 0-90-86l-19-95q-4-20-4-35 0-60 61-60 72 0 90 86l19 95q4 20 4 35zm-1 453L223 0h-60l458 712h60zm-291-97q0-20-4-40l-19-95q-27-135-150-135-45 0-78 25t-33 79q0 20 4 40l19 95q27 135 150 135 45 0 78-25t33-79zm-55-5q0 60-61 60-74 0-90-86l-19-95q-4-20-4-35 0-60 61-60 72 0 90 86l19 95q4 20 4 35z"/><glyph glyph-name="ampersand" unicode="&amp;" horiz-adv-x="704" d="M617 348q-22-135-104-219L593 0h-87l-48 78q-36-33-91.5-58.5T244-6q-81 0-132.5 44.5T60 163q0 85 47 139.5T254 418q-47 69-47 131 0 67 44 118t129 51q64 0 98-38t34-92q0-85-106-151l-57-36 128-215q52 57 70 162h70zM424 133L285 364q-80-49-116-90.5T133 170q0-49 32-80.5T248 58q93 0 176 75zm18 454q0 34-18.5 51.5T376 656q-43 0-69.5-30.5T280 548q0-36 38-96l40 25q42 26 63 50t21 60z"/><glyph glyph-name="quotesingle" unicode="'" horiz-adv-x="242" d="M252 712l-34-172h-76l35 172h75z"/><glyph glyph-name="parenleft" unicode="(" horiz-adv-x="284" d="M324 753q-44-37-62-62-23-33-30-72L131 110q-7-35-7-56 0-48 45-101l-52-47Q53-20 53 44q0 28 9 70l102 511q13 62 37 97 27 39 83 84z"/><glyph glyph-name="parenright" unicode=")" horiz-adv-x="284" d="M272 668q0-32-8-70L162 87q-13-59-38-97-27-39-83-84L1-41Q45-4 63 21q23 33 30 72l102 509q7 35 7 56 0 47-46 101l53 47q63-73 63-138z"/><glyph glyph-name="asterisk" unicode="*" horiz-adv-x="451" d="M455 566l-124-39 99-83-35-41-95 89-23-129-54 11 29 127-121-45-18 51 124 39-99 83 35 41 95-88 23 128 54-11-29-127 121 45z"/><glyph glyph-name="plus" unicode="+" horiz-adv-x="496" d="M458 301l-13-64H280L245 60h-65l35 177H48l13 64h167l36 177h64l-36-177h166z"/><glyph glyph-name="comma" unicode="," horiz-adv-x="252" d="M138 89L108-64 7-144 54 89h84z"/><glyph glyph-name="hyphen" unicode="-" horiz-adv-x="405" d="M345 302l-13-65H70l13 65h262z"/><glyph glyph-name="period" unicode="." horiz-adv-x="257" d="M143 95L125 0H34l19 95h90z"/><glyph glyph-name="slash" unicode="/" horiz-adv-x="341" d="M450 786L8-74h-72l443 860h71z"/><glyph glyph-name="zero" unicode="0" horiz-adv-x="496" d="M493 563q0-22-5-47l-64-322Q402 86 339 40T204-6Q139-6 94 33.5T49 149q0 22 5 47l63 322q22 108 85 154t135 46q65 0 110.5-39.5T493 563zm-70-2q0 48-26 71.5T335 656q-50 0-92-32.5T187 519l-63-324q-6-28-6-44 0-48 26.5-71.5T207 56q50 0 92 32.5T355 193l63 324q5 23 5 44z"/><glyph glyph-name="one" unicode="1" horiz-adv-x="496" d="M409 712L266 0h-70l127 629-152-114 16 85 151 112h71z"/><glyph glyph-name="two" unicode="2" horiz-adv-x="496" d="M496 555q0-55-22.5-95.5T407 372L116 61h291L395 0H16l13 61 333 357q34 38 49 67.5t15 68.5q0 50-25.5 76.5T329 657q-51 0-89.5-31T186 529h-70q18 92 75 140.5T333 718q76 0 119.5-42.5T496 555z"/><glyph glyph-name="three" unicode="3" horiz-adv-x="496" d="M482 564q0-68-32-122t-92-77q76-29 76-129 0-97-63.5-170T202-7Q116-7 72 36T28 150q0 18 1 28h69q-2-12-2-22 0-45 27.5-73T202 55q69 0 115.5 53T364 235q0 99-109 99h-16l12 60h16q64 0 105 49.5T413 561q0 45-25.5 70.5T315 657q-49 0-87.5-32T175 540h-72q23 89 81.5 134T324 719q72 0 115-42t43-113z"/><glyph glyph-name="four" unicode="4" horiz-adv-x="496" d="M450 179l-14-64h-84L329 0h-68l23 115H11l12 64 347 533h77L101 179h195l39 196h69l-39-196h85z"/><glyph glyph-name="five" unicode="5" horiz-adv-x="496" d="M516 712l-12-62H224l-45-226q49 46 126 46 72 0 108.5-42T450 321q0-36-9-86-25-129-80-184Q303-7 213-7 131-7 92 35.5T53 142q0 15 1 26h68q-1-8-1-21 0-41 23.5-66.5T212 55q72 0 106.5 47.5T370 235q9 49 9 77 0 98-87 98-89 0-131-72H99l75 374h342z"/><glyph glyph-name="six" unicode="6" horiz-adv-x="496" d="M432 224q0-98-60.5-164T226-6Q137-6 93.5 46T50 172q0 47 16 89t58 104l231 347h76L216 391q29 11 55 11 75 0 118-49.5T432 224zm-71-1q0 52-27 86.5T258 344q-45 0-78-28t-47-65-14-74q0-52 27-86.5T222 56q64 0 101.5 51T361 223z"/><glyph glyph-name="seven" unicode="7" horiz-adv-x="496" d="M544 712l-12-62L174 0H97l358 650H218l-21-107h-68l33 169h382z"/><glyph glyph-name="eight" unicode="8" horiz-adv-x="496" d="M494 557q0-64-33-116t-89-77q70-49 70-142 0-92-60.5-160T211-6Q137-6 86.5 37.5T36 164q0 150 139 210-60 45-60 120 0 96 61.5 160T331 718q71 0 117-43.5T494 557zM372 224q0 52-29.5 82.5T264 337q-70 0-114-48.5T106 169q0-52 30-82.5T215 56q71 0 114 48t43 120zm52 332q0 45-25.5 72.5T327 656q-64 0-103.5-48.5T184 498q0-45 26-72.5t72-27.5q64 0 103 48.5T424 556z"/><glyph glyph-name="nine" unicode="9" horiz-adv-x="496" d="M491 540q0-47-16.5-89T416 347L185 0h-75l214 321q-29-11-54-11-75 0-118 49.5T109 488q0 98 60.5 164T315 718q89 0 132.5-52T491 540zm-69-5q0 52-27.5 86.5T318 656q-64 0-101-51t-37-116q0-52 27-86.5t76-34.5q45 0 78 28t47 65 14 74z"/><glyph glyph-name="colon" unicode=":" horiz-adv-x="282" d="M227 395l-19-95h-91l20 95h90zM170 95L151 0H61l19 95h90z"/><glyph glyph-name="semicolon" unicode=";" horiz-adv-x="282" d="M167 89L137-64 36-144 82 89h85zm61 306l-19-95h-90l19 95h90z"/><glyph glyph-name="less" unicode="&lt;" horiz-adv-x="496" d="M436 471l-15-78-261-124 213-126-14-71L78 243l13 62z"/><glyph glyph-name="equal" unicode="=" horiz-adv-x="496" d="M443 218l-14-64H32l14 64h397zm32 166l-14-64H64l14 64h397z"/><glyph glyph-name="greater" unicode="&gt;" horiz-adv-x="496" d="M431 293l-13-62L74 65l15 78 260 124-213 126 15 71z"/><glyph glyph-name="question" unicode="?" horiz-adv-x="474" d="M491 571q0-77-70-157L320 296q-20-23-29-58l-10-42h-70l10 45q11 53 48 95l100 115q51 59 51 116 0 38-23.5 63.5T331 656q-50 0-85-31t-46-85h-72q16 84 72.5 131T342 718q62 0 105.5-40T491 571zM272 86L256 0h-83l17 86h82z"/><glyph glyph-name="at" unicode="@" horiz-adv-x="679" d="M667 551q0-25-7-60L562 0h-66l11 55Q455-7 371-7q-67 0-102.5 40.5T233 135q0 40 12 103 27 133 74 185 55 60 140 60 82 0 118-65l16 80q6 27 6 48 0 42-21 69-30 39-97 39H359q-67 0-113-40-43-38-59-116l-67-336q-7-32-7-53 0-35 38-70L98-7Q45 45 45 102q0 22 7 59l66 335q12 62 31 98.5t49 64.5q57 54 160 54h140q91 0 136-56 33-42 33-106zM553 328q0 95-86 95-68 0-101.5-46.5T313 238q-12-57-12-90 0-39 19.5-67T388 53q68 0 101.5 46.5T542 238q11 52 11 90z"/><glyph glyph-name="A" unicode="A" horiz-adv-x="581" d="M521 0h-74l-22 162H129L42 0h-78l389 712h61zM418 223l-53 384-204-384h257z"/><glyph glyph-name="B" unicode="B" horiz-adv-x="636" d="M610 552q0-56-31-109t-102-80q83-39 83-135 0-101-65-164.5T330 0H49l143 712h239q54 0 92-16t55.5-42 24.5-50.5 7-51.5zM487 226q0 50-30 77.5T374 331H188L134 64h194q70 0 114.5 45.5T487 226zm49 321q0 101-114 101H252l-51-252h178q72 0 114.5 44T536 547z"/><glyph glyph-name="C" unicode="C" horiz-adv-x="607" d="M592 509h-73q-1 67-36 106.5T385 655q-78 0-135-60-29-30-45.5-78T165 356q-23-119-23-168 0-60 39.5-95.5T278 57q70 0 118 42t70 104h74q-31-98-102-153.5T273-6q-87 0-145.5 51.5T69 186q0 56 23 170 28 135 47 188t60 96q75 78 188 78 99 0 151.5-57.5T592 509z"/><glyph glyph-name="D" unicode="D" horiz-adv-x="639" d="M613 518q0-44-21-154-25-130-50-193.5T470 65Q397 0 285 0H49l143 712h222q84 0 141.5-45.5T613 518zm-72-3q0 63-35 98.5T400 649H252L134 63h147q87 0 143 51 32 29 53.5 85.5T519 364q22 114 22 151z"/><glyph glyph-name="E" unicode="E" horiz-adv-x="572" d="M611 712l-13-63H252l-52-258h297l-12-63H188L134 63h353L475 0H49l143 712h419z"/><glyph glyph-name="F" unicode="F" horiz-adv-x="550" d="M611 712l-13-63H252l-53-269h296l-13-63H185L121 0H49l143 712h419z"/><glyph glyph-name="G" unicode="G" horiz-adv-x="619" d="M593 508h-73q-1 69-36 108t-98 39q-78 0-136-60-29-30-45.5-78.5T165 356q-23-118-23-168 0-59 40-95t96-36q64 0 121.5 48T476 251l11 59H321l11 62h239l-21-113q-22-119-89-188Q384-6 273-6q-88 0-146 52T69 186q0 55 23 170 28 136 47 188.5t60 95.5q75 78 189 78 99 0 151.5-57.5T593 508z"/><glyph glyph-name="H" unicode="H" horiz-adv-x="660" d="M657 712L514 0h-72l66 328H188L121 0H49l143 712h72l-63-321h320l64 321h72z"/><glyph glyph-name="I" unicode="I" horiz-adv-x="269" d="M264 712L121 0H49l143 712h72z"/><glyph glyph-name="J" unicode="J" horiz-adv-x="476" d="M482 712L382 213q-21-107-85-163T139-6Q41-6-12 60l53 45q40-48 104-48 62 0 106.5 43T312 225l97 487h73z"/><glyph glyph-name="K" unicode="K" horiz-adv-x="621" d="M667 712L399 433 563 0h-79L342 383 161 200 121 0H49l143 712h72l-81-405 393 405h91z"/><glyph glyph-name="L" unicode="L" horiz-adv-x="546" d="M482 63L470 0H49l143 712h72L134 63h348z"/><glyph glyph-name="M" unicode="M" horiz-adv-x="775" d="M772 712L629 0h-72l110 542-269-414h-62L232 548 121 0H49l143 712h70l119-495 320 495h71z"/><glyph glyph-name="N" unicode="N" horiz-adv-x="695" d="M692 712L549 0h-67L237 577 121 0H49l143 712h67l245-577 115 577h73z"/><glyph glyph-name="O" unicode="O" horiz-adv-x="617" d="M589 526q0-51-24-170-26-130-45.5-186T460 73Q384-6 267-6q-87 0-142.5 52.5T69 186q0 56 23 170 26 128 46 185t60 98q74 79 193 79 87 0 142.5-52.5T589 526zm-73-5q0 63-37.5 98.5T387 655q-81 0-138-60-27-29-44.5-78.5T165 356q-23-119-23-165 0-63 37.5-98.5T271 57q80 0 137 60 27 29 44.5 78T492 356q24 117 24 165z"/><glyph glyph-name="P" unicode="P" horiz-adv-x="598" d="M615 540q0-104-68-173t-184-69H181L121 0H49l143 712h242q92 0 136.5-49.5T615 540zm-73-3q0 48-28.5 79.5T424 648H251l-57-287h172q78 0 127 49.5T542 537z"/><glyph glyph-name="Q" unicode="Q" horiz-adv-x="617" d="M589 526q0-51-24-170-25-124-43.5-179T468 82l60-78-49-43-60 78Q352-6 267-6q-87 0-142.5 52.5T69 186q0 50 23 170 26 128 46 185t60 98q74 79 193 79 87 0 142.5-52.5T589 526zm-73-5q0 63-37.5 98.5T387 655q-81 0-138-60-27-29-44.5-78.5T165 356q-23-119-23-165 0-63 37.5-98.5T271 57q60 0 107 36l-71 93 49 43 67-89q21 28 35.5 74.5T492 356q24 117 24 165z"/><glyph glyph-name="R" unicode="R" horiz-adv-x="626" d="M614 548q0-81-50-143.5T426 325L530 0h-80l-98 320H186L121 0H49l143 712h245q93 0 135-47t42-117zm-73-4q0 49-28.5 76.5T428 648H252l-54-266h178q77 0 121 49t44 113z"/><glyph glyph-name="S" unicode="S" horiz-adv-x="559" d="M552 636l-52-44q-28 32-60 48t-83 16q-79 0-127.5-48T181 496q0-74 102-98l67-15q81-19 117.5-59T504 210q0-101-76.5-158.5T236-6q-74 0-125 23T16 92l55 48q65-82 172-82 79 0 133.5 42T431 207q0 51-26 75t-75 35l-67 16q-154 36-154 160 0 39 15 77.5t44 72 80 54.5 116 21q119 0 188-82z"/><glyph glyph-name="T" unicode="T" horiz-adv-x="521" d="M585 712l-13-64H377L247 0h-72l130 648H109l13 64h463z"/><glyph glyph-name="U" unicode="U" horiz-adv-x="649" d="M654 712l-95-478q-23-115-97.5-177.5T280-6q-80 0-139 49.5T82 187q0 24 7 61l92 464h73l-94-471q-5-28-5-51 0-54 32.5-93T287 58q72 0 128 48t74 140l92 466h73z"/><glyph glyph-name="V" unicode="V" horiz-adv-x="519" d="M604 712L243 0h-60l-83 712h73l64-582 288 582h79z"/><glyph glyph-name="W" unicode="W" horiz-adv-x="815" d="M890 712L581 0h-68l-38 573L208 0h-67l-33 712h75l20-577 264 577h65l37-577 243 577h78z"/><glyph glyph-name="X" unicode="X" horiz-adv-x="526" d="M587 712L325 361 466 0h-81L273 302 50 0h-85l279 371-130 341h81l101-284 205 284h86z"/><glyph glyph-name="Y" unicode="Y" horiz-adv-x="495" d="M575 712L293 291 234 0h-73l60 296-121 416h76l94-344 224 344h81z"/><glyph glyph-name="Z" unicode="Z" horiz-adv-x="532" d="M565 712l-12-60L101 64h341L429 0H6l14 67 447 581H143l12 64h410z"/><glyph glyph-name="bracketleft" unicode="[" horiz-adv-x="300" d="M362 786l-13-62h-96L106-12h104l-12-62H24l171 860h167z"/><glyph glyph-name="backslash" unicode="\" horiz-adv-x="335" d="M272-74h-66l-99 856h66z"/><glyph glyph-name="bracketright" unicode="]" horiz-adv-x="300" d="M320 786L149-74H-18l12 59h99l148 742H133l12 59h175z"/><glyph glyph-name="asciicircum" unicode="^" horiz-adv-x="514" d="M481 413h-68l-72 232-165-232h-75l217 305h67z"/><glyph glyph-name="underscore" unicode="_" horiz-adv-x="496" d="M425-113l-9-49H-80l9 49h496z"/><glyph glyph-name="grave" unicode="`" horiz-adv-x="502" d="M351 589h-63l-72 151h77z"/><glyph glyph-name="a" unicode="a" horiz-adv-x="501" d="M443 371q0-11-5-39L372 0h-69l11 49Q259-6 173-6 108-6 66.5 23T25 114q0 72 44 115 53 52 145 52h144l11 52q4 18 4 33 0 35-26 54t-73 19q-80 0-133-59l-41 48q65 71 178 71 30 0 56-5.5t52-18.5 41.5-39.5T443 371zm-95-142H221q-58 0-92.5-29T94 118q0-65 98-65 66 0 105 39 31 29 40 80z"/><glyph glyph-name="b" unicode="b" horiz-adv-x="519" d="M470 343q0-40-11-96-28-145-85-202Q323-6 243-6q-91 0-124 69L106 0H37l142 712h70l-55-275q49 62 135 62 68 0 104.5-40T470 343zm-71-9q0 103-88 103-69 0-103.5-50.5T156 247q-11-55-11-88 0-103 89-103 69 0 103 51t51 140q11 55 11 87z"/><glyph glyph-name="c" unicode="c" horiz-adv-x="466" d="M450 426l-52-44q-37 55-97 55-62 0-109-48-47-50-64-142-8-42-8-74 0-58 31-87.5T227 56q65 0 119 57l41-50Q318-6 223-6 139-6 94.5 43.5T50 171q0 40 7 76 22 122 88.5 187T308 499q90 0 142-73z"/><glyph glyph-name="d" unicode="d" horiz-adv-x="519" d="M526 712L384 0h-69l12 59Q273-6 190-6 49-6 49 149q0 45 11 98 28 143 85 200 52 52 132 52 88 0 122-68l57 281h70zM374 336q0 101-89 101-69 0-103-50.5T131 247q-11-55-11-89 0-102 88-102 69 0 103.5 51T363 247q11 55 11 89z"/><glyph glyph-name="e" unicode="e" horiz-adv-x="506" d="M453 330q0-36-12-101H123q-6-40-6-62 0-51 26.5-82T223 54q75 0 139 58l42-46Q326-6 218-6 143-6 96.5 37.5T50 164q0 58 14 115t41.5 107.5 76 81.5T293 499q76 0 118-47.5T453 330zm-68 0q0 55-27 82.5T290 440q-116 0-157-160h248q4 21 4 50z"/><glyph glyph-name="f" unicode="f" horiz-adv-x="299" d="M364 714l-12-60h-36q-64 0-78-70l-18-91h102l-11-53H209L121 0H51l88 440H80l10 53h59l19 95q25 126 143 126h53z"/><glyph glyph-name="g" unicode="g" horiz-adv-x="517" d="M481 493L380-11q-12-63-38-107.5T282.5-185 217-216t-67-9q-96 0-151 66l50 44q41-50 101-50 57 0 100.5 37.5T311-11l16 76Q277 2 191 2 125 2 87.5 42T50 154q0 39 11 97 26 140 83 197 51 51 132 51 91 0 124-69l12 63h69zM374 337q0 100-89 100-67 0-101.5-50.5T132 250q-11-57-11-86 0-100 89-100 117 0 153 187 11 57 11 86z"/><glyph glyph-name="h" unicode="h" horiz-adv-x="535" d="M474 360q0-19-6-49L406 0h-70l61 304q5 25 5 46 0 43-24.5 65.5T313 438q-17 0-35-5t-41.5-18-42.5-42-27-71L107 0H37l142 712h70l-54-272q53 59 141 59 60 0 99-37t39-102z"/><glyph glyph-name="i" unicode="i" horiz-adv-x="240" d="M205 493L107 0H37l98 493h70zm46 213l-15-73h-79l14 73h80z"/><glyph glyph-name="j" unicode="j" horiz-adv-x="241" d="M205 493L89-92Q63-220-56-220h-51l12 60h34q66 0 80 75l116 578h70zm46 213l-15-73h-79l14 73h80z"/><glyph glyph-name="k" unicode="k" horiz-adv-x="513" d="M502 493L305 301 438 0h-81L251 256 136 147 107 0H37l142 712h70l-94-471 257 252h90z"/><glyph glyph-name="l" unicode="l" horiz-adv-x="248" d="M247 712L131 134q-4-19-4-33 0-41 54-41h41L210 0h-52q-40 0-70.5 22T57 94q0 23 4 40l116 578h70z"/><glyph glyph-name="m" unicode="m" horiz-adv-x="834" d="M773 360q0-24-5-49L706 0h-71l61 304q6 32 6 46 0 43-25 65t-65 22q-16 0-34-5t-41.5-17.5T494 373t-27-71L406 0h-70l61 304q5 27 5 46 0 43-24.5 65T313 437q-12 0-26-2.5t-33-11-35-22.5-30.5-39.5T167 302L107 0H37l98 493h69l-11-55q53 61 146 61 87 0 123-82 66 82 173 82 60 0 99-37.5T773 360z"/><glyph glyph-name="n" unicode="n" horiz-adv-x="535" d="M474 360q0-19-6-49L406 0h-70l61 304q5 27 5 46 0 43-24.5 65.5T312 438q-16 0-34-5t-41.5-18-42.5-42-27-71L107 0H37l98 493h68l-10-55q53 61 145 61 58 0 97-37t39-102z"/><glyph glyph-name="o" unicode="o" horiz-adv-x="502" d="M452 337q0-36-10-91-27-138-93-199Q290-6 209-6 143-6 96.5 34T50 156q0 35 10 90 26 140 93 199 60 54 140 54 66 0 112.5-40T452 337zm-69-5q0 54-27 80t-69 26q-53 0-91-38-46-46-67-154-10-50-10-85 0-54 27-80t68-26q54 0 92 38 46 45 67 153 10 51 10 86z"/><glyph glyph-name="p" unicode="p" horiz-adv-x="519" d="M470 345q0-42-11-98-29-145-85-201Q322-6 242-6q-88 0-122 68L63-219H-7l142 712h69l-12-58q53 64 137 64 75 0 108-42.5T470 345zm-71-9q0 101-88 101-69 0-103.5-50.5T156 247q-11-55-11-89 0-102 89-102 69 0 103 51t51 140q11 55 11 89z"/><glyph glyph-name="q" unicode="q" horiz-adv-x="519" d="M483 493L341-219h-71l55 276Q276-6 190-6 122-6 85.5 34T49 150q0 41 11 97 28 145 85 202 50 50 132 50 90 0 123-69l13 63h70zM374 334q0 103-89 103-69 0-103-50.5T131 247q-11-55-11-88 0-103 88-103 69 0 103.5 51T363 247q11 55 11 87z"/><glyph glyph-name="r" unicode="r" horiz-adv-x="399" d="M437 453l-57-51q-27 35-70 35-52 0-92-38.5T167 302L107 0H37l98 493h69l-12-60q48 66 138 66 67 0 107-46z"/><glyph glyph-name="s" unicode="s" horiz-adv-x="470" d="M434 444l-50-43q-46 40-115 40-58 0-90.5-30T146 341q0-45 73-56l66-9q65-10 92.5-38t27.5-83q0-61-49-107Q301-6 187-6 70-6 5 65l52 45q48-56 136-56 67 0 104.5 30.5T335 153q0 31-17 44t-52 18l-67 10Q76 243 76 332q0 66 46 112 55 55 156 55 97 0 156-55z"/><glyph glyph-name="t" unicode="t" horiz-adv-x="318" d="M315 493l-11-53h-96l-62-306q-4-19-4-32 0-42 55-42h40L224 0h-50q-40 0-71 22T72 94q0 16 4 40l61 306H76l10 53h62l30 150h70l-30-150h97z"/><glyph glyph-name="u" unicode="u" horiz-adv-x="535" d="M498 493L400 0h-68l10 55Q289-6 199-6q-59 0-98.5 37T61 133q0 19 6 49l62 311h70l-61-304q-6-28-6-46 0-43 25-65.5T222 55q17 0 35 5t41.5 18 42.5 42 27 71l60 302h70z"/><glyph glyph-name="v" unicode="v" horiz-adv-x="425" d="M464 493L196 0h-63L60 493h71l50-397 205 397h78z"/><glyph glyph-name="w" unicode="w" horiz-adv-x="688" d="M724 493L485 0h-64l-48 382L176 0h-64L61 493h71l31-394 200 394h57l47-394 183 394h74z"/><glyph glyph-name="x" unicode="x" horiz-adv-x="458" d="M467 493L270 249 384 0h-82l-81 196L69 0h-86l206 256L81 493h81l78-185 141 185h86z"/><glyph glyph-name="y" unicode="y" horiz-adv-x="424" d="M462 493L134-118q-22-41-42-59-36-33-102-33h-31l13 62h21q34 0 51.5 13.5T82-83l49 94-71 482h70l51-397 204 397h77z"/><glyph glyph-name="z" unicode="z" horiz-adv-x="440" d="M439 493l-12-59L97 62h262L347 0H0l12 59 329 372H94l12 62h333z"/><glyph glyph-name="braceleft" unicode="{" horiz-adv-x="338" d="M397 786l-13-62h-25q-41 0-54.5-15T282 650l-39-194q-9-45-28-68t-53-33q43-24 43-71 0-18-3-33L165 66q-5-25-5-39 0-23 12-31t41-8h33l-12-62h-40Q88-74 88 16q0 8 6 44l38 188q3 11 1 35-4 44-51 44H62l13 62h24q27 0 48 19 19 16 28 60l38 189q8 42 17 64t29 39q31 26 95 26h43z"/><glyph glyph-name="bar" unicode="|" horiz-adv-x="310" d="M298 786L126-74H57l171 860h70z"/><glyph glyph-name="braceright" unicode="}" horiz-adv-x="338" d="M321 385l-13-62h-24q-28 0-49-19-19-16-28-60L170 55q-8-42-17-64t-29-39Q93-74 29-74h-43l12 62h26q41 0 54.5 15T101 62l39 194q9 45 28 68t53 33q-43 24-43 71 0 18 3 33l37 185q5 25 5 39 0 23-12 31t-41 8h-33l12 62h40q105 0 105-90 0-14-5-44l-38-188q-2-8-2-18 0-31 11.5-46t39.5-15h21z"/><glyph glyph-name="asciitilde" unicode="~" horiz-adv-x="513" d="M476 275q-72-64-131-64-41 0-101 32-41 22-70 22-36 0-90-44l-37 47q73 65 132 65 40 0 100-32 43-23 70-23 37 0 91 44z"/><glyph glyph-name="uni00A0" horiz-adv-x="236"/><glyph glyph-name="exclamdown" unicode="¡" horiz-adv-x="301" d="M176 296L85-219H3l113 515h60zm48 197l-17-86h-83l17 86h83z"/><glyph glyph-name="cent" unicode="¢" horiz-adv-x="476" d="M480 541l-51-42q-33 49-87 56l-71-379q54 3 107 57l40-48q-66-66-156-71L240 0h-56l23 117q-64 12-98.5 60.5T74 295q0 74 23.5 141.5t77 119T302 616l18 96h57l-19-95q77-10 122-76zm-186 12q-45-9-83-52-32-36-49.5-93.5T144 295q0-44 20.5-75.5T223 179z"/><glyph glyph-name="sterling" unicode="£" horiz-adv-x="522" d="M549 653l-53-46q-35 47-100 47-69 0-112-43t-58-121l-21-107h141l-11-51H195L142 64h298L427 0H56l67 332H63l9 51h61l23 115q45 220 249 220 90 0 144-65z"/><glyph glyph-name="currency" unicode="¤" horiz-adv-x="661" d="M579 66l-44-44-73 73q-60-44-131-44-74 0-132 44l-73-73-44 44 73 73q-44 58-44 132t44 132l-73 73 44 44 73-73q58 44 132 44 71 0 131-44l73 73 44-44-72-73q43-59 43-132t-43-132zm-92 205q0 65-45.5 111T331 428t-111-46-46-111 46-111 111-46 110.5 46T487 271z"/><glyph glyph-name="yen" unicode="¥" horiz-adv-x="490" d="M575 712L364 397h95l-10-50H330l-37-55-10-50h146l-10-51H273L235 0h-73l38 191H55l10 51h145l11 54-15 51H85l10 50h96l-91 315h76l94-344 224 344h81z"/><glyph glyph-name="brokenbar" unicode="¦" horiz-adv-x="319" d="M298 786l-70-350h-70l70 350h70zM196 276L126-74H57l69 350h70z"/><glyph glyph-name="section" unicode="§" horiz-adv-x="528" d="M497 584q0-14-1-19h-68q4 43-20.5 67T342 656q-54 0-88.5-32T219 540q0-59 65-81l67-22q40-14 69-48.5t29-92.5q0-69-33.5-125.5T314 84q68-33 68-116 0-86-56-139.5T176-225q-68 0-110 36.5T24-88q0 14 1 21h69q-5-45 19-70t72-25q53 0 89.5 33T311-38q0 63-66 86l-67 22q-40 14-69 48.5T80 211q0 69 34 126t101 86q-65 37-65 115 0 81 57 130.5T345 718q74 0 113-40.5t39-93.5zM380 291q0 45-26 68.5T290 383q-50 0-87-34-38-35-50-96-4-19-4-37 0-48 28-70.5t62-22.5q49 0 87 35 38 36 50 95 4 19 4 38z"/><glyph glyph-name="dieresis" unicode="¨" horiz-adv-x="501" d="M473 683l-17-87h-68l17 87h68zm-200 0l-17-87h-68l17 87h68z"/><glyph glyph-name="copyright" unicode="©" horiz-adv-x="835" d="M781 356q0-142-100.5-243T437 12 193.5 113 93 356t100.5 243T437 700t243.5-101T781 356zm-56 0q0 120-84.5 206T437 648t-203-86-84-206 84-206 203-86 203.5 86T725 356zM566 213q-56-50-124-50-80 0-124.5 53.5T273 356t44.5 140T442 550q66 0 124-51l-35-35q-42 37-89 37-61 0-88.5-40T326 356t27.5-105 88.5-40q47 0 89 37z"/><glyph glyph-name="ordfeminine" unicode="ª" horiz-adv-x="427" d="M419 613q0-16-3-31l-53-264h-55l7 38q-37-43-111-43-51 0-84.5 23.5T86 410q0 56 36 91 41 41 114 41h114l8 41q4 20 4 27 0 55-77 55-37 0-60.5-10T179 621l-34 40q55 55 143 55 32 0 59-7.5t49.5-31.5 22.5-64zm-77-114H242q-44 0-71.5-23.5T143 412q0-50 77-50 52 0 83 31 23 23 30 61z"/><glyph glyph-name="guillemotleft" unicode="«" horiz-adv-x="528" d="M285 478l-19-95-138-121 91-121-16-84L42 268zm216 0l-19-95-139-121 93-121-17-84-161 211z"/><glyph glyph-name="logicalnot" unicode="¬" horiz-adv-x="496" d="M460 308l-41-204h-64l28 139H48l13 65h399z"/><glyph glyph-name="uni00AD" unicode="­" horiz-adv-x="405" d="M345 302l-13-65H70l13 65h262z"/><glyph glyph-name="registered" unicode="®" horiz-adv-x="835" d="M781 356q0-142-100.5-243T437 12 193.5 113 93 356t100.5 243T437 700t243.5-101T781 356zm-55 0q0 121-84.5 207T437 649t-204-86-84-207 84-207 204-86 204.5 86T726 356zM582 168h-62l-86 154h-56V168h-54v377h129q50 0 84.5-33t34.5-80q0-40-22-66.5T492 328zm-64 264q0 28-20 47t-51 19h-69V367h69q31 0 51 18.5t20 46.5z"/><glyph glyph-name="macron" unicode="¯" horiz-adv-x="483" d="M480 665l-11-53H183l11 53h286z"/><glyph glyph-name="degree" unicode="°" horiz-adv-x="456" d="M450 556q0-68-47-114.5T288 395t-114.5 46.5T127 556t46.5 115T288 718t115-47 47-115zm-59 0q0 44-30 74.5T288 661q-44 0-73-30t-29-75 29-75 73-30 73.5 30 29.5 75z"/><glyph glyph-name="plusminus" unicode="±" horiz-adv-x="496" d="M467 352l-13-64H289l-35-179h-65l36 179H58l13 64h167l35 177h65l-36-177h165zM412 64L399 0H2l13 64h397z"/><glyph glyph-name="twosuperior" unicode="²" d="M342 617q0-60-63-123L122 335h168l-10-50H44l10 50 188 193q43 43 43 85 0 53-52 53-62 0-75-67h-55q21 117 135 117 51 0 77.5-27.5T342 617z"/><glyph glyph-name="threesuperior" unicode="³" d="M334 614q0-83-72-112 42-24 42-85 0-57-37-97t-105-40q-58 0-85 29t-27 65q0 12 2 24h56q-8-68 59-68 31 0 56 22.5t25 64.5q0 31-13 46.5T189 479h-9l10 48h8q41 0 60.5 25t19.5 60q0 28-15 41t-36 13q-61 0-77-64H94q26 114 137 114 47 0 75-28t28-74z"/><glyph glyph-name="acute" unicode="´" horiz-adv-x="484" d="M468 740L340 589h-70l118 151h80z"/><glyph glyph-name="mu" unicode="µ" horiz-adv-x="536" d="M499 493L401 0h-69l10 55Q289-6 197-6q-58 0-90 40L57-219h-70l142 712h70l-61-304q-5-27-5-46 0-43 25-65t65-22q16 0 34 5t41.5 17.5T341 120t27 71l60 302h71z"/><glyph glyph-name="paragraph" unicode="¶" horiz-adv-x="574" d="M571 712L385-219h-70l172 866H377L204-219h-70l112 561q-66 3-109 51T94 508q0 83 61.5 143.5T332 712h239z"/><glyph glyph-name="periodcentered" unicode="·" horiz-adv-x="257" d="M187 315l-18-90H79l18 90h90z"/><glyph glyph-name="cedilla" unicode="¸" horiz-adv-x="502" d="M239-65l-84-147H80l94 147h65z"/><glyph glyph-name="onesuperior" unicode="¹" d="M294 712l-86-427h-54l72 361-95-71 13 68 95 69h55z"/><glyph glyph-name="ordmasculine" unicode="º" horiz-adv-x="432" d="M425 586q0-29-7-71-22-113-74-159-48-42-112-42-20 0-39.5 5.5T152 338t-34 40.5-13 65.5q0 29 7 71 22 111 74 158 49 43 113 43 20 0 39.5-5.5t40-18.5 33.5-40.5 13-65.5zm-56-4q0 43-22 62.5T294 664q-43 0-72-29-36-36-53-120-8-44-8-68 0-43 22-62.5t53-19.5q43 0 73 30 35 35 52 120 8 44 8 67z"/><glyph glyph-name="guillemotright" unicode="»" horiz-adv-x="528" d="M496 267L253 57l19 95 138 121-91 121 16 84zm-216 0L37 57l19 95 139 121-93 121 17 84z"/><glyph glyph-name="onequarter" unicode="¼" horiz-adv-x="787" d="M294 712l-86-427h-54l72 361-95-71 13 68 95 69h55zm381 0L216 0h-60l459 712h60zm67-596l-9-50h-46L674 0h-54l14 66H468l10 50 203 311h62L538 116h105l21 105h54l-21-105h45z"/><glyph glyph-name="onehalf" unicode="½" horiz-adv-x="787" d="M294 712l-86-427h-54l72 361-95-71 13 68 95 69h55zm381 0L216 0h-60l459 712h60zm93-380q0-60-63-123L548 50h168L706 0H470l10 50 188 193q43 43 43 85 0 53-52 53-62 0-75-67h-55q21 117 135 117 51 0 77.5-27.5T768 332z"/><glyph glyph-name="threequarters" unicode="¾" horiz-adv-x="787" d="M334 615q0-84-71-112 22-13 31.5-32t9.5-53q0-57-37-97t-105-40q-57 0-84 29t-27 65q0 18 1 24h56q-8-68 60-68 31 0 56 22t25 65q0 62-59 62h-9l10 48h7q42 0 61.5 24t19.5 60q0 29-14.5 42T228 667q-61 0-78-65H95q26 114 136 114 47 0 75-27.5t28-73.5zm341 97L216 0h-60l459 712h60zm67-596l-9-50h-46L674 0h-54l14 66H468l10 50 203 311h62L538 116h105l21 105h54l-21-105h45z"/><glyph glyph-name="questiondown" unicode="¿" horiz-adv-x="474" d="M347-47q-16-84-72.5-131T133-225q-62 0-105.5 40T-16-78q0 78 70 158l101 117q24 28 30 58l8 42h70l-9-45q-11-53-48-95L106 42Q55-17 55-74q0-38 23.5-63t65.5-25q50 0 85.5 30.5T276-47h71zm-45 540l-16-86h-83l16 86h83z"/><glyph glyph-name="Agrave" unicode="À" horiz-adv-x="581" d="M521 0h-74l-22 162H129L42 0h-78l389 712h61zM418 223l-53 384-204-384h257zm0 552h-63l-71 151h77z"/><glyph glyph-name="Aacute" unicode="Á" horiz-adv-x="581" d="M521 0h-74l-22 162H129L42 0h-78l389 712h61zM418 223l-53 384-204-384h257zm117 703L407 775h-69l117 151h80z"/><glyph glyph-name="Acircumflex" unicode="Â" horiz-adv-x="581" d="M521 0h-74l-22 162H129L42 0h-78l389 712h61zM418 223l-53 384-204-384h257zm118 552h-61l-65 107-109-107h-68l149 153h65z"/><glyph glyph-name="Atilde" unicode="Ã" horiz-adv-x="581" d="M521 0h-74l-22 162H129L42 0h-78l389 712h61zM418 223l-53 384-204-384h257zm132 614q-51-48-96-48-36 0-69 24-27 20-51 20-27 0-62-34l-30 37q51 48 96 48 36 0 69-24 27-20 51-20 27 0 62 34z"/><glyph glyph-name="Adieresis" unicode="Ä" horiz-adv-x="581" d="M521 0h-74l-22 162H129L42 0h-78l389 712h61zM418 223l-53 384-204-384h257zm122 647l-17-87h-68l17 87h68zm-200 0l-17-87h-68l17 87h68z"/><glyph glyph-name="Aring" unicode="Å" horiz-adv-x="581" d="M521 0h-74l-22 162H129L42 0h-78l389 712h61zM418 223l-53 384-204-384h257zm92 639q0-49-34.5-83.5T393 744q-49 0-83.5 34.5T275 862t34.5 83.5T393 980q48 0 82.5-34.5T510 862zm-47 0q0 28-21 49t-49 21q-29 0-50-21t-21-49 21.5-49 49.5-21 49 21 21 49z"/><glyph glyph-name="AE" unicode="Æ" horiz-adv-x="881" d="M920 712l-13-63H561l-52-260h296l-13-64H496L444 63h351L782 0H359l34 173H161L41 0h-82l499 712h462zm-431-63L202 234h204z"/><glyph glyph-name="Ccedilla" unicode="Ç" horiz-adv-x="607" d="M592 509h-73q-1 67-36 106.5T385 655q-78 0-135-60-29-30-45.5-78T165 356q-23-119-23-168 0-60 39.5-95.5T278 57q70 0 118 42t70 104h74q-31-98-102-153.5T273-6q-87 0-145.5 51.5T69 186q0 56 23 170 28 135 47 188t60 96q75 78 188 78 99 0 151.5-57.5T592 509zM297-65l-84-147h-75l94 147h65z"/><glyph glyph-name="Egrave" unicode="È" horiz-adv-x="572" d="M611 712l-13-63H252l-52-258h297l-12-63H188L134 63h353L475 0H49l143 712h419zm-179 63h-63l-71 151h77z"/><glyph glyph-name="Eacute" unicode="É" horiz-adv-x="572" d="M611 712l-13-63H252l-52-258h297l-12-63H188L134 63h353L475 0H49l143 712h419zm-62 214L421 775h-69l117 151h80z"/><glyph glyph-name="Ecircumflex" unicode="Ê" horiz-adv-x="572" d="M611 712l-13-63H252l-52-258h297l-12-63H188L134 63h353L475 0H49l143 712h419zm-61 63h-61l-65 107-109-107h-68l149 153h65z"/><glyph glyph-name="Edieresis" unicode="Ë" horiz-adv-x="572" d="M611 712l-13-63H252l-52-258h297l-12-63H188L134 63h353L475 0H49l143 712h419zm-57 158l-17-87h-68l17 87h68zm-200 0l-17-87h-68l17 87h68z"/><glyph glyph-name="Igrave" unicode="Ì" horiz-adv-x="269" d="M264 712L121 0H49l143 712h72zm17 63h-63l-71 151h77z"/><glyph glyph-name="Iacute" unicode="Í" horiz-adv-x="269" d="M264 712L121 0H49l143 712h72zm131 214L267 775h-69l117 151h80z"/><glyph glyph-name="Icircumflex" unicode="Î" horiz-adv-x="269" d="M264 712L121 0H49l143 712h72zm118 63h-61l-65 107-109-107H79l149 153h65z"/><glyph glyph-name="Idieresis" unicode="Ï" horiz-adv-x="269" d="M264 712L121 0H49l143 712h72zm122 158l-17-87h-68l17 87h68zm-200 0l-17-87h-68l17 87h68z"/><glyph glyph-name="Eth" unicode="Ð" horiz-adv-x="652" d="M626 518q0-44-21-154-26-131-50.5-194T483 65Q412 0 298 0H62l66 331H55l11 56h73l66 325h221q39 0 72.5-9.5T562 672t47-60.5 17-93.5zm-72-3q0 63-34.5 98.5T413 649H265l-53-262h154l-11-56H201L147 63h147q87 0 143 51 32 29 53 84.5T532 364q22 114 22 151z"/><glyph glyph-name="Ntilde" unicode="Ñ" horiz-adv-x="695" d="M692 712L549 0h-67L237 577 121 0H49l143 712h67l245-577 115 577h73zm-83 125q-51-48-96-48-36 0-69 24-27 20-51 20-27 0-62-34l-30 37q51 48 96 48 36 0 69-24 28-20 51-20 27 0 62 34z"/><glyph glyph-name="Ograve" unicode="Ò" horiz-adv-x="617" d="M589 526q0-51-24-170-26-130-45.5-186T460 73Q384-6 267-6q-87 0-142.5 52.5T69 186q0 56 23 170 26 128 46 185t60 98q74 79 193 79 87 0 142.5-52.5T589 526zm-73-5q0 63-37.5 98.5T387 655q-81 0-138-60-27-29-44.5-78.5T165 356q-23-119-23-165 0-63 37.5-98.5T271 57q80 0 137 60 27 29 44.5 78T492 356q24 117 24 165zm-81 254h-63l-71 151h77z"/><glyph glyph-name="Oacute" unicode="Ó" horiz-adv-x="617" d="M589 526q0-51-24-170-26-130-45.5-186T460 73Q384-6 267-6q-87 0-142.5 52.5T69 186q0 56 23 170 26 128 46 185t60 98q74 79 193 79 87 0 142.5-52.5T589 526zm-73-5q0 63-37.5 98.5T387 655q-81 0-138-60-27-29-44.5-78.5T165 356q-23-119-23-165 0-63 37.5-98.5T271 57q80 0 137 60 27 29 44.5 78T492 356q24 117 24 165zm36 405L424 775h-69l117 151h80z"/><glyph glyph-name="Ocircumflex" unicode="Ô" horiz-adv-x="617" d="M589 526q0-51-24-170-26-130-45.5-186T460 73Q384-6 267-6q-87 0-142.5 52.5T69 186q0 56 23 170 26 128 46 185t60 98q74 79 193 79 87 0 142.5-52.5T589 526zm-73-5q0 63-37.5 98.5T387 655q-81 0-138-60-27-29-44.5-78.5T165 356q-23-119-23-165 0-63 37.5-98.5T271 57q80 0 137 60 27 29 44.5 78T492 356q24 117 24 165zm37 254h-61l-65 107-109-107h-68l149 153h65z"/><glyph glyph-name="Otilde" unicode="Õ" horiz-adv-x="617" d="M589 526q0-51-24-170-26-130-45.5-186T460 73Q384-6 267-6q-87 0-142.5 52.5T69 186q0 56 23 170 26 128 46 185t60 98q74 79 193 79 87 0 142.5-52.5T589 526zm-73-5q0 63-37.5 98.5T387 655q-81 0-138-60-27-29-44.5-78.5T165 356q-23-119-23-165 0-63 37.5-98.5T271 57q80 0 137 60 27 29 44.5 78T492 356q24 117 24 165zm51 316q-51-48-96-48-36 0-69 24-27 20-51 20-27 0-62-34l-30 37q51 48 96 48 36 0 69-24 28-20 51-20 27 0 62 34z"/><glyph glyph-name="Odieresis" unicode="Ö" horiz-adv-x="617" d="M589 526q0-51-24-170-26-130-45.5-186T460 73Q384-6 267-6q-87 0-142.5 52.5T69 186q0 56 23 170 26 128 46 185t60 98q74 79 193 79 87 0 142.5-52.5T589 526zm-73-5q0 63-37.5 98.5T387 655q-81 0-138-60-27-29-44.5-78.5T165 356q-23-119-23-165 0-63 37.5-98.5T271 57q80 0 137 60 27 29 44.5 78T492 356q24 117 24 165zm41 349l-17-87h-68l17 87h68zm-200 0l-17-87h-68l17 87h68z"/><glyph glyph-name="multiply" unicode="×" horiz-adv-x="496" d="M468 416L296 267l115-152-49-43-115 152L75 75l-37 48 172 149L95 425l50 43 115-153 172 149z"/><glyph glyph-name="Oslash" unicode="Ø" horiz-adv-x="618" d="M589 526q0-51-24-170-26-130-45.5-186T460 73Q384-6 267-6q-69 0-118 32l-46-70H40l70 105q-41 50-41 125 0 56 23 170 26 128 46 185t60 98q74 79 193 79 68 0 118-33l46 71h63l-69-108q40-50 40-122zM142 191q0-37 12-62l318 496q-36 30-85 30-81 0-138-60-27-29-44.5-78.5T165 356q-23-119-23-165zm374 330q0 30-12 61L186 86q37-29 85-29 80 0 137 60 27 29 44.5 78T492 356q24 117 24 165z"/><glyph glyph-name="Ugrave" unicode="Ù" horiz-adv-x="649" d="M654 712l-95-478q-23-115-97.5-177.5T280-6q-80 0-139 49.5T82 187q0 24 7 61l92 464h73l-94-471q-5-28-5-51 0-54 32.5-93T287 58q72 0 128 48t74 140l92 466h73zm-200 63h-63l-71 151h77z"/><glyph glyph-name="Uacute" unicode="Ú" horiz-adv-x="649" d="M654 712l-95-478q-23-115-97.5-177.5T280-6q-80 0-139 49.5T82 187q0 24 7 61l92 464h73l-94-471q-5-28-5-51 0-54 32.5-93T287 58q72 0 128 48t74 140l92 466h73zm-83 214L443 775h-69l117 151h80z"/><glyph glyph-name="Ucircumflex" unicode="Û" horiz-adv-x="649" d="M654 712l-95-478q-23-115-97.5-177.5T280-6q-80 0-139 49.5T82 187q0 24 7 61l92 464h73l-94-471q-5-28-5-51 0-54 32.5-93T287 58q72 0 128 48t74 140l92 466h73zm-81 63h-61l-65 107-109-107h-68l149 153h65z"/><glyph glyph-name="Udieresis" unicode="Ü" horiz-adv-x="649" d="M654 712l-95-478q-23-115-97.5-177.5T280-6q-80 0-139 49.5T82 187q0 24 7 61l92 464h73l-94-471q-5-28-5-51 0-54 32.5-93T287 58q72 0 128 48t74 140l92 466h73zm-78 158l-17-87h-68l17 87h68zm-200 0l-17-87h-68l17 87h68z"/><glyph glyph-name="Yacute" unicode="Ý" horiz-adv-x="495" d="M575 712L293 291 234 0h-73l60 296-121 416h76l94-344 224 344h81zm-86 214L361 775h-69l117 151h80z"/><glyph glyph-name="Thorn" unicode="Þ" horiz-adv-x="611" d="M586 396q0-105-68-174t-184-69H153L121 0H49l143 712h72l-29-144h169q92 0 137-49.5T586 396zm-73-4q0 48-28.5 80T395 504H223l-58-287h172q78 0 127 49t49 126z"/><glyph glyph-name="germandbls" unicode="ß" horiz-adv-x="531" d="M525 574q0-44-22.5-83T438 429q44-24 44-77 0-15-5-38l-33-172q-13-68-55-105T283 0h-57l11 60h41q32 0 60 21t37 68l34 170q3 15 3 25 0 29-17.5 43.5T349 402h-44l12 58h35q47 0 75 34t28 78q0 39-20 59-27 27-76 27-120 0-147-136L107 0H37l105 525q39 194 224 194 71 0 115-38t44-107z"/><glyph glyph-name="agrave" unicode="à" horiz-adv-x="501" d="M443 371q0-11-5-39L372 0h-69l11 49Q259-6 173-6 108-6 66.5 23T25 114q0 72 44 115 53 52 145 52h144l11 52q4 18 4 33 0 35-26 54t-73 19q-80 0-133-59l-41 48q65 71 178 71 30 0 56-5.5t52-18.5 41.5-39.5T443 371zm-95-142H221q-58 0-92.5-29T94 118q0-65 98-65 66 0 105 39 31 29 40 80zm-10 360h-63l-72 151h77z"/><glyph glyph-name="aacute" unicode="á" horiz-adv-x="501" d="M443 371q0-11-5-39L372 0h-69l11 49Q259-6 173-6 108-6 66.5 23T25 114q0 72 44 115 53 52 145 52h144l11 52q4 18 4 33 0 35-26 54t-73 19q-80 0-133-59l-41 48q65 71 178 71 30 0 56-5.5t52-18.5 41.5-39.5T443 371zm-95-142H221q-58 0-92.5-29T94 118q0-65 98-65 66 0 105 39 31 29 40 80zm107 511L327 589h-70l118 151h80z"/><glyph glyph-name="acircumflex" unicode="â" horiz-adv-x="501" d="M443 371q0-11-5-39L372 0h-69l11 49Q259-6 173-6 108-6 66.5 23T25 114q0 72 44 115 53 52 145 52h144l11 52q4 18 4 33 0 35-26 54t-73 19q-80 0-133-59l-41 48q65 71 178 71 30 0 56-5.5t52-18.5 41.5-39.5T443 371zm-95-142H221q-58 0-92.5-29T94 118q0-65 98-65 66 0 105 39 31 29 40 80zm108 359h-62l-65 107-108-107h-69l150 153h64z"/><glyph glyph-name="atilde" unicode="ã" horiz-adv-x="501" d="M443 371q0-11-5-39L372 0h-69l11 49Q259-6 173-6 108-6 66.5 23T25 114q0 72 44 115 53 52 145 52h144l11 52q4 18 4 33 0 35-26 54t-73 19q-80 0-133-59l-41 48q65 71 178 71 30 0 56-5.5t52-18.5 41.5-39.5T443 371zm-95-142H221q-58 0-92.5-29T94 118q0-65 98-65 66 0 105 39 31 29 40 80zm121 420q-51-48-96-48-36 0-69 24-27 20-52 20t-62-34l-29 37q51 48 96 48 34 0 69-24 26-20 51-20t62 34z"/><glyph glyph-name="adieresis" unicode="ä" horiz-adv-x="501" d="M443 371q0-11-5-39L372 0h-69l11 49Q259-6 173-6 108-6 66.5 23T25 114q0 72 44 115 53 52 145 52h144l11 52q4 18 4 33 0 35-26 54t-73 19q-80 0-133-59l-41 48q65 71 178 71 30 0 56-5.5t52-18.5 41.5-39.5T443 371zm-95-142H221q-58 0-92.5-29T94 118q0-65 98-65 66 0 105 39 31 29 40 80zm112 454l-17-87h-68l17 87h68zm-200 0l-17-87h-68l17 87h68z"/><glyph glyph-name="aring" unicode="å" horiz-adv-x="501" d="M443 371q0-11-5-39L372 0h-69l11 49Q259-6 173-6 108-6 66.5 23T25 114q0 72 44 115 53 52 145 52h144l11 52q4 18 4 33 0 35-26 54t-73 19q-80 0-133-59l-41 48q65 71 178 71 30 0 56-5.5t52-18.5 41.5-39.5T443 371zm-95-142H221q-58 0-92.5-29T94 118q0-65 98-65 66 0 105 39 31 29 40 80zm93 457q0-49-34-83.5T324 568t-83 34.5-34 83.5 34 83 83 34 83-34 34-83zm-46 0q0 28-21 48.5T324 755t-50-20.5-21-48.5 21.5-49.5T324 615t49.5 21.5T395 686z"/><glyph glyph-name="ae" unicode="æ" horiz-adv-x="799" d="M746 330q0-36-12-101H416q-6-40-6-62 0-51 27-82t80-31q74 0 138 58l42-46Q619-6 511-6q-51 0-90.5 22.5T362 80Q306-6 183-6 25-6 25 114q0 70 44 114 51 52 144 52h146l10 52q4 20 4 34 0 36-26 54.5T274 439q-81 0-134-59l-40 47q65 72 178 72 114 0 149-78 61 78 159 78 76 0 118-47.5T746 330zM348 229H220q-58 0-92-29t-34-83q0-65 97-65 65 0 106 39 31 31 40 80zm331 101q0 55-27 82.5T584 440q-116 0-158-160h248q5 27 5 50z"/><glyph glyph-name="ccedilla" unicode="ç" horiz-adv-x="466" d="M450 426l-52-44q-37 55-97 55-62 0-109-48-47-50-64-142-8-42-8-74 0-58 31-87.5T227 56q65 0 119 57l41-50Q318-6 223-6 139-6 94.5 43.5T50 171q0 40 7 76 22 122 88.5 187T308 499q90 0 142-73zM243-65l-84-147H84l94 147h65z"/><glyph glyph-name="egrave" unicode="è" horiz-adv-x="506" d="M453 330q0-36-12-101H123q-6-40-6-62 0-51 26.5-82T223 54q75 0 139 58l42-46Q326-6 218-6 143-6 96.5 37.5T50 164q0 58 14 115t41.5 107.5 76 81.5T293 499q76 0 118-47.5T453 330zm-68 0q0 55-27 82.5T290 440q-116 0-157-160h248q4 21 4 50zm-32 259h-63l-72 151h77z"/><glyph glyph-name="eacute" unicode="é" horiz-adv-x="506" d="M453 330q0-36-12-101H123q-6-40-6-62 0-51 26.5-82T223 54q75 0 139 58l42-46Q326-6 218-6 143-6 96.5 37.5T50 164q0 58 14 115t41.5 107.5 76 81.5T293 499q76 0 118-47.5T453 330zm-68 0q0 55-27 82.5T290 440q-116 0-157-160h248q4 21 4 50zm85 410L342 589h-70l118 151h80z"/><glyph glyph-name="ecircumflex" unicode="ê" horiz-adv-x="506" d="M453 330q0-36-12-101H123q-6-40-6-62 0-51 26.5-82T223 54q75 0 139 58l42-46Q326-6 218-6 143-6 96.5 37.5T50 164q0 58 14 115t41.5 107.5 76 81.5T293 499q76 0 118-47.5T453 330zm-68 0q0 55-27 82.5T290 440q-116 0-157-160h248q4 21 4 50zm86 258h-62l-65 107-108-107h-69l150 153h64z"/><glyph glyph-name="edieresis" unicode="ë" horiz-adv-x="506" d="M453 330q0-36-12-101H123q-6-40-6-62 0-51 26.5-82T223 54q75 0 139 58l42-46Q326-6 218-6 143-6 96.5 37.5T50 164q0 58 14 115t41.5 107.5 76 81.5T293 499q76 0 118-47.5T453 330zm-68 0q0 55-27 82.5T290 440q-116 0-157-160h248q4 21 4 50zm90 353l-17-87h-68l17 87h68zm-200 0l-17-87h-68l17 87h68z"/><glyph glyph-name="igrave" unicode="ì" horiz-adv-x="240" d="M205 493L107 0H37l98 493h70zm9 96h-63L79 740h77z"/><glyph glyph-name="iacute" unicode="í" horiz-adv-x="240" d="M346 740L218 589h-70l118 151h80zM205 493L107 0H37l98 493h70z"/><glyph glyph-name="icircumflex" unicode="î" horiz-adv-x="240" d="M205 493L107 0H37l98 493h70zm127 95h-62l-65 107L97 588H28l150 153h64z"/><glyph glyph-name="idieresis" unicode="ï" horiz-adv-x="240" d="M205 493L107 0H37l98 493h70zm-74 190l-17-87H46l17 87h68zm201 0l-17-87h-68l17 87h68z"/><glyph glyph-name="eth" unicode="ð" horiz-adv-x="504" d="M446 632l-9-51h-54l40-111q28-81 28-139 0-34-10-86-28-143-93-199Q289-6 209-6q-25 0-49.5 7T109 24.5 67 75t-16 82q0 38 10 88 28 140 92 197 56 51 137 51 36 0 62-13l-38 101H202l10 51h87l-30 82h70l29-82h78zm-65-300q0 53-27 77.5T288 434q-53 0-91-38-44-43-66-151-10-53-10-87 0-53 27-78t66-25q52 0 91 39 44 43 66 151 10 53 10 87z"/><glyph glyph-name="ntilde" unicode="ñ" horiz-adv-x="535" d="M474 360q0-19-6-49L406 0h-70l61 304q5 27 5 46 0 43-24.5 65.5T312 438q-16 0-34-5t-41.5-18-42.5-42-27-71L107 0H37l98 493h68l-10-55q53 61 145 61 58 0 97-37t39-102zm24 289q-51-48-96-48-36 0-69 24-27 20-52 20t-62-34l-29 37q51 48 96 48 34 0 69-24 26-20 51-20t62 34z"/><glyph glyph-name="ograve" unicode="ò" horiz-adv-x="502" d="M452 337q0-36-10-91-27-138-93-199Q290-6 209-6 143-6 96.5 34T50 156q0 35 10 90 26 140 93 199 60 54 140 54 66 0 112.5-40T452 337zm-69-5q0 54-27 80t-69 26q-53 0-91-38-46-46-67-154-10-50-10-85 0-54 27-80t68-26q54 0 92 38 46 45 67 153 10 51 10 86zm-32 257h-63l-72 151h77z"/><glyph glyph-name="oacute" unicode="ó" horiz-adv-x="502" d="M452 337q0-36-10-91-27-138-93-199Q290-6 209-6 143-6 96.5 34T50 156q0 35 10 90 26 140 93 199 60 54 140 54 66 0 112.5-40T452 337zm-69-5q0 54-27 80t-69 26q-53 0-91-38-46-46-67-154-10-50-10-85 0-54 27-80t68-26q54 0 92 38 46 45 67 153 10 51 10 86zm85 408L340 589h-70l118 151h80z"/><glyph glyph-name="ocircumflex" unicode="ô" horiz-adv-x="502" d="M452 337q0-36-10-91-27-138-93-199Q290-6 209-6 143-6 96.5 34T50 156q0 35 10 90 26 140 93 199 60 54 140 54 66 0 112.5-40T452 337zm-69-5q0 54-27 80t-69 26q-53 0-91-38-46-46-67-154-10-50-10-85 0-54 27-80t68-26q54 0 92 38 46 45 67 153 10 51 10 86zm86 256h-62l-65 107-108-107h-69l150 153h64z"/><glyph glyph-name="otilde" unicode="õ" horiz-adv-x="502" d="M452 337q0-36-10-91-27-138-93-199Q290-6 209-6 143-6 96.5 34T50 156q0 35 10 90 26 140 93 199 60 54 140 54 66 0 112.5-40T452 337zm-69-5q0 54-27 80t-69 26q-53 0-91-38-46-46-67-154-10-50-10-85 0-54 27-80t68-26q54 0 92 38 46 45 67 153 10 51 10 86zm99 317q-51-48-96-48-36 0-69 24-28 20-52 20-25 0-62-34l-29 37q51 48 96 48 34 0 69-24 26-20 51-20t62 34z"/><glyph glyph-name="odieresis" unicode="ö" horiz-adv-x="502" d="M452 337q0-36-10-91-27-138-93-199Q290-6 209-6 143-6 96.5 34T50 156q0 35 10 90 26 140 93 199 60 54 140 54 66 0 112.5-40T452 337zm-69-5q0 54-27 80t-69 26q-53 0-91-38-46-46-67-154-10-50-10-85 0-54 27-80t68-26q54 0 92 38 46 45 67 153 10 51 10 86zm90 351l-17-87h-68l17 87h68zm-200 0l-17-87h-68l17 87h68z"/><glyph glyph-name="divide" unicode="÷" horiz-adv-x="496" d="M459 302l-13-64H47l13 64h399zM335 484l-16-84h-83l17 84h82zm-65-344l-16-83h-83l17 83h82z"/><glyph glyph-name="oslash" unicode="ø" horiz-adv-x="503" d="M452 337q0-39-10-91-29-141-93-198Q289-6 209-6q-60 0-100 29L59-44H4l74 99Q50 94 50 156q0 43 9 90 28 141 93 199 60 54 141 54 56 0 97-28l50 66h56l-73-98q29-40 29-102zm-69-5q0 26-8 48L149 78q24-23 66-23 52 0 91 39 46 46 67 152 10 50 10 86zM119 161q0-27 6-45l226 300q-26 22-64 22-52 0-91-39-46-45-67-153-10-50-10-85z"/><glyph glyph-name="ugrave" unicode="ù" horiz-adv-x="535" d="M498 493L400 0h-68l10 55Q289-6 199-6q-59 0-98.5 37T61 133q0 19 6 49l62 311h70l-61-304q-6-28-6-46 0-43 25-65.5T222 55q17 0 35 5t41.5 18 42.5 42 27 71l60 302h70zm-136 96h-63l-72 151h77z"/><glyph glyph-name="uacute" unicode="ú" horiz-adv-x="535" d="M498 493L400 0h-68l10 55Q289-6 199-6q-59 0-98.5 37T61 133q0 19 6 49l62 311h70l-61-304q-6-28-6-46 0-43 25-65.5T222 55q17 0 35 5t41.5 18 42.5 42 27 71l60 302h70zm-19 247L351 589h-70l118 151h80z"/><glyph glyph-name="ucircumflex" unicode="û" horiz-adv-x="535" d="M498 493L400 0h-68l10 55Q289-6 199-6q-59 0-98.5 37T61 133q0 19 6 49l62 311h70l-61-304q-6-28-6-46 0-43 25-65.5T222 55q17 0 35 5t41.5 18 42.5 42 27 71l60 302h70zm-18 95h-62l-65 107-108-107h-69l150 153h64z"/><glyph glyph-name="udieresis" unicode="ü" horiz-adv-x="535" d="M498 493L400 0h-68l10 55Q289-6 199-6q-59 0-98.5 37T61 133q0 19 6 49l62 311h70l-61-304q-6-28-6-46 0-43 25-65.5T222 55q17 0 35 5t41.5 18 42.5 42 27 71l60 302h70zm-14 190l-17-87h-68l17 87h68zm-200 0l-17-87h-68l17 87h68z"/><glyph glyph-name="yacute" unicode="ý" horiz-adv-x="424" d="M462 493L134-118q-22-41-42-59-36-33-102-33h-31l13 62h21q34 0 51.5 13.5T82-83l49 94-71 482h70l51-397 204 397h77zm-39 247L295 589h-70l118 151h80z"/><glyph glyph-name="thorn" unicode="þ" horiz-adv-x="519" d="M470 345q0-42-11-98-29-146-85-202Q323-6 243-6q-90 0-123 68L63-219H-7l186 931h70l-55-275q50 62 136 62 71 0 105.5-41.5T470 345zm-71-11q0 103-88 103-69 0-103.5-50.5T156 247q-11-55-11-88 0-103 89-103 69 0 103 51t51 140q11 55 11 87z"/><glyph glyph-name="ydieresis" unicode="ÿ" horiz-adv-x="424" d="M462 493L134-118q-22-41-42-59-36-33-102-33h-31l13 62h21q34 0 51.5 13.5T82-83l49 94-71 482h70l51-397 204 397h77zm-34 190l-17-87h-68l17 87h68zm-200 0l-17-87h-68l17 87h68z"/><glyph glyph-name="Amacron" unicode="Ā" horiz-adv-x="581" d="M521 0h-74l-22 162H129L42 0h-78l389 712h61zM418 223l-53 384-204-384h257zM259 851h287l-11-53H248z"/><glyph glyph-name="amacron" unicode="ā" horiz-adv-x="501" d="M443 371q0-11-5-39L372 0h-69l11 49Q259-6 173-6 108-6 66.5 23T25 114q0 72 44 115 53 52 145 52h144l11 52q4 18 4 33 0 35-26 54t-73 19q-80 0-133-59l-41 48q65 71 178 71 30 0 56-5.5t52-18.5 41.5-39.5T443 371zm-95-142H221q-58 0-92.5-29T94 118q0-65 98-65 66 0 105 39 31 29 40 80zm119 436l-11-53H170l11 53h286z"/><glyph glyph-name="Abreve" unicode="Ă" horiz-adv-x="581" d="M521 0h-74l-22 162H129L42 0h-78l389 712h61zM418 223l-53 384-204-384h257zm132 675q-30-126-156-126-58 0-91 26.5T270 874q0 13 1 24h55q-1-10-1-18 0-26 20-40t55-14q78 0 94 72h56z"/><glyph glyph-name="abreve" unicode="ă" horiz-adv-x="501" d="M443 371q0-11-5-39L372 0h-69l11 49Q259-6 173-6 108-6 66.5 23T25 114q0 72 44 115 53 52 145 52h144l11 52q4 18 4 33 0 35-26 54t-73 19q-80 0-133-59l-41 48q65 71 178 71 30 0 56-5.5t52-18.5 41.5-39.5T443 371zm-95-142H221q-58 0-92.5-29T94 118q0-65 98-65 66 0 105 39 31 29 40 80zm119 477q-28-125-155-125-58 0-91 26.5T188 683q0 12 1 23h55q-1-9-1-18 0-25 20-39t55-14q76 0 94 71h55z"/><glyph glyph-name="Aogonek" unicode="Ą" horiz-adv-x="581" d="M521 0h-74l-22 162H129L42 0h-78l389 712h61zM418 223l-53 384-204-384h257zm87-288l-84-147h-75l94 147h65z"/><glyph glyph-name="aogonek" unicode="ą" horiz-adv-x="501" d="M443 371q0-11-5-39L372 0h-69l11 49Q259-6 173-6 108-6 66.5 23T25 114q0 72 44 115 53 52 145 52h144l11 52q4 18 4 33 0 35-26 54t-73 19q-80 0-133-59l-41 48q65 71 178 71 30 0 56-5.5t52-18.5 41.5-39.5T443 371zm-95-142H221q-58 0-92.5-29T94 118q0-65 98-65 66 0 105 39 31 29 40 80zm7-294l-84-147h-75l94 147h65z"/><glyph glyph-name="Cacute" unicode="Ć" horiz-adv-x="607" d="M592 509h-73q-1 67-36 106.5T385 655q-78 0-135-60-29-30-45.5-78T165 356q-23-119-23-168 0-60 39.5-95.5T278 57q70 0 118 42t70 104h74q-31-98-102-153.5T273-6q-87 0-145.5 51.5T69 186q0 56 23 170 28 135 47 188t60 96q75 78 188 78 99 0 151.5-57.5T592 509zm-40 417L424 775h-69l117 151h80z"/><glyph glyph-name="cacute" unicode="ć" horiz-adv-x="466" d="M450 426l-52-44q-37 55-97 55-62 0-109-48-47-50-64-142-8-42-8-74 0-58 31-87.5T227 56q65 0 119 57l41-50Q318-6 223-6 139-6 94.5 43.5T50 171q0 40 7 76 22 122 88.5 187T308 499q90 0 142-73zm32 314L354 589h-70l118 151h80z"/><glyph glyph-name="Ccircumflex" unicode="Ĉ" horiz-adv-x="607" d="M592 509h-73q-1 67-36 106.5T385 655q-78 0-135-60-29-30-45.5-78T165 356q-23-119-23-168 0-60 39.5-95.5T278 57q70 0 118 42t70 104h74q-31-98-102-153.5T273-6q-87 0-145.5 51.5T69 186q0 56 23 170 28 135 47 188t60 96q75 78 188 78 99 0 151.5-57.5T592 509zm-39 266h-61l-65 107-109-107h-68l149 153h65z"/><glyph glyph-name="ccircumflex" unicode="ĉ" horiz-adv-x="466" d="M450 426l-52-44q-37 55-97 55-62 0-109-48-47-50-64-142-8-42-8-74 0-58 31-87.5T227 56q65 0 119 57l41-50Q318-6 223-6 139-6 94.5 43.5T50 171q0 40 7 76 22 122 88.5 187T308 499q90 0 142-73zm33 162h-62l-65 107-108-107h-69l150 153h64z"/><glyph glyph-name="Cdotaccent" unicode="Ċ" horiz-adv-x="607" d="M592 509h-73q-1 67-36 106.5T385 655q-78 0-135-60-29-30-45.5-78T165 356q-23-119-23-168 0-60 39.5-95.5T278 57q70 0 118 42t70 104h74q-31-98-102-153.5T273-6q-87 0-145.5 51.5T69 186q0 56 23 170 28 135 47 188t60 96q75 78 188 78 99 0 151.5-57.5T592 509zM460 866l-15-74h-72l15 74h72z"/><glyph glyph-name="cdotaccent" unicode="ċ" horiz-adv-x="466" d="M450 426l-52-44q-37 55-97 55-62 0-109-48-47-50-64-142-8-42-8-74 0-58 31-87.5T227 56q65 0 119 57l41-50Q318-6 223-6 139-6 94.5 43.5T50 171q0 40 7 76 22 122 88.5 187T308 499q90 0 142-73zm-61 253l-15-74h-72l15 74h72z"/><glyph glyph-name="Ccaron" unicode="Č" horiz-adv-x="607" d="M592 509h-73q-1 67-36 106.5T385 655q-78 0-135-60-29-30-45.5-78T165 356q-23-119-23-168 0-60 39.5-95.5T278 57q70 0 118 42t70 104h74q-31-98-102-153.5T273-6q-87 0-145.5 51.5T69 186q0 56 23 170 28 135 47 188t60 96q75 78 188 78 99 0 151.5-57.5T592 509zm-6 419L437 775h-64l-90 153h61l65-107 109 107h68z"/><glyph glyph-name="ccaron" unicode="č" horiz-adv-x="466" d="M450 426l-52-44q-37 55-97 55-62 0-109-48-47-50-64-142-8-42-8-74 0-58 31-87.5T227 56q65 0 119 57l41-50Q318-6 223-6 139-6 94.5 43.5T50 171q0 40 7 76 22 122 88.5 187T308 499q90 0 142-73zm58 315L358 588h-64l-90 153h62l65-107 108 107h69z"/><glyph glyph-name="Dcaron" unicode="Ď" horiz-adv-x="639" d="M613 518q0-44-21-154-25-130-50-193.5T470 65Q397 0 285 0H49l143 712h222q84 0 141.5-45.5T613 518zm-72-3q0 63-35 98.5T400 649H252L134 63h147q87 0 143 51 32 29 53.5 85.5T519 364q22 114 22 151zm50 413L442 775h-64l-90 153h61l65-107 109 107h68z"/><glyph glyph-name="dcaron" unicode="ď" horiz-adv-x="519" d="M526 712L384 0h-69l12 59Q273-6 190-6 49-6 49 149q0 45 11 98 28 143 85 200 52 52 132 52 88 0 122-68l57 281h70zM374 336q0 101-89 101-69 0-103-50.5T131 247q-11-55-11-89 0-102 88-102 69 0 103.5 51T363 247q11 55 11 89zm329 383l-80-153h-59l69 153h70z"/><glyph glyph-name="Dcroat" unicode="Đ" horiz-adv-x="652" d="M626 518q0-44-21-154-26-131-50.5-194T483 65Q412 0 298 0H62l66 331H55l11 56h73l66 325h221q39 0 72.5-9.5T562 672t47-60.5 17-93.5zm-72-3q0 63-34.5 98.5T413 649H265l-53-262h154l-11-56H201L147 63h147q87 0 143 51 32 29 53 84.5T532 364q22 114 22 151z"/><glyph glyph-name="dcroat" unicode="đ" horiz-adv-x="517" d="M566 620l-9-47h-59L384 0h-69l12 59Q273-6 190-6 49-6 49 149q0 45 11 98 28 143 85 200 52 52 132 52 88 0 122-68l29 142H306l9 47h122l19 92h70l-19-92h59zM374 336q0 101-89 101-69 0-103-50.5T131 247q-11-55-11-89 0-102 88-102 69 0 103.5 51T363 247q11 55 11 89z"/><glyph glyph-name="Emacron" unicode="Ē" horiz-adv-x="572" d="M611 712l-13-63H252l-52-258h297l-12-63H188L134 63h353L475 0H49l143 712h419zM273 851h287l-11-53H262z"/><glyph glyph-name="emacron" unicode="ē" horiz-adv-x="506" d="M453 330q0-36-12-101H123q-6-40-6-62 0-51 26.5-82T223 54q75 0 139 58l42-46Q326-6 218-6 143-6 96.5 37.5T50 164q0 58 14 115t41.5 107.5 76 81.5T293 499q76 0 118-47.5T453 330zm-68 0q0 55-27 82.5T290 440q-116 0-157-160h248q4 21 4 50zm97 335l-11-53H185l11 53h286z"/><glyph glyph-name="Ebreve" unicode="Ĕ" horiz-adv-x="572" d="M611 712l-13-63H252l-52-258h297l-12-63H188L134 63h353L475 0H49l143 712h419zm-72 186q-30-126-156-126-58 0-91 26.5T259 874q0 13 1 24h55q-1-10-1-18 0-26 20-40t55-14q77 0 94 72h56z"/><glyph glyph-name="ebreve" unicode="ĕ" horiz-adv-x="506" d="M453 330q0-36-12-101H123q-6-40-6-62 0-51 26.5-82T223 54q75 0 139 58l42-46Q326-6 218-6 143-6 96.5 37.5T50 164q0 58 14 115t41.5 107.5 76 81.5T293 499q76 0 118-47.5T453 330zm-68 0q0 55-27 82.5T290 440q-116 0-157-160h248q4 21 4 50zm88 376q-28-125-155-125-58 0-91 26.5T194 683q0 12 1 23h55q-1-9-1-18 0-25 20-39t55-14q76 0 94 71h55z"/><glyph glyph-name="Edotaccent" unicode="Ė" horiz-adv-x="572" d="M611 712l-13-63H252l-52-258h297l-12-63H188L134 63h353L475 0H49l143 712h419zM457 866l-15-74h-72l15 74h72z"/><glyph glyph-name="edotaccent" unicode="ė" horiz-adv-x="506" d="M453 330q0-36-12-101H123q-6-40-6-62 0-51 26.5-82T223 54q75 0 139 58l42-46Q326-6 218-6 143-6 96.5 37.5T50 164q0 58 14 115t41.5 107.5 76 81.5T293 499q76 0 118-47.5T453 330zm-68 0q0 55-27 82.5T290 440q-116 0-157-160h248q4 21 4 50zm-8 349l-15-74h-72l15 74h72z"/><glyph glyph-name="Eogonek" unicode="Ę" horiz-adv-x="572" d="M611 712l-13-63H252l-52-258h297l-12-63H188L134 63h353L475 0H49l143 712h419zM454-65l-84-147h-75l94 147h65z"/><glyph glyph-name="eogonek" unicode="ę" horiz-adv-x="506" d="M453 330q0-36-12-101H123q-6-40-6-62 0-51 26.5-82T223 54q75 0 139 58l42-46Q326-6 218-6 143-6 96.5 37.5T50 164q0 58 14 115t41.5 107.5 76 81.5T293 499q76 0 118-47.5T453 330zm-68 0q0 55-27 82.5T290 440q-116 0-157-160h248q4 21 4 50zM311-65l-84-147h-75l94 147h65z"/><glyph glyph-name="Ecaron" unicode="Ě" horiz-adv-x="572" d="M611 712l-13-63H252l-52-258h297l-12-63H188L134 63h353L475 0H49l143 712h419zm-36 216L426 775h-64l-90 153h61l65-107 109 107h68z"/><glyph glyph-name="ecaron" unicode="ě" horiz-adv-x="506" d="M453 330q0-36-12-101H123q-6-40-6-62 0-51 26.5-82T223 54q75 0 139 58l42-46Q326-6 218-6 143-6 96.5 37.5T50 164q0 58 14 115t41.5 107.5 76 81.5T293 499q76 0 118-47.5T453 330zm-68 0q0 55-27 82.5T290 440q-116 0-157-160h248q4 21 4 50zm111 411L346 588h-64l-90 153h62l65-107 108 107h69z"/><glyph glyph-name="Gcircumflex" unicode="Ĝ" horiz-adv-x="619" d="M593 508h-73q-1 69-36 108t-98 39q-78 0-136-60-29-30-45.5-78.5T165 356q-23-118-23-168 0-59 40-95t96-36q64 0 121.5 48T476 251l11 59H321l11 62h239l-21-113q-22-119-89-188Q384-6 273-6q-88 0-146 52T69 186q0 55 23 170 28 136 47 188.5t60 95.5q75 78 189 78 99 0 151.5-57.5T593 508zm-40 267h-61l-65 107-109-107h-68l149 153h65z"/><glyph glyph-name="gcircumflex" unicode="ĝ" horiz-adv-x="517" d="M481 493L380-11q-12-63-38-107.5T282.5-185 217-216t-67-9q-96 0-151 66l50 44q41-50 101-50 57 0 100.5 37.5T311-11l16 76Q277 2 191 2 125 2 87.5 42T50 154q0 39 11 97 26 140 83 197 51 51 132 51 91 0 124-69l12 63h69zM374 337q0 100-89 100-67 0-101.5-50.5T132 250q-11-57-11-86 0-100 89-100 117 0 153 187 11 57 11 86zm91 251h-62l-65 107-108-107h-69l150 153h64z"/><glyph glyph-name="Gbreve" unicode="Ğ" horiz-adv-x="619" d="M593 508h-73q-1 69-36 108t-98 39q-78 0-136-60-29-30-45.5-78.5T165 356q-23-118-23-168 0-59 40-95t96-36q64 0 121.5 48T476 251l11 59H321l11 62h239l-21-113q-22-119-89-188Q384-6 273-6q-88 0-146 52T69 186q0 55 23 170 28 136 47 188.5t60 95.5q75 78 189 78 99 0 151.5-57.5T593 508zm-26 390q-30-126-156-126-58 0-91 26.5T287 874q0 13 1 24h55q-1-10-1-18 0-26 20-40t55-14q77 0 94 72h56z"/><glyph glyph-name="gbreve" unicode="ğ" horiz-adv-x="517" d="M481 493L380-11q-12-63-38-107.5T282.5-185 217-216t-67-9q-96 0-151 66l50 44q41-50 101-50 57 0 100.5 37.5T311-11l16 76Q277 2 191 2 125 2 87.5 42T50 154q0 39 11 97 26 140 83 197 51 51 132 51 91 0 124-69l12 63h69zM374 337q0 100-89 100-67 0-101.5-50.5T132 250q-11-57-11-86 0-100 89-100 117 0 153 187 11 57 11 86zm102 369q-28-125-155-125-58 0-91 26.5T197 683q0 12 1 23h55q-1-9-1-18 0-25 20-39t55-14q76 0 94 71h55z"/><glyph glyph-name="Gdotaccent" unicode="Ġ" horiz-adv-x="619" d="M593 508h-73q-1 69-36 108t-98 39q-78 0-136-60-29-30-45.5-78.5T165 356q-23-118-23-168 0-59 40-95t96-36q64 0 121.5 48T476 251l11 59H321l11 62h239l-21-113q-22-119-89-188Q384-6 273-6q-88 0-146 52T69 186q0 55 23 170 28 136 47 188.5t60 95.5q75 78 189 78 99 0 151.5-57.5T593 508zM460 866l-15-74h-72l15 74h72z"/><glyph glyph-name="gdotaccent" unicode="ġ" horiz-adv-x="517" d="M481 493L380-11q-12-63-38-107.5T282.5-185 217-216t-67-9q-96 0-151 66l50 44q41-50 101-50 57 0 100.5 37.5T311-11l16 76Q277 2 191 2 125 2 87.5 42T50 154q0 39 11 97 26 140 83 197 51 51 132 51 91 0 124-69l12 63h69zM374 337q0 100-89 100-67 0-101.5-50.5T132 250q-11-57-11-86 0-100 89-100 117 0 153 187 11 57 11 86zm-3 342l-15-74h-72l15 74h72z"/><glyph glyph-name="Gcommaaccent" unicode="Ģ" horiz-adv-x="619" d="M593 508h-73q-1 69-36 108t-98 39q-78 0-136-60-29-30-45.5-78.5T165 356q-23-118-23-168 0-59 40-95t96-36q64 0 121.5 48T476 251l11 59H321l11 62h239l-21-113q-22-119-89-188Q384-6 273-6q-88 0-146 52T69 186q0 55 23 170 28 136 47 188.5t60 95.5q75 78 189 78 99 0 151.5-57.5T593 508zM297-65l-84-147h-76l94 147h66z"/><glyph glyph-name="gcommaaccent" unicode="ģ" horiz-adv-x="517" d="M481 493L380-11q-12-63-38-107.5T282.5-185 217-216t-67-9q-96 0-151 66l50 44q41-50 101-50 57 0 100.5 37.5T311-11l16 76Q277 2 191 2 125 2 87.5 42T50 154q0 39 11 97 26 140 83 197 51 51 132 51 91 0 124-69l12 63h69zM374 337q0 100-89 100-67 0-101.5-50.5T132 250q-11-57-11-86 0-100 89-100 117 0 153 187 11 57 11 86zm90 403L336 589h-69l117 151h80z"/><glyph glyph-name="Hcircumflex" unicode="Ĥ" horiz-adv-x="660" d="M657 712L514 0h-72l66 328H188L121 0H49l143 712h72l-63-321h320l64 321h72zm-74 63h-61l-65 107-109-107h-68l149 153h65z"/><glyph glyph-name="hcircumflex" unicode="ĥ" horiz-adv-x="535" d="M474 360q0-19-6-49L406 0h-70l61 304q5 25 5 46 0 43-24.5 65.5T313 438q-17 0-35-5t-41.5-18-42.5-42-27-71L107 0H37l142 712h70l-54-272q53 59 141 59 60 0 99-37t39-102zm-96 419h-62l-65 107-108-107H74l150 153h64z"/><glyph glyph-name="Hbar" unicode="Ħ" horiz-adv-x="716" d="M707 573l-12-58h-72L520 0h-72l66 328H194L127 0H55l103 515H86l12 58h72l28 139h72l-27-139h320l28 139h72l-28-139h72zm-156-58H231l-24-124h320z"/><glyph glyph-name="hbar" unicode="ħ" horiz-adv-x="544" d="M482 360q0-22-5-49L414 0h-70l61 304q5 27 5 46 0 43-24.5 65T321 437q-12 0-26-2.5t-33-11-35-22.5-30.5-39.5T175 302L115 0H45l114 573H99l9 47h60l19 92h70l-19-92h121l-9-47H229l-26-132q53 58 143 58 59 0 97.5-37T482 360z"/><glyph glyph-name="Itilde" unicode="Ĩ" horiz-adv-x="269" d="M264 712L121 0H49l143 712h72zm136 125q-51-48-96-48-36 0-69 24-28 20-51 20-27 0-62-34l-30 37q51 48 96 48 36 0 69-24 28-20 51-20 27 0 62 34z"/><glyph glyph-name="itilde" unicode="ĩ" horiz-adv-x="240" d="M205 493L107 0H37l98 493h70zm145 156q-51-48-96-48-36 0-69 24-28 20-52 20-25 0-62-34l-29 37q51 48 96 48 34 0 69-24 26-20 51-20t62 34z"/><glyph glyph-name="Imacron" unicode="Ī" horiz-adv-x="269" d="M264 712L121 0H49l143 712h72zM105 851h287l-11-53H94z"/><glyph glyph-name="imacron" unicode="ī" horiz-adv-x="240" d="M205 493L107 0H37l98 493h70zm139 172l-11-53H47l11 53h286z"/><glyph glyph-name="Ibreve" unicode="Ĭ" horiz-adv-x="269" d="M264 712L121 0H49l143 712h72zm137 186q-30-126-156-126-58 0-91 26.5T121 874q0 13 1 24h55q-1-10-1-18 0-26 20-40t55-14q77 0 94 72h56z"/><glyph glyph-name="ibreve" unicode="ĭ" horiz-adv-x="240" d="M205 493L107 0H37l98 493h70zm141 213q-28-125-155-125-58 0-91 26.5T67 683q0 12 1 23h55q-1-9-1-18 0-25 20-39t55-14q76 0 94 71h55z"/><glyph glyph-name="Iogonek" unicode="Į" horiz-adv-x="269" d="M264 712L121 0H49l143 712h72zM104-65L20-212h-75L39-65h65z"/><glyph glyph-name="iogonek" unicode="į" horiz-adv-x="240" d="M205 493L107 0H37l98 493h70zm46 213l-15-73h-79l14 73h80zM90-65L6-212h-75L25-65h65z"/><glyph glyph-name="Idotaccent" unicode="İ" horiz-adv-x="269" d="M264 712L121 0H49l143 712h72zm33 154l-15-74h-72l15 74h72z"/><glyph glyph-name="dotlessi" unicode="ı" horiz-adv-x="240" d="M205 493L107 0H37l98 493h70z"/><glyph glyph-name="IJ" unicode="Ĳ" horiz-adv-x="745" d="M264 712L121 0H49l143 712h72zm487 0L651 213q-21-107-85-163T408-6q-98 0-151 66l53 45q40-48 104-48 62 0 106.5 43T581 225l97 487h73z"/><glyph glyph-name="ij" unicode="ĳ" horiz-adv-x="481" d="M205 493L107 0H37l98 493h70zm46 213l-15-73h-79l14 73h80zm194-213L329-92q-26-128-145-128h-51l12 60h34q66 0 80 75l116 578h70zm46 213l-15-73h-79l14 73h80z"/><glyph glyph-name="Jcircumflex" unicode="Ĵ" horiz-adv-x="476" d="M482 712L382 213q-21-107-85-163T139-6Q41-6-12 60l53 45q40-48 104-48 62 0 106.5 43T312 225l97 487h73zm121 63h-61l-65 107-109-107h-68l149 153h65z"/><glyph glyph-name="jcircumflex" unicode="ĵ" horiz-adv-x="241" d="M205 493L89-92Q63-220-56-220h-51l12 60h34q66 0 80 75l116 578h70zm127 95h-62l-65 107L97 588H28l150 153h64z"/><glyph glyph-name="Kcommaaccent" unicode="Ķ" horiz-adv-x="621" d="M667 712L399 433 563 0h-79L342 383 161 200 121 0H49l143 712h72l-81-405 393 405h91zM308-65l-84-147h-76l94 147h66z"/><glyph glyph-name="kcommaaccent" unicode="ķ" horiz-adv-x="513" d="M502 493L305 301 438 0h-81L251 256 136 147 107 0H37l142 712h70l-94-471 257 252h90zM257-65l-84-147H97l94 147h66z"/><glyph glyph-name="kgreenlandic" unicode="ĸ" horiz-adv-x="513" d="M502 493L305 301 438 0h-81L251 256 136 147 107 0H37l98 493h70l-50-252 257 252h90z"/><glyph glyph-name="Lacute" unicode="Ĺ" horiz-adv-x="546" d="M482 63L470 0H49l143 712h72L134 63h348zm-91 863L263 775h-69l117 151h80z"/><glyph glyph-name="lacute" unicode="ĺ" horiz-adv-x="248" d="M247 712L131 134q-4-19-4-33 0-41 54-41h41L210 0h-52q-40 0-70.5 22T57 94q0 23 4 40l116 578h70zm137 219L256 780h-70l118 151h80z"/><glyph glyph-name="Lcommaaccent" unicode="Ļ" horiz-adv-x="546" d="M482 63L470 0H49l143 712h72L134 63h348zM293-65l-84-147h-76l94 147h66z"/><glyph glyph-name="lcommaaccent" unicode="ļ" horiz-adv-x="248" d="M247 712L131 134q-4-19-4-33 0-41 54-41h41L210 0h-52q-40 0-70.5 22T57 94q0 23 4 40l116 578h70zM140-65L56-212h-76L74-65h66z"/><glyph glyph-name="Lcaron" unicode="Ľ" horiz-adv-x="546" d="M482 63L470 0H49l143 712h72L134 63h348zm-12 649l-80-153h-59l69 153h70z"/><glyph glyph-name="lcaron" unicode="ľ" horiz-adv-x="248" d="M247 712L131 134q-4-19-4-33 0-41 54-41h41L210 0h-52q-40 0-70.5 22T57 94q0 23 4 40l116 578h70zm179 7l-80-153h-59l69 153h70z"/><glyph glyph-name="Ldot" unicode="Ŀ" horiz-adv-x="546" d="M482 63L470 0H49l143 712h72L134 63h348zm-10 333l-15-74h-72l15 74h72z"/><glyph glyph-name="ldot" unicode="ŀ" horiz-adv-x="275" d="M247 712L131 134q-4-19-4-33 0-41 54-41h41L210 0h-52q-40 0-70.5 22T57 94q0 23 4 40l116 578h70zm57-405l-15-74h-72l15 74h72z"/><glyph glyph-name="Lslash" unicode="Ł" horiz-adv-x="555" d="M491 63L479 0H58l58 291-78-46 13 66 79 46 71 355h72l-61-310 166 98-13-66-167-98-55-273h348z"/><glyph glyph-name="lslash" unicode="ł" horiz-adv-x="303" d="M291 496l-13-63-86-50-49-249q-5-23-5-33 0-41 55-41h41L221 0h-51q-40 0-71 22T68 94q0 23 4 40l42 208-67-39 12 64 68 38 61 307h70l-53-265z"/><glyph glyph-name="Nacute" unicode="Ń" horiz-adv-x="695" d="M692 712L549 0h-67L237 577 121 0H49l143 712h67l245-577 115 577h73zm-98 214L466 775h-69l117 151h80z"/><glyph glyph-name="nacute" unicode="ń" horiz-adv-x="535" d="M474 360q0-19-6-49L406 0h-70l61 304q5 27 5 46 0 43-24.5 65.5T312 438q-16 0-34-5t-41.5-18-42.5-42-27-71L107 0H37l98 493h68l-10-55q53 61 145 61 58 0 97-37t39-102zm10 380L356 589h-70l118 151h80z"/><glyph glyph-name="Ncommaaccent" unicode="Ņ" horiz-adv-x="695" d="M692 712L549 0h-67L237 577 121 0H49l143 712h67l245-577 115 577h73zM342-65l-84-147h-76l94 147h66z"/><glyph glyph-name="ncommaaccent" unicode="ņ" horiz-adv-x="535" d="M474 360q0-19-6-49L406 0h-70l61 304q5 27 5 46 0 43-24.5 65.5T312 438q-16 0-34-5t-41.5-18-42.5-42-27-71L107 0H37l98 493h68l-10-55q53 61 145 61 58 0 97-37t39-102zM269-65l-84-147h-76l94 147h66z"/><glyph glyph-name="Ncaron" unicode="Ň" horiz-adv-x="695" d="M692 712L549 0h-67L237 577 121 0H49l143 712h67l245-577 115 577h73zm-72 216L471 775h-64l-90 153h61l65-107 109 107h68z"/><glyph glyph-name="ncaron" unicode="ň" horiz-adv-x="535" d="M474 360q0-19-6-49L406 0h-70l61 304q5 27 5 46 0 43-24.5 65.5T312 438q-16 0-34-5t-41.5-18-42.5-42-27-71L107 0H37l98 493h68l-10-55q53 61 145 61 58 0 97-37t39-102zm36 381L360 588h-64l-90 153h62l65-107 108 107h69z"/><glyph glyph-name="napostrophe" unicode="ŉ" horiz-adv-x="535" d="M474 360q0-19-6-49L406 0h-70l61 304q5 27 5 46 0 43-24.5 65.5T312 438q-16 0-34-5t-41.5-18-42.5-42-27-71L107 0H37l98 493h68l-10-55q53 61 145 61 58 0 97-37t39-102zM180 721l-26-127-80-63 39 190h67z"/><glyph glyph-name="Eng" unicode="Ŋ" horiz-adv-x="695" d="M692 712L533-84q-26-128-145-128h-51l12 60h38q66 0 80 75l15 77-245 577L121 0H49l143 712h67l245-577 115 577h73z"/><glyph glyph-name="eng" unicode="ŋ" horiz-adv-x="535" d="M474 360q0-19-6-49L390-84q-26-128-145-128h-51l12 60h35q66 0 80 75l76 381q5 27 5 46 0 43-24.5 65.5T312 438q-16 0-34-5t-41.5-18-42.5-42-27-71L107 0H37l98 493h68l-10-55q53 61 145 61 58 0 97-37t39-102z"/><glyph glyph-name="Omacron" unicode="Ō" horiz-adv-x="617" d="M589 526q0-51-24-170-26-130-45.5-186T460 73Q384-6 267-6q-87 0-142.5 52.5T69 186q0 56 23 170 26 128 46 185t60 98q74 79 193 79 87 0 142.5-52.5T589 526zm-73-5q0 63-37.5 98.5T387 655q-81 0-138-60-27-29-44.5-78.5T165 356q-23-119-23-165 0-63 37.5-98.5T271 57q80 0 137 60 27 29 44.5 78T492 356q24 117 24 165zM276 851h287l-11-53H265z"/><glyph glyph-name="omacron" unicode="ō" horiz-adv-x="502" d="M452 337q0-36-10-91-27-138-93-199Q290-6 209-6 143-6 96.5 34T50 156q0 35 10 90 26 140 93 199 60 54 140 54 66 0 112.5-40T452 337zm-69-5q0 54-27 80t-69 26q-53 0-91-38-46-46-67-154-10-50-10-85 0-54 27-80t68-26q54 0 92 38 46 45 67 153 10 51 10 86zm97 333l-11-53H183l11 53h286z"/><glyph glyph-name="Obreve" unicode="Ŏ" horiz-adv-x="617" d="M589 526q0-51-24-170-26-130-45.5-186T460 73Q384-6 267-6q-87 0-142.5 52.5T69 186q0 56 23 170 26 128 46 185t60 98q74 79 193 79 87 0 142.5-52.5T589 526zm-73-5q0 63-37.5 98.5T387 655q-81 0-138-60-27-29-44.5-78.5T165 356q-23-119-23-165 0-63 37.5-98.5T271 57q80 0 137 60 27 29 44.5 78T492 356q24 117 24 165zm43 377q-30-126-156-126-58 0-91 26.5T279 874q0 13 1 24h55q-1-10-1-18 0-26 20-40t55-14q77 0 94 72h56z"/><glyph glyph-name="obreve" unicode="ŏ" horiz-adv-x="502" d="M452 337q0-36-10-91-27-138-93-199Q290-6 209-6 143-6 96.5 34T50 156q0 35 10 90 26 140 93 199 60 54 140 54 66 0 112.5-40T452 337zm-69-5q0 54-27 80t-69 26q-53 0-91-38-46-46-67-154-10-50-10-85 0-54 27-80t68-26q54 0 92 38 46 45 67 153 10 51 10 86zm88 374q-28-125-155-125-58 0-91 26.5T192 683q0 12 1 23h55q-1-9-1-18 0-25 20-39t55-14q76 0 94 71h55z"/><glyph glyph-name="Ohungarumlaut" unicode="Ő" horiz-adv-x="617" d="M589 526q0-51-24-170-26-130-45.5-186T460 73Q384-6 267-6q-87 0-142.5 52.5T69 186q0 56 23 170 26 128 46 185t60 98q74 79 193 79 87 0 142.5-52.5T589 526zm-73-5q0 63-37.5 98.5T387 655q-81 0-138-60-27-29-44.5-78.5T165 356q-23-119-23-165 0-63 37.5-98.5T271 57q80 0 137 60 27 29 44.5 78T492 356q24 117 24 165zm124 405L511 775h-68l117 151h80zm-156 0L356 775h-69l117 151h80z"/><glyph glyph-name="ohungarumlaut" unicode="ő" horiz-adv-x="502" d="M452 337q0-36-10-91-27-138-93-199Q290-6 209-6 143-6 96.5 34T50 156q0 35 10 90 26 140 93 199 60 54 140 54 66 0 112.5-40T452 337zm-69-5q0 54-27 80t-69 26q-53 0-91-38-46-46-67-154-10-50-10-85 0-54 27-80t68-26q54 0 92 38 46 45 67 153 10 51 10 86zm173 407L427 588h-69l117 151h81zm-156 0L271 588h-69l117 151h81z"/><glyph glyph-name="OE" unicode="Œ" horiz-adv-x="936" d="M975 712l-13-64H622l-52-257h292l-12-63H558L504 64h349L840 0H424l13 66Q373-6 266-6q-87 0-142 52.5T69 186q0 50 23 170 26 128 46 185t60 98q74 79 192 79 115 0 159-87l16 81h410zM516 521q0 63-37.5 98.5T387 655q-81 0-138-60-27-29-44.5-78.5T165 356q-23-119-23-165 0-63 37.5-98.5T271 57q80 0 137 60 27 29 44.5 78T492 356q24 117 24 165z"/><glyph glyph-name="oe" unicode="œ" horiz-adv-x="821" d="M768 330q0-39-13-101H438q-6-32-6-62 0-51 26.5-82T538 54q75 0 139 58l41-46Q642-6 533-6 418-6 383 93 321-6 209-6 143-6 96.5 34T50 156q0 43 9 90 27 140 93 199 61 54 141 54 50 0 88-24.5t54-73.5q61 98 173 98 76 0 118-47.5T768 330zm-385 2q0 54-27 80t-69 26q-53 0-91-38-46-46-67-154-10-50-10-85 0-54 27-80t68-26q54 0 92 38 46 45 67 153 10 51 10 86zm317-2q0 55-27 82.5T605 440q-116 0-157-160h248q4 21 4 50z"/><glyph glyph-name="Racute" unicode="Ŕ" horiz-adv-x="626" d="M614 548q0-81-50-143.5T426 325L530 0h-80l-98 320H186L121 0H49l143 712h245q93 0 135-47t42-117zm-73-4q0 49-28.5 76.5T428 648H252l-54-266h178q77 0 121 49t44 113zm11 382L424 775h-69l117 151h80z"/><glyph glyph-name="racute" unicode="ŕ" horiz-adv-x="399" d="M437 453l-57-51q-27 35-70 35-52 0-92-38.5T167 302L107 0H37l98 493h69l-12-60q48 66 138 66 67 0 107-46zm-51 287L258 589h-70l118 151h80z"/><glyph glyph-name="Rcommaaccent" unicode="Ŗ" horiz-adv-x="626" d="M614 548q0-81-50-143.5T426 325L530 0h-80l-98 320H186L121 0H49l143 712h245q93 0 135-47t42-117zm-73-4q0 49-28.5 76.5T428 648H252l-54-266h178q77 0 121 49t44 113zM306-65l-84-147h-76l94 147h66z"/><glyph glyph-name="rcommaaccent" unicode="ŗ" horiz-adv-x="399" d="M437 453l-57-51q-27 35-70 35-52 0-92-38.5T167 302L107 0H37l98 493h69l-12-60q48 66 138 66 67 0 107-46zM93-65L9-212h-76L27-65h66z"/><glyph glyph-name="Rcaron" unicode="Ř" horiz-adv-x="626" d="M614 548q0-81-50-143.5T426 325L530 0h-80l-98 320H186L121 0H49l143 712h245q93 0 135-47t42-117zm-73-4q0 49-28.5 76.5T428 648H252l-54-266h178q77 0 121 49t44 113zm37 384L429 775h-64l-90 153h61l65-107 109 107h68z"/><glyph glyph-name="rcaron" unicode="ř" horiz-adv-x="399" d="M437 453l-57-51q-27 35-70 35-52 0-92-38.5T167 302L107 0H37l98 493h69l-12-60q48 66 138 66 67 0 107-46zm-26 288L261 588h-64l-90 153h62l65-107 108 107h69z"/><glyph glyph-name="Sacute" unicode="Ś" horiz-adv-x="559" d="M552 636l-52-44q-28 32-60 48t-83 16q-79 0-127.5-48T181 496q0-74 102-98l67-15q81-19 117.5-59T504 210q0-101-76.5-158.5T236-6q-74 0-125 23T16 92l55 48q65-82 172-82 79 0 133.5 42T431 207q0 51-26 75t-75 35l-67 16q-154 36-154 160 0 39 15 77.5t44 72 80 54.5 116 21q119 0 188-82zm-23 290L401 775h-69l117 151h80z"/><glyph glyph-name="sacute" unicode="ś" horiz-adv-x="470" d="M434 444l-50-43q-46 40-115 40-58 0-90.5-30T146 341q0-45 73-56l66-9q65-10 92.5-38t27.5-83q0-61-49-107Q301-6 187-6 70-6 5 65l52 45q48-56 136-56 67 0 104.5 30.5T335 153q0 31-17 44t-52 18l-67 10Q76 243 76 332q0 66 46 112 55 55 156 55 97 0 156-55zm21 296L327 589h-70l118 151h80z"/><glyph glyph-name="Scircumflex" unicode="Ŝ" horiz-adv-x="559" d="M552 636l-52-44q-28 32-60 48t-83 16q-79 0-127.5-48T181 496q0-74 102-98l67-15q81-19 117.5-59T504 210q0-101-76.5-158.5T236-6q-74 0-125 23T16 92l55 48q65-82 172-82 79 0 133.5 42T431 207q0 51-26 75t-75 35l-67 16q-154 36-154 160 0 39 15 77.5t44 72 80 54.5 116 21q119 0 188-82zm-22 139h-61l-65 107-109-107h-68l149 153h65z"/><glyph glyph-name="scircumflex" unicode="ŝ" horiz-adv-x="470" d="M434 444l-50-43q-46 40-115 40-58 0-90.5-30T146 341q0-45 73-56l66-9q65-10 92.5-38t27.5-83q0-61-49-107Q301-6 187-6 70-6 5 65l52 45q48-56 136-56 67 0 104.5 30.5T335 153q0 31-17 44t-52 18l-67 10Q76 243 76 332q0 66 46 112 55 55 156 55 97 0 156-55zm22 144h-62l-65 107-108-107h-69l150 153h64z"/><glyph glyph-name="Scedilla" unicode="Ş" horiz-adv-x="559" d="M552 636l-52-44q-28 32-60 48t-83 16q-79 0-127.5-48T181 496q0-74 102-98l67-15q81-19 117.5-59T504 210q0-101-76.5-158.5T236-6q-74 0-125 23T16 92l55 48q65-82 172-82 79 0 133.5 42T431 207q0 51-26 75t-75 35l-67 16q-154 36-154 160 0 39 15 77.5t44 72 80 54.5 116 21q119 0 188-82zM268-65l-84-147h-75l94 147h65z"/><glyph glyph-name="scedilla" unicode="ş" horiz-adv-x="470" d="M434 444l-50-43q-46 40-115 40-58 0-90.5-30T146 341q0-45 73-56l66-9q65-10 92.5-38t27.5-83q0-61-49-107Q301-6 187-6 70-6 5 65l52 45q48-56 136-56 67 0 104.5 30.5T335 153q0 31-17 44t-52 18l-67 10Q76 243 76 332q0 66 46 112 55 55 156 55 97 0 156-55zM218-65l-84-147H59l94 147h65z"/><glyph glyph-name="Scaron" unicode="Š" horiz-adv-x="559" d="M552 636l-52-44q-28 32-60 48t-83 16q-79 0-127.5-48T181 496q0-74 102-98l67-15q81-19 117.5-59T504 210q0-101-76.5-158.5T236-6q-74 0-125 23T16 92l55 48q65-82 172-82 79 0 133.5 42T431 207q0 51-26 75t-75 35l-67 16q-154 36-154 160 0 39 15 77.5t44 72 80 54.5 116 21q119 0 188-82zm3 292L406 775h-64l-90 153h61l65-107 109 107h68z"/><glyph glyph-name="scaron" unicode="š" horiz-adv-x="470" d="M434 444l-50-43q-46 40-115 40-58 0-90.5-30T146 341q0-45 73-56l66-9q65-10 92.5-38t27.5-83q0-61-49-107Q301-6 187-6 70-6 5 65l52 45q48-56 136-56 67 0 104.5 30.5T335 153q0 31-17 44t-52 18l-67 10Q76 243 76 332q0 66 46 112 55 55 156 55 97 0 156-55zm47 297L331 588h-64l-90 153h62l65-107 108 107h69z"/><glyph glyph-name="Tcommaaccent" unicode="Ţ" horiz-adv-x="521" d="M585 712l-13-64H377L247 0h-72l130 648H109l13 64h463zM230-65l-84-147H71l94 147h65z"/><glyph glyph-name="tcommaaccent" unicode="ţ" horiz-adv-x="318" d="M315 493l-11-53h-96l-62-306q-4-19-4-32 0-42 55-42h40L224 0h-50q-40 0-71 22T72 94q0 16 4 40l61 306H76l10 53h62l30 150h70l-30-150h97zM157-65L73-212H-3L91-65h66z"/><glyph glyph-name="Tcaron" unicode="Ť" horiz-adv-x="521" d="M585 712l-13-64H377L247 0h-72l130 648H109l13 64h463zm-39 216L397 775h-64l-90 153h61l65-107 109 107h68z"/><glyph glyph-name="tcaron" unicode="ť" horiz-adv-x="318" d="M315 493l-11-53h-96l-62-306q-4-19-4-32 0-42 55-42h40L224 0h-50q-40 0-71 22T72 94q0 16 4 40l61 306H76l10 53h62l30 150h70l-30-150h97zm124 226l-80-153h-59l69 153h70z"/><glyph glyph-name="Tbar" unicode="Ŧ" horiz-adv-x="521" d="M585 712l-13-64H377l-53-261h115l-11-56H313L247 0h-72l66 331H128l11 56h113l53 261H109l13 64h463z"/><glyph glyph-name="tbar" unicode="ŧ" horiz-adv-x="318" d="M315 493l-11-53h-96l-29-143h97l-11-53h-97l-22-110q-4-19-4-32 0-42 55-42h40L224 0h-50q-40 0-71 22T72 94q0 16 4 40l22 110H37l10 53h61l29 143H76l10 53h62l30 150h70l-30-150h97z"/><glyph glyph-name="Utilde" unicode="Ũ" horiz-adv-x="649" d="M654 712l-95-478q-23-115-97.5-177.5T280-6q-80 0-139 49.5T82 187q0 24 7 61l92 464h73l-94-471q-5-28-5-51 0-54 32.5-93T287 58q72 0 128 48t74 140l92 466h73zm-64 125q-51-48-96-48-36 0-69 24-28 20-51 20-27 0-62-34l-30 37q51 48 96 48 36 0 69-24 27-20 51-20 27 0 62 34z"/><glyph glyph-name="utilde" unicode="ũ" horiz-adv-x="535" d="M498 493L400 0h-68l10 55Q289-6 199-6q-59 0-98.5 37T61 133q0 19 6 49l62 311h70l-61-304q-6-28-6-46 0-43 25-65.5T222 55q17 0 35 5t41.5 18 42.5 42 27 71l60 302h70zm-1 156q-51-48-96-48-36 0-69 24-27 20-52 20t-62-34l-29 37q51 48 96 48 34 0 69-24 26-20 51-20t62 34z"/><glyph glyph-name="Umacron" unicode="Ū" horiz-adv-x="649" d="M654 712l-95-478q-23-115-97.5-177.5T280-6q-80 0-139 49.5T82 187q0 24 7 61l92 464h73l-94-471q-5-28-5-51 0-54 32.5-93T287 58q72 0 128 48t74 140l92 466h73zM295 851h287l-11-53H284z"/><glyph glyph-name="umacron" unicode="ū" horiz-adv-x="535" d="M498 493L400 0h-68l10 55Q289-6 199-6q-59 0-98.5 37T61 133q0 19 6 49l62 311h70l-61-304q-6-28-6-46 0-43 25-65.5T222 55q17 0 35 5t41.5 18 42.5 42 27 71l60 302h70zm-7 172l-11-53H194l11 53h286z"/><glyph glyph-name="Ubreve" unicode="Ŭ" horiz-adv-x="649" d="M654 712l-95-478q-23-115-97.5-177.5T280-6q-80 0-139 49.5T82 187q0 24 7 61l92 464h73l-94-471q-5-28-5-51 0-54 32.5-93T287 58q72 0 128 48t74 140l92 466h73zm-68 186q-30-126-156-126-58 0-91 26.5T306 874q0 13 1 24h55q-1-10-1-18 0-26 20-40t55-14q78 0 94 72h56z"/><glyph glyph-name="ubreve" unicode="ŭ" horiz-adv-x="535" d="M498 493L400 0h-68l10 55Q289-6 199-6q-59 0-98.5 37T61 133q0 19 6 49l62 311h70l-61-304q-6-28-6-46 0-43 25-65.5T222 55q17 0 35 5t41.5 18 42.5 42 27 71l60 302h70zm-7 213q-28-125-155-125-58 0-91 26.5T212 683q0 12 1 23h55q-1-9-1-18 0-25 20-39t55-14q76 0 94 71h55z"/><glyph glyph-name="Uring" unicode="Ů" horiz-adv-x="649" d="M654 712l-95-478q-23-115-97.5-177.5T280-6q-80 0-139 49.5T82 187q0 24 7 61l92 464h73l-94-471q-5-28-5-51 0-54 32.5-93T287 58q72 0 128 48t74 140l92 466h73zM550 862q0-49-34.5-83.5T433 744q-49 0-83.5 34.5T315 862t34.5 83.5T433 980q48 0 82.5-34.5T550 862zm-47 0q0 28-21 49t-49 21q-29 0-50-21t-21-49 21.5-49 49.5-21 49 21 21 49z"/><glyph glyph-name="uring" unicode="ů" horiz-adv-x="535" d="M498 493L400 0h-68l10 55Q289-6 199-6q-59 0-98.5 37T61 133q0 19 6 49l62 311h70l-61-304q-6-28-6-46 0-43 25-65.5T222 55q17 0 35 5t41.5 18 42.5 42 27 71l60 302h70zm-39 193q0-49-34-83.5T342 568t-83 34.5-34 83.5 34 83 83 34 83-34 34-83zm-46 0q0 28-21 48.5T342 755t-50-20.5-21-48.5 21.5-49.5T342 615t49.5 21.5T413 686z"/><glyph glyph-name="Uhungarumlaut" unicode="Ű" horiz-adv-x="649" d="M654 712l-95-478q-23-115-97.5-177.5T280-6q-80 0-139 49.5T82 187q0 24 7 61l92 464h73l-94-471q-5-28-5-51 0-54 32.5-93T287 58q72 0 128 48t74 140l92 466h73zm5 214L530 775h-68l117 151h80zm-156 0L375 775h-69l117 151h80z"/><glyph glyph-name="uhungarumlaut" unicode="ű" horiz-adv-x="535" d="M498 493L400 0h-68l10 55Q289-6 199-6q-59 0-98.5 37T61 133q0 19 6 49l62 311h70l-61-304q-6-28-6-46 0-43 25-65.5T222 55q17 0 35 5t41.5 18 42.5 42 27 71l60 302h70zm69 246L438 588h-69l117 151h81zm-156 0L282 588h-69l117 151h81z"/><glyph glyph-name="Uogonek" unicode="Ų" horiz-adv-x="649" d="M654 712l-95-478q-23-115-97.5-177.5T280-6q-80 0-139 49.5T82 187q0 24 7 61l92 464h73l-94-471q-5-28-5-51 0-54 32.5-93T287 58q72 0 128 48t74 140l92 466h73zM408-65l-84-147h-75l94 147h65z"/><glyph glyph-name="uogonek" unicode="ų" horiz-adv-x="535" d="M498 493L400 0h-68l10 55Q289-6 199-6q-59 0-98.5 37T61 133q0 19 6 49l62 311h70l-61-304q-6-28-6-46 0-43 25-65.5T222 55q17 0 35 5t41.5 18 42.5 42 27 71l60 302h70zM383-65l-84-147h-75l94 147h65z"/><glyph glyph-name="Wcircumflex" unicode="Ŵ" horiz-adv-x="815" d="M890 712L581 0h-68l-38 573L208 0h-67l-33 712h75l20-577 264 577h65l37-577 243 577h78zm-229 63h-61l-65 107-109-107h-68l149 153h65z"/><glyph glyph-name="wcircumflex" unicode="ŵ" horiz-adv-x="688" d="M724 493L485 0h-64l-48 382L176 0h-64L61 493h71l31-394 200 394h57l47-394 183 394h74zm-162 95h-62l-65 107-108-107h-69l150 153h64z"/><glyph glyph-name="Ycircumflex" unicode="Ŷ" horiz-adv-x="495" d="M575 712L293 291 234 0h-73l60 296-121 416h76l94-344 224 344h81zm-86 63h-61l-65 107-109-107h-68l149 153h65z"/><glyph glyph-name="ycircumflex" unicode="ŷ" horiz-adv-x="424" d="M462 493L134-118q-22-41-42-59-36-33-102-33h-31l13 62h21q34 0 51.5 13.5T82-83l49 94-71 482h70l51-397 204 397h77zm-36 95h-62l-65 107-108-107h-69l150 153h64z"/><glyph glyph-name="Ydieresis" unicode="Ÿ" horiz-adv-x="495" d="M575 712L293 291 234 0h-73l60 296-121 416h76l94-344 224 344h81zM293 870l-17-87h-68l17 87h68zm201 0l-17-87h-68l17 87h68z"/><glyph glyph-name="Zacute" unicode="Ź" horiz-adv-x="532" d="M565 712l-12-60L101 64h341L429 0H6l14 67 447 581H143l12 64h410zm-46 214L391 775h-69l117 151h80z"/><glyph glyph-name="zacute" unicode="ź" horiz-adv-x="440" d="M439 493l-12-59L97 62h262L347 0H0l12 59 329 372H94l12 62h333zm3 247L314 589h-70l118 151h80z"/><glyph glyph-name="Zdotaccent" unicode="Ż" horiz-adv-x="532" d="M565 712l-12-60L101 64h341L429 0H6l14 67 447 581H143l12 64h410zM427 866l-15-74h-72l15 74h72z"/><glyph glyph-name="zdotaccent" unicode="ż" horiz-adv-x="440" d="M439 493l-12-59L97 62h262L347 0H0l12 59 329 372H94l12 62h333zm-90 186l-15-74h-72l15 74h72z"/><glyph glyph-name="Zcaron" unicode="Ž" horiz-adv-x="532" d="M565 712l-12-60L101 64h341L429 0H6l14 67 447 581H143l12 64h410zm-20 216L396 775h-64l-90 153h61l65-107 109 107h68z"/><glyph glyph-name="zcaron" unicode="ž" horiz-adv-x="440" d="M439 493l-12-59L97 62h262L347 0H0l12 59 329 372H94l12 62h333zm29 248L318 588h-64l-90 153h62l65-107 108 107h69z"/><glyph glyph-name="longs" unicode="ſ" horiz-adv-x="240" d="M350 714l-12-60h-36q-64 0-78-70L107 0H37l117 588q25 126 143 126h53z"/><glyph glyph-name="uni018F" unicode="Ə" horiz-adv-x="619" d="M593 526q0-51-24-170-27-130-46.5-186T463 73Q389-6 271-6q-88 0-145 52.5T69 186q0 58 22 164l4 22h403q22 105 22 149 0 63-38 98.5T390 655q-84 0-141-60-29-33-47-87h-75q25 82 71 131 76 79 196 79 88 0 143.5-52.5T593 526zM486 310H156q-14-74-14-119 0-63 39.5-98.5T275 57q80 0 137 60 24 26 40.5 67.5T486 310z"/><glyph glyph-name="florin" unicode="ƒ" horiz-adv-x="383" d="M448 714l-12-60h-43q-67 0-93-72l-72-197h102l-12-53H209L7-219h-71l203 551H47l10 53h101l72 197q24 65 62 98.5T401 714h47z"/><glyph glyph-name="uni01B5" unicode="Ƶ" horiz-adv-x="532" d="M565 712l-12-60-204-265h92l-11-56H306L101 64h341L429 0H6l14 67 203 264h-93l11 56h125l201 261H143l12 64h410z"/><glyph glyph-name="uni01B6" unicode="ƶ" horiz-adv-x="440" d="M439 493l-12-59-146-164h69l-9-47H240L97 62h262L347 0H0l12 59 145 164H91l9 47h98l143 161H94l12 62h333z"/><glyph glyph-name="uni01C4" unicode="Ǆ" horiz-adv-x="1171" d="M613 518q0-44-21-154-25-130-50-193.5T470 65Q397 0 285 0H49l143 712h222q84 0 141.5-45.5T613 518zm-72-3q0 63-35 98.5T400 649H252L134 63h147q87 0 143 51 32 29 53.5 85.5T519 364q22 114 22 151zm663 197l-12-60L740 64h341l-13-64H645l14 67 447 581H782l12 64h410zm-20 216l-149-153h-64l-90 153h61l65-107 109 107h68z"/><glyph glyph-name="uni01C5" unicode="ǅ" horiz-adv-x="1079" d="M613 518q0-44-21-154-25-130-50-193.5T470 65Q397 0 285 0H49l143 712h222q84 0 141.5-45.5T613 518zm-72-3q0 63-35 98.5T400 649H252L134 63h147q87 0 143 51 32 29 53.5 85.5T519 364q22 114 22 151zm537-22l-12-59L736 62h262L986 0H639l12 59 329 372H733l12 62h333zm29 248L957 588h-64l-90 153h62l65-107 108 107h69z"/><glyph glyph-name="uni01C6" unicode="ǆ" horiz-adv-x="959" d="M526 712L384 0h-69l12 59Q273-6 190-6 49-6 49 149q0 45 11 98 28 143 85 200 52 52 132 52 88 0 122-68l57 281h70zM374 336q0 101-89 101-69 0-103-50.5T131 247q-11-55-11-89 0-102 88-102 69 0 103.5 51T363 247q11 55 11 89zm584 157l-12-59L616 62h262L866 0H519l12 59 329 372H613l12 62h333zm29 248L837 588h-64l-90 153h62l65-107 108 107h69z"/><glyph glyph-name="uni01C7" unicode="Ǉ" horiz-adv-x="1022" d="M482 63L470 0H49l143 712h72L134 63h348zm546 649L928 213q-21-107-85-163T685-6q-98 0-151 66l53 45q40-48 104-48 62 0 106.5 43T858 225l97 487h73z"/><glyph glyph-name="uni01C8" unicode="ǈ" horiz-adv-x="787" d="M482 63L470 0H49l143 712h72L134 63h348zm269 430L635-92q-26-128-145-128h-51l12 60h34q66 0 80 75l116 578h70zm46 213l-15-73h-79l14 73h80z"/><glyph glyph-name="uni01C9" unicode="ǉ" horiz-adv-x="489" d="M247 712L131 134q-4-19-4-33 0-41 54-41h41L210 0h-52q-40 0-70.5 22T57 94q0 23 4 40l116 578h70zm206-219L337-92q-26-128-145-128h-51l12 60h34q66 0 80 75l116 578h70zm46 213l-15-73h-79l14 73h80z"/><glyph glyph-name="uni01CA" unicode="Ǌ" horiz-adv-x="1171" d="M692 712L549 0h-67L237 577 121 0H49l143 712h67l245-577 115 577h73zm485 0l-100-499q-21-107-85-163T834-6q-98 0-151 66l53 45q40-48 104-48 62 0 106.5 43t60.5 125l97 487h73z"/><glyph glyph-name="uni01CB" unicode="ǋ" horiz-adv-x="936" d="M692 712L549 0h-67L237 577 121 0H49l143 712h67l245-577 115 577h73zm208-219L784-92q-26-128-145-128h-51l12 60h34q66 0 80 75l116 578h70zm46 213l-15-73h-79l14 73h80z"/><glyph glyph-name="uni01CC" unicode="ǌ" horiz-adv-x="776" d="M474 360q0-19-6-49L406 0h-70l61 304q5 27 5 46 0 43-24.5 65.5T312 438q-16 0-34-5t-41.5-18-42.5-42-27-71L107 0H37l98 493h68l-10-55q53 61 145 61 58 0 97-37t39-102zm266 133L624-92q-26-128-145-128h-51l12 60h34q66 0 80 75l116 578h70zm46 213l-15-73h-79l14 73h80z"/><glyph glyph-name="uni01F1" unicode="Ǳ" horiz-adv-x="1171" d="M613 518q0-44-21-154-25-130-50-193.5T470 65Q397 0 285 0H49l143 712h222q84 0 141.5-45.5T613 518zm-72-3q0 63-35 98.5T400 649H252L134 63h147q87 0 143 51 32 29 53.5 85.5T519 364q22 114 22 151zm663 197l-12-60L740 64h341l-13-64H645l14 67 447 581H782l12 64h410z"/><glyph glyph-name="uni01F2" unicode="ǲ" horiz-adv-x="1079" d="M613 518q0-44-21-154-25-130-50-193.5T470 65Q397 0 285 0H49l143 712h222q84 0 141.5-45.5T613 518zm-72-3q0 63-35 98.5T400 649H252L134 63h147q87 0 143 51 32 29 53.5 85.5T519 364q22 114 22 151zm537-22l-12-59L736 62h262L986 0H639l12 59 329 372H733l12 62h333z"/><glyph glyph-name="uni01F3" unicode="ǳ" horiz-adv-x="959" d="M526 712L384 0h-69l12 59Q273-6 190-6 49-6 49 149q0 45 11 98 28 143 85 200 52 52 132 52 88 0 122-68l57 281h70zM374 336q0 101-89 101-69 0-103-50.5T131 247q-11-55-11-89 0-102 88-102 69 0 103.5 51T363 247q11 55 11 89zm584 157l-12-59L616 62h262L866 0H519l12 59 329 372H613l12 62h333z"/><glyph glyph-name="Aringacute" unicode="Ǻ" horiz-adv-x="581" d="M521 0h-74l-22 162H129L42 0h-78l389 712h61zM418 223l-53 384-204-384h257zm92 639q0-49-34.5-83.5T393 744q-49 0-83.5 34.5T275 862t34.5 83.5T393 980q48 0 82.5-34.5T510 862zm-47 0q0 28-21 49t-49 21q-29 0-50-21t-21-49 21.5-49 49.5-21 49 21 21 49zm114 279L449 990h-69l117 151h80z"/><glyph glyph-name="aringacute" unicode="ǻ" horiz-adv-x="501" d="M443 371q0-11-5-39L372 0h-69l11 49Q259-6 173-6 108-6 66.5 23T25 114q0 72 44 115 53 52 145 52h144l11 52q4 18 4 33 0 35-26 54t-73 19q-80 0-133-59l-41 48q65 71 178 71 30 0 56-5.5t52-18.5 41.5-39.5T443 371zm-95-142H221q-58 0-92.5-29T94 118q0-65 98-65 66 0 105 39 31 29 40 80zm93 457q0-49-34-83.5T324 568t-83 34.5-34 83.5 34 83 83 34 83-34 34-83zm-46 0q0 28-21 48.5T324 755t-50-20.5-21-48.5 21.5-49.5T324 615t49.5 21.5T395 686zm105 278L372 813h-70l118 151h80z"/><glyph glyph-name="AEacute" unicode="Ǽ" horiz-adv-x="881" d="M920 712l-13-63H561l-52-260h296l-13-64H496L444 63h351L782 0H359l34 173H161L41 0h-82l499 712h462zm-431-63L202 234h204zm213 277L574 775h-69l117 151h80z"/><glyph glyph-name="aeacute" unicode="ǽ" horiz-adv-x="799" d="M746 330q0-36-12-101H416q-6-40-6-62 0-51 27-82t80-31q74 0 138 58l42-46Q619-6 511-6q-51 0-90.5 22.5T362 80Q306-6 183-6 25-6 25 114q0 70 44 114 51 52 144 52h146l10 52q4 20 4 34 0 36-26 54.5T274 439q-81 0-134-59l-40 47q65 72 178 72 114 0 149-78 61 78 159 78 76 0 118-47.5T746 330zM348 229H220q-58 0-92-29t-34-83q0-65 97-65 65 0 106 39 31 31 40 80zm331 101q0 55-27 82.5T584 440q-116 0-158-160h248q5 27 5 50zm-65 410L486 589h-70l118 151h80z"/><glyph glyph-name="Oslashacute" unicode="Ǿ" horiz-adv-x="618" d="M589 526q0-51-24-170-26-130-45.5-186T460 73Q384-6 267-6q-69 0-118 32l-46-70H40l70 105q-41 50-41 125 0 56 23 170 26 128 46 185t60 98q74 79 193 79 68 0 118-33l46 71h63l-69-108q40-50 40-122zM142 191q0-37 12-62l318 496q-36 30-85 30-81 0-138-60-27-29-44.5-78.5T165 356q-23-119-23-165zm374 330q0 30-12 61L186 86q37-29 85-29 80 0 137 60 27 29 44.5 78T492 356q24 117 24 165zm36 405L424 775h-69l117 151h80z"/><glyph glyph-name="oslashacute" unicode="ǿ" horiz-adv-x="503" d="M452 337q0-39-10-91-29-141-93-198Q289-6 209-6q-60 0-100 29L59-44H4l74 99Q50 94 50 156q0 43 9 90 28 141 93 199 60 54 141 54 56 0 97-28l50 66h56l-73-98q29-40 29-102zm-69-5q0 26-8 48L149 78q24-23 66-23 52 0 91 39 46 46 67 152 10 50 10 86zM119 161q0-27 6-45l226 300q-26 22-64 22-52 0-91-39-46-45-67-153-10-50-10-85zm349 579L340 589h-70l118 151h80z"/><glyph glyph-name="Scommaaccent" unicode="Ș" horiz-adv-x="559" d="M552 636l-52-44q-28 32-60 48t-83 16q-79 0-127.5-48T181 496q0-74 102-98l67-15q81-19 117.5-59T504 210q0-101-76.5-158.5T236-6q-74 0-125 23T16 92l55 48q65-82 172-82 79 0 133.5 42T431 207q0 51-26 75t-75 35l-67 16q-154 36-154 160 0 39 15 77.5t44 72 80 54.5 116 21q119 0 188-82zM268-65l-84-147h-76l94 147h66z"/><glyph glyph-name="scommaaccent" unicode="ș" horiz-adv-x="470" d="M434 444l-50-43q-46 40-115 40-58 0-90.5-30T146 341q0-45 73-56l66-9q65-10 92.5-38t27.5-83q0-61-49-107Q301-6 187-6 70-6 5 65l52 45q48-56 136-56 67 0 104.5 30.5T335 153q0 31-17 44t-52 18l-67 10Q76 243 76 332q0 66 46 112 55 55 156 55 97 0 156-55zM218-65l-84-147H58l94 147h66z"/><glyph glyph-name="uni021A" unicode="Ț" horiz-adv-x="521" d="M585 712l-13-64H377L247 0h-72l130 648H109l13 64h463zM231-65l-84-147H71l94 147h66z"/><glyph glyph-name="uni021B" unicode="ț" horiz-adv-x="318" d="M315 493l-11-53h-96l-62-306q-4-19-4-32 0-42 55-42h40L224 0h-50q-40 0-71 22T72 94q0 16 4 40l61 306H76l10 53h62l30 150h70l-30-150h97zM157-65L73-212H-3L91-65h66z"/><glyph glyph-name="uni0237" unicode="ȷ" horiz-adv-x="241" d="M205 493L89-92Q63-220-56-220h-51l12 60h34q66 0 80 75l116 578h70z"/><glyph glyph-name="uni0259" unicode="ə" horiz-adv-x="506" d="M53 163q0 36 12 101h318q6 40 6 62 0 51-27 82t-80 31q-74 0-138-58l-42 46q78 72 186 72 75 0 121.5-43.5T456 329q0-59-14-115.5t-41.5-107-76-81.5T213-6Q137-6 95 41.5T53 163zm68 0q0-55 27-82.5T216 53q115 0 157 160H125q-4-21-4-50z"/><glyph glyph-name="uni02BB" unicode="ʻ" horiz-adv-x="250" d="M277 792l-33-165h-84l17 85z"/><glyph glyph-name="afii57929" unicode="ʼ" horiz-adv-x="250" d="M261 712l-17-85-100-80 33 165h84z"/><glyph glyph-name="circumflex" unicode="ˆ" horiz-adv-x="501" d="M469 588h-62l-65 107-108-107h-69l150 153h64z"/><glyph glyph-name="caron" unicode="ˇ" horiz-adv-x="501" d="M494 741L344 588h-64l-90 153h62l65-107 108 107h69z"/><glyph glyph-name="breve" unicode="˘" horiz-adv-x="502" d="M480 706q-28-125-155-125-58 0-91 26.5T201 683q0 12 1 23h55q-1-9-1-18 0-25 20-39t55-14q76 0 94 71h55z"/><glyph glyph-name="dotaccent" unicode="˙" horiz-adv-x="501" d="M375 679l-15-74h-72l15 74h72z"/><glyph glyph-name="ring" unicode="˚" horiz-adv-x="501" d="M448 686q0-49-34-83.5T331 568t-83 34.5-34 83.5 34 83 83 34 83-34 34-83zm-46 0q0 28-21 48.5T331 755t-50-20.5-21-48.5 21-49.5 50-21.5 50 21.5 21 49.5z"/><glyph glyph-name="ogonek" unicode="˛" horiz-adv-x="502" d="M239-65l-84-147H80l94 147h65z"/><glyph glyph-name="tilde" unicode="˜" horiz-adv-x="501" d="M482 649q-51-48-96-48-36 0-69 24-28 20-52 20-25 0-62-34l-29 37q51 48 96 48 34 0 69-24 26-20 51-20t62 34z"/><glyph glyph-name="hungarumlaut" unicode="˝" horiz-adv-x="502" d="M556 739L427 588h-69l117 151h81zm-156 0L271 588h-69l117 151h81z"/><glyph glyph-name="uni0394" unicode="Δ" horiz-adv-x="572" d="M516 0H-41l391 712h60zm-77 62l-76 546L67 62h372z"/><glyph glyph-name="uni03A9" unicode="Ω" horiz-adv-x="617" d="M590 526q0-34-25-170-23-120-40.5-170T470 96q-20-21-37-32h81L502 0H313l12 60q45 15 85 56 27 28 44 77t38 161q24 129 24 168 0 63-37.5 97.5T391 654q-83 0-142-60-28-28-45-77t-39-163q-24-128-24-168 0-46 21.5-79.5T222 60L210 0H29l13 64h80q-52 47-52 130 0 38 23 162 24 128 44 184.5t62 98.5q79 79 193 79 86 0 142-53.5T590 526z"/><glyph glyph-name="uni03BC" unicode="μ" horiz-adv-x="536" d="M499 493L401 0h-69l10 55Q289-6 197-6q-58 0-90 40L57-219h-70l142 712h70l-61-304q-5-27-5-46 0-43 25-65t65-22q16 0 34 5t41.5 17.5T341 120t27 71l60 302h71z"/><glyph glyph-name="pi" unicode="π" horiz-adv-x="566" d="M505 493L406 0h-70l88 436H195L107 0H37l99 493h369z"/><glyph glyph-name="uni0400" unicode="Ѐ" horiz-adv-x="572" d="M432 775h-63l-71 151h77zm179-63l-13-63H252l-52-258h297l-12-63H188L134 63h353L475 0H49l143 712h419z"/><glyph glyph-name="afii10023" unicode="Ё" horiz-adv-x="572" d="M611 712l-13-63H252l-52-258h297l-12-63H188L134 63h353L475 0H49l143 712h419zm-57 158l-17-87h-68l17 87h68zm-200 0l-17-87h-68l17 87h68z"/><glyph glyph-name="afii10051" unicode="Ђ" horiz-adv-x="673" d="M621 252q0-108-68.5-180T368 0h-41l13 64h30q78 0 128 52t50 133q0 118-127 118H291L217 0h-72l130 648H109l13 64h462l-12-64H347l-43-217h128q96 0 142.5-48.5T621 252z"/><glyph glyph-name="afii10052" unicode="Ѓ" horiz-adv-x="527" d="M529 926L401 775h-69l117 151h80zm72-214l-12-63H252L121 0H49l143 712h409z"/><glyph glyph-name="afii10053" unicode="Є" horiz-adv-x="607" d="M592 509h-73q-1 67-36 106.5T385 655q-78 0-135-60-27-28-43-70.5T172 391h254l-12-62H160q-18-95-18-141 0-60 39.5-95.5T278 57q70 0 118 42t70 104h74q-31-98-102-153.5T273-6q-87 0-145.5 51.5T69 186q0 56 23 170 28 135 47 188t60 96q75 78 188 78 99 0 151.5-57.5T592 509z"/><glyph glyph-name="afii10054" unicode="Ѕ" horiz-adv-x="559" d="M552 636l-52-44q-28 32-60 48t-83 16q-79 0-127.5-48T181 496q0-74 102-98l67-15q81-19 117.5-59T504 210q0-101-76.5-158.5T236-6q-74 0-125 23T16 92l55 48q65-82 172-82 79 0 133.5 42T431 207q0 51-26 75t-75 35l-67 16q-154 36-154 160 0 39 15 77.5t44 72 80 54.5 116 21q119 0 188-82z"/><glyph glyph-name="afii10055" unicode="І" horiz-adv-x="269" d="M264 712L121 0H49l143 712h72z"/><glyph glyph-name="afii10056" unicode="Ї" horiz-adv-x="269" d="M264 712L121 0H49l143 712h72zm121 158l-17-87h-68l17 87h68zm-200 0l-17-87h-68l17 87h68z"/><glyph glyph-name="afii10057" unicode="Ј" horiz-adv-x="476" d="M482 712L382 213q-21-107-85-163T139-6Q41-6-12 60l53 45q40-48 104-48 62 0 106.5 43T312 225l97 487h73z"/><glyph glyph-name="afii10058" unicode="Љ" horiz-adv-x="979" d="M935 243q0-105-68-174T683 0H430l130 648H325l-49-244q-31-156-71.5-245.5t-90-124T-7 0h-36l12 63h19q49 0 84.5 26.5T144 197t64 224l59 291h378l-59-298h168q92 0 136.5-49T935 243zm-73-4q0 48-28.5 80T744 351H572L515 64h171q78 0 127 49t49 126z"/><glyph glyph-name="afii10059" unicode="Њ" horiz-adv-x="990" d="M947 243q0-105-68-174T695 0H441l71 351H192L121 0H49l143 712h72l-59-298h320l59 298h73l-59-298h167q93 0 137.5-49T947 243zm-73-4q0 48-28.5 80T756 351H584L527 64h171q78 0 127 49t49 126z"/><glyph glyph-name="afii10060" unicode="Ћ" horiz-adv-x="693" d="M620 262q0-31-6-58L572 0h-73l44 213q5 22 5 43 0 48-28.5 79.5T429 367H291L217 0h-72l130 648H109l13 64h462l-12-64H347l-43-217h132q92 0 138-46.5T620 262z"/><glyph glyph-name="afii10061" unicode="Ќ" horiz-adv-x="563" d="M196 371l336 341h95L280 370 510 0h-94zm68 341L121 0H49l143 712h72zm283 214L419 775h-69l117 151h80z"/><glyph glyph-name="uni040D" unicode="Ѝ" horiz-adv-x="696" d="M692 712L549 0h-72l115 570L116 0H49l143 712h72L150 141l475 571h67zm-204 63h-63l-71 151h77z"/><glyph glyph-name="afii10062" unicode="Ў" horiz-adv-x="555" d="M644 712L259 113q-39-61-76-87T91 0H35l13 63h39q36 0 60.5 17t51.5 58l43 67-142 507h75l117-435 271 435h81zM534 882q-28-125-157-125-59 0-92 27t-33 75q0 12 1 23h60q-1-10-1-19 0-27 18-42.5t51-15.5q74 0 93 77h60z"/><glyph glyph-name="afii10145" unicode="Џ" horiz-adv-x="645" d="M641 712L498 0H309l-31-165h-72L237 0H49l143 712h72L134 64h304l130 648h73z"/><glyph glyph-name="afii10017" unicode="А" horiz-adv-x="581" d="M521 0h-74l-22 162H129L42 0h-78l389 712h61zM418 223l-53 384-204-384h257z"/><glyph glyph-name="afii10018" unicode="Б" horiz-adv-x="616" d="M598 712l-12-63H252l-47-235h169q92 0 136.5-49T555 243q0-105-68-174T303 0H49l143 712h406zM482 239q0 49-28.5 80.5T364 351H191L134 64h172q78 0 127 49t49 126z"/><glyph glyph-name="afii10019" unicode="В" horiz-adv-x="636" d="M610 552q0-56-31-109t-102-80q83-39 83-135 0-101-65-164.5T330 0H49l143 712h239q54 0 92-16t55.5-42 24.5-50.5 7-51.5zM487 226q0 50-30 77.5T374 331H188L134 64h194q70 0 114.5 45.5T487 226zm49 321q0 101-114 101H252l-51-252h178q72 0 114.5 44T536 547z"/><glyph glyph-name="afii10020" unicode="Г" horiz-adv-x="527" d="M601 712l-12-63H252L121 0H49l143 712h409z"/><glyph glyph-name="afii10021" unicode="Д" horiz-adv-x="655" d="M640 712L510 64h81l-46-229h-72L506 0H43L10-165h-72l46 229h64q64 83 104 183.5T221 493l44 219h375zm-85-63H321l-43-216Q232 206 126 64h312z"/><glyph glyph-name="afii10022" unicode="Е" horiz-adv-x="572" d="M611 712l-13-63H252l-52-258h297l-12-63H188L134 63h353L475 0H49l143 712h419z"/><glyph glyph-name="afii10024" unicode="Ж" horiz-adv-x="853" d="M416 371L54 0H-48l381 376-207 336h89zm73-1l330 342h96L573 370 797 0h-94zm68 342L414 0h-72l143 712h72z"/><glyph glyph-name="afii10025" unicode="З" horiz-adv-x="579" d="M553 546q0-56-31.5-105.5T417 363q88-41 88-136 0-104-67-168.5T259-6Q151-6 96.5 51T41 203h73q0-68 38-107t107-39q80 0 126 46.5T431 226q0 52-32 79.5T312 333h-86l12 62h80q74 0 118 41.5T480 542q0 45-29.5 79T354 655q-72 0-119.5-42T168 509H94q31 100 99 154.5T360 718q98 0 145.5-49T553 546z"/><glyph glyph-name="afii10026" unicode="И" horiz-adv-x="696" d="M692 712L549 0h-72l115 570L116 0H49l143 712h72L150 141l475 571h67z"/><glyph glyph-name="afii10027" unicode="Й" horiz-adv-x="696" d="M692 712L549 0h-72l115 570L116 0H49l143 712h72L150 141l475 571h67zm-81 170q-28-125-157-125-59 0-92 27t-33 75q0 12 1 23h60q-1-10-1-19 0-27 18-42.5t51-15.5q74 0 93 77h60z"/><glyph glyph-name="afii10028" unicode="К" horiz-adv-x="563" d="M196 371l336 341h95L280 370 510 0h-94zm68 341L121 0H49l143 712h72z"/><glyph glyph-name="afii10029" unicode="Л" horiz-adv-x="649" d="M645 712L502 0h-72l130 648H325l-49-244q-31-156-71.5-245.5t-90-124T-7 0h-36l12 63h19q49 0 84.5 26.5T144 197t64 224l59 291h378z"/><glyph glyph-name="afii10030" unicode="М" horiz-adv-x="775" d="M772 712L629 0h-72l110 542-269-414h-62L232 548 121 0H49l143 712h70l119-495 320 495h71z"/><glyph glyph-name="afii10031" unicode="Н" horiz-adv-x="660" d="M657 712L514 0h-72l66 328H188L121 0H49l143 712h72l-63-321h320l64 321h72z"/><glyph glyph-name="afii10032" unicode="О" horiz-adv-x="617" d="M589 526q0-51-24-170-26-130-45.5-186T460 73Q384-6 267-6q-87 0-142.5 52.5T69 186q0 56 23 170 26 128 46 185t60 98q74 79 193 79 87 0 142.5-52.5T589 526zm-73-5q0 63-37.5 98.5T387 655q-81 0-138-60-27-29-44.5-78.5T165 356q-23-119-23-165 0-63 37.5-98.5T271 57q80 0 137 60 27 29 44.5 78T492 356q24 117 24 165z"/><glyph glyph-name="afii10033" unicode="П" horiz-adv-x="645" d="M641 712L498 0h-72l130 648H251L121 0H49l143 712h449z"/><glyph glyph-name="afii10034" unicode="Р" horiz-adv-x="598" d="M615 540q0-104-68-173t-184-69H181L121 0H49l143 712h242q92 0 136.5-49.5T615 540zm-73-3q0 48-28.5 79.5T424 648H251l-57-287h172q78 0 127 49.5T542 537z"/><glyph glyph-name="afii10035" unicode="С" horiz-adv-x="607" d="M592 509h-73q-1 67-36 106.5T385 655q-78 0-135-60-29-30-45.5-78T165 356q-23-119-23-168 0-60 39.5-95.5T278 57q70 0 118 42t70 104h74q-31-98-102-153.5T273-6q-87 0-145.5 51.5T69 186q0 56 23 170 28 135 47 188t60 96q75 78 188 78 99 0 151.5-57.5T592 509z"/><glyph glyph-name="afii10036" unicode="Т" horiz-adv-x="521" d="M585 712l-13-64H377L247 0h-72l130 648H109l13 64h463z"/><glyph glyph-name="afii10037" unicode="У" horiz-adv-x="555" d="M644 712L259 113q-39-61-76-87T91 0H35l13 63h39q36 0 60.5 17t51.5 58l43 67-142 507h75l117-435 271 435h81z"/><glyph glyph-name="afii10038" unicode="Ф" horiz-adv-x="759" d="M735 465q0-49-9-93-18-93-42-138.5T613 151q-78-62-229-62L366-4h-73l18 93q-108 2-171 54.5T77 294q0 50 9 94 18 93 42 138.5t71 81.5q77 63 229 63l13 66h73l-13-66q108-2 171-55t63-151zm-73-7q0 70-46 109.5T487 607l-92-454q110 0 169 44 34 25 54 62.5T653 373q9 41 9 85zM417 607q-110 0-169-44-34-25-54-62.5T159 387q-9-41-9-85 0-70 46-109.5T325 153z"/><glyph glyph-name="afii10039" unicode="Х" horiz-adv-x="526" d="M587 712L325 361 466 0h-81L273 302 50 0h-85l279 371-130 341h81l101-284 205 284h86z"/><glyph glyph-name="afii10040" unicode="Ц" horiz-adv-x="656" d="M641 712L510 64h81l-46-229h-71L506 0H49l143 712h72L134 64h304l130 648h73z"/><glyph glyph-name="afii10041" unicode="Ч" horiz-adv-x="618" d="M615 712L472 0h-73l58 290q-95-26-177-26-78 0-123.5 37T111 407q0 24 5 51l50 254h73l-49-243q-5-23-5-46 0-95 114-95 82 0 171 24l72 360h73z"/><glyph glyph-name="afii10042" unicode="Ш" horiz-adv-x="921" d="M916 712L773 0H49l143 712h72L134 64h254l130 648h72L460 64h254l130 648h72z"/><glyph glyph-name="afii10043" unicode="Щ" horiz-adv-x="932" d="M916 712L786 64h81l-46-229h-71L782 0H49l143 712h72L134 64h254l130 648h72L460 64h254l130 648h72z"/><glyph glyph-name="afii10044" unicode="Ъ" horiz-adv-x="694" d="M650 243q0-105-68-174T398 0H145l130 648H109l13 64h238l-59-298h168q92 0 136.5-49T650 243zm-73-4q0 48-28.5 80T459 351H287L230 64h171q78 0 127 49t49 126z"/><glyph glyph-name="afii10045" unicode="Ы" horiz-adv-x="824" d="M554 243q0-105-68-174T302 0H49l143 712h72l-59-298h168q92 0 136.5-49T554 243zm-73-4q0 48-28.5 80T363 351H191L134 64h171q78 0 127 49t49 126zm340 473L678 0h-72l143 712h72z"/><glyph glyph-name="afii10046" unicode="Ь" horiz-adv-x="598" d="M554 243q0-105-68-174T302 0H49l143 712h72l-59-298h168q92 0 136.5-49T554 243zm-73-4q0 48-28.5 80T363 351H191L134 64h171q78 0 127 49t49 126z"/><glyph glyph-name="afii10047" unicode="Э" horiz-adv-x="607" d="M580 526q0-51-24-170-27-132-46-186.5T450 72Q375-6 260-6q-97 0-149.5 54.5T56 203h74q1-67 35.5-106.5T263 57q79 0 136 60 27 29 43 72.5T477 329H223l13 62h253q18 89 18 133 0 59-40 95t-96 36q-68 0-116-42t-68-104h-74q28 95 97.5 152T375 718q88 0 146.5-51.5T580 526z"/><glyph glyph-name="afii10048" unicode="Ю" horiz-adv-x="859" d="M831 526q0-51-24-170-26-130-45.5-186T702 73Q626-6 509-6q-87 0-142.5 52.5T311 186q0 52 17 142H186L121 0H49l143 712h72l-65-321h142q22 106 42 157.5t57 90.5q74 79 193 79 87 0 142.5-52.5T831 526zm-73-5q0 63-37.5 98.5T629 655q-81 0-138-60-27-29-44.5-78.5T407 356q-23-119-23-165 0-63 37.5-98.5T513 57q80 0 137 60 27 29 44.5 78T734 356q24 117 24 165z"/><glyph glyph-name="afii10049" unicode="Я" horiz-adv-x="625" d="M621 712L478 0h-73l64 319H304L79 0H-6l236 331q-108 28-108 151 0 40 14 79t42 74 77.5 56T369 712h252zm-85-64H359q-79 0-121.5-50T195 486q0-48 28-76t84-28h175z"/><glyph glyph-name="afii10065" unicode="а" horiz-adv-x="501" d="M443 371q0-11-5-39L372 0h-69l11 49Q259-6 173-6 108-6 66.5 23T25 114q0 72 44 115 53 52 145 52h144l11 52q4 18 4 33 0 35-26 54t-73 19q-80 0-133-59l-41 48q65 71 178 71 30 0 56-5.5t52-18.5 41.5-39.5T443 371zm-95-142H221q-58 0-92.5-29T94 118q0-65 98-65 66 0 105 39 31 29 40 80z"/><glyph glyph-name="afii10066" unicode="б" horiz-adv-x="498" d="M500 715l-13-62q-172-4-233-49-35-26-55-67t-37-112q49 68 139 68 24 0 47.5-7t47.5-23 38.5-49.5T449 333q0-36-9-88-27-139-93-199Q288-6 208-6q-25 0-49.5 7T108 24.5 66 75t-16 82q0 50 23 161 31 156 59.5 225T205 647q43 34 110.5 50T500 715zM380 331q0 52-27 77t-67 25q-52 0-91-39-45-45-66-149-9-48-9-87 0-52 27-77t66-25q52 0 91 39 45 43 66 150 10 52 10 86z"/><glyph glyph-name="afii10067" unicode="в" horiz-adv-x="514" d="M468 376q0-91-92-126 58-28 58-97 0-73-50.5-113T248 0H37l99 493h188q67 0 105.5-28.5T468 376zM363 149q0 75-89 75H151L117 57h127q119 0 119 92zm35 220q0 67-88 67H194l-32-156h129q57 0 82 25.5t25 63.5z"/><glyph glyph-name="afii10068" unicode="г" horiz-adv-x="388" d="M426 493l-11-61H193L107 0H37l99 493h290z"/><glyph glyph-name="afii10069" unicode="д" horiz-adv-x="537" d="M485 493L398 61h70l-39-196h-67L389 0H41L13-135h-67l39 196h55q41 52 69 120t53 193l24 119h299zm-83-61H241l-19-98Q187 156 114 61h214z"/><glyph glyph-name="afii10070" unicode="е" horiz-adv-x="506" d="M453 330q0-36-12-101H123q-6-40-6-62 0-51 26.5-82T223 54q75 0 139 58l42-46Q326-6 218-6 143-6 96.5 37.5T50 164q0 58 14 115t41.5 107.5 76 81.5T293 499q76 0 118-47.5T453 330zm-68 0q0 55-27 82.5T290 440q-116 0-157-160h248q4 21 4 50z"/><glyph glyph-name="afii10072" unicode="ж" horiz-adv-x="655" d="M291 253L45 0h-91l263 262L69 493h78zm71 1l232 239h87L438 254 596 0h-84zm47 239L311 0h-70l98 493h70z"/><glyph glyph-name="afii10073" unicode="з" horiz-adv-x="479" d="M432 373q0-89-96-122 63-30 63-99 0-75-54.5-116.5T193-6Q74-6 11 71l49 44q50-61 137-61 66 0 98.5 26.5T328 149q0 76-95 76h-63l10 54h71q58 0 85 24.5t27 62.5q0 33-26 53.5T261 440q-74 0-140-62l-38 44q85 77 185 77 80 0 122-34.5t42-91.5z"/><glyph glyph-name="afii10074" unicode="и" horiz-adv-x="542" d="M506 493L408 0h-70l74 373L107 0H37l98 493h70l-75-373 306 373h70z"/><glyph glyph-name="afii10075" unicode="й" horiz-adv-x="542" d="M506 493L408 0h-70l74 373L107 0H37l98 493h70l-75-373 306 373h70zm-13 208q-28-125-156-125-60 0-93 27t-33 75q0 12 1 23h60q-1-11-1-20 0-26 18.5-41.5T341 624q74 0 92 77h60z"/><glyph glyph-name="afii10076" unicode="к" horiz-adv-x="457" d="M487 493L234 254 400 0h-82L158 254l243 239h86zm-282 0L107 0H37l98 493h70z"/><glyph glyph-name="afii10077" unicode="л" horiz-adv-x="514" d="M478 493L380 0h-70l86 432H235l-35-173q-30-148-79.5-203.5T-1 0h-31l12 59h15q19 0 34.5 6.5t36 26.5 38.5 67.5T137 279l43 214h298z"/><glyph glyph-name="afii10078" unicode="м" horiz-adv-x="621" d="M585 493L489 0h-70l69 356L307 87h-53l-77 273L107 0H37l95 493h69l93-330 221 330h70z"/><glyph glyph-name="afii10079" unicode="н" horiz-adv-x="535" d="M499 493L401 0h-70l44 222H151L106 0H36l99 493h70l-43-210h225l42 210h70z"/><glyph glyph-name="afii10080" unicode="о" horiz-adv-x="502" d="M452 337q0-36-10-91-27-138-93-199Q290-6 209-6 143-6 96.5 34T50 156q0 35 10 90 26 140 93 199 60 54 140 54 66 0 112.5-40T452 337zm-69-5q0 54-27 80t-69 26q-53 0-91-38-46-46-67-154-10-50-10-85 0-54 27-80t68-26q54 0 92 38 46 45 67 153 10 51 10 86z"/><glyph glyph-name="afii10081" unicode="п" horiz-adv-x="561" d="M500 493L402 0h-70l86 432H194L107 0H37l99 493h364z"/><glyph glyph-name="afii10082" unicode="р" horiz-adv-x="519" d="M470 345q0-42-11-98-29-145-85-201Q322-6 242-6q-88 0-122 68L63-219H-7l142 712h69l-12-58q53 64 137 64 75 0 108-42.5T470 345zm-71-9q0 101-88 101-69 0-103.5-50.5T156 247q-11-55-11-89 0-102 89-102 69 0 103 51t51 140q11 55 11 89z"/><glyph glyph-name="afii10083" unicode="с" horiz-adv-x="466" d="M450 426l-52-44q-37 55-97 55-62 0-109-48-47-50-64-142-8-42-8-74 0-58 31-87.5T227 56q65 0 119 57l41-50Q318-6 223-6 139-6 94.5 43.5T50 171q0 40 7 76 22 122 88.5 187T308 499q90 0 142-73z"/><glyph glyph-name="afii10084" unicode="т" horiz-adv-x="404" d="M443 493l-11-61H274L187 0h-70l87 432H46l12 61h385z"/><glyph glyph-name="afii10085" unicode="у" horiz-adv-x="424" d="M462 493L134-118q-22-41-42-59-36-33-102-33h-31l13 62h21q34 0 51.5 13.5T82-83l49 94-71 482h70l51-397 204 397h77z"/><glyph glyph-name="afii10086" unicode="ф" horiz-adv-x="647" d="M327 438q-78-2-125-38-58-46-79-145-6-31-6-67 0-124 134-132zm273-128q0-34-7-74-15-74-40.5-115.5T485 47Q417-5 307-5l-42-214h-70L237-4Q153 2 99.5 50.5T46 183q0 40 8 74 15 74 40 115.5t67 73.5q68 52 177 52l43 214h70l-43-215q85-6 138.5-54.5T600 310zm-70-5q0 124-134 132L320 55q78 2 124 38 31 24 49.5 57t29.5 88q7 37 7 67z"/><glyph glyph-name="afii10087" unicode="х" horiz-adv-x="458" d="M467 493L270 249 384 0h-82l-81 196L69 0h-86l206 256L81 493h81l78-185 141 185h86z"/><glyph glyph-name="afii10088" unicode="ц" horiz-adv-x="552" d="M499 493L412 61h70l-39-196h-67L403 0H37l98 493h70L119 61h223l87 432h70z"/><glyph glyph-name="afii10089" unicode="ч" horiz-adv-x="510" d="M474 493L376 0h-70l38 194q-68-21-136-21-58 0-91.5 28.5T83 284q0 17 5 44l32 165h70l-30-155q-5-28-5-40 0-62 79-62 59 0 122 18l48 239h70z"/><glyph glyph-name="afii10090" unicode="ш" horiz-adv-x="765" d="M729 493L631 0H37l98 493h70L119 61h192l86 432h70L381 61h192l86 432h70z"/><glyph glyph-name="afii10091" unicode="щ" horiz-adv-x="782" d="M729 493L643 61h69l-39-196h-67L633 0H37l98 493h70L119 61h192l86 432h70L381 61h192l86 432h70z"/><glyph glyph-name="afii10092" unicode="ъ" horiz-adv-x="516" d="M459 174q0-78-50-126T272 0H81l86 432H46l13 61h190l-39-195h115q67 0 100.5-36t33.5-88zm-69-8q0 73-83 73H199L162 58h110q63 0 90.5 34.5T390 166z"/><glyph glyph-name="afii10093" unicode="ы" horiz-adv-x="660" d="M415 174q0-77-50-125.5T227 0H36l99 493h70l-40-195h115q67 0 101-36t34-88zm-70-8q0 73-83 73H154L118 58h109q63 0 90.5 34.5T345 166zm279 327L526 0h-70l98 493h70z"/><glyph glyph-name="afii10094" unicode="ь" horiz-adv-x="471" d="M415 174q0-77-50-125.5T227 0H36l99 493h70l-40-195h115q67 0 101-36t34-88zm-70-8q0 73-83 73H154L118 58h109q63 0 90.5 34.5T345 166z"/><glyph glyph-name="afii10095" unicode="э" horiz-adv-x="466" d="M416 321q0-37-6-76-19-120-81-185.5T165-6Q62-6 11 64l49 48q40-57 109-57t111 47q43 48 58 126H139l10 52h197q2 19 2 43 0 56-31.5 85.5T241 438q-63 0-117-57l-39 45q70 73 159 73 82 0 127-51t45-127z"/><glyph glyph-name="afii10096" unicode="ю" horiz-adv-x="693" d="M643 337q0-41-9-91-29-140-93-198Q481-6 400-6q-66 0-112.5 40T241 156q0 34 5 66h-95L107 0H37l98 493h70l-43-210h96q26 111 86 162 60 54 140 54 66 0 112.5-40T643 337zm-69-5q0 54-27 80t-69 26q-52 0-91-39-45-45-67-153-10-50-10-85 0-54 27-80t69-26q52 0 91 39 46 46 67 152 10 50 10 86z"/><glyph glyph-name="afii10097" unicode="я" horiz-adv-x="491" d="M454 493L356 0h-70l39 194H216L84 0H5l145 205q-76 26-76 113 0 78 50.5 126.5T263 493h191zm-81-58H264q-64 0-92-35t-28-74q0-74 84-74h109z"/><glyph glyph-name="uni0450" unicode="ѐ" horiz-adv-x="506" d="M453 330q0-36-12-101H123q-6-40-6-62 0-51 26.5-82T223 54q75 0 139 58l42-46Q326-6 218-6 143-6 96.5 37.5T50 164q0 58 14 115t41.5 107.5 76 81.5T293 499q76 0 118-47.5T453 330zm-68 0q0 55-27 82.5T290 440q-116 0-157-160h248q4 21 4 50zm-34 259h-63l-72 151h77z"/><glyph glyph-name="afii10071" unicode="ё" horiz-adv-x="506" d="M453 330q0-36-12-101H123q-6-40-6-62 0-51 26.5-82T223 54q75 0 139 58l42-46Q326-6 218-6 143-6 96.5 37.5T50 164q0 58 14 115t41.5 107.5 76 81.5T293 499q76 0 118-47.5T453 330zm-68 0q0 55-27 82.5T290 440q-116 0-157-160h248q4 21 4 50zm90 353l-17-87h-68l17 87h68zm-200 0l-17-87h-68l17 87h68z"/><glyph glyph-name="afii10099" unicode="ђ" horiz-adv-x="534" d="M473 358q0-24-5-49L399-34q-29-146-164-146h-50l12 60h32q83 0 102 93l66 329q5 23 5 46 0 43-24.5 65.5T313 436q-17 0-35-5t-41.5-18-43-42-27.5-71L107 0H37l112 565H89l11 49h59l20 98h70l-20-98h218l-10-49H219l-25-127q53 59 141 59 60 0 99-37t39-102z"/><glyph glyph-name="afii10100" unicode="ѓ" horiz-adv-x="388" d="M433 740L305 589h-70l118 151h80zm-7-247l-11-61H193L107 0H37l99 493h290z"/><glyph glyph-name="afii10101" unicode="є" horiz-adv-x="466" d="M450 425l-52-43q-37 56-98 56-63 0-109-49-40-43-57-109h199l-10-52H123q-5-35-5-57 0-58 31-87t77-29q66 0 121 58l40-50Q318-6 223-6 139-6 94.5 44T50 171q0 40 7 75 22 122 88.5 187.5T308 499q89 0 142-74z"/><glyph glyph-name="afii10102" unicode="ѕ" horiz-adv-x="470" d="M434 444l-50-43q-46 40-115 40-58 0-90.5-30T146 341q0-45 73-56l66-9q65-10 92.5-38t27.5-83q0-61-49-107Q301-6 187-6 70-6 5 65l52 45q48-56 136-56 67 0 104.5 30.5T335 153q0 31-17 44t-52 18l-67 10Q76 243 76 332q0 66 46 112 55 55 156 55 97 0 156-55z"/><glyph glyph-name="afii10103" unicode="і" horiz-adv-x="240" d="M205 493L107 0H37l98 493h70zm46 213l-15-73h-79l14 73h80z"/><glyph glyph-name="afii10104" unicode="ї" horiz-adv-x="240" d="M205 493L107 0H37l98 493h70zm-74 190l-17-87H46l17 87h68zm201 0l-17-87h-68l17 87h68z"/><glyph glyph-name="afii10105" unicode="ј" horiz-adv-x="241" d="M205 493L89-92Q63-220-56-220h-51l12 60h34q66 0 80 75l116 578h70zm46 213l-15-73h-79l14 73h80z"/><glyph glyph-name="afii10106" unicode="љ" horiz-adv-x="752" d="M696 174q0-78-50-126T509 0H318l86 432H235l-35-173q-30-148-79.5-203.5T-1 0h-31l12 59h15q19 0 34.5 6.5t36 26.5 38.5 67.5T137 279l43 214h306l-39-195h115q67 0 100.5-36t33.5-88zm-69-8q0 73-83 73H435L399 58h109q64 0 91.5 34.5T627 166z"/><glyph glyph-name="afii10107" unicode="њ" horiz-adv-x="765" d="M709 174q0-78-50-126T522 0H331l47 236H153L106 0H36l99 493h70l-40-195h225l39 195h70l-39-195h115q67 0 100.5-36t33.5-88zm-69-8q0 73-83 73H448L412 58h110q63 0 90.5 34.5T640 166z"/><glyph glyph-name="afii10108" unicode="ћ" horiz-adv-x="534" d="M473 358q0-24-5-49L406 0h-70l61 302q5 23 5 46 0 43-24.5 65.5T313 436q-17 0-35-5t-41.5-18-43-42-27.5-71L107 0H37l112 565H89l11 49h59l20 98h70l-20-98h218l-10-49H219l-25-127q53 59 141 59 60 0 99-37t39-102z"/><glyph glyph-name="afii10109" unicode="ќ" horiz-adv-x="457" d="M487 493L234 254 400 0h-82L158 254l243 239h86zm-282 0L107 0H37l98 493h70zm263 247L340 589h-70l118 151h80z"/><glyph glyph-name="uni045D" unicode="ѝ" horiz-adv-x="542" d="M506 493L408 0h-70l74 373L107 0H37l98 493h70l-75-373 306 373h70zm-134 96h-63l-72 151h77z"/><glyph glyph-name="afii10110" unicode="ў" horiz-adv-x="424" d="M462 493L134-118q-22-41-42-59-36-33-102-33h-31l13 62h21q34 0 51.5 13.5T82-83l49 94-71 482h70l51-397 204 397h77zm-35 208q-28-125-156-125-60 0-93 27t-33 75q0 12 1 23h60q-1-11-1-20 0-26 18.5-41.5T275 624q74 0 92 77h60z"/><glyph glyph-name="afii10193" unicode="џ" horiz-adv-x="535" d="M498 493L400 0H252l-27-135h-67L185 0H36l99 493h70L118 61h224l86 432h70z"/><glyph glyph-name="afii10146" unicode="Ѣ" horiz-adv-x="604" d="M560 243q0-105-68-174T308 0H55l110 551H93l11 56h73l21 105h72l-21-105h155l-11-56H238l-27-137h168q92 0 136.5-49T560 243zm-73-4q0 48-28.5 80T369 351H197L140 64h171q78 0 127 49t49 126z"/><glyph glyph-name="afii10194" unicode="ѣ" horiz-adv-x="480" d="M316 390H193l-19-92h115q67 0 101-36t34-88q0-77-50-125.5T236 0H45l78 390H65l9 47h59l11 56h70l-11-56h122zm38-224q0 73-83 73H163L127 58h109q63 0 90.5 34.5T354 166z"/><glyph glyph-name="afii10147" unicode="Ѳ" horiz-adv-x="617" d="M589 526q0-51-24-170-26-130-45.5-186T460 73Q384-6 267-6q-87 0-142.5 52.5T69 186q0 56 23 170 26 128 46 185t60 98q74 79 193 79 87 0 142.5-52.5T589 526zM408 117q25 26 41.5 71T486 329H159q-17-90-17-138 0-63 37.5-98.5T271 57q80 0 137 60zm108 404q0 63-37.5 98.5T387 655q-81 0-138-60-25-27-41.5-70.5T172 391h327q17 90 17 130z"/><glyph glyph-name="afii10195" unicode="ѳ" horiz-adv-x="502" d="M452 337q0-39-10-91-29-141-93-198Q289-6 209-6 143-6 96.5 34T50 156q0 43 9 90 28 141 93 199 60 54 141 54 66 0 112.5-40T452 337zM306 94q43 43 63 135H126q-7-39-7-68 0-54 27-80t69-26q52 0 91 39zm77 238q0 54-27 80t-69 26q-52 0-91-39-40-40-60-119h243q4 28 4 52z"/><glyph glyph-name="afii10148" unicode="Ѵ" horiz-adv-x="519" d="M534 573L243 0h-60l-83 712h73l64-582 232 468q57 113 168 113h56l-13-63h-34q-74 0-112-75z"/><glyph glyph-name="afii10196" unicode="ѵ" horiz-adv-x="425" d="M395 366L196 0h-63L60 493h71l50-397 158 306q19 37 42 58 36 33 102 33h31l-13-62h-17q-33 0-50.5-13T395 366z"/><glyph glyph-name="afii10050" unicode="Ґ" horiz-adv-x="527" d="M634 877l-45-228H252L121 0H49l143 712h338l33 165h71z"/><glyph glyph-name="afii10098" unicode="ґ" horiz-adv-x="390" d="M456 636l-41-204H193L107 0H37l99 493h223l29 143h68z"/><glyph glyph-name="uni0492" unicode="Ғ" horiz-adv-x="540" d="M614 712l-12-63H265l-53-262h154l-11-56H201L134 0H62l66 331H55l11 56h73l66 325h409z"/><glyph glyph-name="uni0493" unicode="ғ" horiz-adv-x="408" d="M446 493l-11-61H213l-28-139h123l-9-47H176L127 0H57l49 246H48l9 47h59l40 200h290z"/><glyph glyph-name="uni0496" unicode="Җ" horiz-adv-x="848" d="M488 370l330 342h96L572 370 757 64h52l-46-229h-71L723 0h-21zm-73 1L53 0H-49l381 376-207 336h89zm141 341L413 0h-72l143 712h72z"/><glyph glyph-name="uni0497" unicode="җ" horiz-adv-x="654" d="M362 254l232 239h87L438 254 558 61h50l-39-196h-67L529 0h-17zm-71-1L45 0h-91l263 262L69 493h78zm118 240L311 0h-70l98 493h70z"/><glyph glyph-name="uni049A" unicode="Қ" horiz-adv-x="562" d="M196 371l336 341h95L280 370 470 64h53l-46-229h-71L438 0h-22zm68 341L121 0H49l143 712h72z"/><glyph glyph-name="uni049B" unicode="қ" horiz-adv-x="456" d="M487 493L234 254 360 61h52l-39-196h-67L333 0h-15L158 254l243 239h86zm-282 0L107 0H37l98 493h70z"/><glyph glyph-name="uni049C" unicode="Ҝ" horiz-adv-x="631" d="M578 0h-94L306 340h-28l-30-149h-57l30 149h-32L121 0H49l143 712h72l-63-311h33l31 149h58l-32-149h26l283 311h95L374 370z"/><glyph glyph-name="uni049D" unicode="ҝ" horiz-adv-x="522" d="M466 0h-82L265 224h-28L213 97h-55l25 127h-32L106 0H37l98 493h69l-42-213h32l25 127h54l-24-127h24l194 213h85L325 254z"/><glyph glyph-name="uni04A2" unicode="Ң" horiz-adv-x="660" d="M657 712L527 64h36l-46-229h-71L478 0h-36l66 328H188L121 0H49l143 712h72l-63-321h320l64 321h72z"/><glyph glyph-name="uni04A3" unicode="ң" horiz-adv-x="535" d="M499 493L413 61h32l-39-196h-67L366 0h-35l44 222H151L106 0H36l99 493h70l-43-210h225l42 210h70z"/><glyph glyph-name="uni04AE" unicode="Ү" horiz-adv-x="490" d="M575 712L293 291 234 0h-73l60 296-121 416h76l94-344 224 344h81z"/><glyph glyph-name="uni04AF" unicode="ү" horiz-adv-x="424" d="M462 493L203 11l-45-221H87l44 221-71 482h70l51-397 204 397h77z"/><glyph glyph-name="uni04B0" unicode="Ұ" horiz-adv-x="490" d="M575 712L296 296h110l-11-56H282L234 0h-73l48 240H95l11 56h115L100 712h76l94-344 224 344h81z"/><glyph glyph-name="uni04B1" unicode="ұ" horiz-adv-x="424" d="M462 493L203 11h88l-9-47h-89l-35-174H87l34 174H31l9 47h91L60 493h70l51-397 204 397h77z"/><glyph glyph-name="uni04B2" unicode="Ҳ" horiz-adv-x="526" d="M587 712L325 361 441 64h38l-46-229h-71L394 0h-9L273 302 50 0h-85l279 371-130 341h81l101-284 205 284h86z"/><glyph glyph-name="uni04B3" unicode="ҳ" horiz-adv-x="458" d="M467 493L270 249l86-188h40l-39-196h-67L317 0h-15l-81 196L69 0h-86l206 256L81 493h81l78-185 141 185h86z"/><glyph glyph-name="uni04B6" unicode="Ҷ" horiz-adv-x="619" d="M615 712L485 64h35l-46-229h-71L435 0h-36l58 290q-95-26-177-26-78 0-123.5 37T111 407q0 24 5 51l50 254h73l-49-243q-5-23-5-46 0-95 114-95 82 0 171 24l72 360h73z"/><glyph glyph-name="uni04B7" unicode="ҷ" horiz-adv-x="511" d="M474 493L388 61h32l-39-196h-67L341 0h-35l38 194q-68-21-136-21-58 0-91.5 28.5T83 284q0 17 5 44l32 165h70l-30-155q-5-28-5-40 0-62 79-62 59 0 122 18l48 239h70z"/><glyph glyph-name="uni04B8" unicode="Ҹ" horiz-adv-x="621" d="M617 712L474 0h-72l58 290q-65-19-128-23l-31-151h-60l30 148q-74 2-117 39t-43 104q0 23 5 51l50 254h73l-49-243q-5-23-5-46 0-87 99-93l31 145h62l-31-146q68 6 127 23l72 360h72z"/><glyph glyph-name="uni04B9" unicode="ҹ" horiz-adv-x="518" d="M481 493L382 0h-69l38 194q-36-13-87-18L239 49h-54l24 124q-59 1-92.5 29T83 284q0 17 5 44l32 165h70l-31-155q-4-23-4-40 0-56 67-61l24 121h55l-24-121q44 4 86 16l48 240h70z"/><glyph glyph-name="uni04BA" unicode="Һ" horiz-adv-x="619" d="M49 0l143 712h73l-58-290q95 26 177 26 78 0 123.5-37T553 305q0-24-5-51L498 0h-73l49 243q5 23 5 46 0 95-114 95-82 0-171-24L122 0H49z"/><glyph glyph-name="uni04BB" unicode="һ" horiz-adv-x="510" d="M36 0l98 493h70l-38-194q68 21 136 21 58 0 91.5-28.5T427 209q0-17-5-44L390 0h-70l30 155q5 28 5 40 0 62-79 62-59 0-122-18L106 0H36z"/><glyph glyph-name="uni04C0" unicode="Ӏ" horiz-adv-x="269" d="M264 712L121 0H49l143 712h72z"/><glyph glyph-name="uni04CF" unicode="ӏ" horiz-adv-x="243" d="M250 712L107 0H37l143 712h70z"/><glyph glyph-name="uni04D8" unicode="Ә" horiz-adv-x="617" d="M593 526q0-51-24-170-27-130-46.5-186T463 73Q389-6 271-6q-88 0-145 52.5T69 186q0 58 22 164l4 22h403q22 105 22 149 0 63-38 98.5T390 655q-84 0-141-60-29-33-47-87h-75q25 82 71 131 76 79 196 79 88 0 143.5-52.5T593 526zM486 310H156q-14-74-14-119 0-63 39.5-98.5T275 57q80 0 137 60 24 26 40.5 67.5T486 310z"/><glyph glyph-name="afii10846" unicode="ә" horiz-adv-x="506" d="M53 163q0 36 12 101h318q6 40 6 62 0 51-27 82t-80 31q-74 0-138-58l-42 46q78 72 186 72 75 0 121.5-43.5T456 329q0-59-14-115.5t-41.5-107-76-81.5T213-6Q137-6 95 41.5T53 163zm68 0q0-55 27-82.5T216 53q115 0 157 160H125q-4-21-4-50z"/><glyph glyph-name="uni04E2" unicode="Ӣ" horiz-adv-x="696" d="M692 712L549 0h-72l115 570L116 0H49l143 712h72L150 141l475 571h67zM327 851h287l-11-53H316z"/><glyph glyph-name="uni04E3" unicode="ӣ" horiz-adv-x="542" d="M506 493L408 0h-70l74 373L107 0H37l98 493h70l-75-373 306 373h70zm-7 172l-11-53H202l11 53h286z"/><glyph glyph-name="uni04E8" unicode="Ө" horiz-adv-x="617" d="M589 526q0-51-24-170-26-130-45.5-186T460 73Q384-6 267-6q-87 0-142.5 52.5T69 186q0 56 23 170 26 128 46 185t60 98q74 79 193 79 87 0 142.5-52.5T589 526zM408 117q25 26 41.5 71T486 329H159q-17-90-17-138 0-63 37.5-98.5T271 57q80 0 137 60zm108 404q0 63-37.5 98.5T387 655q-81 0-138-60-25-27-41.5-70.5T172 391h327q17 90 17 130z"/><glyph glyph-name="uni04E9" unicode="ө" horiz-adv-x="502" d="M452 337q0-39-10-91-29-141-93-198Q289-6 209-6 143-6 96.5 34T50 156q0 43 9 90 28 141 93 199 60 54 141 54 66 0 112.5-40T452 337zM306 94q43 43 63 135H126q-7-39-7-68 0-54 27-80t69-26q52 0 91 39zm77 238q0 54-27 80t-69 26q-52 0-91-39-40-40-60-119h243q4 28 4 52z"/><glyph glyph-name="uni04EE" unicode="Ӯ" horiz-adv-x="555" d="M644 712L259 113q-39-61-76-87T91 0H35l13 63h39q36 0 60.5 17t51.5 58l43 67-142 507h75l117-435 271 435h81zM254 851h287l-11-53H243z"/><glyph glyph-name="uni04EF" unicode="ӯ" horiz-adv-x="424" d="M462 493L134-118q-22-41-42-59-36-33-102-33h-31l13 62h21q34 0 51.5 13.5T82-83l49 94-71 482h70l51-397 204 397h77zm-29 172l-11-53H136l11 53h286z"/><glyph glyph-name="Wgrave" unicode="Ẁ" horiz-adv-x="815" d="M890 712L581 0h-68l-38 573L208 0h-67l-33 712h75l20-577 264 577h65l37-577 243 577h78zm-358 63h-63l-71 151h77z"/><glyph glyph-name="wgrave" unicode="ẁ" horiz-adv-x="688" d="M724 493L485 0h-64l-48 382L176 0h-64L61 493h71l31-394 200 394h57l47-394 183 394h74zm-282 96h-63l-72 151h77z"/><glyph glyph-name="Wacute" unicode="Ẃ" horiz-adv-x="815" d="M890 712L581 0h-68l-38 573L208 0h-67l-33 712h75l20-577 264 577h65l37-577 243 577h78zM675 926L547 775h-69l117 151h80z"/><glyph glyph-name="wacute" unicode="ẃ" horiz-adv-x="688" d="M724 493L485 0h-64l-48 382L176 0h-64L61 493h71l31-394 200 394h57l47-394 183 394h74zM572 740L444 589h-70l118 151h80z"/><glyph glyph-name="Wdieresis" unicode="Ẅ" horiz-adv-x="815" d="M890 712L581 0h-68l-38 573L208 0h-67l-33 712h75l20-577 264 577h65l37-577 243 577h78zM668 870l-17-87h-68l17 87h68zm-200 0l-17-87h-68l17 87h68z"/><glyph glyph-name="wdieresis" unicode="ẅ" horiz-adv-x="688" d="M724 493L485 0h-64l-48 382L176 0h-64L61 493h71l31-394 200 394h57l47-394 183 394h74zM567 683l-17-87h-68l17 87h68zm-200 0l-17-87h-68l17 87h68z"/><glyph glyph-name="uni1E8A" unicode="Ẋ" horiz-adv-x="526" d="M587 712L325 361 466 0h-81L273 302 50 0h-85l279 371-130 341h81l101-284 205 284h86zM419 866l-15-74h-72l15 74h72z"/><glyph glyph-name="uni1E8B" unicode="ẋ" horiz-adv-x="458" d="M467 493L270 249 384 0h-82l-81 196L69 0h-86l206 256L81 493h81l78-185 141 185h86zM350 679l-15-74h-72l15 74h72z"/><glyph glyph-name="Ygrave" unicode="Ỳ" horiz-adv-x="495" d="M575 712L293 291 234 0h-73l60 296-121 416h76l94-344 224 344h81zm-200 63h-63l-71 151h77z"/><glyph glyph-name="ygrave" unicode="ỳ" horiz-adv-x="424" d="M462 493L134-118q-22-41-42-59-36-33-102-33h-31l13 62h21q34 0 51.5 13.5T82-83l49 94-71 482h70l51-397 204 397h77zm-159 96h-63l-72 151h77z"/><glyph glyph-name="uni2007" horiz-adv-x="496"/><glyph glyph-name="uni2008" horiz-adv-x="257"/><glyph glyph-name="uni200B" unicode="​" horiz-adv-x="0"/><glyph glyph-name="endash" unicode="–" horiz-adv-x="496" d="M458 302l-13-64H48l13 64h397z"/><glyph glyph-name="emdash" unicode="—" horiz-adv-x="870" d="M810 302l-12-64H70l13 64h727z"/><glyph glyph-name="afii00208" unicode="―" horiz-adv-x="870" d="M810 302l-12-64H70l13 64h727z"/><glyph glyph-name="quoteleft" unicode="‘" horiz-adv-x="250" d="M277 792l-33-165h-84l17 85z"/><glyph glyph-name="quoteright" unicode="’" horiz-adv-x="250" d="M261 712l-17-85-100-80 33 165h84z"/><glyph glyph-name="quotesinglbase" unicode="‚" horiz-adv-x="250" d="M136 85L119 0 18-80 51 85h85z"/><glyph glyph-name="quotedblleft" unicode="“" horiz-adv-x="413" d="M277 792l-33-165h-84l17 85zm163 0l-34-165h-83l17 85z"/><glyph glyph-name="quotedblright" unicode="”" horiz-adv-x="413" d="M261 712l-17-85-100-80 33 165h84zm163 0l-18-85-99-80 33 165h84z"/><glyph glyph-name="quotedblbase" unicode="„" horiz-adv-x="413" d="M136 85L119 0 18-80 51 85h85zm163 0L281 0 181-80l33 165h85z"/><glyph glyph-name="dagger" unicode="†" horiz-adv-x="574" d="M556 507l-12-62H361L272 0h-70l89 445H109l13 62h181l41 205h70l-41-205h183z"/><glyph glyph-name="daggerdbl" unicode="‡" horiz-adv-x="574" d="M556 507l-12-62H361L281 50h185l-12-62H269l-41-207h-70l42 207H20l12 62h180l79 395H109l13 62h181l41 205h70l-41-205h183z"/><glyph glyph-name="bullet" unicode="•" horiz-adv-x="505" d="M425 334q0-68-43.5-111.5T270 179t-111.5 43.5T115 334t43.5 111.5T270 489t111.5-43.5T425 334z"/><glyph glyph-name="ellipsis" unicode="…" horiz-adv-x="721" d="M607 92L590 0h-90l19 92h88zm-466 0L123 0H34l19 92h88zm233 0L356 0h-88l18 92h88z"/><glyph glyph-name="perthousand" unicode="‰" horiz-adv-x="1129" d="M737 264q0-20-4-40l-19-95Q687-6 564-6q-45 0-78 25t-33 79q0 20 4 40l19 95q27 135 150 135 45 0 78-25t33-79zm-55-5q0 60-61 60-74 0-90-86l-19-95q-4-20-4-35 0-60 61-60 72 0 90 86l19 95q4 20 4 35zm-1 453L223 0h-60l458 712h60zm-291-97q0-20-4-40l-19-95q-27-135-150-135-45 0-78 25t-33 79q0 20 4 40l19 95q27 135 150 135 45 0 78-25t33-79zm-55-5q0 60-61 60-74 0-90-86l-19-95q-4-20-4-35 0-60 61-60 72 0 90 86l19 95q4 20 4 35zm731-346q0-20-4-40l-19-95Q1016-6 893-6q-45 0-78 25t-33 79q0 20 4 40l19 95q27 135 150 135 45 0 78-25t33-79zm-55-5q0 60-61 60-74 0-90-86l-19-95q-4-20-4-35 0-60 61-60 72 0 90 86l19 95q4 20 4 35z"/><glyph glyph-name="guilsinglleft" unicode="‹" horiz-adv-x="312" d="M285 478l-19-95-138-121 91-121-16-84L42 268z"/><glyph glyph-name="guilsinglright" unicode="›" horiz-adv-x="312" d="M279 267L37 57l19 95 138 121-92 121 17 84z"/><glyph glyph-name="fraction" unicode="⁄" horiz-adv-x="179" d="M371 712L-88 0h-60l459 712h60z"/><glyph glyph-name="uni2070" unicode="⁰" d="M340 618q0-16-3-28l-37-185q-13-66-52-95t-85-29q-43 0-71 26t-28 72q0 15 3 28l36 185q13 66 52 95t85 29q44 0 72-26t28-72zm-56-4q0 26-14 38t-35 12q-63 0-77-73l-36-183q-3-12-3-24 0-51 48-51 64 0 78 73l36 184q3 12 3 24z"/><glyph glyph-name="uni2074" unicode="⁴" d="M316 401l-9-50h-46l-13-66h-54l14 66H42l10 50 203 311h62L112 401h105l21 105h54l-21-105h45z"/><glyph glyph-name="uni2075" unicode="⁵" d="M353 712l-10-50H176l-22-118q27 24 69 24 44 0 67-26.5t23-66.5q0-27-4-48-17-81-46-110-38-36-97-36-49 0-75 26.5T65 375q0 11 1 19h53v-13q0-50 49-50 67 0 85 96 5 25 5 42 0 52-49 52-47 0-71-40H90l46 231h217z"/><glyph glyph-name="uni2076" unicode="⁶" d="M305 422q0-60-37.5-100.5T175 281q-56 0-84 33t-28 78q0 49 46 119l134 201h63L180 526q25 5 29 5 45 0 70.5-30t25.5-79zm-55-1q0 29-15 47t-42 18q-36 0-55.5-28T118 396q0-30 15-47.5t42-17.5q34 0 54.5 27t20.5 63z"/><glyph glyph-name="uni2077" unicode="⁷" d="M369 712l-9-51-208-376H91l208 376H168l-13-70h-54l24 121h244z"/><glyph glyph-name="uni2078" unicode="⁸" d="M341 612q0-36-19.5-66T271 501q39-28 39-82 0-57-38-97.5T167 281q-47 0-79 27.5T56 388q0 85 79 121-34 29-34 74 0 56 38 94.5t96 38.5q47 0 76.5-28t29.5-76zm-87-192q0 27-16 44.5T195 482q-37 0-60-26t-23-64q0-27 15.5-44t42.5-17q37 0 60.5 25t23.5 64zm32 191q0 24-14.5 39.5T232 666q-34 0-55-25t-21-58q0-25 14-40t39-15q34 0 55.5 25t21.5 58z"/><glyph glyph-name="uni2079" unicode="⁹" d="M340 606q0-51-47-120L160 285H97l126 187q-20-6-30-6-44 0-69.5 30T98 575q0 61 37 101t92 40q56 0 84.5-32.5T340 606zm-55-5q0 29-15 46.5T228 665q-37 0-56-26t-19-63q0-28 15-45.5t42-17.5q37 0 56 26t19 62z"/><glyph glyph-name="uni2080" unicode="₀" d="M253 183q0-16-3-28L213-30q-13-66-52-95t-85-29q-43 0-71 26t-28 72q0 14 3 28l36 185q13 66 52 95t85 29q44 0 72-26t28-72zm-56-4q0 26-14 38t-35 12q-63 0-77-73L35-27q-3-12-3-24 0-51 48-51 64 0 78 73l36 184q3 12 3 24z"/><glyph glyph-name="uni2081" unicode="₁" d="M206 277l-86-427H66l72 361-95-71 13 68 95 69h55z"/><glyph glyph-name="uni2082" unicode="₂" d="M255 182q0-60-63-123L35-100h168l-10-50H-43l10 50L155 93q43 43 43 85 0 53-52 53-62 0-75-67H16q21 117 135 117 51 0 77.5-27.5T255 182z"/><glyph glyph-name="uni2083" unicode="₃" d="M248 180q0-84-71-112 22-13 31.5-32t9.5-53q0-57-37-97T76-154q-57 0-84 29t-27 65q0 18 1 24h56q-8-68 60-68 31 0 56 22t25 65q0 62-59 62h-9l10 48h7q42 0 61.5 24t19.5 60q0 29-14.5 42T142 232q-61 0-78-65H9q26 114 136 114 47 0 75-27.5t28-73.5z"/><glyph glyph-name="uni2084" unicode="₄" d="M229-34l-9-50h-46l-13-66h-54l14 66H-45l10 50 203 311h62L25-34h105l21 105h54L184-34h45z"/><glyph glyph-name="uni2085" unicode="₅" d="M267 277l-10-50H90L68 109q27 24 69 24 44 0 67-26.5T227 40q0-27-4-48-17-81-46-110-38-36-97-36-49 0-75 26.5T-21-60q0 11 1 19h53v-13q0-50 49-50 67 0 85 96 5 25 5 42 0 52-49 52-47 0-71-40H4l46 231h217z"/><glyph glyph-name="uni2086" unicode="₆" d="M218-13q0-60-37.5-100.5T88-154q-56 0-84 33t-28 78q0 49 46 119l134 201h63L93 91q25 5 29 5 45 0 70.5-30T218-13zm-55-1q0 29-15 47t-42 18q-36 0-55.5-28T31-39q0-30 15-47.5T88-104q34 0 54.5 27T163-14z"/><glyph glyph-name="uni2087" unicode="₇" d="M283 277l-9-51L66-150H5l208 376H82l-13-70H15l24 121h244z"/><glyph glyph-name="uni2088" unicode="₈" d="M254 177q0-36-19.5-66T184 66q39-28 39-82 0-57-38-97.5T80-154q-47 0-79 27.5T-31-47q0 85 79 121-34 29-34 74 0 56 38 94.5t96 38.5q47 0 76.5-28t29.5-76zM167-15q0 27-16 44.5T108 47q-37 0-60-26T25-43q0-27 15.5-44T83-104q37 0 60.5 25T167-15zm32 191q0 24-14.5 39.5T145 231q-34 0-55-25t-21-58q0-25 14-40t39-15q34 0 55.5 25t21.5 58z"/><glyph glyph-name="uni2089" unicode="₉" d="M253 171q0-51-47-120L73-150H10L136 37q-20-6-30-6-44 0-69.5 30T11 140q0 61 37 101t92 40q56 0 84.5-32.5T253 171zm-55-5q0 29-15 46.5T141 230q-37 0-56-26t-19-63q0-28 15-45.5T123 78q37 0 56 26t19 62z"/><glyph glyph-name="Euro" unicode="€" horiz-adv-x="643" d="M625 509h-73q-1 67-36 106.5T418 655q-78 0-135-60-40-43-64-140h208l-9-47H209l-20-98h210l-9-47H182q-7-37-7-75 0-60 39.5-95.5T311 57q70 0 118 42t70 104h74q-31-98-102-153.5T306-6q-88 0-146.5 51.5T101 186q0 26 8 77H46l9 47h62l19 98H74l9 47h63q17 71 35.5 111t50.5 74q76 78 188 78 99 0 151.5-57.5T625 509z"/><glyph glyph-name="uni20B4" unicode="₴" horiz-adv-x="631" d="M627 454l-9-46h-76q-43-33-127-55l-110-30q-4-1-43-13h337l-9-46H183q-28-29-28-79 0-55 42.5-91.5T316 57q58 0 102.5 19t92.5 64l45-49q-57-53-114-75T308-6Q204-6 143 46.5T82 176q0 50 18 88H46l9 46h78q46 44 147 72l96 26H74l9 46h407q42 31 42 89 0 50-36.5 81.5T390 656q-93 0-173-71l-43 49q53 45 102 64.5T394 718q101 0 155.5-47.5T604 551q0-59-22-97h45z"/><glyph glyph-name="afii61352" unicode="№" horiz-adv-x="873" d="M906 601q0-27-7-62-20-105-59-141-38-35-96-35-17 0-34 4.5t-35 16-29.5 35.5-11.5 58q0 27 7 62 20 106 59 141 39 36 96 36 17 0 34-5t35-16.5 29.5-35.5 11.5-58zm-55-6q0 36-17.5 53T789 665q-36 0-56-24-22-24-38-102-6-32-6-56 0-36 17.5-53t44.5-17q36 0 56 25 22 25 38 101 6 31 6 56zm2-274l-11-51H592l11 51h250zM612 712L468 0h-64L212 577 96 0H28l143 712h65l191-577 116 577h69z"/><glyph glyph-name="trademark" unicode="™" horiz-adv-x="800" d="M838 712l-85-427h-56l62 310-135-201h-54l-56 205-64-314h-55l84 427h55l72-259 175 259h57zm-431 0l-10-51H286l-76-376h-55l75 376H116l11 51h280z"/><glyph glyph-name="Omega" unicode="Ω" horiz-adv-x="617" d="M590 526q0-34-25-170-23-120-40.5-170T470 96q-20-21-37-32h81L502 0H313l12 60q45 15 85 56 27 28 44 77t38 161q24 129 24 168 0 63-37.5 97.5T391 654q-83 0-142-60-28-28-45-77t-39-163q-24-128-24-168 0-46 21.5-79.5T222 60L210 0H29l13 64h80q-52 47-52 130 0 38 23 162 24 128 44 184.5t62 98.5q79 79 193 79 86 0 142-53.5T590 526z"/><glyph glyph-name="uni2150" unicode="⅐" horiz-adv-x="787" d="M294 712l-86-427h-54l72 361-95-71 13 68 95 69h55zm381 0L216 0h-60l459 712h60zm121-285l-9-51L579 0h-61l208 376H595l-13-70h-54l24 121h244z"/><glyph glyph-name="uni2151" unicode="⅑" horiz-adv-x="787" d="M294 712l-86-427h-54l72 361-95-71 13 68 95 69h55zm381 0L216 0h-60l459 712h60zm91-391q0-51-47-120L586 0h-63l126 187q-20-6-30-6-44 0-69.5 30T524 290q0 61 37 101t92 40q56 0 84.5-32.5T766 321zm-55-5q0 29-15 46.5T654 380q-37 0-56-26t-19-63q0-28 15-45.5t42-17.5q37 0 56 26t19 62z"/><glyph glyph-name="uni2152" unicode="⅒" horiz-adv-x="1091" d="M294 712l-86-427h-54l72 361-95-71 13 68 95 69h55zm381 0L216 0h-60l459 712h60zm45-285L634 0h-54l72 361-95-71 13 68 95 69h55zm350-94q0-16-3-28l-37-185q-13-66-52-95T893-4q-43 0-71 26t-28 72q0 14 3 28l36 185q13 66 52 95t85 29q44 0 72-26t28-72zm-56-4q0 26-14 38t-35 12q-63 0-77-73l-36-183q-3-12-3-24 0-51 48-51 64 0 78 73l36 184q3 12 3 24z"/><glyph glyph-name="onethird" unicode="⅓" horiz-adv-x="787" d="M294 712l-86-427h-54l72 361-95-71 13 68 95 69h55zm381 0L216 0h-60l459 712h60zm86-382q0-84-71-112 22-13 31.5-32t9.5-53q0-57-37-97T589-4q-57 0-84 29t-27 65q0 18 1 24h56q-8-68 60-68 31 0 56 22t25 65q0 62-59 62h-9l10 48h7q42 0 61.5 24t19.5 60q0 29-14.5 42T655 382q-61 0-78-65h-55q26 114 136 114 47 0 75-27.5t28-73.5z"/><glyph glyph-name="twothirds" unicode="⅔" horiz-adv-x="787" d="M342 617q0-60-63-123L122 335h168l-10-50H44l10 50 188 193q43 43 43 85 0 53-52 53-62 0-75-67h-55q21 117 135 117 51 0 77.5-27.5T342 617zm333 95L216 0h-60l459 712h60zm86-382q0-84-71-112 22-13 31.5-32t9.5-53q0-57-37-97T589-4q-57 0-84 29t-27 65q0 18 1 24h56q-8-68 60-68 31 0 56 22t25 65q0 62-59 62h-9l10 48h7q42 0 61.5 24t19.5 60q0 29-14.5 42T655 382q-61 0-78-65h-55q26 114 136 114 47 0 75-27.5t28-73.5z"/><glyph glyph-name="uni2155" unicode="⅕" horiz-adv-x="787" d="M294 712l-86-427h-54l72 361-95-71 13 68 95 69h55zm381 0L216 0h-60l459 712h60zm105-285l-10-50H603l-22-118q27 24 69 24 44 0 67-26.5t23-66.5q0-27-4-48-17-81-46-110-38-36-97-36-49 0-75 26.5T492 90q0 11 1 19h53V96q0-50 49-50 67 0 85 96 5 25 5 42 0 52-49 52-47 0-71-40h-48l46 231h217z"/><glyph glyph-name="uni2156" unicode="⅖" horiz-adv-x="787" d="M342 617q0-60-63-123L122 335h168l-10-50H44l10 50 188 193q43 43 43 85 0 53-52 53-62 0-75-67h-55q21 117 135 117 51 0 77.5-27.5T342 617zm333 95L216 0h-60l459 712h60zm105-285l-10-50H603l-22-118q27 24 69 24 44 0 67-26.5t23-66.5q0-27-4-48-17-81-46-110-38-36-97-36-49 0-75 26.5T492 90q0 11 1 19h53V96q0-50 49-50 67 0 85 96 5 25 5 42 0 52-49 52-47 0-71-40h-48l46 231h217z"/><glyph glyph-name="uni2157" unicode="⅗" horiz-adv-x="787" d="M334 615q0-84-71-112 22-13 31.5-32t9.5-53q0-57-37-97t-105-40q-57 0-84 29t-27 65q0 18 1 24h56q-8-68 60-68 31 0 56 22t25 65q0 62-59 62h-9l10 48h7q42 0 61.5 24t19.5 60q0 29-14.5 42T228 667q-61 0-78-65H95q26 114 136 114 47 0 75-27.5t28-73.5zm341 97L216 0h-60l459 712h60zm105-285l-10-50H603l-22-118q27 24 69 24 44 0 67-26.5t23-66.5q0-27-4-48-17-81-46-110-38-36-97-36-49 0-75 26.5T492 90q0 11 1 19h53V96q0-50 49-50 67 0 85 96 5 25 5 42 0 52-49 52-47 0-71-40h-48l46 231h217z"/><glyph glyph-name="uni2158" unicode="⅘" horiz-adv-x="787" d="M316 401l-9-50h-46l-13-66h-54l14 66H42l10 50 203 311h62L112 401h105l21 105h54l-21-105h45zm359 311L216 0h-60l459 712h60zm105-285l-10-50H603l-22-118q27 24 69 24 44 0 67-26.5t23-66.5q0-27-4-48-17-81-46-110-38-36-97-36-49 0-75 26.5T492 90q0 11 1 19h53V96q0-50 49-50 67 0 85 96 5 25 5 42 0 52-49 52-47 0-71-40h-48l46 231h217z"/><glyph glyph-name="uni2159" unicode="⅙" horiz-adv-x="787" d="M294 712l-86-427h-54l72 361-95-71 13 68 95 69h55zm381 0L216 0h-60l459 712h60zm56-575q0-60-37.5-100.5T601-4q-56 0-84 33t-28 78q0 49 46 119l134 201h63L606 241q25 5 29 5 45 0 70.5-30t25.5-79zm-55-1q0 29-15 47t-42 18q-36 0-55.5-28T544 111q0-30 15-47.5T601 46q34 0 54.5 27t20.5 63z"/><glyph glyph-name="uni215A" unicode="⅚" horiz-adv-x="787" d="M353 712l-10-50H176l-22-118q27 24 69 24 44 0 67-26.5t23-66.5q0-27-4-48-17-81-46-110-38-36-97-36-49 0-75 26.5T65 375q0 11 1 19h53v-13q0-50 49-50 67 0 85 96 5 25 5 42 0 52-49 52-47 0-71-40H90l46 231h217zm322 0L216 0h-60l459 712h60zm56-575q0-60-37.5-100.5T601-4q-56 0-84 33t-28 78q0 49 46 119l134 201h63L606 241q25 5 29 5 45 0 70.5-30t25.5-79zm-55-1q0 29-15 47t-42 18q-36 0-55.5-28T544 111q0-30 15-47.5T601 46q34 0 54.5 27t20.5 63z"/><glyph glyph-name="oneeighth" unicode="⅛" horiz-adv-x="787" d="M294 712l-86-427h-54l72 361-95-71 13 68 95 69h55zm381 0L216 0h-60l459 712h60zm92-385q0-36-19.5-66T697 216q39-28 39-82 0-57-38-97.5T593-4q-47 0-79 27.5T482 103q0 85 79 121-34 29-34 74 0 56 38 94.5t96 38.5q47 0 76.5-28t29.5-76zm-87-192q0 27-16 44.5T621 197q-37 0-60-26t-23-64q0-27 15.5-44T596 46q37 0 60.5 25t23.5 64zm32 191q0 24-14.5 39.5T658 381q-34 0-55-25t-21-58q0-25 14-40t39-15q34 0 55.5 25t21.5 58z"/><glyph glyph-name="threeeighths" unicode="⅜" horiz-adv-x="787" d="M334 615q0-84-71-112 22-13 31.5-32t9.5-53q0-57-37-97t-105-40q-57 0-84 29t-27 65q0 18 1 24h56q-8-68 60-68 31 0 56 22t25 65q0 62-59 62h-9l10 48h7q42 0 61.5 24t19.5 60q0 29-14.5 42T228 667q-61 0-78-65H95q26 114 136 114 47 0 75-27.5t28-73.5zm341 97L216 0h-60l459 712h60zm92-385q0-36-19.5-66T697 216q39-28 39-82 0-57-38-97.5T593-4q-47 0-79 27.5T482 103q0 85 79 121-34 29-34 74 0 56 38 94.5t96 38.5q47 0 76.5-28t29.5-76zm-87-192q0 27-16 44.5T621 197q-37 0-60-26t-23-64q0-27 15.5-44T596 46q37 0 60.5 25t23.5 64zm32 191q0 24-14.5 39.5T658 381q-34 0-55-25t-21-58q0-25 14-40t39-15q34 0 55.5 25t21.5 58z"/><glyph glyph-name="fiveeighths" unicode="⅝" horiz-adv-x="787" d="M353 712l-10-50H176l-22-118q27 24 69 24 44 0 67-26.5t23-66.5q0-27-4-48-17-81-46-110-38-36-97-36-49 0-75 26.5T65 375q0 11 1 19h53v-13q0-50 49-50 67 0 85 96 5 25 5 42 0 52-49 52-47 0-71-40H90l46 231h217zm322 0L216 0h-60l459 712h60zm92-385q0-36-19.5-66T697 216q39-28 39-82 0-57-38-97.5T593-4q-47 0-79 27.5T482 103q0 85 79 121-34 29-34 74 0 56 38 94.5t96 38.5q47 0 76.5-28t29.5-76zm-87-192q0 27-16 44.5T621 197q-37 0-60-26t-23-64q0-27 15.5-44T596 46q37 0 60.5 25t23.5 64zm32 191q0 24-14.5 39.5T658 381q-34 0-55-25t-21-58q0-25 14-40t39-15q34 0 55.5 25t21.5 58z"/><glyph glyph-name="seveneighths" unicode="⅞" horiz-adv-x="787" d="M369 712l-9-51-208-376H91l208 376H168l-13-70h-54l24 121h244zm306 0L216 0h-60l459 712h60zm92-385q0-36-19.5-66T697 216q39-28 39-82 0-57-38-97.5T593-4q-47 0-79 27.5T482 103q0 85 79 121-34 29-34 74 0 56 38 94.5t96 38.5q47 0 76.5-28t29.5-76zm-87-192q0 27-16 44.5T621 197q-37 0-60-26t-23-64q0-27 15.5-44T596 46q37 0 60.5 25t23.5 64zm32 191q0 24-14.5 39.5T658 381q-34 0-55-25t-21-58q0-25 14-40t39-15q34 0 55.5 25t21.5 58z"/><glyph glyph-name="uni215F" unicode="⅟" horiz-adv-x="483" d="M294 712l-86-427h-54l72 361-95-71 13 68 95 69h55zm381 0L216 0h-60l459 712h60z"/><glyph glyph-name="uni2189" unicode="↉" horiz-adv-x="787" d="M340 618q0-16-3-28l-37-185q-13-66-52-95t-85-29q-43 0-71 26t-28 72q0 15 3 28l36 185q13 66 52 95t85 29q44 0 72-26t28-72zm-56-4q0 26-14 38t-35 12q-63 0-77-73l-36-183q-3-12-3-24 0-51 48-51 64 0 78 73l36 184q3 12 3 24zm391 98L216 0h-60l459 712h60zm86-382q0-84-71-112 22-13 31.5-32t9.5-53q0-57-37-97T589-4q-57 0-84 29t-27 65q0 18 1 24h56q-8-68 60-68 31 0 56 22t25 65q0 62-59 62h-9l10 48h7q42 0 61.5 24t19.5 60q0 29-14.5 42T655 382q-61 0-78-65h-55q26 114 136 114 47 0 75-27.5t28-73.5z"/><glyph glyph-name="arrowleft" unicode="←" horiz-adv-x="1027" d="M962 279l1-71H175l364-364h-95L44 244l399 399h96L176 279h786z"/><glyph glyph-name="arrowup" unicode="↑" horiz-adv-x="1027" d="M539-216l-71-1v788L104 207v95l400 400 399-399v-96L539 570v-786z"/><glyph glyph-name="arrowright" unicode="→" horiz-adv-x="1027" d="M45 206l-1 71h788L468 641h95l400-400-399-399h-96l363 364H45z"/><glyph glyph-name="arrowdown" unicode="↓" horiz-adv-x="1027" d="M467 700l71 1V-87l364 364v-95L502-218 103 181v96L467-86v786z"/><glyph glyph-name="uni2196" unicode="↖" horiz-adv-x="1027" d="M858-43l-49-50-558 556 1-514-68 67v565h564l68-68H302z"/><glyph glyph-name="uni2197" unicode="↗" horiz-adv-x="1027" d="M842 17l-67-69v514L218-92l-50 49 556 556H210l68 68h564V17z"/><glyph glyph-name="uni2198" unicode="↘" horiz-adv-x="1027" d="M280-69L212-1l514-3-552 560 49 50L777 47l2 514 67-68-1-563z"/><glyph glyph-name="uni2199" unicode="↙" horiz-adv-x="1027" d="M808-1l-68-68-565-1-1 563 67 68 2-514 554 559 49-50L294-4z"/><glyph glyph-name="partialdiff" unicode="∂" horiz-adv-x="517" d="M485 552q0-28-5-51l-49-256q-13-68-31.5-116T344 46Q289-6 209-6 142-6 97 35T52 158q0 37 10 87 13 71 32.5 119.5T153 447q54 48 132 48 80 0 113-59l13 72q4 20 4 41 0 52-26 80.5T313 658q-40 0-67.5-11.5T187 608l-37 48q74 62 167 62 29 0 56-7.5t53.5-25 42.5-52 16-81.5zM372 333q0 52-27.5 76T279 433q-45 0-83-35-44-41-64-153-11-53-11-88 0-52 27.5-76.5T214 56q46 0 84 35 42 40 63 154 11 53 11 88z"/><glyph glyph-name="Delta" unicode="∆" horiz-adv-x="572" d="M516 0H-41l391 712h60zm-77 62l-76 546L67 62h372z"/><glyph glyph-name="product" unicode="∏" horiz-adv-x="661" d="M666 760L471-220h-73l183 917H261L78-220H6l195 980h465z"/><glyph glyph-name="summation" unicode="∑" horiz-adv-x="523" d="M574 760l-12-63H222l103-390-14-67L61-156h337l-13-64H-35l12 60 278 445-112 416 12 59h419z"/><glyph glyph-name="minus" unicode="−" horiz-adv-x="496" d="M458 303l-13-64H48l13 64h397z"/><glyph glyph-name="uni2219" unicode="∙" horiz-adv-x="496" d="M403 334q0-68-43.5-111.5T248 179t-111.5 43.5T93 334t43.5 111.5T248 489t111.5-43.5T403 334z"/><glyph glyph-name="radical" unicode="√" horiz-adv-x="533" d="M600 712l-12-63h-83L176 0h-59L57 492h72l41-363 291 583h139z"/><glyph glyph-name="infinity" unicode="∞" horiz-adv-x="768" d="M711 267q0-66-42-109t-110-43q-48 0-87 23.5T390 214q-43-53-82-76.5T222 114q-68 0-110 43.5T70 267t42 110 110 44q46 0 85.5-24.5T390 320q44 53 82 77t87 24q68 0 110-44t42-110zm-365-1q-28 33-42 48.5T268 343t-44 13q-38 0-63-25t-25-65q0-39 24.5-63t63.5-24q32 0 57.5 20t64.5 67zm298 0q0 39-24.5 63.5T556 354q-32 0-58-20.5T433 266q38-46 64.5-66.5T556 179q39 0 63.5 24t24.5 63z"/><glyph glyph-name="integral" unicode="∫" horiz-adv-x="370" d="M413 714l-12-60h-35q-71 0-86-77L150-76q-14-69-49-105T-7-217h-48l12 59h35q71 0 86 77l130 653q14 69 49.5 105.5T365 714h48z"/><glyph glyph-name="approxequal" unicode="≈" horiz-adv-x="513" d="M495 362q-72-64-132-64-40 0-100 32-41 22-70 22-37 0-91-44l-36 48q72 64 131 64 41 0 101-32 43-23 70-23 36 0 90 44zm-37-174q-73-65-131-65-41 0-101 32-43 23-70 23-37 0-91-44l-36 47q72 64 131 64 41 0 101-32 41-22 70-22 37 0 91 44z"/><glyph glyph-name="notequal" unicode="≠" horiz-adv-x="512" d="M504 458l-79-73h66l-13-64H358L245 218h213l-13-64H180L56 38 19 80l79 74H32l12 64h120l113 103H63l14 64h266l123 115z"/><glyph glyph-name="lessequal" unicode="≤" horiz-adv-x="496" d="M457 520l-15-77-261-124 213-126-14-70-280 170 12 62zM366 52l-14-68L72 154l14 69z"/><glyph glyph-name="greaterequal" unicode="≥" horiz-adv-x="496" d="M430 353l-12-61L73 126l15 78 260 124-212 126 14 70zm-24-133l-15-76L47-22l14 76z"/><glyph glyph-name="dotmath" unicode="⋅" horiz-adv-x="496" d="M302 315l-18-90h-90l18 90h90z"/><glyph glyph-name="lozenge" unicode="◊" horiz-adv-x="618" d="M575 344L263-12 87 360l310 356zm-75 8L381 608 161 352 280 94z"/><glyph glyph-name="fi" unicode="ﬁ" horiz-adv-x="535" d="M364 714l-12-60h-36q-64 0-78-70l-18-91h102l-11-53H209L121 0H51l88 440H80l10 53h59l19 95q25 126 143 126h53zm136-221L402 0h-70l98 493h70zm46 213l-15-73h-79l14 73h80z"/><glyph glyph-name="fl" unicode="ﬂ" horiz-adv-x="542" d="M364 714l-12-60h-36q-64 0-78-70l-18-91h102l-11-53H209L121 0H51l88 440H80l10 53h59l19 95q25 126 143 126h53zm177-2L425 134q-4-19-4-33 0-41 54-41h41L504 0h-52q-40 0-70.5 22T351 94q0 23 4 40l116 578h70z"/><glyph glyph-name="uniFEFF" horiz-adv-x="0"/><glyph glyph-name="i.latn_TRK" horiz-adv-x="240" d="M205 493L107 0H37l98 493h70zm46 213l-15-73h-79l14 73h80z"/><glyph glyph-name="Ldot.latn_CAT" horiz-adv-x="546" d="M482 63L470 0H49l143 712h72L134 63h348zm-10 333l-15-74h-72l15 74h72z"/><glyph glyph-name="ldot.latn_CAT" horiz-adv-x="275" d="M247 712L131 134q-4-19-4-33 0-41 54-41h41L210 0h-52q-40 0-70.5 22T57 94q0 23 4 40l116 578h70zm57-405l-15-74h-72l15 74h72z"/><glyph glyph-name="zero.numr" d="M340 618q0-16-3-28l-37-185q-13-66-52-95t-85-29q-43 0-71 26t-28 72q0 15 3 28l36 185q13 66 52 95t85 29q44 0 72-26t28-72zm-56-4q0 26-14 38t-35 12q-63 0-77-73l-36-183q-3-12-3-24 0-51 48-51 64 0 78 73l36 184q3 12 3 24z"/><glyph glyph-name="one.numr" d="M294 712l-86-427h-54l72 361-95-71 13 68 95 69h55z"/><glyph glyph-name="two.numr" d="M342 617q0-60-63-123L122 335h168l-10-50H44l10 50 188 193q43 43 43 85 0 53-52 53-62 0-75-67h-55q21 117 135 117 51 0 77.5-27.5T342 617z"/><glyph glyph-name="three.numr" d="M334 615q0-84-71-112 22-13 31.5-32t9.5-53q0-57-37-97t-105-40q-57 0-84 29t-27 65q0 18 1 24h56q-8-68 60-68 31 0 56 22t25 65q0 62-59 62h-9l10 48h7q42 0 61.5 24t19.5 60q0 29-14.5 42T228 667q-61 0-78-65H95q26 114 136 114 47 0 75-27.5t28-73.5z"/><glyph glyph-name="four.numr" d="M316 401l-9-50h-46l-13-66h-54l14 66H42l10 50 203 311h62L112 401h105l21 105h54l-21-105h45z"/><glyph glyph-name="five.numr" d="M353 712l-10-50H176l-22-118q27 24 69 24 44 0 67-26.5t23-66.5q0-27-4-48-17-81-46-110-38-36-97-36-49 0-75 26.5T65 375q0 11 1 19h53v-13q0-50 49-50 67 0 85 96 5 25 5 42 0 52-49 52-47 0-71-40H90l46 231h217z"/><glyph glyph-name="six.numr" d="M305 422q0-60-37.5-100.5T175 281q-56 0-84 33t-28 78q0 49 46 119l134 201h63L180 526q25 5 29 5 45 0 70.5-30t25.5-79zm-55-1q0 29-15 47t-42 18q-36 0-55.5-28T118 396q0-30 15-47.5t42-17.5q34 0 54.5 27t20.5 63z"/><glyph glyph-name="seven.numr" d="M369 712l-9-51-208-376H91l208 376H168l-13-70h-54l24 121h244z"/><glyph glyph-name="eight.numr" d="M341 612q0-36-19.5-66T271 501q39-28 39-82 0-57-38-97.5T167 281q-47 0-79 27.5T56 388q0 85 79 121-34 29-34 74 0 56 38 94.5t96 38.5q47 0 76.5-28t29.5-76zm-87-192q0 27-16 44.5T195 482q-37 0-60-26t-23-64q0-27 15.5-44t42.5-17q37 0 60.5 25t23.5 64zm32 191q0 24-14.5 39.5T232 666q-34 0-55-25t-21-58q0-25 14-40t39-15q34 0 55.5 25t21.5 58z"/><glyph glyph-name="nine.numr" d="M340 606q0-51-47-120L160 285H97l126 187q-20-6-30-6-44 0-69.5 30T98 575q0 61 37 101t92 40q56 0 84.5-32.5T340 606zm-55-5q0 29-15 46.5T228 665q-37 0-56-26t-19-63q0-28 15-45.5t42-17.5q37 0 56 26t19 62z"/><glyph glyph-name="zero.dnom" d="M283 333q0-16-3-28l-37-185q-13-66-52-95T106-4Q63-4 35 22T7 94q0 14 3 28l36 185q13 66 52 95t85 29q44 0 72-26t28-72zm-56-4q0 26-14 38t-35 12q-63 0-77-73L65 123q-3-12-3-24 0-51 48-51 64 0 78 73l36 184q3 12 3 24z"/><glyph glyph-name="one.dnom" d="M237 427L151 0H97l72 361-95-71 13 68 95 69h55z"/><glyph glyph-name="two.dnom" d="M285 332q0-60-63-123L65 50h168L223 0H-13l10 50 188 193q43 43 43 85 0 53-52 53-62 0-75-67H46q21 117 135 117 51 0 77.5-27.5T285 332z"/><glyph glyph-name="three.dnom" d="M278 330q0-84-71-112 22-13 31.5-32t9.5-53q0-57-37-97T106-4Q49-4 22 25T-5 90q0 18 1 24h56q-8-68 60-68 31 0 56 22t25 65q0 62-59 62h-9l10 48h7q42 0 61.5 24t19.5 60q0 29-14.5 42T172 382q-61 0-78-65H39q26 114 136 114 47 0 75-27.5t28-73.5z"/><glyph glyph-name="four.dnom" d="M259 116l-9-50h-46L191 0h-54l14 66H-15l10 50 203 311h62L55 116h105l21 105h54l-21-105h45z"/><glyph glyph-name="five.dnom" d="M297 427l-10-50H120L98 259q27 24 69 24 44 0 67-26.5t23-66.5q0-27-4-48-17-81-46-110-38-36-97-36-49 0-75 26.5T9 90q0 11 1 19h53V96q0-50 49-50 67 0 85 96 5 25 5 42 0 52-49 52-47 0-71-40H34l46 231h217z"/><glyph glyph-name="six.dnom" d="M248 137q0-60-37.5-100.5T118-4Q62-4 34 29T6 107q0 49 46 119l134 201h63L123 241q25 5 29 5 45 0 70.5-30t25.5-79zm-55-1q0 29-15 47t-42 18q-36 0-55.5-28T61 111q0-30 15-47.5T118 46q34 0 54.5 27t20.5 63z"/><glyph glyph-name="seven.dnom" d="M313 427l-9-51L96 0H35l208 376H112l-13-70H45l24 121h244z"/><glyph glyph-name="eight.dnom" d="M284 327q0-36-19.5-66T214 216q39-28 39-82 0-57-38-97.5T110-4Q63-4 31 23.5T-1 103q0 85 79 121-34 29-34 74 0 56 38 94.5t96 38.5q47 0 76.5-28t29.5-76zm-87-192q0 27-16 44.5T138 197q-37 0-60-26t-23-64q0-27 15.5-44T113 46q37 0 60.5 25t23.5 64zm32 191q0 24-14.5 39.5T175 381q-34 0-55-25t-21-58q0-25 14-40t39-15q34 0 55.5 25t21.5 58z"/><glyph glyph-name="nine.dnom" d="M283 321q0-51-47-120L103 0H40l126 187q-20-6-30-6-44 0-69.5 30T41 290q0 61 37 101t92 40q56 0 84.5-32.5T283 321zm-55-5q0 29-15 46.5T171 380q-37 0-56-26t-19-63q0-28 15-45.5t42-17.5q37 0 56 26t19 62z"/><glyph glyph-name="space.frac" horiz-adv-x="47"/><glyph glyph-name="zero.osf" horiz-adv-x="496" d="M470 448q0-22-5-47l-42-207Q401 86 338.5 40T204-6Q139-6 93.5 33.5T48 149q0 22 5 47l41 207q22 108 85 154t135 46q65 0 110.5-39.5T470 448zm-70-2q0 48-26 71.5T312 541q-50 0-92-32.5T164 404l-41-209q-6-28-6-44 0-48 26.5-71.5T206 56q50 0 92 32.5T354 193l41 209q5 23 5 44z"/><glyph glyph-name="one.osf" horiz-adv-x="357" d="M316 597L196 0h-69l103 514L78 400l16 85 152 112h70z"/><glyph glyph-name="two.osf" horiz-adv-x="483" d="M454 463q0-55-30.5-101T333 264L102 62h297L386 0H-8L4 62l284 244q52 44 73.5 79t21.5 77q0 52-28 75.5T290 561q-116 0-142-120H77q20 97 78.5 139.5T292 623q75 0 118.5-42.5T454 463z"/><glyph glyph-name="three.osf" horiz-adv-x="491" d="M456 448q0-68-32-121.5T332 250q76-29 76-130 0-97-63.5-170T176-123q-86 0-130 43T2 34q0 18 1 28h69q-2-14-2-21 0-45 27.5-73.5T176-61q69 0 115.5 53T338 119q0 99-109 99h-16l12 61h16q64 0 105 49t41 117q0 45-25.5 70.5T289 541q-49 0-87.5-32T149 424H77q23 89 81.5 134T298 603q72 0 115-42t43-113z"/><glyph glyph-name="four.osf" horiz-adv-x="516" d="M453 96l-13-63h-89l-31-156h-68l31 156H-7L5 96l353 534h77L82 96h213l40 201h69L364 96h89z"/><glyph glyph-name="five.osf" horiz-adv-x="493" d="M486 597l-13-62H193l-45-226q49 46 126 46 72 0 108.5-42T419 206q0-36-9-86-25-130-79-184-58-58-149-58-82 0-121 42.5T22 27q0 15 1 26h69q-1-8-1-21 0-42 23-67t67-25q72 0 106.5 47.5T339 120q9 49 9 77 0 98-87 98-89 0-131-72H69l75 374h342z"/><glyph glyph-name="six.osf" horiz-adv-x="500" d="M450 241q0-99-61-173T230-6Q134-6 87.5 50.5T41 188q0 52 18.5 99T123 396l242 332h78L214 422q29 12 65 12 77 0 124-52t47-141zm-69-1q0 59-31 97.5T265 376q-73 0-114-58.5T110 191q0-59 31-97.5T226 55q70 0 112.5 56T381 240z"/><glyph glyph-name="seven.osf" horiz-adv-x="479" d="M515 597l-12-62-403-658H24l403 658H167l-21-107H78l33 169h404z"/><glyph glyph-name="eight.osf" horiz-adv-x="509" d="M502 557q0-64-33-116t-89-77q70-49 70-142 0-92-60.5-160T219-6Q145-6 94.5 37.5T44 164q0 150 140 210-61 45-61 120 0 96 61.5 160T339 718q71 0 117-43.5T502 557zM380 224q0 52-29.5 82.5T272 337q-70 0-114-48.5T114 169q0-52 30-82.5T223 56q71 0 114 48t43 120zm52 332q0 45-25.5 72.5T335 656q-64 0-103-48.5T193 498q0-45 25.5-72.5T290 398q64 0 103 48.5T432 556z"/><glyph glyph-name="nine.osf" horiz-adv-x="500" d="M482 409q0-52-18.5-99T400 201L157-131H80l228 306q-28-12-65-12-77 0-124 52T72 356q0 99 61 173t159 74q96 0 143-56.5T482 409zm-70-3q0 59-31 97.5T296 542q-69 0-111.5-56T142 357q0-59 31-97.5t85-38.5q73 0 113.5 58.5T412 406z"/><glyph glyph-name="zero.lf" horiz-adv-x="496" d="M493 563q0-22-5-47l-64-322Q402 86 339 40T204-6Q139-6 94 33.5T49 149q0 22 5 47l63 322q22 108 85 154t135 46q65 0 110.5-39.5T493 563zm-70-2q0 48-26 71.5T335 656q-50 0-92-32.5T187 519l-63-324q-6-28-6-44 0-48 26.5-71.5T207 56q50 0 92 32.5T355 193l63 324q5 23 5 44z"/><glyph glyph-name="one.lf" horiz-adv-x="442" d="M409 712L266 0h-70l127 629-152-114 16 85 151 112h71z"/><glyph glyph-name="two.lf" horiz-adv-x="496" d="M496 555q0-55-22-96t-66-87L117 61h291L396 0H17l12 61 334 357q34 38 49 67.5t15 68.5q0 50-25.5 76.5T330 657q-52 0-90-31t-53-97h-70q18 92 75 140.5T334 718q76 0 119-42.5T496 555z"/><glyph glyph-name="three.lf" horiz-adv-x="496" d="M482 564q0-68-32-122t-92-77q76-29 76-129 0-97-63.5-170T202-7Q116-7 72 36T28 150q0 18 1 28h69q-2-14-2-22 0-45 27.5-73T202 55q69 0 115.5 53T364 235q0 99-109 99h-16l12 60h16q64 0 105 49.5T413 561q0 45-25.5 70.5T315 657q-49 0-87.5-32T175 540h-72q23 89 81.5 134T324 719q72 0 115-42t43-113z"/><glyph glyph-name="four.lf" horiz-adv-x="496" d="M450 179l-14-64h-84L329 0h-68l23 115H11l12 64 347 533h77L101 179h195l39 196h69l-39-196h85z"/><glyph glyph-name="five.lf" horiz-adv-x="496" d="M516 712l-12-62H224l-45-226q49 46 126 46 72 0 108.5-42T450 321q0-36-9-86-25-129-80-184Q303-7 213-7 131-7 92 35.5T53 142q0 15 1 26h68q-1-8-1-21 0-41 23.5-66.5T212 55q72 0 106.5 47.5T370 235q9 49 9 77 0 98-87 98-89 0-131-72H99l75 374h342z"/><glyph glyph-name="six.lf" horiz-adv-x="496" d="M432 224q0-98-60.5-164T226-6Q137-6 93.5 46T50 172q0 47 16 89t58 104l231 347h76L216 391q29 11 55 11 75 0 118-49.5T432 224zm-71-1q0 52-27 86.5T258 344q-45 0-78-28t-47-65-14-74q0-52 27-86.5T222 56q64 0 101.5 51T361 223z"/><glyph glyph-name="seven.lf" horiz-adv-x="496" d="M544 712l-12-62L174 0H97l358 650H218l-21-107h-68l33 169h382z"/><glyph glyph-name="eight.lf" horiz-adv-x="496" d="M494 557q0-64-33-116t-89-77q70-49 70-142 0-92-60.5-160T211-6Q137-6 86.5 37.5T36 164q0 150 139 210-60 45-60 120 0 96 61.5 160T331 718q71 0 117-43.5T494 557zM372 224q0 52-29.5 82.5T264 337q-70 0-114-48.5T106 169q0-52 30-82.5T215 56q71 0 114 48t43 120zm52 332q0 45-25.5 72.5T327 656q-64 0-103.5-48.5T184 498q0-45 26-72.5t72-27.5q64 0 103 48.5T424 556z"/><glyph glyph-name="nine.lf" horiz-adv-x="496" d="M491 540q0-47-16.5-89T416 347L185 0h-75l214 321q-29-11-54-11-75 0-118 49.5T109 488q0 98 60.5 164T315 718q89 0 132.5-52T491 540zm-69-5q0 52-27.5 86.5T318 656q-64 0-101-51t-37-116q0-52 27-86.5t76-34.5q45 0 78 28t47 65 14 74z"/><glyph glyph-name="zero.tosf" horiz-adv-x="495" d="M469 448q0-23-5-46l-42-208q-11-57-36-98.5t-57-62-63-30T203-6Q138-6 93 33.5T48 149q0 23 5 46l42 208q11 57 36 98.5t57 62 63 30 63 9.5q65 0 110-39.5T469 448zm-67-1q0 48-26.5 72T312 543q-51 0-93-33t-57-106l-41-210q-6-30-6-44 0-48 26.5-72T205 54q51 0 93 33t57 106l41 210q6 30 6 44z"/><glyph glyph-name="one.tosf" horiz-adv-x="495" d="M382 597L262 0h-68l104 517-151-115 16 84 150 111h69z"/><glyph glyph-name="two.tosf" horiz-adv-x="495" d="M464 464q0-56-30.5-103T345 265L110 60h299L396 0H4l12 60 284 245q52 44 74 79.5t22 78.5q0 52-29 76t-66 24q-117 0-143-122H89q20 97 78 139.5T303 623q75 0 118-42t43-117z"/><glyph glyph-name="three.tosf" horiz-adv-x="495" d="M456 449q0-69-32.5-122.5T331 250q77-31 77-130 0-97-63.5-170T176-123q-86 0-129.5 43T3 34q0 17 1 27h66q-1-7-1-21 0-46 27.5-74.5T176-63q70 0 117 53.5T340 119q0 100-111 100h-15l11 59h17q64 0 105.5 49.5T389 446q0 45-26 71t-73 26q-49 0-88.5-32.5T148 425H78q24 88 82 133t138 45q72 0 115-41.5T456 449z"/><glyph glyph-name="four.tosf" horiz-adv-x="495" d="M441 94l-13-61h-85l-31-156h-66l31 156H-12L0 94l356 535h75L75 94h213l40 203h67L355 94h86z"/><glyph glyph-name="five.tosf" horiz-adv-x="495" d="M482 597l-12-60H190l-46-228q49 46 127 46 72 0 108-42t36-107q0-35-9-86Q383-8 327-64q-56-58-148-58-81 0-120 42T20 26q0 15 1 26h66q-1-8-1-21 0-42 23.5-67.5T177-62q73 0 109 48t52 134q8 43 8 78 0 99-88 99-89 0-132-73H67l75 373h340z"/><glyph glyph-name="six.tosf" horiz-adv-x="495" d="M446 241q0-99-60.5-173T227-6Q132-6 85 50.5T38 187q0 95 78 202l247 339h76L210 421q27 13 66 13 77 0 123.5-52T446 241zm-67-1q0 60-31 99t-86 39q-50 0-87-31t-53-72.5-16-83.5q0-60 31-99t85-39q71 0 114 56.5T379 240z"/><glyph glyph-name="seven.tosf" horiz-adv-x="495" d="M519 597l-12-60-400-660H33l400 660H175l-21-107H88l32 167h399z"/><glyph glyph-name="eight.tosf" horiz-adv-x="495" d="M495 558q0-65-33-116.5T372 365q71-52 71-143 0-92-60.5-160T212-6Q139-6 88.5 37.5T38 164q0 149 140 210-61 44-61 120 0 96 61 160t154 64q71 0 117-43.5T495 558zM375 224q0 53-30.5 83.5T265 338q-70 0-114.5-49.5T106 168q0-53 30-83.5T215 54q73 0 116.5 48.5T375 224zm52 333q0 46-26 73.5T329 658q-66 0-105.5-49T184 499q0-46 26-74t73-28q66 0 105 49.5T427 557z"/><glyph glyph-name="nine.tosf" horiz-adv-x="495" d="M478 410q0-52-17.5-97.5T399 206L153-131H78l229 307q-27-13-66-13-77 0-124 52T70 356q0 99 60.5 173T289 603q96 0 142.5-56T478 410zm-67-4q0 59-31.5 98.5T294 544q-71 0-113.5-56.5T138 357q0-60 31-99t86-39q73 0 114.5 59.5T411 406z"/><glyph glyph-name="uni2007.tosf" horiz-adv-x="495"/><glyph glyph-name="hyphen.case" horiz-adv-x="405" d="M362 388l-13-65H87l13 65h262z"/><glyph glyph-name="exclamdown.case" horiz-adv-x="301" d="M220 515L129 0H47l113 515h60zm48 197l-17-86h-83l17 86h83z"/><glyph glyph-name="guillemotleft.case" horiz-adv-x="528" d="M303 566l-19-95-138-121 91-121-16-84L60 356zm216 0l-19-95-139-121 93-121-17-84-161 211z"/><glyph glyph-name="uni00AD.case" horiz-adv-x="405" d="M362 388l-13-65H87l13 65h262z"/><glyph glyph-name="guillemotright.case" horiz-adv-x="528" d="M514 355L271 145l19 95 138 121-91 121 16 84zm-216 0L55 145l19 95 139 121-93 121 17 84z"/><glyph glyph-name="questiondown.case" horiz-adv-x="474" d="M390 172q-16-84-72.5-131T176-6Q114-6 70.5 34T27 141q0 78 70 158l101 117q24 28 30 58l8 42h70l-9-45q-11-53-48-95L149 261q-51-59-51-116 0-38 23.5-63T187 57q50 0 85.5 30.5T319 172h71zm-45 540l-16-86h-83l16 86h83z"/><glyph glyph-name="endash.case" horiz-adv-x="496" d="M475 388l-13-64H65l13 64h397z"/><glyph glyph-name="emdash.case" horiz-adv-x="870" d="M827 388l-12-64H87l13 64h727z"/><glyph glyph-name="afii00208.case" horiz-adv-x="870" d="M827 388l-12-64H87l13 64h727z"/><glyph glyph-name="guilsinglleft.case" horiz-adv-x="312" d="M303 566l-19-95-138-121 91-121-16-84L60 356z"/><glyph glyph-name="guilsinglright.case" horiz-adv-x="312" d="M297 355L55 145l19 95 138 121-92 121 17 84z"/><glyph glyph-name="caroncomma.ss01" horiz-adv-x="250" d="M667 721l-26-127-80-63 39 190h67z"/><glyph glyph-name="commaaccent.ss01" horiz-adv-x="500" d="M256-116q0-50-34.5-78.5T136-223h-5l9 42q29-1 46.5 16t17.5 45q0 19-12.5 30.5T161-76l8 42q38-2 62.5-25.5T256-116z"/><glyph glyph-name="commaturn.ss01" horiz-adv-x="500" d="M384 746l-8-43q-30 1-47.5-16T311 643q0-19 13-30.5t31-13.5l-8-42q-39 2-63 25t-24 56q0 52 34.5 80t86.5 28h3z"/><glyph glyph-name="exclam.ss01" horiz-adv-x="301" d="M297 712L185 197h-60l91 515h81zM175 45q0-20-14-34T127-3 92.5 11 78 45t14.5 34.5T127 94t34-14.5T175 45z"/><glyph glyph-name="period.ss01" horiz-adv-x="259" d="M147 52q0-22-16.5-38.5T91-3 52 13.5 36 52t16 38.5T91 107t39.5-16.5T147 52z"/><glyph glyph-name="colon.ss01" horiz-adv-x="284" d="M230 342q0-22-16-38.5T175 287t-39 16.5-16 38.5 16 38.5 39 16.5 39-16.5 16-38.5zM173 52q0-22-16.5-38.5T118-3 79.5 13.5 63 52t16.5 38.5T118 107t38.5-16.5T173 52z"/><glyph glyph-name="semicolon.ss01" horiz-adv-x="284" d="M170 89L139-64 39-144 85 89h85zm58 253q0-22-16.5-38.5T172 287q-22 0-38.5 16.5T117 342t16.5 38.5T172 397q23 0 39.5-16.5T228 342z"/><glyph glyph-name="question.ss01" horiz-adv-x="474" d="M490 571q0-77-70-157L319 296q-23-26-29-58l-9-42h-70l9 45q11 53 48 95l100 115q51 59 51 116 0 38-23.5 63.5T330 656q-50 0-85-31t-46-85h-71q16 84 72 131t141 47q62 0 105.5-40T490 571zM270 45q0-20-14.5-34T221-3t-34 14-14 34 14 34.5T221 94t34.5-14.5T270 45z"/><glyph glyph-name="at.ss01" horiz-adv-x="939" d="M889 321q0-121-82.5-207.5T599 27h-61l12 58q-52-64-123-64-63 0-101 36t-38 106q0 38 9 83 24 128 82 179 50 45 120 45 86 0 113-68l12 62h63L609 76q95 1 157.5 74.5T829 321q0 133-87.5 215.5T517 619q-155 0-263.5-110T145 242q0-167 104-274t275-107h49l-11-53h-48q-189 0-311 123T81 242q0 182 127 308t309 126q166 0 269-98.5T889 321zm-303 0q0 47-24.5 69.5T502 413q-45 0-81-34-41-41-59-134-8-42-8-75 0-47 24-69.5T437 78q48 0 82 34 41 41 59 135 8 42 8 74z"/><glyph glyph-name="C.ss01" horiz-adv-x="559" d="M568 630l-54-46q-27 37-56.5 54T384 655q-79 0-134-60-29-30-45.5-77.5T165 356q-23-113-23-168 0-59 39.5-95T277 57q82 0 155 71l42-53Q385-6 273-6q-88 0-146 51.5T69 186q0 62 23 170 27 133 47 188t61 97q74 77 186 77 113 0 182-88z"/><glyph glyph-name="G.ss01" horiz-adv-x="614" d="M579 620l-54-47q-31 41-61.5 61.5T386 655q-79 0-136-60-29-30-45.5-78T165 356q-24-119-24-168 0-61 41-96t96-35q64 0 121 48t77 146l12 59H321l11 62h240l-22-113q-23-121-90-188Q383-6 273-6q-88 0-146.5 52T68 186q0 50 24 170 28 135 47 188.5t60 95.5q75 78 190 78 64 0 108-24.5t82-73.5z"/><glyph glyph-name="a.ss01" horiz-adv-x="528" d="M492 493L394 0h-68l13 63Q285-6 201-6 131-6 90 34.5T49 150q0 42 11 97 28 145 91 201 58 51 133 51 94 0 126-75l14 69h68zM383 334q0 51-26.5 77T289 437q-55 0-93-38-45-45-66-152-10-52-10-88 0-51 26.5-77T214 56q54 0 93 39 45 45 66 152 10 52 10 87z"/><glyph glyph-name="i.ss01" horiz-adv-x="240" d="M205 493L107 0H37l98 493h70zm49 184q0-20-14.5-34.5T205 628t-34.5 14-14.5 34 14.5 35 33.5 15q20 0 35-14.5t15-34.5z"/><glyph glyph-name="j.ss01" horiz-adv-x="241" d="M205 493L89-92Q63-220-56-220h-51l12 60h34q66 0 80 75l116 578h70zm49 184q0-20-14.5-34.5T205 628t-34.5 14-14.5 34 14.5 35 33.5 15q20 0 35-14.5t15-34.5z"/><glyph glyph-name="exclamdown.ss01" horiz-adv-x="301" d="M176 296L85-219H3l113 515h60zm46 152q0-20-14-34.5T174 399t-34 14.5-14 34.5 14 34 34 14 34-14 14-34z"/><glyph glyph-name="dieresis.ss01" horiz-adv-x="475" d="M483 639q0-18-13-31t-31-13q-19 0-31.5 13T395 639t13 31 31 13q19 0 31.5-13t12.5-31zm-201 0q0-18-13-31t-31-13q-19 0-31.5 13T194 639t13 31 31 13q19 0 31.5-13t12.5-31z"/><glyph glyph-name="ordfeminine.ss01" horiz-adv-x="445" d="M456 712l-78-395h-57l10 49q-39-54-112-54-20 0-39.5 6T141 337.5 110.5 377 99 438q0 28 9 77 22 117 72 161 46 41 107 41 75 0 102-58l10 53h57zm-90-128q0 40-21.5 59.5T291 663q-43 0-72-29-36-35-53-119-7-40-7-69 0-40 21-60t53-20q41 0 71 30 37 36 54 119 8 46 8 69z"/><glyph glyph-name="periodcentered.ss01" horiz-adv-x="259" d="M189 267q0-23-16.5-39T134 212t-38.5 16T79 267t16.5 39 38.5 16 38.5-16 16.5-39z"/><glyph glyph-name="cedilla.ss01" horiz-adv-x="500" d="M256-116q0-50-34.5-78.5T136-223h-5l9 42q29-1 46.5 16t17.5 45q0 19-12.5 30.5T161-76l8 42q38-2 62.5-25.5T256-116z"/><glyph glyph-name="questiondown.ss01" horiz-adv-x="474" d="M347-47q-16-84-72.5-131T133-225q-62 0-105.5 40T-16-78q0 78 70 158l101 117q24 28 30 58l8 42h70l-9-45q-11-53-48-95L106 42Q55-17 55-74q0-38 23.5-63t65.5-25q50 0 85.5 30.5T276-47h71zm-45 495q0-20-14.5-34.5T253 399t-34 14.5-14 34.5 14 34 34 14 34.5-14 14.5-34z"/><glyph glyph-name="Adieresis.ss01" horiz-adv-x="582" d="M521 0h-74l-22 162H129L42 0h-78l389 712h61zM418 223l-53 384-204-384h257zm126 602q0-18-13-31t-31-13q-19 0-31.5 13T456 825t13 31 31 13q19 0 31.5-13t12.5-31zm-201 0q0-18-13-31t-31-13q-19 0-31.5 13T255 825t13 31 31 13q19 0 31.5-13t12.5-31z"/><glyph glyph-name="Ccedilla.ss01" horiz-adv-x="559" d="M568 630l-54-46q-27 37-56.5 54T384 655q-79 0-134-60-29-30-45.5-77.5T165 356q-23-113-23-168 0-59 39.5-95T277 57q82 0 155 71l42-53Q385-6 273-6q-88 0-146 51.5T69 186q0 62 23 170 27 133 47 188t61 97q74 77 186 77 113 0 182-88zM312-116q0-50-34.5-78.5T192-223h-5l9 42q29-1 46.5 16t17.5 45q0 19-12.5 30.5T217-76l8 42q38-2 62.5-25.5T312-116z"/><glyph glyph-name="Edieresis.ss01" horiz-adv-x="572" d="M611 712l-13-63H252l-52-258h297l-12-63H188L134 63h353L475 0H49l143 712h419zm-53 113q0-18-13-31t-31-13q-19 0-31.5 13T470 825t13 31 31 13q19 0 31.5-13t12.5-31zm-201 0q0-18-13-31t-31-13q-19 0-31.5 13T269 825t13 31 31 13q19 0 31.5-13t12.5-31z"/><glyph glyph-name="Idieresis.ss01" horiz-adv-x="269" d="M264 712L121 0H49l143 712h72zm126 113q0-18-13-31t-31-13q-19 0-31.5 13T302 825t13 31 31 13q19 0 31.5-13t12.5-31zm-201 0q0-18-13-31t-31-13q-19 0-31.5 13T101 825t13 31 31 13q19 0 31.5-13t12.5-31z"/><glyph glyph-name="Odieresis.ss01" horiz-adv-x="617" d="M589 526q0-51-24-170-26-130-45.5-186T460 73Q384-6 267-6q-87 0-142.5 52.5T69 186q0 56 23 170 26 128 46 185t60 98q74 79 193 79 87 0 142.5-52.5T589 526zm-73-5q0 63-37.5 98.5T387 655q-81 0-138-60-27-29-44.5-78.5T165 356q-23-119-23-165 0-63 37.5-98.5T271 57q80 0 137 60 27 29 44.5 78T492 356q24 117 24 165zm45 304q0-18-13-31t-31-13q-19 0-31.5 13T473 825t13 31 31 13q19 0 31.5-13t12.5-31zm-201 0q0-18-13-31t-31-13q-19 0-31.5 13T272 825t13 31 31 13q19 0 31.5-13t12.5-31z"/><glyph glyph-name="Udieresis.ss01" horiz-adv-x="649" d="M654 712l-95-478q-23-115-97.5-177.5T280-6q-80 0-139 49.5T82 187q0 24 7 61l92 464h73l-94-471q-5-28-5-51 0-54 32.5-93T287 58q72 0 128 48t74 140l92 466h73zm-74 113q0-18-13-31t-31-13q-19 0-31.5 13T492 825t13 31 31 13q19 0 31.5-13t12.5-31zm-201 0q0-18-13-31t-31-13q-19 0-31.5 13T291 825t13 31 31 13q19 0 31.5-13t12.5-31z"/><glyph glyph-name="agrave.ss01" horiz-adv-x="528" d="M492 493L394 0h-68l13 63Q285-6 201-6 131-6 90 34.5T49 150q0 42 11 97 28 145 91 201 58 51 133 51 94 0 126-75l14 69h68zM383 334q0 51-26.5 77T289 437q-55 0-93-38-45-45-66-152-10-52-10-88 0-51 26.5-77T214 56q54 0 93 39 45 45 66 152 10 52 10 87zm-43 255h-63l-72 151h77z"/><glyph glyph-name="aacute.ss01" horiz-adv-x="528" d="M492 493L394 0h-68l13 63Q285-6 201-6 131-6 90 34.5T49 150q0 42 11 97 28 145 91 201 58 51 133 51 94 0 126-75l14 69h68zM383 334q0 51-26.5 77T289 437q-55 0-93-38-45-45-66-152-10-52-10-88 0-51 26.5-77T214 56q54 0 93 39 45 45 66 152 10 52 10 87zm74 406L329 589h-70l118 151h80z"/><glyph glyph-name="acircumflex.ss01" horiz-adv-x="528" d="M492 493L394 0h-68l13 63Q285-6 201-6 131-6 90 34.5T49 150q0 42 11 97 28 145 91 201 58 51 133 51 94 0 126-75l14 69h68zM383 334q0 51-26.5 77T289 437q-55 0-93-38-45-45-66-152-10-52-10-88 0-51 26.5-77T214 56q54 0 93 39 45 45 66 152 10 52 10 87zm75 254h-62l-65 107-108-107h-69l150 153h64z"/><glyph glyph-name="atilde.ss01" horiz-adv-x="528" d="M492 493L394 0h-68l13 63Q285-6 201-6 131-6 90 34.5T49 150q0 42 11 97 28 145 91 201 58 51 133 51 94 0 126-75l14 69h68zM383 334q0 51-26.5 77T289 437q-55 0-93-38-45-45-66-152-10-52-10-88 0-51 26.5-77T214 56q54 0 93 39 45 45 66 152 10 52 10 87zm88 315q-51-48-96-48-36 0-69 24-28 20-52 20-25 0-62-34l-29 37q51 48 96 48 34 0 69-24 26-20 51-20t62 34z"/><glyph glyph-name="adieresis.ss01" horiz-adv-x="528" d="M492 493L394 0h-68l13 63Q285-6 201-6 131-6 90 34.5T49 150q0 42 11 97 28 145 91 201 58 51 133 51 94 0 126-75l14 69h68zM383 334q0 51-26.5 77T289 437q-55 0-93-38-45-45-66-152-10-52-10-88 0-51 26.5-77T214 56q54 0 93 39 45 45 66 152 10 52 10 87zm80 305q0-18-13-31t-31-13q-19 0-31.5 13T375 639t13 31 31 13q19 0 31.5-13t12.5-31zm-201 0q0-18-13-31t-31-13q-19 0-31.5 13T174 639t13 31 31 13q19 0 31.5-13t12.5-31z"/><glyph glyph-name="aring.ss01" horiz-adv-x="528" d="M492 493L394 0h-68l13 63Q285-6 201-6 131-6 90 34.5T49 150q0 42 11 97 28 145 91 201 58 51 133 51 94 0 126-75l14 69h68zM383 334q0 51-26.5 77T289 437q-55 0-93-38-45-45-66-152-10-52-10-88 0-51 26.5-77T214 56q54 0 93 39 45 45 66 152 10 52 10 87zm60 352q0-49-34-83.5T326 568t-83 34.5-34 83.5 34 83 83 34 83-34 34-83zm-46 0q0 28-21 48.5T326 755t-50-20.5-21-48.5 21.5-49.5T326 615t49.5 21.5T397 686z"/><glyph glyph-name="ae.ss01" horiz-adv-x="825" d="M772 330q0-39-13-101H441q-6-30-6-61 0-51 27-82t80-31q74 0 138 58l42-47Q646-6 537-6 436-6 401 72L387 0h-57l14 66Q294-6 201-6q-26 0-50.5 7.5t-48.5 24T63.5 75 49 152q0 45 10 95 28 144 92 201 58 51 134 51 94 0 128-75l14 69h57l-13-64q29 41 63.5 55.5T614 499q71 0 114.5-46.5T772 330zm-385 1q0 53-28 79.5T290 437q-56 0-94-38-44-44-66-152-10-55-10-85 0-53 27.5-79.5T216 56q55 0 94 39 46 46 66 152 11 53 11 84zm317-1q0 54-27 82t-68 28q-116 0-158-160h248q5 40 5 50z"/><glyph glyph-name="ccedilla.ss01" horiz-adv-x="466" d="M450 426l-52-44q-37 55-97 55-62 0-109-48-47-50-64-142-8-42-8-74 0-58 31-87.5T227 56q65 0 119 57l41-50Q318-6 223-6 139-6 94.5 43.5T50 171q0 40 7 76 22 122 88.5 187T308 499q90 0 142-73zM256-116q0-50-34.5-78.5T136-223h-5l9 42q29-1 46.5 16t17.5 45q0 19-12.5 30.5T161-76l8 42q38-2 62.5-25.5T256-116z"/><glyph glyph-name="edieresis.ss01" horiz-adv-x="506" d="M453 330q0-36-12-101H123q-6-40-6-62 0-51 26.5-82T223 54q75 0 139 58l42-46Q326-6 218-6 143-6 96.5 37.5T50 164q0 58 14 115t41.5 107.5 76 81.5T293 499q76 0 118-47.5T453 330zm-68 0q0 55-27 82.5T290 440q-116 0-157-160h248q4 21 4 50zm100 309q0-18-13-31t-31-13q-19 0-31.5 13T397 639t13 31 31 13q19 0 31.5-13t12.5-31zm-201 0q0-18-13-31t-31-13q-19 0-31.5 13T196 639t13 31 31 13q19 0 31.5-13t12.5-31z"/><glyph glyph-name="idieresis.ss01" horiz-adv-x="240" d="M205 493L107 0H37l98 493h70zm137 146q0-18-13-31t-31-13q-19 0-31.5 13T254 639t13 31 31 13q19 0 31.5-13t12.5-31zm-201 0q0-18-13-31t-31-13q-19 0-31.5 13T53 639t13 31 31 13q19 0 31.5-13t12.5-31z"/><glyph glyph-name="odieresis.ss01" horiz-adv-x="501" d="M452 337q0-36-10-91-27-138-93-199Q290-6 209-6 143-6 96.5 34T50 156q0 35 10 90 26 140 93 199 60 54 140 54 66 0 112.5-40T452 337zm-69-5q0 54-27 80t-69 26q-53 0-91-38-46-46-67-154-10-50-10-85 0-54 27-80t68-26q54 0 92 38 46 45 67 153 10 51 10 86zm100 307q0-18-13-31t-31-13q-19 0-31.5 13T395 639t13 31 31 13q19 0 31.5-13t12.5-31zm-201 0q0-18-13-31t-31-13q-19 0-31.5 13T194 639t13 31 31 13q19 0 31.5-13t12.5-31z"/><glyph glyph-name="divide.ss01" horiz-adv-x="496" d="M342 447q0-23-16-39t-39-16-39 16-16 39 16.5 39.5T287 503t38.5-16.5T342 447zm117-144l-13-67H47l13 67h399zM275 92q0-22-16.5-38.5T220 37t-38.5 16.5T165 92t16.5 38.5T220 147t38.5-16.5T275 92z"/><glyph glyph-name="udieresis.ss01" horiz-adv-x="534" d="M498 493L400 0h-68l10 55Q289-6 199-6q-59 0-98.5 37T61 133q0 19 6 49l62 311h70l-61-304q-6-28-6-46 0-43 25-65.5T222 55q17 0 35 5t41.5 18 42.5 42 27 71l60 302h70zm-2 146q0-18-13-31t-31-13q-19 0-31.5 13T408 639t13 31 31 13q19 0 31.5-13t12.5-31zm-201 0q0-18-13-31t-31-13q-19 0-31.5 13T207 639t13 31 31 13q19 0 31.5-13t12.5-31z"/><glyph glyph-name="ydieresis.ss01" horiz-adv-x="422" d="M462 493L134-118q-22-41-42-59-36-33-102-33h-31l13 62h21q34 0 51.5 13.5T82-83l49 94-71 482h70l51-397 204 397h77zm-24 146q0-18-13-31t-31-13q-19 0-31.5 13T350 639t13 31 31 13q19 0 31.5-13t12.5-31zm-201 0q0-18-13-31t-31-13q-19 0-31.5 13T149 639t13 31 31 13q19 0 31.5-13t12.5-31z"/><glyph glyph-name="amacron.ss01" horiz-adv-x="528" d="M492 493L394 0h-68l13 63Q285-6 201-6 131-6 90 34.5T49 150q0 42 11 97 28 145 91 201 58 51 133 51 94 0 126-75l14 69h68zM383 334q0 51-26.5 77T289 437q-55 0-93-38-45-45-66-152-10-52-10-88 0-51 26.5-77T214 56q54 0 93 39 45 45 66 152 10 52 10 87zm86 331l-11-53H172l11 53h286z"/><glyph glyph-name="abreve.ss01" horiz-adv-x="528" d="M492 493L394 0h-68l13 63Q285-6 201-6 131-6 90 34.5T49 150q0 42 11 97 28 145 91 201 58 51 133 51 94 0 126-75l14 69h68zM383 334q0 51-26.5 77T289 437q-55 0-93-38-45-45-66-152-10-52-10-88 0-51 26.5-77T214 56q54 0 93 39 45 45 66 152 10 52 10 87zm86 372q-28-125-155-125-58 0-91 26.5T190 683q0 12 1 23h55q-1-9-1-18 0-25 20-39t55-14q76 0 94 71h55z"/><glyph glyph-name="Aogonek.ss01" horiz-adv-x="582" d="M521 0h-74l-22 162H129L42 0h-78l389 712h61zM418 223l-53 384-204-384h257zm87-259l-9-42q-29 1-46.5-16T432-138q0-19 12.5-30.5T475-182l-8-43q-38 2-62.5 25.5T380-143q0 50 34.5 78.5T500-36h5z"/><glyph glyph-name="aogonek.ss01" horiz-adv-x="528" d="M492 493L394 0h-68l13 63Q285-6 201-6 131-6 90 34.5T49 150q0 42 11 97 28 145 91 201 58 51 133 51 94 0 126-75l14 69h68zM383 334q0 51-26.5 77T289 437q-55 0-93-38-45-45-66-152-10-52-10-88 0-51 26.5-77T214 56q54 0 93 39 45 45 66 152 10 52 10 87zm-6-370l-9-42q-29 1-46.5-16T304-138q0-19 12.5-30.5T347-182l-8-43q-38 2-62.5 25.5T252-143q0 50 34.5 78.5T372-36h5z"/><glyph glyph-name="Cacute.ss01" horiz-adv-x="559" d="M568 630l-54-46q-27 37-56.5 54T384 655q-79 0-134-60-29-30-45.5-77.5T165 356q-23-113-23-168 0-59 39.5-95T277 57q82 0 155 71l42-53Q385-6 273-6q-88 0-146 51.5T69 186q0 62 23 170 27 133 47 188t61 97q74 77 186 77 113 0 182-88zm-17 296L423 775h-69l117 151h80z"/><glyph glyph-name="Ccircumflex.ss01" horiz-adv-x="559" d="M568 630l-54-46q-27 37-56.5 54T384 655q-79 0-134-60-29-30-45.5-77.5T165 356q-23-113-23-168 0-59 39.5-95T277 57q82 0 155 71l42-53Q385-6 273-6q-88 0-146 51.5T69 186q0 62 23 170 27 133 47 188t61 97q74 77 186 77 113 0 182-88zm-16 145h-61l-65 107-109-107h-68l149 153h65z"/><glyph glyph-name="Cdotaccent.ss01" horiz-adv-x="559" d="M568 630l-54-46q-27 37-56.5 54T384 655q-79 0-134-60-29-30-45.5-77.5T165 356q-23-113-23-168 0-59 39.5-95T277 57q82 0 155 71l42-53Q385-6 273-6q-88 0-146 51.5T69 186q0 62 23 170 27 133 47 188t61 97q74 77 186 77 113 0 182-88zM459 836q0-19-13-32t-31-13q-19 0-32 13t-13 31q0 19 13 32t31 13q19 0 32-13t13-31z"/><glyph glyph-name="cdotaccent.ss01" horiz-adv-x="466" d="M450 426l-52-44q-37 55-97 55-62 0-109-48-47-50-64-142-8-42-8-74 0-58 31-87.5T227 56q65 0 119 57l41-50Q318-6 223-6 139-6 94.5 43.5T50 171q0 40 7 76 22 122 88.5 187T308 499q90 0 142-73zm-61 223q0-19-13-32t-31-13q-19 0-32 13t-13 31q0 19 13 32t31 13q19 0 32-13t13-31z"/><glyph glyph-name="Ccaron.ss01" horiz-adv-x="559" d="M568 630l-54-46q-27 37-56.5 54T384 655q-79 0-134-60-29-30-45.5-77.5T165 356q-23-113-23-168 0-59 39.5-95T277 57q82 0 155 71l42-53Q385-6 273-6q-88 0-146 51.5T69 186q0 62 23 170 27 133 47 188t61 97q74 77 186 77 113 0 182-88zm9 298L428 775h-64l-90 153h61l65-107 109 107h68z"/><glyph glyph-name="dcaron.ss01" horiz-adv-x="518" d="M527 712L385 0h-69l12 59Q274-6 191-6 50-6 50 149q0 45 11 98 28 143 85 200 52 52 132 52 88 0 122-68l57 281h70zM375 336q0 101-89 101-69 0-103-50.5T132 247q-11-55-11-89 0-102 88-102 69 0 103.5 51T364 247q11 55 11 89zm304 385l-26-127-80-63 39 190h67z"/><glyph glyph-name="Edotaccent.ss01" horiz-adv-x="572" d="M611 712l-13-63H252l-52-258h297l-12-63H188L134 63h353L475 0H49l143 712h419zM457 836q0-19-13-32t-31-13q-19 0-32 13t-13 31q0 19 13 32t31 13q19 0 32-13t13-31z"/><glyph glyph-name="edotaccent.ss01" horiz-adv-x="505" d="M453 330q0-36-12-101H123q-6-40-6-62 0-51 26.5-82T223 54q75 0 139 58l42-46Q326-6 218-6 143-6 96.5 37.5T50 164q0 58 14 115t41.5 107.5 76 81.5T293 499q76 0 118-47.5T453 330zm-68 0q0 55-27 82.5T290 440q-116 0-157-160h248q4 21 4 50zm-8 319q0-19-13-32t-31-13q-19 0-32 13t-13 31q0 19 13 32t31 13q19 0 32-13t13-31z"/><glyph glyph-name="Eogonek.ss01" horiz-adv-x="572" d="M611 712l-13-63H252l-52-258h297l-12-63H188L134 63h353L475 0H49l143 712h419zM455-36l-9-42q-29 1-46.5-16T382-138q0-19 12.5-30.5T425-182l-8-43q-38 2-62.5 25.5T330-143q0 50 34.5 78.5T450-36h5z"/><glyph glyph-name="eogonek.ss01" horiz-adv-x="505" d="M453 330q0-36-12-101H123q-6-40-6-62 0-51 26.5-82T223 54q75 0 139 58l42-46Q326-6 218-6 143-6 96.5 37.5T50 164q0 58 14 115t41.5 107.5 76 81.5T293 499q76 0 118-47.5T453 330zm-68 0q0 55-27 82.5T290 440q-116 0-157-160h248q4 21 4 50zM348-36l-9-42q-29 1-46.5-16T275-138q0-19 12.5-30.5T318-182l-8-43q-38 2-62.5 25.5T223-143q0 50 34.5 78.5T343-36h5z"/><glyph glyph-name="Gcircumflex.ss01" horiz-adv-x="614" d="M579 620l-54-47q-31 41-61.5 61.5T386 655q-79 0-136-60-29-30-45.5-78T165 356q-24-119-24-168 0-61 41-96t96-35q64 0 121 48t77 146l12 59H321l11 62h240l-22-113q-23-121-90-188Q383-6 273-6q-88 0-146.5 52T68 186q0 50 24 170 28 135 47 188.5t60 95.5q75 78 190 78 64 0 108-24.5t82-73.5zm-27 155h-61l-65 107-109-107h-68l149 153h65z"/><glyph glyph-name="Gbreve.ss01" horiz-adv-x="614" d="M579 620l-54-47q-31 41-61.5 61.5T386 655q-79 0-136-60-29-30-45.5-78T165 356q-24-119-24-168 0-61 41-96t96-35q64 0 121 48t77 146l12 59H321l11 62h240l-22-113q-23-121-90-188Q383-6 273-6q-88 0-146.5 52T68 186q0 50 24 170 28 135 47 188.5t60 95.5q75 78 190 78 64 0 108-24.5t82-73.5zm-13 278q-30-126-156-126-58 0-91 26.5T286 874q0 13 1 24h55q-1-10-1-18 0-26 20-40t55-14q78 0 94 72h56z"/><glyph glyph-name="Gdotaccent.ss01" horiz-adv-x="614" d="M579 620l-54-47q-31 41-61.5 61.5T386 655q-79 0-136-60-29-30-45.5-78T165 356q-24-119-24-168 0-61 41-96t96-35q64 0 121 48t77 146l12 59H321l11 62h240l-22-113q-23-121-90-188Q383-6 273-6q-88 0-146.5 52T68 186q0 50 24 170 28 135 47 188.5t60 95.5q75 78 190 78 64 0 108-24.5t82-73.5zM459 836q0-19-13-32t-31-13q-19 0-32 13t-13 31q0 19 13 32t31 13q19 0 32-13t13-31z"/><glyph glyph-name="gdotaccent.ss01" horiz-adv-x="517" d="M481 493L380-11q-12-63-38-107.5T282.5-185 217-216t-67-9q-96 0-151 66l50 44q41-50 101-50 57 0 100.5 37.5T311-11l16 76Q277 2 191 2 125 2 87.5 42T50 154q0 39 11 97 26 140 83 197 51 51 132 51 91 0 124-69l12 63h69zM374 337q0 100-89 100-67 0-101.5-50.5T132 250q-11-57-11-86 0-100 89-100 117 0 153 187 11 57 11 86zm-3 312q0-19-13-32t-31-13q-19 0-32 13t-13 31q0 19 13 32t31 13q19 0 32-13t13-31z"/><glyph glyph-name="Gcommaaccent.ss01" horiz-adv-x="614" d="M579 620l-54-47q-31 41-61.5 61.5T386 655q-79 0-136-60-29-30-45.5-78T165 356q-24-119-24-168 0-61 41-96t96-35q64 0 121 48t77 146l12 59H321l11 62h240l-22-113q-23-121-90-188Q383-6 273-6q-88 0-146.5 52T68 186q0 50 24 170 28 135 47 188.5t60 95.5q75 78 190 78 64 0 108-24.5t82-73.5zM312-116q0-50-34.5-78.5T192-223h-5l9 42q29-1 46.5 16t17.5 45q0 19-12.5 30.5T217-76l8 42q38-2 62.5-25.5T312-116z"/><glyph glyph-name="gcommaaccent.ss01" horiz-adv-x="517" d="M481 493L380-11q-12-63-38-107.5T282.5-185 217-216t-67-9q-96 0-151 66l50 44q41-50 101-50 57 0 100.5 37.5T311-11l16 76Q277 2 191 2 125 2 87.5 42T50 154q0 39 11 97 26 140 83 197 51 51 132 51 91 0 124-69l12 63h69zM374 337q0 100-89 100-67 0-101.5-50.5T132 250q-11-57-11-86 0-100 89-100 117 0 153 187 11 57 11 86zm12 409l-8-43q-30 1-47.5-16T313 643q0-19 13-30.5t31-13.5l-8-42q-39 2-63 25t-24 56q0 52 34.5 80t86.5 28h3z"/><glyph glyph-name="Iogonek.ss01" horiz-adv-x="269" d="M264 712L121 0H49l143 712h72zM121-36l-9-42q-29 1-46.5-16T48-138q0-19 12.5-30.5T91-182l-8-43q-38 2-62.5 25.5T-4-143q0 50 34.5 78.5T116-36h5z"/><glyph glyph-name="iogonek.ss01" horiz-adv-x="240" d="M205 493L107 0H37l98 493h70zm49 184q0-20-14.5-34.5T205 628t-34.5 14-14.5 34 14.5 35 33.5 15q20 0 35-14.5t15-34.5zM107-36l-9-42q-29 1-46.5-16T34-138q0-19 12.5-30.5T77-182l-8-43q-38 2-62.5 25.5T-18-143q0 50 34.5 78.5T102-36h5z"/><glyph glyph-name="Idotaccent.ss01" horiz-adv-x="269" d="M264 712L121 0H49l143 712h72zm33 124q0-19-13-32t-31-13q-19 0-32 13t-13 31q0 19 13 32t31 13q19 0 32-13t13-31z"/><glyph glyph-name="ij.ss01" horiz-adv-x="481" d="M205 493L107 0H37l98 493h70zm49 184q0-20-14.5-34.5T205 628t-34.5 14-14.5 34 14.5 35 33.5 15q20 0 35-14.5t15-34.5zm190-184L328-92q-26-128-145-128h-51l12 60h34q66 0 80 75l116 578h70zm49 184q0-20-14.5-34.5T444 628t-34.5 14-14.5 34 14.5 35 33.5 15q20 0 35-14.5t15-34.5z"/><glyph glyph-name="Kcommaaccent.ss01" horiz-adv-x="622" d="M667 712L399 433 563 0h-79L342 383 161 200 121 0H49l143 712h72l-81-405 393 405h91zM325-116q0-50-34.5-78.5T205-223h-5l9 42q29-1 46.5 16t17.5 45q0 19-12.5 30.5T230-76l8 42q38-2 62.5-25.5T325-116z"/><glyph glyph-name="kcommaaccent.ss01" horiz-adv-x="512" d="M502 493L305 301 438 0h-81L251 256 136 147 107 0H37l142 712h70l-94-471 257 252h90zM263-116q0-50-34.5-78.5T143-223h-5l9 42q29-1 46.5 16t17.5 45q0 19-12.5 30.5T168-76l8 42q38-2 62.5-25.5T263-116z"/><glyph glyph-name="Lcommaaccent.ss01" horiz-adv-x="546" d="M482 63L470 0H49l143 712h72L134 63h348zM283-116q0-50-34.5-78.5T163-223h-5l9 42q29-1 46.5 16t17.5 45q0 19-12.5 30.5T188-76l8 42q38-2 62.5-25.5T283-116z"/><glyph glyph-name="lcommaaccent.ss01" horiz-adv-x="284" d="M247 712L131 134q-4-19-4-33 0-41 54-41h41L210 0h-52q-40 0-70.5 22T57 94q0 23 4 40l116 578h70zm-91-828q0-50-34.5-78.5T36-223h-5l9 42q29-1 46.5 16t17.5 45q0 19-12.5 30.5T61-76l8 42q38-2 62.5-25.5T156-116z"/><glyph glyph-name="Lcaron.ss01" horiz-adv-x="546" d="M482 63L470 0H49l143 712h72L134 63h348zm-45 649l-26-127-80-63 39 190h67z"/><glyph glyph-name="lcaron.ss01" horiz-adv-x="284" d="M247 712L131 134q-4-19-4-33 0-41 54-41h41L210 0h-52q-40 0-70.5 22T57 94q0 23 4 40l116 578h70zm153 9l-26-127-80-63 39 190h67z"/><glyph glyph-name="Ldot.ss01" horiz-adv-x="546" d="M482 63L470 0H49l143 712h72L134 63h348zm-9 297q0-19-13-32t-31-13q-19 0-32 13t-13 31q0 19 13 32t31 13q19 0 32-13t13-31z"/><glyph glyph-name="ldot.ss01" horiz-adv-x="270" d="M247 712L131 134q-4-19-4-33 0-41 54-41h41L210 0h-52q-40 0-70.5 22T57 94q0 23 4 40l116 578h70zm57-442q0-19-13-32t-31-13q-19 0-32 13t-13 31q0 19 13 32t31 13q19 0 32-13t13-31z"/><glyph glyph-name="Ncommaaccent.ss01" horiz-adv-x="695" d="M692 712L549 0h-67L237 577 121 0H49l143 712h67l245-577 115 577h73zM334-116q0-50-34.5-78.5T214-223h-5l9 42q29-1 46.5 16t17.5 45q0 19-12.5 30.5T239-76l8 42q38-2 62.5-25.5T334-116z"/><glyph glyph-name="ncommaaccent.ss01" horiz-adv-x="534" d="M474 360q0-19-6-49L406 0h-70l61 304q5 27 5 46 0 43-24.5 65.5T312 438q-16 0-34-5t-41.5-18-42.5-42-27-71L107 0H37l98 493h68l-10-55q53 61 145 61 58 0 97-37t39-102zM271-116q0-50-34.5-78.5T151-223h-5l9 42q29-1 46.5 16t17.5 45q0 19-12.5 30.5T176-76l8 42q38-2 62.5-25.5T271-116z"/><glyph glyph-name="Rcommaaccent.ss01" horiz-adv-x="626" d="M614 548q0-81-50-143.5T426 325L530 0h-80l-98 320H186L121 0H49l143 712h245q93 0 135-47t42-117zm-73-4q0 49-28.5 76.5T428 648H252l-54-266h178q77 0 121 49t44 113zM307-116q0-50-34.5-78.5T187-223h-5l9 42q29-1 46.5 16t17.5 45q0 19-12.5 30.5T212-76l8 42q38-2 62.5-25.5T307-116z"/><glyph glyph-name="rcommaaccent.ss01" horiz-adv-x="398" d="M437 453l-57-51q-27 35-70 35-52 0-92-38.5T167 302L107 0H37l98 493h69l-12-60q48 66 138 66 67 0 107-46zM118-116q0-50-34.5-78.5T-2-223h-5l9 42q29-1 46.5 16T66-120q0 19-12.5 30.5T23-76l8 42q38-2 62.5-25.5T118-116z"/><glyph glyph-name="Scedilla.ss01" horiz-adv-x="559" d="M552 636l-52-44q-28 32-60 48t-83 16q-79 0-127.5-48T181 496q0-74 102-98l67-15q81-19 117.5-59T504 210q0-101-76.5-158.5T236-6q-74 0-125 23T16 92l55 48q65-82 172-82 79 0 133.5 42T431 207q0 51-26 75t-75 35l-67 16q-154 36-154 160 0 39 15 77.5t44 72 80 54.5 116 21q119 0 188-82zM276-116q0-50-34.5-78.5T156-223h-5l9 42q29-1 46.5 16t17.5 45q0 19-12.5 30.5T181-76l8 42q38-2 62.5-25.5T276-116z"/><glyph glyph-name="scedilla.ss01" horiz-adv-x="470" d="M434 444l-50-43q-46 40-115 40-58 0-90.5-30T146 341q0-45 73-56l66-9q65-10 92.5-38t27.5-83q0-61-49-107Q301-6 187-6 70-6 5 65l52 45q48-56 136-56 67 0 104.5 30.5T335 153q0 31-17 44t-52 18l-67 10Q76 243 76 332q0 66 46 112 55 55 156 55 97 0 156-55zM229-116q0-50-34.5-78.5T109-223h-5l9 42q29-1 46.5 16t17.5 45q0 19-12.5 30.5T134-76l8 42q38-2 62.5-25.5T229-116z"/><glyph glyph-name="Tcommaaccent.ss01" horiz-adv-x="521" d="M585 712l-13-64H377L247 0h-72l130 648H109l13 64h463zM247-116q0-50-34.5-78.5T127-223h-5l9 42q29-1 46.5 16t17.5 45q0 19-12.5 30.5T152-76l8 42q38-2 62.5-25.5T247-116z"/><glyph glyph-name="tcommaaccent.ss01" horiz-adv-x="318" d="M315 493l-11-53h-96l-62-306q-4-19-4-32 0-42 55-42h40L224 0h-50q-40 0-71 22T72 94q0 16 4 40l61 306H76l10 53h62l30 150h70l-30-150h97zM167-116q0-50-34.5-78.5T47-223h-5l9 42q29-1 46.5 16t17.5 45q0 19-12.5 30.5T72-76l8 42q38-2 62.5-25.5T167-116z"/><glyph glyph-name="tcaron.ss01" horiz-adv-x="318" d="M315 493l-11-53h-96l-62-306q-4-19-4-32 0-42 55-42h40L224 0h-50q-40 0-71 22T72 94q0 16 4 40l61 306H76l10 53h62l30 150h70l-30-150h97zm84 228l-26-127-80-63 39 190h67z"/><glyph glyph-name="Uogonek.ss01" horiz-adv-x="649" d="M654 712l-95-478q-23-115-97.5-177.5T280-6q-80 0-139 49.5T82 187q0 24 7 61l92 464h73l-94-471q-5-28-5-51 0-54 32.5-93T287 58q72 0 128 48t74 140l92 466h73zM452-36l-9-42q-29 1-46.5-16T379-138q0-19 12.5-30.5T422-182l-8-43q-38 2-62.5 25.5T327-143q0 50 34.5 78.5T447-36h5z"/><glyph glyph-name="uogonek.ss01" horiz-adv-x="534" d="M498 493L400 0h-68l10 55Q289-6 199-6q-59 0-98.5 37T61 133q0 19 6 49l62 311h70l-61-304q-6-28-6-46 0-43 25-65.5T222 55q17 0 35 5t41.5 18 42.5 42 27 71l60 302h70zM384-36l-9-42q-29 1-46.5-16T311-138q0-19 12.5-30.5T354-182l-8-43q-38 2-62.5 25.5T259-143q0 50 34.5 78.5T379-36h5z"/><glyph glyph-name="Ydieresis.ss01" horiz-adv-x="495" d="M575 712L293 291 234 0h-73l60 296-121 416h76l94-344 224 344h81zm-72 113q0-18-13-31t-31-13q-19 0-31.5 13T415 825t13 31 31 13q19 0 31.5-13t12.5-31zm-201 0q0-18-13-31t-31-13q-19 0-31.5 13T214 825t13 31 31 13q19 0 31.5-13t12.5-31z"/><glyph glyph-name="Zdotaccent.ss01" horiz-adv-x="532" d="M565 712l-12-60L101 64h341L429 0H6l14 67 447 581H143l12 64h410zM427 836q0-19-13-32t-31-13q-19 0-32 13t-13 31q0 19 13 32t31 13q19 0 32-13t13-31z"/><glyph glyph-name="zdotaccent.ss01" horiz-adv-x="440" d="M439 493l-12-59L97 62h262L347 0H0l12 59 329 372H94l12 62h333zm-90 156q0-19-13-32t-31-13q-19 0-32 13t-13 31q0 19 13 32t31 13q19 0 32-13t13-31z"/><glyph glyph-name="uni018F.ss01" horiz-adv-x="627" d="M592 526q0-51-24-170-27-130-46.5-186T462 73Q388-6 270-6q-88 0-145 52.5T68 186q0 59 18 146l8 40h403q22 105 22 149 0 64-39.5 99T382 655q-102 0-164-82l-48 47q36 46 92.5 72T386 718q91 0 148.5-52.5T592 526zM485 310H155q-14-74-14-119 0-63 39.5-98.5T274 57q80 0 137 60 24 26 40.5 67.5T485 310z"/><glyph glyph-name="uni01C8.ss01" horiz-adv-x="787" d="M482 63L470 0H49l143 712h72L134 63h348zm269 430L635-92q-26-128-145-128h-51l12 60h34q66 0 80 75l116 578h70zm49 184q0-20-14.5-34.5T751 628t-34.5 14-14.5 34 14.5 35 33.5 15q20 0 35-14.5t15-34.5z"/><glyph glyph-name="uni01C9.ss01" horiz-adv-x="489" d="M247 712L131 134q-4-19-4-33 0-41 54-41h41L210 0h-52q-40 0-70.5 22T57 94q0 23 4 40l116 578h70zm206-219L337-92q-26-128-145-128h-51l12 60h34q66 0 80 75l116 578h70zm49 184q0-20-14.5-34.5T453 628t-34.5 14-14.5 34 14.5 35 33.5 15q20 0 35-14.5t15-34.5z"/><glyph glyph-name="uni01CB.ss01" horiz-adv-x="936" d="M692 712L549 0h-67L237 577 121 0H49l143 712h67l245-577 115 577h73zm208-219L784-92q-26-128-145-128h-51l12 60h34q66 0 80 75l116 578h70zm49 184q0-20-14.5-34.5T900 628t-34.5 14-14.5 34 14.5 35 33.5 15q20 0 35-14.5t15-34.5z"/><glyph glyph-name="uni01CC.ss01" horiz-adv-x="776" d="M474 360q0-19-6-49L406 0h-70l61 304q5 27 5 46 0 43-24.5 65.5T312 438q-16 0-34-5t-41.5-18-42.5-42-27-71L107 0H37l98 493h68l-10-55q53 61 145 61 58 0 97-37t39-102zm266 133L624-92q-26-128-145-128h-51l12 60h34q66 0 80 75l116 578h70zm49 184q0-20-14.5-34.5T740 628t-34.5 14-14.5 34 14.5 35 33.5 15q20 0 35-14.5t15-34.5z"/><glyph glyph-name="aringacute.ss01" horiz-adv-x="528" d="M492 493L394 0h-68l13 63Q285-6 201-6 131-6 90 34.5T49 150q0 42 11 97 28 145 91 201 58 51 133 51 94 0 126-75l14 69h68zM383 334q0 51-26.5 77T289 437q-55 0-93-38-45-45-66-152-10-52-10-88 0-51 26.5-77T214 56q54 0 93 39 45 45 66 152 10 52 10 87zm60 352q0-49-34-83.5T326 568t-83 34.5-34 83.5 34 83 83 34 83-34 34-83zm-46 0q0 28-21 48.5T326 755t-50-20.5-21-48.5 21.5-49.5T326 615t49.5 21.5T397 686zm105 278L374 813h-70l118 151h80z"/><glyph glyph-name="aeacute.ss01" horiz-adv-x="825" d="M772 330q0-39-13-101H441q-6-30-6-61 0-51 27-82t80-31q74 0 138 58l42-47Q646-6 537-6 436-6 401 72L387 0h-57l14 66Q294-6 201-6q-26 0-50.5 7.5t-48.5 24T63.5 75 49 152q0 45 10 95 28 144 92 201 58 51 134 51 94 0 128-75l14 69h57l-13-64q29 41 63.5 55.5T614 499q71 0 114.5-46.5T772 330zm-385 1q0 53-28 79.5T290 437q-56 0-94-38-44-44-66-152-10-55-10-85 0-53 27.5-79.5T216 56q55 0 94 39 46 46 66 152 11 53 11 84zm317-1q0 54-27 82t-68 28q-116 0-158-160h248q5 40 5 50zm-64 410L512 589h-70l118 151h80z"/><glyph glyph-name="Scommaaccent.ss01" horiz-adv-x="559" d="M552 636l-52-44q-28 32-60 48t-83 16q-79 0-127.5-48T181 496q0-74 102-98l67-15q81-19 117.5-59T504 210q0-101-76.5-158.5T236-6q-74 0-125 23T16 92l55 48q65-82 172-82 79 0 133.5 42T431 207q0 51-26 75t-75 35l-67 16q-154 36-154 160 0 39 15 77.5t44 72 80 54.5 116 21q119 0 188-82zM276-116q0-50-34.5-78.5T156-223h-5l9 42q29-1 46.5 16t17.5 45q0 19-12.5 30.5T181-76l8 42q38-2 62.5-25.5T276-116z"/><glyph glyph-name="scommaaccent.ss01" horiz-adv-x="470" d="M434 444l-50-43q-46 40-115 40-58 0-90.5-30T146 341q0-45 73-56l66-9q65-10 92.5-38t27.5-83q0-61-49-107Q301-6 187-6 70-6 5 65l52 45q48-56 136-56 67 0 104.5 30.5T335 153q0 31-17 44t-52 18l-67 10Q76 243 76 332q0 66 46 112 55 55 156 55 97 0 156-55zM229-116q0-50-34.5-78.5T109-223h-5l9 42q29-1 46.5 16t17.5 45q0 19-12.5 30.5T134-76l8 42q38-2 62.5-25.5T229-116z"/><glyph glyph-name="uni021A.ss01" horiz-adv-x="521" d="M585 712l-13-64H377L247 0h-72l130 648H109l13 64h463zM247-116q0-50-34.5-78.5T127-223h-5l9 42q29-1 46.5 16t17.5 45q0 19-12.5 30.5T152-76l8 42q38-2 62.5-25.5T247-116z"/><glyph glyph-name="uni021B.ss01" horiz-adv-x="318" d="M315 493l-11-53h-96l-62-306q-4-19-4-32 0-42 55-42h40L224 0h-50q-40 0-71 22T72 94q0 16 4 40l61 306H76l10 53h62l30 150h70l-30-150h97zM167-116q0-50-34.5-78.5T47-223h-5l9 42q29-1 46.5 16t17.5 45q0 19-12.5 30.5T72-76l8 42q38-2 62.5-25.5T167-116z"/><glyph glyph-name="dotaccent.ss01" horiz-adv-x="483" d="M375 649q0-19-13-32t-31-13q-19 0-32 13t-13 31q0 19 13 32t31 13q19 0 32-13t13-31z"/><glyph glyph-name="ogonek.ss01" horiz-adv-x="479" d="M249-36l-9-42q-29 1-46.5-16T176-138q0-19 12.5-30.5T219-182l-8-43q-38 2-62.5 25.5T124-143q0 50 34.5 78.5T244-36h5z"/><glyph glyph-name="afii10023.ss01" horiz-adv-x="595" d="M611 712l-13-63H252l-52-258h297l-12-63H188L134 63h353L475 0H49l143 712h419zm-53 113q0-18-13-31t-31-13q-19 0-31.5 13T470 825t13 31 31 13q19 0 31.5-13t12.5-31zm-201 0q0-18-13-31t-31-13q-19 0-31.5 13T269 825t13 31 31 13q19 0 31.5-13t12.5-31z"/><glyph glyph-name="afii10053.ss01" horiz-adv-x="560" d="M569 630l-54-46q-52 71-131 71-78 0-135-60-27-29-43-72t-34-132h253l-12-61H160q-19-95-19-142 0-59 40-95t97-36q83 0 154 71l43-53Q386-6 273-6q-88 0-146 51.5T69 186q0 51 24 170 28 135 47 189t60 96q74 77 187 77t182-88z"/><glyph glyph-name="afii10056.ss01" horiz-adv-x="282" d="M264 712L121 0H49l143 712h72zm123 113q0-18-13-31t-31-13q-19 0-31.5 13T299 825t13 31 31 13q19 0 31.5-13t12.5-31zm-201 0q0-18-13-31t-31-13q-19 0-31.5 13T98 825t13 31 31 13q19 0 31.5-13t12.5-31z"/><glyph glyph-name="afii10058.ss01" horiz-adv-x="979" d="M862 239q0 48-28.5 80T744 351H572L515 64h171q78 0 127 49t49 126zm73 4q0-105-68-174T683 0H430l130 648H326q-34-169-65-284.5t-60-188-63-111T71 13-9 0h-34l13 63h14q33 0 56.5 10.5T92 121t53.5 106.5T202 417t66 295h377l-59-298h168q92 0 136.5-49T935 243z"/><glyph glyph-name="afii10061.ss01" horiz-adv-x="622" d="M552 926L424 775h-69l117 151h80zm106-214l-12-61h-10q-35 0-52-14.5T545 583l-80-141q-37-65-85-78 53-11 72-98l29-130q10-44 21.5-58.5T545 63h17L549 0h-31q-49 0-70 22.5T415 99l-31 144q-10 47-28 66.5T295 329H187L121 0H49l143 712h72l-65-321h97q66 0 108 74l87 155q28 51 57.5 71.5T629 712h29z"/><glyph glyph-name="afii10021.ss01" horiz-adv-x="655" d="M640 712L510 64h81l-46-229h-72L506 0H43L10-165h-72l46 229h66q65 87 111.5 222T267 712h373zm-85-63H323q-52-257-93.5-381T132 64h306z"/><glyph glyph-name="afii10024.ss01" horiz-adv-x="922" d="M957 712l-12-61h-10q-34 0-51-14.5T844 583l-80-141q-37-65-84-78 30-6 45.5-30t25.5-68l30-130q10-44 21-58.5T844 63h17L849 0h-31q-49 0-70 22t-33 77l-32 144q-11 48-28 67t-61 19h-73L455 0h-72l65 329h-73q-40 0-64-19t-54-68L168 99q-35-57-62-78T29 0H-9L3 63h16q30 0 46.5 13.5T106 128l87 141q28 44 54.5 68.5T309 369q-40 12-52 73l-29 140q-8 39-20 54t-43 15h-11l12 61h22q46 0 68-20.5t33-73.5l30-148q8-39 25-59t55-20h62l65 321h72l-65-321h63q66 0 108 74l87 155q28 51 57.5 71.5T929 712h28z"/><glyph glyph-name="afii10025.ss01" horiz-adv-x="564" d="M537 547q0-56-31.5-105.5T401 364q88-43 88-137 0-104-67.5-168.5T242-6Q104-6 29 86l53 48q60-76 159-76 80 0 127 46.5T415 226q0 51-32 79t-88 28h-73l13 63h68q74 0 117 41.5T463 542q0 45-29.5 78.5T336 654q-91 0-159-62l-43 47q87 79 208 79 100 0 147.5-48.5T537 547z"/><glyph glyph-name="afii10028.ss01" horiz-adv-x="622" d="M658 712l-12-61h-10q-35 0-52-14.5T545 583l-80-141q-37-65-85-78 53-11 72-98l29-130q10-44 21.5-58.5T545 63h17L549 0h-31q-49 0-70 22.5T415 99l-31 144q-10 47-28 66.5T295 329H187L121 0H49l143 712h72l-65-321h97q66 0 108 74l87 155q28 51 57.5 71.5T629 712h29z"/><glyph glyph-name="afii10029.ss01" horiz-adv-x="649" d="M645 712L502 0h-73l130 648H326q-34-169-65-284.5t-60-188-63-111T71 13-9 0h-34l13 63h14q33 0 56.5 10.5T92 121t53.5 106.5T202 417t66 295h377z"/><glyph glyph-name="afii10035.ss01" horiz-adv-x="559" d="M568 630l-54-46q-27 37-56.5 54T384 655q-79 0-134-60-29-30-45.5-77.5T165 356q-23-113-23-168 0-59 39.5-95T277 57q82 0 155 71l42-53Q385-6 273-6q-88 0-146 51.5T69 186q0 62 23 170 27 133 47 188t61 97q74 77 186 77 113 0 182-88z"/><glyph glyph-name="afii10047.ss01" horiz-adv-x="560" d="M533 526q0-57-24-170-28-136-46.5-189T405 72Q334-6 216-6T31 78l54 49q54-70 134-70 77 0 134 60 27 29 43 73.5T431 330H178l12 61h253q17 90 17 133 0 59-37 95t-93 36q-87 0-153-71l-44 48q86 86 200 86 86 0 143-52t57-140z"/><glyph glyph-name="afii10049.ss01" horiz-adv-x="627" d="M623 712L480 0h-73l64 322H365q-41 0-65-19.5T247 235L164 99q-35-57-62.5-78T24 0h-40l13 63h17q31 0 47.5 13.5T102 128l79 129q32 53 71 74-129 24-129 152 0 41 14 79.5t42 73 77.5 55.5T370 712h253zm-85-63H366q-83 0-126.5-49.5T196 487q0-48 30-75.5t89-27.5h169z"/><glyph glyph-name="afii10065.ss01" horiz-adv-x="528" d="M492 493L394 0h-68l13 63Q285-6 201-6 131-6 90 34.5T49 150q0 42 11 97 28 145 91 201 58 51 133 51 94 0 126-75l14 69h68zM383 334q0 51-26.5 77T289 437q-55 0-93-38-45-45-66-152-10-52-10-88 0-51 26.5-77T214 56q54 0 93 39 45 45 66 152 10 52 10 87z"/><glyph glyph-name="afii10066.ss01" horiz-adv-x="498" d="M504 713q-11-47-31-67-28-28-74-31-41-3-65-6t-55.5-14.5T224 563q-44-39-74-152 23 35 63 55t85 20q66 0 107.5-40T447 326q0-37-8-85-24-134-92-195Q288-6 208-6q-27 0-52.5 7.5t-50 24.5T66 77t-15 80q0 59 24 175 23 110 47 176.5T190 612q39 33 85 46t113 17q28 1 43 15 9 8 14 23h59zM378 325q0 52-26 76.5T285 426q-56 0-91-35-44-44-65-146-9-48-9-86 0-53 27-78t67-25q51 0 90 39 46 46 65 148 9 46 9 82z"/><glyph glyph-name="afii10069.ss01" horiz-adv-x="537" d="M485 493L398 61h70l-39-196h-67L389 0H40L13-135h-67l39 196h63q41 65 73 162.5T187 493h298zm-82-61H241Q194 187 124 61h204z"/><glyph glyph-name="afii10072.ss01" horiz-adv-x="712" d="M705 493l-12-56h-8q-26 0-38-7.5T621 398l-53-90q-24-42-59-51 39-9 53-68l22-89q7-27 16-35t33-8h13L635 0h-36q-36 0-52 16t-25 54l-25 103q-7 29-21 40.5T430 225h-42L344 0h-70l44 225h-39q-31 0-50.5-11T191 174L127 69q-23-37-45-53T22 0h-39l12 57h8q25 0 37 6.5T67 94l61 98q21 34 39 48.5t45 19.5q-24 9-35 50l-22 88q-6 24-14 31.5t-31 7.5h-10l11 56h24q37 0 54-14t26-51l25-102q6-23 18.5-33.5T298 282h31l43 211h70l-43-211h33q52 0 78 45l59 101q21 36 43.5 50.5T673 493h32z"/><glyph glyph-name="afii10076.ss01" horiz-adv-x="502" d="M495 493l-11-56h-10q-25 0-37-7.5T411 398l-53-90q-24-42-59-51 40-9 54-68l22-89q7-27 16-35t32-8h14L425 0h-36q-36 0-52.5 16.5T311 70l-25 103q-7 29-21 40.5T220 225h-69L106 0H36l99 493h70l-43-211h59q53 0 79 45l58 101q21 36 43.5 50.5T462 493h33z"/><glyph glyph-name="afii10077.ss01" horiz-adv-x="514" d="M478 493L380 0h-70l86 432H237q-19-98-37-168.5t-36.5-118T128 69 89 25 47 5-2 0h-30l12 59h11q29 0 47.5 10.5t42.5 51T129.5 252 183 493h295z"/><glyph glyph-name="afii10086.ss01" horiz-adv-x="778" d="M730 343q0-37-12-97-15-74-32.5-121.5T636 45Q585-6 505-6q-86 0-117 68l-57-281h-70l55 275Q270-6 188-6 121-6 84.5 34T48 150q0 38 12 96 15 74 32.5 122t49.5 80q51 51 131 51 86 0 117-68l57 281h70l-55-276q46 63 129 63 66 0 102.5-40T730 343zm-71-8q0 103-87 103-65 0-97.5-49.5T424 246q-11-55-11-86 0-105 87-105 65 0 97 47.5T648 246q11 55 11 89zm-294-2q0 105-87 105-65 0-96.5-48T130 246q-11-55-11-88 0-103 87-103 65 0 97.5 49.5T354 246q11 55 11 87z"/><glyph glyph-name="afii10097.ss01" horiz-adv-x="491" d="M454 493L356 0h-70l42 210h-65q-32 0-50.5-10.5T177 160l-52-91q-21-37-42.5-53T23 0h-41l12 57H4q24 0 35.5 6.5T65 94l47 82q20 35 47 48-42 9-62.5 37.5T76 326q0 74 50 120.5T264 493h190zm-81-58H264q-64 0-91-32.5T146 334q0-69 85-69h108z"/><glyph glyph-name="afii10071.ss01" horiz-adv-x="506" d="M453 330q0-36-12-101H123q-6-40-6-62 0-51 26.5-82T223 54q75 0 139 58l42-46Q326-6 218-6 143-6 96.5 37.5T50 164q0 58 14 115t41.5 107.5 76 81.5T293 499q76 0 118-47.5T453 330zm-68 0q0 55-27 82.5T290 440q-116 0-157-160h248q4 21 4 50zm100 309q0-18-13-31t-31-13q-19 0-31.5 13T397 639t13 31 31 13q19 0 31.5-13t12.5-31zm-201 0q0-18-13-31t-31-13q-19 0-31.5 13T196 639t13 31 31 13q19 0 31.5-13t12.5-31z"/><glyph glyph-name="afii10103.ss01" horiz-adv-x="240" d="M205 493L107 0H37l98 493h70zm49 184q0-20-14.5-34.5T205 628t-34.5 14-14.5 34 14.5 35 33.5 15q20 0 35-14.5t15-34.5z"/><glyph glyph-name="afii10104.ss01" horiz-adv-x="240" d="M205 493L107 0H37l98 493h70zm137 146q0-18-13-31t-31-13q-19 0-31.5 13T254 639t13 31 31 13q19 0 31.5-13t12.5-31zm-201 0q0-18-13-31t-31-13q-19 0-31.5 13T53 639t13 31 31 13q19 0 31.5-13t12.5-31z"/><glyph glyph-name="afii10105.ss01" horiz-adv-x="241" d="M205 493L89-92Q63-220-56-220h-51l12 60h34q66 0 80 75l116 578h70zm49 184q0-20-14.5-34.5T205 628t-34.5 14-14.5 34 14.5 35 33.5 15q20 0 35-14.5t15-34.5z"/><glyph glyph-name="afii10106.ss01" horiz-adv-x="755" d="M629 166q0 73-83 73H438L401 58h110q63 0 90.5 34.5T629 166zm69 8q0-78-50-126T511 0H320l85 432H237q-19-98-37-168.5t-36.5-118T128 69 89 25 47 5-2 0h-30l12 59h11q29 0 47.5 10.5t42.5 51T129.5 252 183 493h305l-39-195h115q67 0 100.5-36t33.5-88z"/><glyph glyph-name="afii10109.ss01" horiz-adv-x="502" d="M468 740L340 589h-70l118 151h80zm27-247l-11-56h-10q-25 0-37-7.5T411 398l-53-90q-24-42-59-51 40-9 54-68l22-89q7-27 16-35t32-8h14L425 0h-36q-36 0-52.5 16.5T311 70l-25 103q-7 29-21 40.5T220 225h-69L106 0H36l99 493h70l-43-211h59q53 0 79 45l58 101q21 36 43.5 50.5T462 493h33z"/><glyph glyph-name="uni0496.ss01" horiz-adv-x="922" d="M957 712l-12-61h-10q-34 0-51-14.5T844 583l-80-141q-37-65-84-78 30-6 45.5-30t25.5-68l30-130q10-44 21-58.5T844 63h17l-46-229h-71L777 5q-26 9-39.5 30.5T715 99l-32 144q-11 48-28 67t-61 19h-73L455 0h-72l65 329h-73q-40 0-64-19t-54-68L168 99q-35-57-62-78T29 0H-9L3 63h16q30 0 46.5 13.5T106 128l87 141q28 44 54.5 68.5T309 369q-40 12-52 73l-29 140q-8 39-20 54t-43 15h-11l12 61h22q46 0 68-20.5t33-73.5l30-148q8-39 25-59t55-20h62l65 321h72l-65-321h63q66 0 108 74l87 155q28 51 57.5 71.5T929 712h28z"/><glyph glyph-name="uni0497.ss01" horiz-adv-x="712" d="M705 493l-12-56h-8q-26 0-38-7.5T621 398l-53-90q-24-42-59-51 39-9 53-68l22-89q7-27 16-35t33-8h13l-38-192h-67L569 4q-35 10-47 66l-25 103q-7 29-21 40.5T430 225h-42L344 0h-70l44 225h-39q-31 0-50.5-11T191 174L127 69q-23-37-45-53T22 0h-39l12 57h8q25 0 37 6.5T67 94l61 98q21 34 39 48.5t45 19.5q-24 9-35 50l-22 88q-6 24-14 31.5t-31 7.5h-10l11 56h24q37 0 54-14t26-51l25-102q6-23 18.5-33.5T298 282h31l43 211h70l-43-211h33q52 0 78 45l59 101q21 36 43.5 50.5T673 493h32z"/><glyph glyph-name="uni049A.ss01" horiz-adv-x="622" d="M658 712l-12-61h-10q-35 0-52-14.5T545 583l-80-141q-37-65-85-78 53-11 72-98l29-130q10-44 21.5-58.5T545 63h17l-46-228h-71L478 5q-27 9-40.5 31T415 99l-31 144q-10 47-28 66.5T295 329H187L121 0H49l143 712h72l-65-321h97q66 0 108 74l87 155q28 51 57.5 71.5T629 712h29z"/><glyph glyph-name="uni049B.ss01" horiz-adv-x="502" d="M495 493l-11-56h-10q-25 0-37-7.5T411 398l-53-90q-24-42-59-51 40-9 54-68l22-89q6-26 15-34.5t31-8.5h15l-38-192h-67L358 4q-35 12-47 66l-25 103q-7 29-21 40.5T220 225h-69L106 0H36l99 493h70l-43-211h59q53 0 79 45l58 101q21 36 43.5 50.5T462 493h33z"/><glyph glyph-name="uni049C.ss01" horiz-adv-x="641" d="M210 180l31 149h-54L121 0H49l143 712h72l-65-321h54l32 150h57l-31-150h4q66 0 108 74l87 155q28 51 57.5 71.5T648 712h29l-12-61h-10q-35 0-52-14.5T564 583l-80-141q-37-65-85-78 53-11 72-98l29-130q10-44 21.5-58.5T564 63h17L568 0h-31q-49 0-70 22.5T434 99l-31 144q-10 47-28 66.5T314 329h-16l-30-149h-58z"/><glyph glyph-name="uni049D.ss01" horiz-adv-x="522" d="M158 98l25 127h-32L106 0H36l99 493h70l-43-211h33l25 127h54l-25-127q47 3 71 45l58 101q21 36 43.5 50.5T482 493h33l-11-56h-10q-25 0-37-7.5T431 398l-53-90q-24-42-59-51 40-9 54-68l22-89q7-27 16-35t32-8h14L445 0h-36q-36 0-52.5 16.5T331 70l-25 103q-7 29-21 40.5T240 225h-2L213 98h-55z"/><glyph glyph-name="uni04D8.ss01" horiz-adv-x="627" d="M592 526q0-51-24-170-27-130-46.5-186T462 73Q388-6 270-6q-88 0-145 52.5T68 186q0 59 18 146l8 40h403q22 105 22 149 0 64-39.5 99T382 655q-102 0-164-82l-48 47q36 46 92.5 72T386 718q91 0 148.5-52.5T592 526zM485 310H155q-14-74-14-119 0-63 39.5-98.5T274 57q80 0 137 60 24 26 40.5 67.5T485 310z"/><glyph glyph-name="Wdieresis.ss01" horiz-adv-x="815" d="M890 712L581 0h-68l-38 573L208 0h-67l-33 712h75l20-577 264 577h65l37-577 243 577h78zM670 825q0-18-13-31t-31-13q-19 0-31.5 13T582 825t13 31 31 13q19 0 31.5-13t12.5-31zm-201 0q0-18-13-31t-31-13q-19 0-31.5 13T381 825t13 31 31 13q19 0 31.5-13t12.5-31z"/><glyph glyph-name="wdieresis.ss01" horiz-adv-x="688" d="M724 493L485 0h-64l-48 382L176 0h-64L61 493h71l31-394 200 394h57l47-394 183 394h74zM570 639q0-18-13-31t-31-13q-19 0-31.5 13T482 639t13 31 31 13q19 0 31.5-13t12.5-31zm-201 0q0-18-13-31t-31-13q-19 0-31.5 13T281 639t13 31 31 13q19 0 31.5-13t12.5-31z"/><glyph glyph-name="uni1E8A.ss01" horiz-adv-x="526" d="M587 712L325 361 466 0h-81L273 302 50 0h-85l279 371-130 341h81l101-284 205 284h86zM422 836q0-19-13-32t-31-13q-19 0-32 13t-13 31q0 19 13 32t31 13q19 0 32-13t13-31z"/><glyph glyph-name="uni1E8B.ss01" horiz-adv-x="458" d="M467 493L270 249 384 0h-82l-81 196L69 0h-86l206 256L81 493h81l78-185 141 185h86zM354 649q0-19-13-32t-31-13q-19 0-32 13t-13 31q0 19 13 32t31 13q19 0 32-13t13-31z"/><glyph glyph-name="ellipsis.ss01" horiz-adv-x="721" d="M147 52q0-22-16.5-38.5T91-3 52 13.5 36 52t16 38.5T91 107t39.5-16.5T147 52zm231 0q0-22-16-38.5T323-3t-39 16.5T268 52t16 38.5 39 16.5 39-16.5T378 52zm231 0q0-22-16.5-38.5T554-3t-38.5 16.5T499 52t16.5 38.5T554 107t38.5-16.5T609 52z"/><glyph glyph-name="Euro.ss01" horiz-adv-x="594" d="M601 630l-54-46q-27 37-56.5 54T417 655q-77 0-134-59-39-40-64-141h211l-9-47H208l-19-98h213l-9-47H181q-6-37-6-75 0-59 39.5-95T310 57q81 0 154 71l43-53Q420-6 306-6q-88 0-146 51.5T102 186q0 39 6 77H46l9 47h61l20 98H74l9 47h62q17 71 36 111t51 75q72 77 187 77 113 0 182-88z"/><glyph glyph-name="dotmath.ss01" horiz-adv-x="259" d="M189 267q0-23-16.5-39T134 212t-38.5 16T79 267t16.5 39 38.5 16 38.5-16 16.5-39z"/><glyph glyph-name="fi.ss01" horiz-adv-x="535" d="M364 714l-12-60h-36q-64 0-78-70l-18-91h102l-11-53H209L121 0H51l88 440H80l10 53h59l19 95q25 126 143 126h53zm136-221L402 0h-70l98 493h70zm49 184q0-20-14.5-34.5T500 628t-34.5 14-14.5 34 14.5 35 33.5 15q20 0 35-14.5t15-34.5z"/><glyph glyph-name="i.latn_TRK.ss01" horiz-adv-x="240" d="M205 493L107 0H37l98 493h70zm49 184q0-20-14.5-34.5T205 628t-34.5 14-14.5 34 14.5 35 33.5 15q20 0 35-14.5t15-34.5z"/><glyph glyph-name="Ldot.latn_CAT.ss01" horiz-adv-x="546" d="M482 63L470 0H49l143 712h72L134 63h348zm-9 297q0-19-13-32t-31-13q-19 0-32 13t-13 31q0 19 13 32t31 13q19 0 32-13t13-31z"/><glyph glyph-name="ldot.latn_CAT.ss01" horiz-adv-x="270" d="M247 712L131 134q-4-19-4-33 0-41 54-41h41L210 0h-52q-40 0-70.5 22T57 94q0 23 4 40l116 578h70zm57-442q0-19-13-32t-31-13q-19 0-32 13t-13 31q0 19 13 32t31 13q19 0 32-13t13-31z"/><glyph glyph-name="exclamdown.case.ss01" horiz-adv-x="301" d="M220 515L129 0H47l113 515h60zm46 152q0-20-14-34.5T218 618t-34 14.5-14 34.5 14 34 34 14 34-14 14-34z"/><glyph glyph-name="questiondown.case.ss01" horiz-adv-x="474" d="M390 172q-16-84-72.5-131T176-6Q114-6 70.5 34T27 141q0 78 70 158l101 117q24 28 30 58l8 42h70l-9-45q-11-53-48-95L149 261q-51-59-51-116 0-38 23.5-63T187 57q50 0 85.5 30.5T319 172h71zm-45 495q0-20-14.5-34.5T296 618t-34 14.5-14 34.5 14 34 34 14 34.5-14 14.5-34z"/><glyph glyph-name="dieresis.lc.ss01" horiz-adv-x="501" d="M483 639q0-18-13-31t-31-13q-19 0-31.5 13T395 639t13 31 31 13q19 0 31.5-13t12.5-31zm-201 0q0-18-13-31t-31-13q-19 0-31.5 13T194 639t13 31 31 13q19 0 31.5-13t12.5-31z"/><glyph glyph-name="dotaccent.lc.ss01" horiz-adv-x="483" d="M375 649q0-19-13-32t-31-13q-19 0-32 13t-13 31q0 19 13 32t31 13q19 0 32-13t13-31z"/><glyph glyph-name="diedot.lc.ss01" horiz-adv-x="502" d="M285 646q0-19-13.5-32.5T240 600q-19 0-32 13.5T195 645q0 19 13 32t32 13 32-13 13-31z"/><glyph glyph-name="dieresis.uc.ss01" horiz-adv-x="617" d="M561 825q0-18-13-31t-31-13q-19 0-31.5 13T473 825t13 31 31 13q19 0 31.5-13t12.5-31zm-201 0q0-18-13-31t-31-13q-19 0-31.5 13T272 825t13 31 31 13q19 0 31.5-13t12.5-31z"/><glyph glyph-name="dotaccent.uc.ss01" horiz-adv-x="475" d="M460 836q0-19-13-32t-31-13q-19 0-32 13t-13 31q0 19 13 32t31 13q19 0 32-13t13-31z"/><glyph glyph-name="diedot.uc.ss01" horiz-adv-x="617" d="M363 833q0-19-13.5-32.5T318 787q-19 0-32 13t-13 32 13 32 32 13 32-13 13-31z"/><glyph glyph-name="caroncomma" horiz-adv-x="483" d="M692 719l-80-153h-59l69 153h70z"/><glyph glyph-name="commaaccent" horiz-adv-x="252" d="M239-65l-84-147H79l94 147h66z"/><glyph glyph-name="commaturn" horiz-adv-x="455" d="M466 740L338 589h-69l117 151h80z"/><glyph glyph-name="breveCyrLc.comp" horiz-adv-x="498" d="M480 701q-28-125-156-125-60 0-93 27t-33 75q0 12 1 23h60q-1-11-1-20 0-26 18.5-41.5T328 624q74 0 92 77h60z"/><glyph glyph-name="breveCyrUc.comp" horiz-adv-x="498" d="M568 882q-28-125-157-125-59 0-92 27t-33 75q0 12 1 23h60q-1-10-1-19 0-27 18-42.5t51-15.5q74 0 93 77h60z"/><glyph glyph-name="grave.lc" horiz-adv-x="502" d="M351 589h-63l-72 151h77z"/><glyph glyph-name="dieresis.lc" horiz-adv-x="501" d="M473 683l-17-87h-68l17 87h68zm-200 0l-17-87h-68l17 87h68z"/><glyph glyph-name="macron.lc" horiz-adv-x="501" d="M480 665l-11-53H183l11 53h286z"/><glyph glyph-name="acute.lc" horiz-adv-x="502" d="M468 740L340 589h-70l118 151h80z"/><glyph glyph-name="circumflex.lc" horiz-adv-x="501" d="M469 588h-62l-65 107-108-107h-69l150 153h64z"/><glyph glyph-name="caron.lc" horiz-adv-x="501" d="M494 741L344 588h-64l-90 153h62l65-107 108 107h69z"/><glyph glyph-name="breve.lc" horiz-adv-x="502" d="M480 706q-28-125-155-125-58 0-91 26.5T201 683q0 12 1 23h55q-1-9-1-18 0-25 20-39t55-14q76 0 94 71h55z"/><glyph glyph-name="dotaccent.lc" horiz-adv-x="501" d="M375 679l-15-74h-72l15 74h72z"/><glyph glyph-name="ring.lc" horiz-adv-x="501" d="M448 686q0-49-34-83.5T331 568t-83 34.5-34 83.5 34 83 83 34 83-34 34-83zm-46 0q0 28-21 48.5T331 755t-50-20.5-21-48.5 21-49.5 50-21.5 50 21.5 21 49.5z"/><glyph glyph-name="tilde.lc" horiz-adv-x="501" d="M482 649q-51-48-96-48-36 0-69 24-28 20-52 20-25 0-62-34l-29 37q51 48 96 48 34 0 69-24 26-20 51-20t62 34z"/><glyph glyph-name="hungarumlaut.lc" horiz-adv-x="502" d="M556 739L427 588h-69l117 151h81zm-156 0L271 588h-69l117 151h81z"/><glyph glyph-name="diedot.lc" horiz-adv-x="501" d="M273 683l-17-87h-68l17 87h68z"/><glyph glyph-name="grave.uc" horiz-adv-x="519" d="M435 775h-63l-71 151h77z"/><glyph glyph-name="dieresis.uc" horiz-adv-x="517" d="M557 870l-17-87h-68l17 87h68zm-200 0l-17-87h-68l17 87h68z"/><glyph glyph-name="macron.uc" horiz-adv-x="493" d="M276 851h287l-11-53H265z"/><glyph glyph-name="acute.uc" horiz-adv-x="519" d="M552 926L424 775h-69l117 151h80z"/><glyph glyph-name="circumflex.uc" horiz-adv-x="517" d="M553 775h-61l-65 107-109-107h-68l149 153h65z"/><glyph glyph-name="caron.uc" horiz-adv-x="501" d="M578 928L429 775h-64l-90 153h61l65-107 109 107h68z"/><glyph glyph-name="breve.uc" horiz-adv-x="498" d="M567 898q-30-126-156-126-58 0-91 26.5T287 874q0 13 1 24h55q-1-10-1-18 0-26 20-40t55-14q77 0 94 72h56z"/><glyph glyph-name="dotaccent.uc" horiz-adv-x="493" d="M460 866l-15-74h-72l15 74h72z"/><glyph glyph-name="ring.uc" horiz-adv-x="475" d="M531 862q0-49-34.5-83.5T414 744q-49 0-83.5 34.5T296 862t34.5 83.5T414 980q48 0 82.5-34.5T531 862zm-47 0q0 28-21 49t-49 21q-29 0-50-21t-21-49 21.5-49 49.5-21 49 21 21 49z"/><glyph glyph-name="tilde.uc" horiz-adv-x="517" d="M567 837q-51-48-96-48-36 0-69 24-27 20-51 20-27 0-62-34l-30 37q51 48 96 48 36 0 69-24 28-20 51-20 27 0 62 34z"/><glyph glyph-name="hungarumlaut.uc" horiz-adv-x="502" d="M640 926L511 775h-68l117 151h80zm-156 0L356 775h-69l117 151h80z"/><glyph glyph-name="diedot.uc" horiz-adv-x="617" d="M358 870l-17-87h-68l17 87h68z"/></font>
</defs>
</svg>
