<svg width="107" height="75" viewBox="0 0 107 75" fill="none" xmlns="http://www.w3.org/2000/svg">
<g filter="url(#filter33_d)">
<path d="M97.0002 10L10.7002 10V15.2L97.0002 15.2V10Z" fill="white"/>
<path d="M97.0006 19.4L15.1006 19.4V24.6L97.0006 24.6V19.4Z" fill="white"/>
<path opacity="0.35" d="M97.0006 28.8L36.1006 28.8V34L97.0006 34V28.8Z" fill="white"/>
<path opacity="0.35" d="M96.9 38.2L52 38.2V43.3999L96.9 43.3999V38.2Z" fill="white"/>
<path opacity="0.52" d="M56.8002 60.9001C57.6839 60.9001 58.4002 60.1837 58.4002 59.3001C58.4002 58.4164 57.6839 57.7001 56.8002 57.7001C55.9165 57.7001 55.2002 58.4164 55.2002 59.3001C55.2002 60.1837 55.9165 60.9001 56.8002 60.9001Z" fill="white"/>
<path d="M56.8004 64.2C59.5066 64.2 61.7004 62.0062 61.7004 59.3C61.7004 56.5938 59.5066 54.4 56.8004 54.4C54.0942 54.4 51.9004 56.5938 51.9004 59.3C51.9004 62.0062 54.0942 64.2 56.8004 64.2Z" fill="white"/>
<path opacity="0.44" d="M90.3002 60.9001C91.1839 60.9001 91.9002 60.1837 91.9002 59.3001C91.9002 58.4164 91.1839 57.7001 90.3002 57.7001C89.4165 57.7001 88.7002 58.4164 88.7002 59.3001C88.7002 60.1837 89.4165 60.9001 90.3002 60.9001Z" fill="white"/>
<path opacity="0.41" d="M95.0996 58.2001C95.1996 58.5001 95.1996 58.9001 95.1996 59.3001C95.1996 62.0001 92.9996 64.2001 90.2996 64.2001C89.6996 64.2001 89.1996 64.1001 88.5996 63.9001" fill="white"/>
<path d="M88.5998 63.9C86.6998 63.2 85.2998 61.4 85.2998 59.3C85.2998 56.6 87.4998 54.4 90.1998 54.4C92.5998 54.4 94.4998 56 94.9998 58.3" fill="white"/>
<path d="M73.4994 60.8999C74.383 60.8999 75.0994 60.1836 75.0994 59.2999C75.0994 58.4163 74.383 57.7 73.4994 57.7C72.6157 57.7 71.8994 58.4163 71.8994 59.2999C71.8994 60.1836 72.6157 60.8999 73.4994 60.8999Z" fill="white"/>
<path d="M76.5996 63.2C75.7996 63.9 74.6996 64.3 73.4996 64.3C70.7996 64.3 68.5996 62.1 68.5996 59.4C68.5996 56.7 70.7996 54.5 73.4996 54.5C74.2996 54.5 75.0996 54.7 75.7996 55.1" fill="white"/>
<path opacity="0.35" d="M75.7998 54.9C77.3998 55.7 78.3998 57.4 78.3998 59.3C78.3998 60.9 77.6998 62.3 76.4998 63.2" fill="white"/>
</g>
<defs>
<filter id="filter33_d" x="0.700195" y="0" width="106.3" height="74.3" filterUnits="userSpaceOnUse" color-interpolation-filters="sRGB">
<feFlood flood-opacity="0" result="BackgroundImageFix"/>
<feColorMatrix in="SourceAlpha" type="matrix" values="0 0 0 0 0 0 0 0 0 0 0 0 0 0 0 0 0 0 127 0"/>
<feOffset/>
<feGaussianBlur stdDeviation="5"/>
<feColorMatrix type="matrix" values="0 0 0 0 0.101961 0 0 0 0 0.596078 0 0 0 0 1 0 0 0 1 0"/>
<feBlend mode="normal" in2="BackgroundImageFix" result="effect1_dropShadow"/>
<feBlend mode="normal" in="SourceGraphic" in2="effect1_dropShadow" result="shape"/>
</filter>
</defs>
</svg>
