<svg width="34" height="72" viewBox="0 0 34 72" fill="none" xmlns="http://www.w3.org/2000/svg">
<path d="M7.58789 55.8306L7.58789 65.9943L16.4289 71.0762L25.2699 65.9943V55.8306L16.4289 50.7488L7.58789 55.8306Z" fill="white"/>
<path d="M17.8213 45.5974V55.9003H17.7516L8.91063 61.0518H8.84101L0 55.9003L0 45.5974H0.0696185L8.91063 40.446H8.98024L17.8213 45.5974ZM17.5428 55.7611V45.7366L8.84101 40.7244L0.139226 45.7366L0.139226 55.7611L8.84101 60.7733L17.5428 55.7611Z" fill="white"/>
<path d="M25.3398 35.4338V45.7367H25.2702L16.4292 50.8882H16.3596L7.51855 45.7367L7.51855 35.4338H7.58816L16.4292 30.2823H16.4988L25.3398 35.4338ZM25.131 45.5975V35.573L16.4292 30.5608L7.7274 35.573L7.7274 45.5975L16.4292 50.6097L25.131 45.5975Z" fill="white"/>
<path d="M33.833 25.5486V35.8515H33.7634L24.9223 41.0029H24.8527L16.0117 35.8515V25.5486H16.0813L24.9223 20.3971H24.992L33.833 25.5486ZM33.5545 35.7122V25.6878L24.8527 20.6756L16.1509 25.6878V35.7122L24.8527 40.7245L33.5545 35.7122Z" fill="white"/>
<path d="M8.49316 15.4547L8.49316 25.6183L17.3342 30.7002L26.1056 25.6183V15.4547L17.3342 10.3032L8.49316 15.4547Z" fill="white"/>
<path d="M33.833 5.15158V15.4545H33.7634L24.9223 20.606H24.8527L16.0117 15.4545V5.15158H16.0813L24.9223 0.000110626H24.992L33.833 5.15158ZM33.5545 15.3849V5.36042L24.8527 0.348181L16.1509 5.36042V15.3849L24.8527 20.3971L33.5545 15.3849Z" fill="white"/>
</svg>
