<svg width="47" height="78" viewBox="0 0 47 78" fill="none" xmlns="http://www.w3.org/2000/svg">
<path d="M17.1707 8.22217L8.39258 8.22217V6.75915L17.1707 6.75915V8.22217Z" fill="white" fill-opacity="0.5"/>
<path d="M17.1707 10.6865L8.39258 10.6865V9.22351L17.1707 9.22351V10.6865Z" fill="white" fill-opacity="0.5"/>
<path d="M17.1707 13.1504L8.39258 13.1504V11.6874L17.1707 11.6874V13.1504Z" fill="white" fill-opacity="0.5"/>
<path d="M17.1707 15.6914L8.39258 15.6914V14.2284L17.1707 14.2284V15.6914Z" fill="white" fill-opacity="0.5"/>
<path d="M17.1707 18.1553H8.39258V16.6923H17.1707V18.1553Z" fill="white" fill-opacity="0.5"/>
<path d="M17.1707 20.6963H8.39258V19.2333H17.1707V20.6963Z" fill="white" fill-opacity="0.5"/>
<path d="M17.1707 23.1606H8.39258V21.6976H17.1707V23.1606Z" fill="white" fill-opacity="0.5"/>
<path d="M17.1717 25.6245H8.39355V24.1615H17.1717V25.6245Z" fill="white" fill-opacity="0.5"/>
<path d="M27.1815 8.22217L18.4033 8.22217V6.75915L27.1815 6.75915V8.22217Z" fill="white" fill-opacity="0.5"/>
<path d="M27.1815 10.6865L18.4033 10.6865V9.22351L27.1815 9.22351V10.6865Z" fill="white" fill-opacity="0.5"/>
<path opacity="0.31" d="M27.1815 13.1504L18.4033 13.1504V11.6874L27.1815 11.6874V13.1504Z" fill="white" fill-opacity="0.5"/>
<path opacity="0.31" d="M27.1815 15.6914L18.4033 15.6914V14.2284L27.1815 14.2284V15.6914Z" fill="white" fill-opacity="0.5"/>
<path opacity="0.31" d="M27.1815 18.1553H18.4033V16.6923H27.1815V18.1553Z" fill="white" fill-opacity="0.5"/>
<path opacity="0.31" d="M27.1815 20.6963H18.4033V19.2333H27.1815V20.6963Z" fill="white" fill-opacity="0.5"/>
<path opacity="0.31" d="M27.1815 23.1606H18.4033V21.6976H27.1815V23.1606Z" fill="white" fill-opacity="0.5"/>
<path opacity="0.31" d="M27.1815 25.6245H18.4033V24.1615H27.1815V25.6245Z" fill="white" fill-opacity="0.5"/>
<path d="M37.1912 8.22217L28.4131 8.22217V6.75915L37.1912 6.75915V8.22217Z" fill="white" fill-opacity="0.5"/>
<path d="M37.1912 10.6865L28.4131 10.6865V9.22351L37.1912 9.22351V10.6865Z" fill="white" fill-opacity="0.5"/>
<path d="M37.1912 13.1504L28.4131 13.1504V11.6874L37.1912 11.6874V13.1504Z" fill="white" fill-opacity="0.5"/>
<path d="M37.1912 15.6914L28.4131 15.6914V14.2284L37.1912 14.2284V15.6914Z" fill="white" fill-opacity="0.5"/>
<path opacity="0.29" d="M37.1912 18.1553H28.4131V16.6923H37.1912V18.1553Z" fill="white" fill-opacity="0.5"/>
<path opacity="0.29" d="M37.1912 20.6963H28.4131V19.2333H37.1912V20.6963Z" fill="white" fill-opacity="0.5"/>
<path opacity="0.29" d="M37.1912 23.1606H28.4131V21.6976H37.1912V23.1606Z" fill="white" fill-opacity="0.5"/>
<path opacity="0.29" d="M37.1912 25.6245H28.4131V24.1615H37.1912V25.6245Z" fill="white" fill-opacity="0.5"/>
<path d="M43.7362 35.7886L2.30957 35.7886L2.30957 3.06308L43.7362 3.06308L43.7362 35.7886Z" stroke="white" stroke-miterlimit="10"/>
<path d="M2.23303 22.1593L0 23.6994L0 38.3296H13.8602L16.0162 36.0965H2.31003L2.23303 22.1593Z" fill="white" fill-opacity="0.5"/>
<path d="M43.9678 16.6924L46.2008 15.1524V0.522141L32.3406 0.522141L30.1846 2.75517L43.8908 2.75517L43.9678 16.6924Z" fill="white" fill-opacity="0.5"/>
<path opacity="0.52" d="M29.3365 71.5169C30.0169 71.5169 30.5685 72.0685 30.5685 72.7489C30.5685 73.4294 30.0169 73.981 29.3365 73.981C28.6561 73.981 28.1045 73.4294 28.1045 72.7489C28.1045 72.0685 28.6561 71.5169 29.3365 71.5169Z" fill="white" fill-opacity="0.5"/>
<path d="M29.3365 68.9759C31.4203 68.9759 33.1096 70.6651 33.1096 72.7489C33.1096 74.8327 31.4203 76.522 29.3365 76.522C27.2527 76.522 25.5635 74.8327 25.5635 72.7489C25.5635 70.6651 27.2527 68.9759 29.3365 68.9759Z" stroke="white" stroke-miterlimit="10"/>
<path opacity="0.44" d="M29.3365 45.7215C30.0169 45.7215 30.5685 46.2731 30.5685 46.9535C30.5685 47.6339 30.0169 48.1855 29.3365 48.1855C28.6561 48.1855 28.1045 47.6339 28.1045 46.9535C28.1045 46.2731 28.6561 45.7215 29.3365 45.7215Z" fill="white" fill-opacity="0.5"/>
<path opacity="0.41" d="M30.1064 43.2576C29.8754 43.1806 29.5674 43.1806 29.2594 43.1806C27.1804 43.1806 25.4863 44.8746 25.4863 46.9537C25.4863 47.4157 25.5633 47.8007 25.7173 48.2627" stroke="white" stroke-miterlimit="10"/>
<path d="M25.7178 48.2627C26.2568 49.7257 27.6428 50.8037 29.2598 50.8037C31.3389 50.8037 33.0329 49.1097 33.0329 47.0307C33.0329 45.1826 31.8009 43.7196 30.0298 43.3346" stroke="white" stroke-miterlimit="10"/>
<path d="M29.3365 58.5809C30.0169 58.5809 30.5685 59.1325 30.5685 59.8129C30.5685 60.4933 30.0169 61.0449 29.3365 61.0449C28.6561 61.0449 28.1045 60.4933 28.1045 59.8129C28.1045 59.1325 28.6561 58.5809 29.3365 58.5809Z" fill="white" fill-opacity="0.5"/>
<path d="M26.3333 57.503C25.7943 58.119 25.4863 58.966 25.4863 59.89C25.4863 61.9691 27.1804 63.6631 29.2594 63.6631C31.3384 63.6631 33.0324 61.9691 33.0324 59.89C33.0324 59.274 32.8784 58.658 32.5704 58.119" stroke="white" stroke-miterlimit="10"/>
<path opacity="0.35" d="M32.6479 58.042C32.0319 56.81 30.7229 56.04 29.2599 56.04C28.0279 56.04 26.9498 56.579 26.2568 57.503" stroke="white" stroke-miterlimit="10"/>
<path d="M4.31153 46.5684H0.230469L0.230469 42.4873H4.31153L4.31153 46.5684Z" fill="white" fill-opacity="0.5"/>
<path opacity="0.83" d="M4.31153 53.4985H0.230469L0.230469 49.4175H4.31153L4.31153 53.4985Z" fill="white" fill-opacity="0.5"/>
<path opacity="0.67" d="M4.31153 60.4287H0.230469L0.230469 56.3477H4.31153L4.31153 60.4287Z" fill="white" fill-opacity="0.5"/>
<path opacity="0.57" d="M4.31153 67.3589H0.230469L0.230469 63.2778H4.31153L4.31153 67.3589Z" fill="white" fill-opacity="0.5"/>
<path opacity="0.48" d="M4.31251 74.2891H0.231445L0.231445 70.208H4.31251L4.31251 74.2891Z" fill="white" fill-opacity="0.5"/>
<path d="M6.00575 46.5684H4.92773L4.92773 42.4873H6.00575V46.5684Z" fill="white" fill-opacity="0.5"/>
<path opacity="0.83" d="M6.00575 53.4985H4.92773L4.92773 49.4175H6.00575V53.4985Z" fill="white" fill-opacity="0.5"/>
<path opacity="0.67" d="M6.00575 60.4287H4.92773L4.92773 56.3477H6.00575V60.4287Z" fill="white" fill-opacity="0.5"/>
<path opacity="0.57" d="M6.00575 67.3589H4.92773L4.92773 63.2778H6.00575V67.3589Z" fill="white" fill-opacity="0.5"/>
<path opacity="0.48" d="M6.00673 74.2891H4.92871L4.92871 70.208H6.00673V74.2891Z" fill="white" fill-opacity="0.5"/>
<path d="M7.08422 46.5684H6.69922L6.69922 42.4873H7.08422L7.08422 46.5684Z" fill="white" fill-opacity="0.5"/>
<path opacity="0.83" d="M7.08422 53.4985H6.69922L6.69922 49.4175H7.08422L7.08422 53.4985Z" fill="white" fill-opacity="0.5"/>
<path opacity="0.67" d="M7.08422 60.4287H6.69922L6.69922 56.3477H7.08422L7.08422 60.4287Z" fill="white" fill-opacity="0.5"/>
<path opacity="0.57" d="M7.08422 67.3589H6.69922L6.69922 63.2778H7.08422L7.08422 67.3589Z" fill="white" fill-opacity="0.5"/>
<path opacity="0.48" d="M7.08422 74.2891H6.69922L6.69922 70.208H7.08422L7.08422 74.2891Z" fill="white" fill-opacity="0.5"/>
</svg>
