<svg width="27" height="98" viewBox="0 0 27 98" fill="none" xmlns="http://www.w3.org/2000/svg">
<g filter="url(#filter00_d)">
<path d="M16.3821 87.522L16.2171 87.4119H16.4922L16.3821 87.522Z" fill="white"/>
<path d="M16.9326 50.769L10.0002 43.8366V43.1214L16.9326 49.9988V50.769Z" fill="white"/>
<path d="M16.9326 52.9697L10.0002 46.0373V45.267L16.9326 52.1995V52.9697Z" fill="white"/>
<path d="M16.9326 55.1709L10.0002 48.2385V47.4682L16.9326 54.4006V55.1709Z" fill="white"/>
<path d="M16.9326 57.3716L10.0002 50.4392V49.6689L16.9326 56.6013V57.3716Z" fill="white"/>
<path d="M16.9326 59.5171L10.0002 52.5847V51.8694L16.9326 58.8018V59.5171Z" fill="white"/>
<path d="M16.9326 61.7178L10.0002 54.7854V54.0701L16.9326 61.0025V61.7178Z" fill="white"/>
<path d="M16.9326 63.9189L10.0002 56.9865V56.2713L16.9326 63.1487V63.9189Z" fill="white"/>
<path d="M16.9326 66.1196L10.0002 59.1872V58.4169L16.9326 65.3494V66.1196Z" fill="white"/>
<path d="M16.9326 68.3203L10.0002 61.3879V60.6176L16.9326 67.55V68.3203Z" fill="white"/>
<path d="M16.9326 70.521L10.0002 63.5886V62.8183L16.9326 69.7507V70.521Z" fill="white"/>
<path d="M16.9326 72.667L10.0002 65.7896V65.0193L16.9326 71.9517V72.667Z" fill="white"/>
<path d="M16.9326 74.8677L10.0002 67.9353V67.22L16.9326 74.1524V74.8677Z" fill="white"/>
<path d="M16.9326 77.0684L10.0002 70.1359V69.4207L16.9326 76.3531V77.0684Z" fill="white"/>
<path d="M16.9326 79.269L10.0002 72.3366V71.6214L16.9326 78.5538V79.269Z" fill="white"/>
<path d="M16.9326 81.4697L10.0002 74.5373V73.8221L16.9326 80.7545V81.4697Z" fill="white"/>
<path d="M16.9326 83.6704L10.0002 76.738V76.0227L16.9326 82.9552V83.6704Z" fill="white"/>
<path d="M16.9326 85.8716L10.0002 78.9392V78.2239L16.9326 85.1563V85.8716Z" fill="white"/>
<path d="M16.4925 87.4121H16.2174L10.0002 81.1399V80.4247L16.7676 87.137L16.4925 87.4121Z" fill="white"/>
<path d="M14.0168 87.4121L10.0004 83.3407V82.6254L14.7871 87.4121H14.0168Z" fill="white"/>
<path d="M11.8707 87.4121L10 85.5415V84.8262L12.5859 87.4121H11.8707Z" fill="white"/>
<path d="M10.0006 87.4121V86.972L10.3857 87.4121H10.0006Z" fill="white"/>
<path d="M16.9326 10.4402V11.2104L15.7222 10H16.4925L16.9326 10.4402Z" fill="white"/>
<path d="M16.9326 13.356L13.5764 9.99979H14.2917L16.9326 12.6407V13.356Z" fill="white"/>
<path d="M16.9326 15.5566L11.3757 9.99971H12.0909L16.9326 14.8414V15.5566Z" fill="white"/>
<path d="M16.9326 17.7578L10.0002 10.8254V10.1101L16.9326 17.0426V17.7578Z" fill="white"/>
<path d="M16.9326 19.9585L10.0002 13.0261V12.3108L16.9326 19.1882V19.9585Z" fill="white"/>
<path d="M16.9326 22.1592L10.0002 15.2268V14.4565L16.9326 21.3889V22.1592Z" fill="white"/>
<path d="M16.9326 24.3599L10.0002 17.4274V16.6572L16.9326 23.5896V24.3599Z" fill="white"/>
<path d="M16.9326 26.5605L10.0002 19.6281V18.8579L16.9326 25.7903V26.5605Z" fill="white"/>
<path d="M16.9326 28.7065L10.0002 21.8291V21.0589L16.9326 27.9913V28.7065Z" fill="white"/>
<path d="M16.9326 30.9072L10.0002 23.9748V23.2596L16.9326 30.192V30.9072Z" fill="white"/>
<path d="M16.9326 33.1079L10.0002 26.1755V25.4602L16.9326 32.3927V33.1079Z" fill="white"/>
<path d="M16.9326 35.3086L10.0002 28.3762V27.6609L16.9326 34.5933V35.3086Z" fill="white"/>
<path d="M16.9326 37.5098L10.0002 30.5773V29.8621L16.9326 36.7945V37.5098Z" fill="white"/>
<path d="M16.9326 39.7104L10.0002 32.778V32.0628L16.9326 38.9952V39.7104Z" fill="white"/>
<path d="M16.9326 41.9111L10.0002 34.9787V34.2635L16.9326 41.1959V41.9111Z" fill="white"/>
<path d="M16.9326 44.1118L10.0002 37.1794V36.4641L16.9326 43.3966V44.1118Z" fill="white"/>
<path d="M16.9326 46.3125L10.0002 39.3801V38.6648L16.9326 45.5972V46.3125Z" fill="white"/>
<path d="M16.9326 48.5132L10.0002 41.5808V40.8655L16.9326 47.7429V48.5132Z" fill="white"/>
</g>
<defs>
<filter id="filter00_d" x="0" y="-0.000488281" width="26.9331" height="97.5226" filterUnits="userSpaceOnUse" color-interpolation-filters="sRGB">
<feFlood flood-opacity="0" result="BackgroundImageFix"/>
<feColorMatrix in="SourceAlpha" type="matrix" values="0 0 0 0 0 0 0 0 0 0 0 0 0 0 0 0 0 0 127 0"/>
<feOffset/>
<feGaussianBlur stdDeviation="5"/>
<feColorMatrix type="matrix" values="0 0 0 0 0.921569 0 0 0 0 0.14902 0 0 0 0 0.160784 0 0 0 1 0"/>
<feBlend mode="normal" in2="BackgroundImageFix" result="effect1_dropShadow"/>
<feBlend mode="normal" in="SourceGraphic" in2="effect1_dropShadow" result="shape"/>
</filter>
</defs>
</svg>
