<svg width="324" height="326" viewBox="0 0 324 326" fill="none" xmlns="http://www.w3.org/2000/svg">
<g filter="url(#filter06_d)">
<path fill-rule="evenodd" clip-rule="evenodd" d="M163.899 10.0577C163.643 10.0488 163.387 10.0405 163.13 10.0343L162.354 10.0155C161.902 10.0045 161.449 10.0007 160.996 10C160.182 10.0436 159.368 10.0738 158.553 10.0937L157.043 10.1308C156.459 10.1452 155.874 10.159 155.29 10.1751C154.622 10.1937 153.954 10.2146 153.287 10.241L152.763 10.2853L152.012 10.3444L151.725 10.3657C151.193 10.4055 150.66 10.4419 150.217 10.4715L150.1 10.4811C148.255 10.6092 146.406 10.728 144.571 10.9567C139.336 11.6091 133.87 12.4061 128.731 13.6001C127.865 13.8013 126.998 14.0036 126.135 14.2175C126.065 14.2347 125.996 14.2518 125.927 14.269L126.941 17.9186L129.787 17.2908C134.835 16.0261 140.327 15.2923 145.4 14.7343C147.224 14.4933 149.055 14.3484 150.889 14.2076C151.431 14.166 151.974 14.1241 152.516 14.0791C152.911 14.0465 153.306 14.0118 153.7 13.9734L153.807 13.9631L153.915 13.9576C156.232 13.8446 158.566 13.8593 160.876 13.7137L161.017 13.7048H161.157C162.045 13.7048 162.931 13.7285 163.817 13.7584L163.899 10.0577ZM95.1404 25.1472L94.5611 25.4659L93.9467 25.7952L93.3736 26.0961L93.0237 26.2739L92.6147 26.4762C92.213 26.675 91.806 26.8635 91.396 27.0452C88.8223 28.3126 86.362 29.8798 83.8209 31.2304C82.9208 31.7613 82.0352 32.3169 81.1527 32.8763C79.6051 33.8577 78.0667 34.8542 76.4892 35.7872C74.412 37.2754 72.3218 38.785 70.1639 40.1541C69.4298 40.7272 68.6959 41.3027 67.9649 41.8816L70.246 44.7184C70.8418 44.2284 71.4345 43.7346 72.0241 43.2384L72.1364 43.144L72.2548 43.0568C73.0093 42.5025 73.7709 41.9575 74.5349 41.4164L75.7385 40.5637C76.5602 39.9817 77.3813 39.3996 78.1999 38.8135L78.3373 38.7153L78.4818 38.6274C78.8586 38.399 79.2318 38.1648 79.6037 37.9285C80.0216 37.6628 80.4375 37.3939 80.8533 37.125C82.4456 36.0955 84.0348 35.0781 85.7054 34.178C88.0871 32.8951 90.3532 31.4004 92.7741 30.191C93.9705 29.532 95.1678 28.8771 96.4185 28.326L99.4523 26.9892C100.329 26.5737 101.214 26.1726 102.105 25.7866L100.951 22.5983C100.075 22.975 99.2023 23.3565 98.3329 23.7397L95.1404 25.1472ZM49.2076 60.0202C48.9637 60.3138 48.7079 60.5964 48.4493 60.8793C48.2718 61.0734 48.0912 61.2681 47.9236 61.471C47.8731 61.5321 47.8227 61.595 47.7763 61.6595C47.7639 61.6767 47.7519 61.6945 47.7402 61.7124L47.6115 61.9109L47.4628 62.095C46.8313 62.8748 46.16 63.623 45.4955 64.375L45.3993 64.4832C44.4028 65.6027 43.4012 66.7262 42.497 67.9226C42.257 68.2399 42.0173 68.5572 41.7749 68.8721C41.6207 69.0723 41.4658 69.2718 41.3096 69.4699C40.7739 70.1491 40.2224 70.8129 39.6469 71.4585L37.2401 74.9951L37.1903 75.063C33.9858 79.409 31.1514 84.0393 28.4891 88.7337C28.0311 89.5417 27.596 90.3583 27.1715 91.1814L30.4671 92.8156C30.8331 92.0962 31.1964 91.3754 31.5498 90.6485L31.5831 90.5798L31.6188 90.5122C34.1049 85.8153 36.9633 81.2135 40.1235 76.9417C40.9394 75.8384 41.7783 74.752 42.5506 73.6171L42.6134 73.5247L42.6811 73.4357C43.5045 72.3468 44.3864 71.3043 45.2095 70.2161L45.2465 70.167L45.285 70.1189C46.7853 68.2451 48.2399 66.3152 49.8133 64.5028C50.4262 63.723 51.0845 63.132 51.7428 62.4298L49.2076 60.0202ZM17.1463 115.611L17.1325 115.647C16.8249 116.503 16.5114 117.362 16.2827 118.244C15.9808 119.406 15.646 120.56 15.3208 121.716C14.9616 122.992 14.6347 124.276 14.3679 125.575L14.2968 125.921C13.9692 127.518 13.6252 129.057 13.0599 130.551C13.0232 130.676 13.0005 130.831 12.9937 130.859L12.9748 130.967C12.9363 131.168 12.8975 131.37 12.8529 131.57C12.8038 131.79 12.7485 132.007 12.6853 132.222L12.4401 134.165L12.4144 134.3C11.8893 137.077 11.3433 139.888 11.0655 142.702L11.0425 142.935L10.9951 143.164C10.8877 143.687 10.8375 144.234 10.7826 144.765C10.6964 145.601 10.604 146.426 10.4337 147.251L10.4152 147.338C10.2222 148.188 10.2445 149.196 10.2445 150.066V150.346L10.2095 150.624C10.0972 151.516 10.034 152.4 10 153.287L13.8264 153.399C13.894 152.58 13.96 151.759 13.96 150.933C13.96 150.219 14.041 149.52 14.1279 148.814C14.176 148.421 14.2412 147.984 14.2412 147.589V147.09L14.3514 146.602C14.4527 146.156 14.4991 145.677 14.5513 145.222L14.5908 144.877L14.6337 144.523C14.6893 144.064 14.7618 143.607 14.8552 143.154C15.167 140.406 15.7295 137.683 16.2658 134.972L16.6157 132.345L16.8238 131.889C16.8379 131.827 16.8499 131.763 16.8623 131.702C16.9183 131.43 16.977 131.16 17.0498 130.891C17.0996 130.709 17.1549 130.528 17.2174 130.35C17.3534 129.689 17.4904 129.028 17.6305 128.368C17.7503 127.804 17.8753 127.24 18.001 126.677C18.0648 126.391 18.1291 126.105 18.1981 125.82C18.3334 125.261 18.4817 124.705 18.639 124.151C18.8574 123.383 19.094 122.62 19.3299 121.857L19.5964 120.996C19.7481 120.505 19.8869 120.011 20.0246 119.516C20.2746 118.618 20.5417 117.719 20.8394 116.832L17.1463 115.611ZM200.142 15.1639C199.72 15.0533 199.298 14.9452 198.875 14.8415C198.354 14.7141 197.831 14.5904 197.308 14.473L196.235 14.2323C195.665 14.1042 195.093 13.9843 194.521 13.8618C193.944 13.7381 193.366 13.6152 192.79 13.4882C191.912 13.2948 191.025 13.1451 190.141 12.9964L189.562 16.6796C189.806 16.7184 190.048 16.7569 190.289 16.7957L190.534 16.8335L192.406 17.138L192.59 17.1841C192.963 17.2778 193.337 17.3661 193.712 17.4529C194.393 17.6105 195.075 17.7613 195.682 17.8955L195.806 17.9213C197.069 18.2012 198.331 18.4797 199.588 18.787L199.685 18.811L199.781 18.8388C200.161 18.9504 200.542 19.0593 200.925 19.1633L201.944 19.4398L202.179 19.5023C204.118 20.0184 206.055 20.5565 207.928 21.2831C210.552 22.1804 213.242 22.9973 215.78 24.1164C216.889 24.605 218.043 24.9907 219.151 25.479L222.242 26.8408C223.017 27.1822 223.81 27.5352 224.604 27.9009L226.291 24.4807C225.448 24.1003 224.605 23.7431 223.802 23.4124L223.75 23.3915L220.328 21.883C219.16 21.3682 217.914 20.9462 216.71 20.5221L216.55 20.4655L216.394 20.3968C215.372 19.9463 214.308 19.5679 213.251 19.209C211.597 18.6472 209.928 18.1304 208.28 17.5491C206.464 16.908 204.592 16.4063 202.737 15.8912L202.641 15.8644C201.807 15.6333 200.972 15.4067 200.142 15.1639ZM276.974 63.4668C276.379 62.7629 275.772 62.0754 275.124 61.4088L274.982 61.2632L274.854 61.1053C273.938 59.9735 272.869 58.9066 271.852 57.8637C271.136 57.1295 270.422 56.3947 269.722 55.6451C269.356 55.2529 268.982 54.8686 268.602 54.4895C268.294 54.1819 267.982 53.8773 267.667 53.5768L267.155 53.0889L266.767 52.7232L266.27 52.2589L264.067 50.2206L263.523 49.7137C263.042 49.2886 262.565 48.8587 262.085 48.4325L261.896 48.2649C261.049 47.5136 260.209 46.7537 259.353 46.0133C259.041 45.7438 258.727 45.477 258.41 45.2132C257.965 44.8413 257.514 44.4756 257.054 44.1209C255.16 42.6605 253.231 40.9236 251.219 39.6565L251.137 39.6046L251.057 39.5497C250.238 38.9824 249.432 38.377 248.622 37.7819L246.572 40.8542C247.367 41.415 248.154 41.9874 248.936 42.5619C250.905 44.0086 252.849 45.491 254.739 47.039C256.924 48.8267 259.106 50.6347 261.159 52.5738L261.211 52.6225L261.261 52.673C261.582 52.9969 261.91 53.3148 262.241 53.6294C262.73 54.095 263.226 54.5548 263.722 55.0135C264.946 56.1447 266.178 57.2803 267.298 58.5144L267.348 58.5687L267.395 58.6243C268.034 59.3763 268.736 60.0786 269.431 60.7784C270.429 61.7828 271.44 62.7982 272.276 63.9455C272.626 64.3476 272.974 64.7521 273.321 65.1566L273.334 65.169L273.446 65.3001C273.605 65.4856 273.764 65.6713 273.923 65.8571L276.974 63.4668ZM306.946 117.274C306.011 114.899 305.229 112.433 304.473 109.996C304.03 108.95 303.636 107.886 303.243 106.821C302.668 105.264 302.09 103.678 301.329 102.201L301.243 102.033L301.171 101.859C300.426 100.055 299.595 98.2827 298.767 96.5149C298.39 95.7087 298.013 94.9024 297.644 94.092C297.109 93.0986 296.591 92.0966 296.075 91.0928L295.944 90.838C295.348 89.6767 294.753 88.5081 294.109 87.3726C293.623 86.5155 293.129 85.6625 292.628 84.8143L289.56 86.7709C290.027 87.56 290.475 88.3536 290.905 89.1352C292.194 91.2762 293.357 93.4996 294.434 95.7543C295.231 97.4219 295.982 99.1113 296.736 100.799C297.103 101.621 297.47 102.444 297.843 103.264L297.876 103.339C298.683 105.208 299.365 107.12 300.118 109.01C300.377 109.661 300.646 110.309 300.935 110.948L301.022 111.14L302.074 114.206C302.551 115.595 303.026 116.993 303.418 118.408C303.647 119.237 303.88 120.069 304.118 120.901L307.66 119.993C307.419 119.087 307.182 118.18 306.946 117.274ZM312.952 145.952L309.491 146.437C309.648 147.477 309.76 148.499 309.76 149.571C309.76 151.773 310.06 154.085 310.296 156.275L310.322 156.514V165.052C310.322 167.936 310.325 170.834 310.015 173.704C309.894 174.828 309.829 175.957 309.763 177.085C309.687 178.391 309.613 179.702 309.44 180.999C309.331 181.813 309.168 182.76 309.053 183.681L312.27 184.255C312.42 183.282 312.546 182.302 312.668 181.337C312.989 178.784 313.245 176.216 313.497 173.655C313.773 170.855 313.757 167.989 313.757 165.177V156.259C313.757 153.814 313.516 151.41 313.226 148.986L313.195 148.723V148.457C313.195 147.619 313.079 146.781 312.952 145.952ZM291.654 242.105C292.217 241.116 292.791 240.132 293.364 239.149C294.086 237.911 294.806 236.673 295.513 235.426C296.837 232.973 298.15 230.51 299.187 227.918C299.744 226.526 300.373 225.164 300.999 223.802L301.944 221.739L302.3 220.957C302.5 220.517 302.694 220.075 302.886 219.632C303.618 217.938 304.255 216.21 304.89 214.478C305.13 213.824 305.371 213.17 305.617 212.518C305.928 211.695 306.258 210.818 306.549 209.937L302.951 208.867C302.639 209.755 302.292 210.633 301.928 211.5C301.586 212.674 301.196 213.835 300.764 214.979C300.327 216.133 299.846 217.272 299.32 218.389C298.99 219.325 298.604 220.241 298.193 221.144C297.866 221.865 297.524 222.578 297.18 223.291C296.744 224.193 296.307 225.098 295.91 226.018C295.675 226.562 295.427 227.1 295.17 227.635C294.986 228.02 294.796 228.402 294.603 228.782C294.269 229.442 293.924 230.097 293.581 230.752L292.949 231.959C292.687 232.462 292.432 232.969 292.187 233.482L292.074 233.719L291.934 233.941C291.315 234.922 290.739 235.928 290.168 236.937L290.105 237.051L289.639 237.87C289.202 238.636 288.749 239.395 288.276 240.14C287.797 240.895 287.326 241.656 286.858 242.418L290.016 244.6C290.561 243.768 291.107 242.936 291.654 242.105ZM245.191 290.449C245.905 289.991 246.613 289.524 247.303 289.017L247.481 288.889C251.831 285.76 256.177 282.642 260.148 279.032L263.57 276.014C264.564 275.138 265.506 274.197 266.435 273.255C268.101 271.566 269.996 269.843 271.483 268.007L271.61 267.85L271.752 267.704C272.504 266.931 273.116 266.202 273.894 265.522L271.291 263.295C271.234 263.36 271.178 263.426 271.122 263.491C270.557 264.148 269.998 264.767 269.359 265.348C267.696 267.109 266.075 268.851 264.26 270.464C263.44 271.292 262.521 272.089 261.774 272.967L261.471 273.322L261.102 273.608C260.07 274.403 259.187 275.399 258.139 276.232C254.225 279.676 250.032 282.889 245.844 285.809C245.045 286.396 244.232 286.961 243.408 287.509L245.191 290.449ZM185.29 310.305L185.771 313.836C185.969 313.801 186.167 313.765 186.366 313.729C187.049 313.607 187.732 313.483 188.417 313.37C189.647 313.106 190.896 312.958 192.133 312.739C193.39 312.518 194.615 312.145 195.877 311.907C197.218 311.562 198.58 311.315 199.915 310.962C200.563 310.79 201.204 310.592 201.844 310.394C202.592 310.162 203.343 309.937 204.1 309.731C209.298 308.318 214.331 306.385 219.308 304.338L219.4 304.301C220.307 303.951 221.189 303.567 222.067 303.165L220.5 299.82L218.256 300.809L218.201 300.832C213.342 302.821 208.437 304.676 203.373 306.08C202.929 306.203 202.481 306.315 202.036 306.436C201.238 306.652 200.433 306.872 199.648 307.132L199.518 307.174L199.387 307.209C198.079 307.555 196.76 307.855 195.452 308.2L195.271 308.248L195.086 308.28C194.658 308.355 194.234 308.452 193.813 308.559L193.55 308.626L193.095 308.745L192.398 308.925L191.903 309.046L191.647 309.104C191.265 309.191 190.88 309.264 190.495 309.331L189.94 309.426C189.38 309.522 188.811 309.605 188.256 309.728L188.187 309.743L188.118 309.756C187.18 309.934 186.23 310.133 185.29 310.305ZM121.694 310.54C122.607 310.814 123.522 311.081 124.469 311.29C125.599 311.539 126.726 311.807 127.854 312.065L128.039 312.107C129.347 312.405 130.653 312.714 131.962 313.003L136.084 313.731C137.539 313.988 139.002 314.198 140.457 314.452C143.188 314.785 145.968 315.279 148.711 315.401L148.811 315.405L149.676 315.482C151.139 315.613 152.604 315.745 154.069 315.824C154.839 315.866 155.61 315.891 156.381 315.891C157.389 315.891 158.395 315.917 159.402 315.948L159.319 312.254C158.434 312.222 157.549 312.188 156.663 312.188C155.204 312.188 153.734 312.084 152.278 311.985H152.265L151.211 311.915C150.808 311.888 150.405 311.863 150.001 311.842L149.397 311.809C148.21 311.745 147.024 311.646 145.841 311.52C144.224 311.348 142.61 311.136 140.997 310.922C139.513 310.786 138.05 310.535 136.583 310.277L136.56 310.274L136.475 310.259C135.664 310.115 134.854 309.971 134.045 309.818C133.487 309.713 132.931 309.604 132.482 309.503C130.047 309.026 127.633 308.447 125.228 307.842C124.37 307.626 123.51 307.399 122.654 307.157L121.694 310.54ZM65.1357 281.118C65.353 281.292 65.5663 281.471 65.7802 281.652L65.797 281.667C66.0048 281.843 66.2129 282.02 66.4282 282.187C66.6047 282.325 66.7857 282.455 66.9718 282.578L67.1466 282.694L67.3097 282.826C69.2519 284.396 71.2521 285.919 73.2829 287.373L73.6404 287.629L73.6988 287.691C74.6689 288.436 75.6365 289.16 76.6818 289.805L76.8813 289.928L77.0671 290.072C77.5554 290.449 78.1021 290.782 78.6322 291.097L80.0408 291.933C80.2338 292.048 80.4251 292.165 80.6164 292.282L80.6754 292.319L80.7331 292.357C85.1766 295.296 89.9593 297.948 94.7808 300.215L94.9347 300.287L95.0827 300.371C95.903 300.836 96.7371 301.231 97.5894 301.604L99.0904 298.149C98.259 297.772 97.4442 297.37 96.6434 296.906C91.9843 294.535 87.3554 292.077 83.1145 289.154L79.7428 286.925C79.1233 286.516 78.5196 286.083 77.9163 285.65C77.6364 285.45 77.3559 285.25 77.0736 285.052C76.8408 284.889 76.6063 284.727 76.369 284.57C75.1901 283.79 74.0624 282.949 72.9581 282.067C72.4602 281.669 71.9674 281.265 71.475 280.86L70.8548 280.349L70.4816 280.046C69.6674 279.448 68.8302 278.841 68.0703 278.178L65.1357 281.118ZM25.1751 230.354C25.6163 231.203 26.0741 232.034 26.5212 232.823C27.1547 233.939 27.733 235.089 28.3109 236.236C28.9242 237.453 29.6701 238.541 30.2617 239.788C31.6459 242.214 33.1867 244.57 34.7581 246.878L34.8147 246.963C36.3782 249.377 38.0457 251.714 39.7204 254.051C40.5521 255.15 41.3989 256.238 42.246 257.325C42.9524 258.232 43.6591 259.138 44.353 260.054C44.9966 260.775 45.6397 261.497 46.2822 262.219L49.0853 259.636C48.518 258.971 47.9463 258.31 47.3725 257.652C46.5229 256.678 45.729 255.655 44.9426 254.63C44.2184 253.686 43.499 252.738 42.7556 251.809L42.6347 251.658L42.5276 251.498C41.5544 250.04 40.515 248.621 39.4821 247.204L39.47 247.188C38.9227 246.437 38.3757 245.686 37.8348 244.931L37.7267 244.78L37.6312 244.62C37.1333 243.786 36.6082 242.969 36.0842 242.151C35.0932 240.605 34.0915 239.048 33.2636 237.406C32.7458 236.379 31.9756 235.394 31.3994 234.378C31.2706 234.151 31.1439 233.922 31.0185 233.693L30.7603 233.219C30.4719 232.689 30.1803 232.14 29.852 231.634L29.7442 231.468L29.6515 231.293C29.2261 230.49 28.7968 229.668 28.3762 228.837L25.1751 230.354ZM10.3125 176.512C10.5189 177.854 10.6318 179.214 10.7482 180.567C10.8547 181.802 10.9612 183.038 11.1229 184.267C11.4979 187.118 11.8591 189.963 12.4714 192.775C13.6235 198.065 14.7738 203.506 16.2954 208.699C16.5371 209.524 16.783 210.349 17.036 211.17C17.0632 211.257 17.09 211.344 17.1171 211.432L20.5702 210.21C20.5455 210.138 20.5208 210.067 20.4967 209.996C20.2316 209.223 19.9635 208.453 19.72 207.673C18.1637 202.68 16.9856 197.41 16.0334 192.268C15.4228 189.698 15.0489 187.086 14.6821 184.472L14.5921 183.831C14.415 182.566 14.2951 181.298 14.1797 180.026C14.0822 178.949 13.9922 177.851 13.814 176.784L13.7653 176.491L13.7557 176.195C13.7285 175.358 13.6935 174.503 13.6447 173.644L10.0745 173.796C10.1463 174.705 10.227 175.612 10.3125 176.512Z" fill="#1A98FF"/>
</g>
<defs>
<filter id="filter06_d" x="0" y="0" width="323.757" height="325.948" filterUnits="userSpaceOnUse" color-interpolation-filters="sRGB">
<feFlood flood-opacity="0" result="BackgroundImageFix"/>
<feColorMatrix in="SourceAlpha" type="matrix" values="0 0 0 0 0 0 0 0 0 0 0 0 0 0 0 0 0 0 127 0"/>
<feOffset/>
<feGaussianBlur stdDeviation="5"/>
<feColorMatrix type="matrix" values="0 0 0 0 0.101961 0 0 0 0 0.596078 0 0 0 0 1 0 0 0 1 0"/>
<feBlend mode="normal" in2="BackgroundImageFix" result="effect1_dropShadow"/>
<feBlend mode="normal" in="SourceGraphic" in2="effect1_dropShadow" result="shape"/>
</filter>
</defs>
</svg>
