<svg width="110" height="110" viewBox="0 0 110 110" fill="none" xmlns="http://www.w3.org/2000/svg">
<path d="M6.66826 37.9128C6.66826 37.9128 6.53445 38.1488 6.40061 38.6208C6.26677 38.8567 6.26676 39.0927 6.13292 39.4467C5.99908 39.7416 5.99906 40.0956 5.86523 40.5085C5.73139 40.9215 5.59757 41.3344 5.46373 41.7474C5.32989 42.2193 5.19604 42.6913 5.19604 43.1632C5.0622 43.6352 4.92838 44.1661 4.79454 44.697C4.6607 45.228 4.66069 45.7589 4.52685 46.2899C4.39301 46.8208 4.39304 47.3517 4.2592 47.8827C4.12536 48.4136 4.12535 48.9445 4.12535 49.4165C3.99151 50.4194 3.9915 51.3632 3.85766 52.1892C3.85766 53.782 3.72386 54.9028 3.72386 54.9028C3.72386 54.9028 2.92081 54.5489 2.11779 54.1949C1.31476 53.841 0.511719 53.428 0.511719 53.428C0.511719 53.428 0.511719 53.133 0.511719 52.6611C0.511719 52.1302 0.511727 51.4222 0.645565 50.5963C0.645565 50.1834 0.645573 49.7114 0.77941 49.2395C0.77941 48.7676 0.913256 48.2366 0.913256 47.7057C1.04709 46.6438 1.31476 45.5229 1.4486 44.4021C2.25163 39.9186 3.85766 35.6711 3.85766 35.6711C3.85766 35.6711 3.99152 35.8481 4.2592 36.0251C4.52687 36.261 4.79452 36.556 5.19604 36.851C5.99906 37.3229 6.66826 37.9128 6.66826 37.9128Z" fill="white"/>
<path d="M16.8391 20.51C16.8391 20.51 16.7053 20.687 16.3038 21.041C16.0361 21.3949 15.5007 21.8669 15.0992 22.5158C14.5639 23.1647 14.0285 23.8726 13.4932 24.6985C13.2255 25.1115 12.9578 25.5244 12.5563 25.9374C12.2886 26.4093 12.021 26.8223 11.7533 27.2942L11.3517 27.9432C11.2179 28.1791 11.0841 28.4151 10.9502 28.6511C10.6826 29.123 10.4149 29.536 10.1472 30.0079C9.7457 30.8928 9.21035 31.7187 8.94268 32.4266C8.675 33.1345 8.40732 33.7835 8.13964 34.1964C7.87197 34.6094 7.87195 34.8453 7.87195 34.8453C7.87195 34.8453 7.20277 34.1964 6.66742 33.6065C6.13207 32.9576 5.46289 32.3086 5.46289 32.3086C5.46289 32.3086 5.59674 32.0727 5.73058 31.6007C5.86442 31.1288 6.26591 30.4799 6.66742 29.7719C6.80126 29.418 7.06893 29.005 7.33661 28.5331C7.60429 28.1201 7.87197 27.6482 8.13964 27.1762C8.67499 26.2324 9.34417 25.2885 9.87952 24.3446C10.1472 23.8726 10.5487 23.4007 10.8164 22.9287C11.0841 22.4568 11.4856 21.9849 11.7533 21.5719C12.4225 20.746 12.9578 19.9201 13.627 19.2712C14.1623 18.6223 14.6977 18.0913 14.9654 17.7374C15.3669 17.3834 15.5007 17.1474 15.5007 17.1474C15.5007 17.1474 15.9022 17.9733 16.1699 18.7402C16.3037 19.1532 16.5714 19.5072 16.7052 19.8611C16.7052 20.3331 16.8391 20.51 16.8391 20.51Z" fill="white"/>
<path d="M32.7662 8.35734C32.7662 8.35734 31.8294 8.82927 30.3572 9.59618C29.688 10.0091 28.8849 10.4221 27.9481 11.012C27.145 11.543 26.2082 12.1329 25.4051 12.7818C23.6653 14.0207 22.0592 15.3775 20.8547 16.4394C20.1855 16.9703 19.784 17.4423 19.3825 17.7962C18.9809 18.0912 18.8471 18.3271 18.8471 18.3271C18.8471 18.3271 18.5794 17.5012 18.1779 16.6753C17.9102 15.8494 17.6426 15.0235 17.6426 15.0235C17.6426 15.0235 17.9102 14.8466 18.1779 14.4926C18.5794 14.1386 19.1148 13.7257 19.784 13.1358C20.4532 12.5458 21.2562 11.9559 22.0592 11.307C22.4607 10.953 22.9961 10.6581 23.3976 10.3631C23.7991 10.0681 24.3344 9.71416 24.736 9.36021C25.6728 8.77028 26.6097 8.12135 27.5466 7.59042C27.9481 7.29545 28.4834 7.05949 28.8849 6.82352C29.2864 6.58754 29.688 6.41056 30.0895 6.17459C30.8925 5.76164 31.4278 5.46667 31.9632 5.28969C32.3647 5.11272 32.6324 4.99473 32.6324 4.99473C32.6324 4.99473 32.6324 5.87962 32.6324 6.76452C32.7662 7.47243 32.7662 8.35734 32.7662 8.35734Z" fill="white"/>
<path d="M52.173 3.40196C52.173 3.40196 51.1023 3.46097 49.4963 3.63795C48.6932 3.75593 47.7564 3.8739 46.8195 3.99189C46.2842 4.10988 45.8826 4.16887 45.3473 4.28686C45.0796 4.34585 44.812 4.40485 44.5443 4.40485L43.7413 4.58182C43.2059 4.69981 42.6705 4.8178 42.1352 4.93578C41.5998 5.05377 41.1983 5.23075 40.663 5.34874C39.7261 5.58471 38.7892 5.93867 38.1201 6.17464C37.317 6.41061 36.7817 6.64659 36.2463 6.82357C35.8448 7.00054 35.5771 7.11853 35.5771 7.11853C35.5771 7.11853 35.5771 6.23364 35.5771 5.34874C35.5771 4.46385 35.711 3.57895 35.711 3.57895C35.711 3.57895 35.711 3.57895 35.8448 3.51995C35.9787 3.46096 36.1125 3.40198 36.3802 3.34298C36.9155 3.166 37.5847 2.93003 38.3877 2.69406C39.1908 2.39909 40.1276 2.16312 41.1983 1.86816C42.269 1.63219 43.3397 1.33721 44.4104 1.16023C45.4811 0.983255 46.6857 0.747287 47.7564 0.629301C48.2917 0.570308 48.8271 0.511304 49.2286 0.452311C49.764 0.393318 50.1655 0.393329 50.567 0.334336C51.37 0.275343 52.173 0.216343 52.5746 0.216343C53.1099 0.216343 53.3775 0.216343 53.3775 0.216343C53.3775 0.216343 53.1099 1.04226 52.7084 1.86816C52.5745 2.57607 52.173 3.40196 52.173 3.40196Z" fill="white"/>
<path d="M72.1136 6.29272C72.1136 6.29272 71.8459 6.23372 71.4444 6.05674C71.0429 5.93875 70.3737 5.64379 69.5707 5.46681C68.7676 5.28983 67.9646 4.93588 66.8939 4.7589C66.3586 4.64092 65.957 4.52293 65.4217 4.40494C64.8863 4.28696 64.351 4.22796 63.8157 4.10998C61.6743 3.69703 59.5329 3.52004 57.9268 3.40205C57.1238 3.34306 56.4546 3.34308 55.9192 3.34308C55.3839 3.34308 55.1162 3.34308 55.1162 3.34308C55.1162 3.34308 55.5177 2.57616 55.7854 1.75026C56.1869 0.924356 56.5884 0.157439 56.5884 0.157439C56.5884 0.157439 56.8561 0.157439 57.3914 0.157439C57.9268 0.157439 58.596 0.275436 59.399 0.334429C61.1389 0.452415 63.2803 0.806373 65.5555 1.21932C66.6262 1.51429 67.8308 1.69126 68.7676 1.98623C69.8383 2.28119 70.7752 2.51716 71.5782 2.81212C72.3813 3.10709 73.0504 3.28407 73.452 3.46105C73.8535 3.63803 74.1211 3.75602 74.1211 3.75602C74.1211 3.75602 73.452 4.40494 72.9166 4.99487C72.6489 5.28984 72.3813 5.64379 72.1136 5.87977C72.2474 6.11574 72.1136 6.29272 72.1136 6.29272Z" fill="white"/>
<path d="M89.3792 16.6754C89.3792 16.6754 88.5762 15.9675 87.3717 14.9056C86.1671 13.9027 84.4272 12.6049 82.5535 11.425C80.8136 10.2452 78.9399 9.24231 77.4677 8.53439C76.7985 8.18043 76.1293 7.94446 75.7278 7.70849C75.3263 7.53151 75.0586 7.41353 75.0586 7.41353C75.0586 7.41353 75.7278 6.8236 76.2631 6.23367C76.9323 5.64374 77.6015 5.05381 77.6015 5.05381C77.6015 5.05381 77.8692 5.17179 78.2707 5.34877C78.6722 5.52575 79.3414 5.87971 80.1444 6.29266C81.6166 7.05957 83.6242 8.23943 85.4979 9.47828C87.3716 10.7761 89.1116 12.133 90.4499 13.3128C91.1191 13.9028 91.6545 14.3157 91.9221 14.6697C92.3237 15.0236 92.4575 15.2006 92.4575 15.2006C92.4575 15.2006 91.6545 15.5546 90.8514 15.9085C90.0484 16.3215 89.3792 16.6754 89.3792 16.6754Z" fill="white"/>
<path d="M101.292 32.8985C101.292 32.8985 101.292 32.8395 101.158 32.7216C101.158 32.6036 101.024 32.4266 100.89 32.2496C100.622 31.8367 100.355 31.2467 99.9533 30.5388C99.5518 29.8309 99.1503 29.005 98.6149 28.1791C98.3472 27.7661 98.0796 27.2942 97.8119 26.8812C97.5442 26.4093 97.2765 25.9963 96.875 25.5244C96.6073 25.1114 96.2058 24.6395 95.9382 24.2266C95.6705 23.8136 95.269 23.4007 95.0013 22.9877C94.4659 22.1618 93.7968 21.4539 93.2614 20.864C92.7261 20.215 92.3246 19.7431 91.923 19.4481C91.6554 19.0942 91.3877 18.9172 91.3877 18.9172C91.3877 18.9172 92.1907 18.6222 92.9937 18.2683C93.7967 17.9733 94.5998 17.6783 94.5998 17.6783C94.5998 17.6783 94.5998 17.7373 94.7336 17.8553C94.8675 17.9733 95.0013 18.0913 95.1351 18.2683C95.4028 18.6222 95.9382 19.2122 96.4735 19.8611C97.0089 20.51 97.678 21.3359 98.3472 22.1618C98.6149 22.5748 99.0164 23.0467 99.2841 23.5186C99.5518 23.9906 99.9533 24.4625 100.221 24.9345C100.489 25.4064 100.89 25.8784 101.158 26.3503C101.426 26.8223 101.693 27.2942 101.961 27.7661C102.496 28.651 102.898 29.5949 103.299 30.3618C103.701 31.1287 103.968 31.7777 104.236 32.2496C104.504 32.7216 104.504 32.9575 104.504 32.9575C104.504 32.9575 103.567 32.9575 102.764 32.9575C102.095 32.8395 101.292 32.8985 101.292 32.8985Z" fill="white"/>
<path d="M106.11 52.4842C106.11 52.4842 105.976 48.1777 105.039 43.9892C104.771 42.9273 104.637 41.9245 104.236 40.9216C104.102 40.4496 103.968 39.9777 103.834 39.5057C103.701 39.0928 103.567 38.6798 103.433 38.2669C103.165 37.5 103.031 36.8511 102.764 36.4381C102.63 36.0252 102.496 35.7302 102.496 35.7302C102.496 35.7302 103.433 35.7302 104.236 35.7892C105.173 35.8482 105.976 35.8482 105.976 35.8482C105.976 35.8482 106.377 36.91 106.913 38.5619C107.18 39.3878 107.448 40.3317 107.716 41.3935C107.983 42.4554 108.251 43.5173 108.385 44.6381C108.519 45.1691 108.653 45.759 108.653 46.2899C108.786 46.8209 108.786 47.4108 108.92 47.9417C109.054 49.0036 109.188 50.0065 109.188 50.8324C109.322 51.6583 109.322 52.4252 109.322 52.8972C109.322 53.3691 109.322 53.6641 109.322 53.6641C109.322 53.6641 108.519 53.3101 107.716 53.0151C106.913 52.7792 106.11 52.4842 106.11 52.4842Z" fill="white"/>
<path d="M103.031 72.4238C103.031 72.4238 103.433 71.421 103.834 69.8871C103.968 69.1202 104.37 68.2353 104.503 67.2325C104.771 66.2296 105.039 65.2267 105.173 64.1648C105.306 63.6339 105.307 63.103 105.44 62.572C105.44 62.0411 105.574 61.5101 105.574 61.0382C105.708 60.0353 105.708 59.0914 105.842 58.3245C105.976 57.4986 105.976 56.8497 105.976 56.3778C105.976 55.9058 105.976 55.6108 105.976 55.6108C105.976 55.6108 106.779 55.9648 107.582 56.3188C108.385 56.6727 109.188 57.0857 109.188 57.0857C109.188 57.0857 109.188 57.1447 109.188 57.2627C109.188 57.3806 109.188 57.6166 109.188 57.8526C109.188 58.3245 109.054 59.0914 109.054 59.9173C109.054 60.7432 108.786 61.7461 108.652 62.808C108.519 63.8699 108.251 64.9907 108.117 66.1116C107.849 67.2325 107.582 68.3533 107.314 69.3562C107.18 69.8872 107.046 70.3591 106.913 70.831C106.779 71.303 106.645 71.7159 106.511 72.1289C106.243 72.9548 105.976 73.6037 105.842 74.0757C105.708 74.5476 105.574 74.7836 105.574 74.7836C105.574 74.7836 104.905 74.1936 104.37 73.5447C103.7 73.0138 103.031 72.4238 103.031 72.4238Z" fill="white"/>
<path d="M92.5918 89.6498C92.5918 89.6498 92.5918 89.5908 92.7256 89.5318C92.8595 89.4728 92.9933 89.2958 93.1271 89.1188C93.3948 88.7649 93.9302 88.2339 94.3317 87.644C94.867 86.9951 95.4024 86.2872 96.0716 85.4613C96.3393 85.0483 96.6069 84.6354 97.0084 84.2224C97.1423 83.9864 97.2761 83.8095 97.41 83.5735L97.8115 82.9246C98.0791 82.4526 98.3468 82.0397 98.6145 81.5677C98.8822 81.0958 99.1499 80.6828 99.4175 80.2109C99.9529 79.326 100.354 78.5001 100.756 77.7922C101.157 77.0842 101.425 76.4943 101.559 76.0224C101.693 75.6094 101.827 75.3735 101.827 75.3735C101.827 75.3735 102.362 76.0224 103.031 76.6713C103.566 77.3202 104.236 77.9691 104.236 77.9691C104.236 77.9691 104.102 78.2051 103.968 78.6771C103.7 79.149 103.433 79.7389 103.031 80.5058C102.63 81.2728 102.094 82.0987 101.559 83.0425C101.291 83.5145 101.024 83.9864 100.622 84.4584C100.354 84.9303 100.087 85.4023 99.6852 85.8742C99.4175 86.3462 99.016 86.8181 98.7483 87.29C98.4807 87.762 98.0791 88.1749 97.6776 88.5879C97.4099 89.0008 97.0084 89.4138 96.7408 89.7677C96.4731 90.1217 96.0716 90.4757 95.8039 90.8296C95.2685 91.4785 94.7332 92.0095 94.4655 92.3634C94.064 92.7174 93.9302 92.9534 93.9302 92.9534C93.9302 92.9534 93.5287 92.1275 93.261 91.3016C92.8595 90.4167 92.5918 89.6498 92.5918 89.6498Z" fill="white"/>
<path d="M76.2646 101.507C76.2646 101.507 76.5323 101.389 76.9338 101.212C77.3353 101.035 78.0046 100.681 78.6738 100.327C79.3429 99.9735 80.1459 99.5016 81.0828 98.9706C81.4843 98.7347 81.8858 98.4397 82.4212 98.1447C82.8227 97.8498 83.3581 97.5548 83.7596 97.2598C84.5626 96.6109 85.4994 96.021 86.3025 95.3721C86.704 95.0771 87.1055 94.7821 87.3732 94.4872C87.7747 94.1922 88.0424 93.8972 88.31 93.6613C88.9792 93.1303 89.3807 92.7174 89.7823 92.3634C90.1838 92.0095 90.3176 91.8325 90.3176 91.8325C90.3176 91.8325 90.5853 92.6584 90.9868 93.4843C91.2545 94.3102 91.5221 95.1361 91.5221 95.1361C91.5221 95.1361 90.7191 95.903 89.3808 97.0239C88.0424 98.0857 86.3025 99.5016 84.2949 100.681C82.4212 101.92 80.4136 102.982 78.9414 103.749C78.1384 104.162 77.4692 104.398 77.0677 104.634C76.6662 104.87 76.3985 104.988 76.3985 104.988C76.3985 104.988 76.3985 104.103 76.3985 103.218C76.2647 102.392 76.2646 101.507 76.2646 101.507Z" fill="white"/>
<path d="M56.8569 106.168C56.8569 106.168 57.1246 106.168 57.66 106.168C58.0615 106.109 58.7307 106.109 59.5337 105.991C61.1397 105.873 63.2812 105.578 65.2887 105.165C67.4301 104.693 69.4377 104.162 70.9099 103.631C71.7129 103.336 72.2483 103.159 72.7836 102.982C73.1851 102.805 73.4528 102.687 73.4528 102.687C73.4528 102.687 73.4528 103.572 73.4528 104.457C73.4528 105.342 73.319 106.227 73.319 106.227C73.319 106.227 73.0513 106.345 72.516 106.463C71.9806 106.581 71.4453 106.876 70.5084 107.112C70.1069 107.23 69.7054 107.348 69.17 107.466C68.9023 107.525 68.6347 107.584 68.5008 107.702C68.2332 107.761 67.9655 107.82 67.6978 107.879C67.1624 107.997 66.6271 108.115 66.0917 108.233C65.5564 108.351 65.021 108.41 64.4857 108.528C62.2105 108.941 59.9352 109.177 58.3292 109.295C57.5261 109.354 56.7231 109.354 56.3216 109.354C55.7862 109.354 55.5186 109.354 55.5186 109.354C55.5186 109.354 55.9201 108.528 56.1877 107.702C56.4554 106.994 56.8569 106.168 56.8569 106.168Z" fill="white"/>
<path d="M36.9149 102.921C36.9149 102.921 40.93 104.514 45.079 105.221C46.1497 105.398 47.2204 105.634 48.1573 105.693C48.6926 105.752 49.0941 105.811 49.6295 105.87C50.031 105.929 50.5663 105.929 50.9679 105.988C51.7709 106.047 52.4401 106.106 52.8416 106.106C53.3769 106.106 53.6446 106.106 53.6446 106.106C53.6446 106.106 53.2431 106.932 52.9754 107.699C52.5739 108.525 52.1724 109.292 52.1724 109.292C52.1724 109.292 51.1017 109.233 49.3618 109.056C48.5588 108.938 47.4881 108.82 46.4174 108.702C45.882 108.584 45.3467 108.525 44.8113 108.407C44.5436 108.348 44.276 108.289 44.0083 108.289L43.2053 108.112C42.6699 107.994 42.1346 107.876 41.5992 107.758C41.0639 107.64 40.5285 107.463 39.9932 107.286C38.9225 107.05 37.9856 106.696 37.1826 106.401C36.3796 106.165 35.7103 105.87 35.3088 105.693C34.9073 105.516 34.6396 105.398 34.6396 105.398C34.6396 105.398 35.3089 104.75 35.8442 104.16C36.3796 103.57 36.9149 102.921 36.9149 102.921Z" fill="white"/>
<path d="M19.9182 92.2455C19.9182 92.2455 20.0521 92.4225 20.4536 92.7764C20.8551 93.0714 21.2566 93.5433 21.9258 94.0743C22.4611 94.6052 23.2642 95.1361 24.0672 95.785C24.4687 96.139 24.8702 96.375 25.2717 96.6699C25.6732 96.9649 26.0747 97.3189 26.6101 97.6138C27.547 98.2038 28.35 98.7937 29.2868 99.2656C29.6884 99.5016 30.0899 99.7376 30.4914 99.9736C30.8929 100.21 31.2944 100.387 31.6959 100.563C32.3651 100.917 33.0343 101.212 33.4358 101.389C33.8373 101.566 34.105 101.684 34.105 101.684C34.105 101.684 33.4358 102.274 32.7666 102.864C32.0974 103.454 31.4283 104.044 31.4283 104.044C31.4283 104.044 31.1606 103.926 30.7591 103.69C30.3576 103.454 29.6884 103.159 28.8853 102.746C28.2162 102.333 27.2793 101.861 26.3424 101.271C25.4056 100.681 24.4687 100.092 23.5318 99.4426C23.1303 99.0887 22.595 98.7937 22.1935 98.4397C21.792 98.0858 21.2566 97.7318 20.8551 97.4369C20.4536 97.1419 20.0521 96.7879 19.6506 96.434C19.249 96.139 18.9813 95.7851 18.5798 95.5491C17.9106 95.0181 17.5092 94.4872 17.1076 94.1333C16.7061 93.7793 16.5723 93.6023 16.5723 93.6023C16.5723 93.6023 17.3753 93.2484 18.1783 92.9534C19.1152 92.5994 19.9182 92.2455 19.9182 92.2455Z" fill="white"/>
<path d="M8.27379 75.8455C8.27379 75.8455 8.4076 76.0815 8.54144 76.4944C8.67528 76.9074 9.0768 77.4973 9.34447 78.2052C9.47831 78.5592 9.74598 78.9721 9.87982 79.3851C10.1475 79.798 10.4152 80.211 10.549 80.6239C10.9505 81.5088 11.6197 82.3937 12.1551 83.2786C12.4227 83.7505 12.8243 84.1635 13.092 84.5764C13.3596 84.9894 13.6273 85.4613 14.0288 85.8153C14.698 86.5822 15.2334 87.3491 15.7687 87.9391C16.3041 88.529 16.7056 89.0599 17.1071 89.4139C17.3748 89.7678 17.6424 89.9448 17.6424 89.9448C17.6424 89.9448 16.8394 90.2398 16.0364 90.5347C15.2333 90.8297 14.4303 91.0657 14.4303 91.0657C14.4303 91.0657 14.2965 90.8297 13.8949 90.4757C13.6273 90.0628 13.0919 89.5909 12.5566 88.8829C12.0212 88.175 11.352 87.4671 10.8167 86.5822C10.549 86.1693 10.1475 85.6973 9.87982 85.2254C9.61214 84.7534 9.21065 84.2815 8.94298 83.8095C8.27379 82.8657 7.73841 81.8628 7.20306 80.9189C6.66771 79.975 6.2662 79.0901 5.86469 78.3232C5.46317 77.5563 5.19553 76.9074 5.06169 76.4354C4.92786 76.1994 4.92784 76.0225 4.794 75.9045C4.794 75.7865 4.66016 75.7275 4.66016 75.7275C4.66016 75.7275 4.92782 75.7275 5.1955 75.7275C5.46317 75.7275 5.99856 75.7275 6.40007 75.7275C7.47077 75.8455 8.27379 75.8455 8.27379 75.8455Z" fill="white"/>
<path d="M3.85766 56.2007C3.85766 56.2007 3.85766 56.4956 3.85766 56.9676C3.85766 57.4395 3.99151 58.0884 3.99151 58.9143C3.99151 59.3273 3.99152 59.7402 4.12535 60.2122C4.12535 60.6841 4.2592 61.1561 4.2592 61.628C4.39304 62.6309 4.52687 63.6928 4.79454 64.7547C4.92838 65.8165 5.19605 66.8194 5.46373 67.8223C5.73141 68.7662 5.99909 69.7101 6.26676 70.477C6.53444 71.2439 6.66828 71.8928 6.93595 72.3058C7.06979 72.5417 7.0698 72.7187 7.0698 72.8367C7.0698 72.9547 7.2036 73.0137 7.2036 73.0137C7.2036 73.0137 6.26676 73.0137 5.46373 72.9547C4.6607 72.8957 3.72386 72.8367 3.72386 72.8367C3.72386 72.8367 3.59 72.5417 3.45616 72.0698C3.32233 71.8338 3.32231 71.5388 3.18847 71.2439C3.05464 70.8899 3.05466 70.536 2.92082 70.123C2.78698 69.7101 2.65312 69.2971 2.51928 68.8252C2.38545 68.3532 2.25163 67.8223 2.11779 67.3503C1.98395 66.8194 1.85013 66.2885 1.71629 65.7575C1.58245 65.2266 1.58244 64.6367 1.4486 64.1057L1.31475 63.2798C1.31475 62.9849 1.18091 62.6899 1.18091 62.4539C1.04707 61.923 1.04709 61.3331 0.913256 60.8021C0.779419 59.7402 0.779402 58.7374 0.645565 57.9115C0.645565 56.2007 0.511719 55.0208 0.511719 55.0208C0.511719 55.0208 1.31476 55.3748 2.11779 55.7287C3.05465 55.8467 3.85766 56.2007 3.85766 56.2007Z" fill="white"/>
</svg>
