<svg class="dashedCircle4" width="334" height="334" viewBox="0 0 334 334" fill="none" xmlns="http://www.w3.org/2000/svg">
  <g opacity="0.7">
    <path d="M323.503 223.602C323.503 223.602 323.691 222.847 324.257 221.526C324.635 220.205 325.39 218.318 326.145 216.053C326.711 213.789 327.654 210.958 328.409 208.127C328.787 206.618 329.164 205.108 329.541 203.598C329.73 202.843 329.919 202.088 330.108 201.334L330.485 198.88C331.051 195.672 331.617 192.464 331.995 189.445C332.183 187.935 332.372 186.425 332.561 185.104C332.75 183.783 332.75 182.462 332.938 181.141C333.127 178.688 333.316 176.801 333.316 175.291C333.316 173.97 333.316 173.026 333.316 173.026L319.917 172.649C319.917 172.649 319.917 173.404 319.917 174.725C319.917 176.046 319.728 177.933 319.54 180.009C319.54 181.141 319.351 182.273 319.162 183.594C318.973 184.915 318.785 186.236 318.596 187.557C318.219 190.388 317.841 193.219 317.275 196.238L316.898 198.503C316.709 199.258 316.52 200.013 316.331 200.579C315.954 202.088 315.765 203.409 315.388 204.73C314.822 207.372 313.878 209.826 313.312 212.09C312.746 214.166 311.991 215.865 311.614 217.186C311.236 218.507 311.047 219.073 311.047 219.073L323.503 223.602Z" fill="white"></path>
    <path d="M286.514 283.047C286.514 283.047 287.08 282.48 288.024 281.537C288.59 280.971 289.156 280.405 289.722 279.65C290.289 278.895 291.043 278.14 291.798 277.196C293.308 275.309 295.195 273.233 297.082 270.78C298.026 269.648 298.969 268.327 299.913 267.195C300.857 265.874 301.8 264.553 302.744 263.232C306.518 257.947 309.726 252.475 312.18 248.134C313.501 246.058 314.255 244.171 314.822 243.039C315.388 241.718 315.765 241.152 315.765 241.152L303.687 235.302C303.687 235.302 303.31 235.868 302.744 237.189C302.178 238.321 301.423 240.02 300.291 241.907C298.026 245.87 295.006 250.965 291.61 255.683C290.666 256.815 289.911 258.136 288.968 259.268C288.024 260.401 287.269 261.533 286.326 262.665C284.627 264.93 282.929 266.817 281.419 268.515C280.664 269.27 280.098 270.214 279.343 270.78C278.777 271.346 278.211 271.912 277.645 272.479C276.701 273.422 276.324 273.988 276.324 273.988L286.514 283.047Z" fill="white"></path>
    <path d="M228.39 322.111C228.39 322.111 231.41 320.979 235.75 318.903C236.882 318.337 238.015 317.959 239.336 317.205C240.657 316.638 241.789 315.884 243.299 315.129C245.941 313.808 248.771 312.109 251.602 310.6C254.433 309.09 257.075 307.203 259.528 305.504C261.981 303.806 264.246 302.107 266.322 300.786C270.096 297.767 272.738 295.88 272.738 295.88L264.246 285.5C264.246 285.5 261.981 287.388 258.396 290.03C256.509 291.351 254.433 292.86 252.168 294.37C249.715 295.88 247.45 297.578 244.808 299.088C242.166 300.598 239.713 302.107 237.26 303.24C235.939 303.806 234.807 304.561 233.674 305.127C232.542 305.693 231.41 306.07 230.466 306.637C226.503 308.524 223.672 309.467 223.672 309.467L228.39 322.111Z" fill="white"></path>
    <path d="M159.321 333.811C159.321 333.811 160.076 333.811 161.585 333.811C162.906 333.811 164.982 334 167.436 334C169.889 334 172.72 333.811 175.739 333.811C178.758 333.622 181.967 333.434 185.175 333.056C191.591 332.301 198.007 331.169 202.725 330.226C204.99 329.659 207.066 329.282 208.387 328.905C209.708 328.527 210.462 328.338 210.462 328.338L206.877 315.506C206.877 315.506 206.122 315.695 204.99 316.072C203.669 316.449 201.97 316.827 199.706 317.204C195.365 318.148 189.515 319.091 183.665 319.846C180.646 320.224 177.815 320.412 174.984 320.601C172.153 320.601 169.7 320.79 167.436 320.79C165.171 320.79 163.284 320.79 162.152 320.601C160.831 320.601 160.076 320.601 160.076 320.601L159.321 333.811Z" fill="white"></path>
    <path d="M91.5715 316.072C91.5715 316.072 94.4022 317.582 98.9314 319.469C100.064 320.035 101.196 320.601 102.517 320.979C103.838 321.545 105.159 322.111 106.48 322.488C109.311 323.621 112.33 324.564 115.35 325.697C118.369 326.829 121.577 327.584 124.408 328.339C127.427 329.093 130.069 329.66 132.523 330.226C134.976 330.792 136.863 330.981 138.184 331.358C139.505 331.547 140.449 331.735 140.449 331.735L142.524 318.525C142.524 318.525 141.77 318.337 140.449 318.148C139.128 317.959 137.429 317.582 135.165 317.204C133.089 316.638 130.447 316.072 127.805 315.506C125.163 314.751 122.332 313.996 119.501 313.053C116.671 312.109 113.84 311.166 111.387 310.033C110.066 309.467 108.933 309.09 107.612 308.524C106.48 307.957 105.348 307.58 104.404 307.014C100.252 305.315 97.7991 303.806 97.7991 303.806L91.5715 316.072Z" fill="white"></path>
    <path d="M37.0332 272.102C37.0332 272.102 37.5993 272.668 38.3542 273.8C39.2978 274.932 40.6188 276.442 42.1285 278.14C43.6382 280.028 45.7141 281.915 47.7899 284.179C49.8658 286.444 52.3191 288.52 54.5837 290.784C57.037 292.86 59.4903 295.125 61.7548 297.012C64.2081 298.899 66.284 300.597 68.3598 302.107C70.247 303.428 71.9454 304.749 73.0777 305.504C74.21 306.259 74.9649 306.636 74.9649 306.636L82.3247 295.502C82.3247 295.502 81.7586 295.125 80.6263 294.37C79.494 293.615 77.9843 292.483 76.2859 291.162C74.3987 289.841 72.5116 288.142 70.247 286.444C67.9824 284.745 65.9066 282.67 63.642 280.782C61.5661 278.707 59.3015 276.819 57.4144 274.744C55.5272 272.668 53.6401 270.969 52.3191 269.271C50.8094 267.572 49.6771 266.251 48.7335 265.119C47.9786 264.175 47.4125 263.609 47.4125 263.609L37.0332 272.102Z" fill="white"></path>
    <path d="M5.51807 209.448C5.51807 209.448 6.46163 212.468 7.78264 217.185C8.5375 219.45 9.48109 222.092 10.4247 224.923C11.5569 227.753 12.6892 230.773 14.0102 233.792C15.3312 236.812 16.6522 239.642 17.9732 242.284C19.2942 244.926 20.6152 247.568 21.9362 249.644C24.2008 253.796 26.088 256.627 26.088 256.627L37.4108 249.456C37.4108 249.456 35.7124 247.002 33.6365 243.039C32.5043 241.152 31.372 238.888 30.051 236.434C28.73 233.981 27.5977 231.339 26.2767 228.508C25.1444 225.866 24.0121 223.036 23.0685 220.394C22.125 217.752 21.3701 215.298 20.6152 213.222C19.483 208.882 18.5394 206.051 18.5394 206.051L5.51807 209.448Z" fill="white"></path>
    <path d="M2.4987 139.436C2.4987 139.436 2.30999 140.19 2.12128 141.7C1.93256 143.021 1.74386 145.097 1.36643 147.55C0.989001 150.004 0.800269 152.834 0.611554 155.854C0.234125 158.873 0.234131 162.081 0.234131 165.289V167.743C0.234131 168.498 0.234131 169.252 0.234131 170.196C0.234131 171.706 0.234142 173.404 0.422857 174.914C0.422857 177.933 0.800292 180.764 0.989007 183.217C1.17772 185.671 1.55513 187.558 1.55513 189.068C1.74384 190.389 1.74385 191.332 1.74385 191.332L14.9539 189.445C14.9539 189.445 14.9539 188.69 14.7652 187.369C14.5764 186.048 14.199 184.161 14.199 182.085C14.0103 179.82 13.8216 177.367 13.6329 174.536C13.6329 173.215 13.6329 171.706 13.4442 170.196C13.4442 169.441 13.4442 168.686 13.4442 167.931V165.667C13.4442 162.647 13.6329 159.817 13.8216 156.986C14.0103 154.155 14.199 151.702 14.5765 149.437C14.9539 147.173 15.1426 145.474 15.3313 144.153C15.52 142.832 15.7087 142.078 15.7087 142.078L2.4987 139.436Z" fill="white"></path>
    <path d="M28.5413 74.3291C28.5413 74.3291 26.8428 76.9711 24.2008 81.1228C23.0685 83.1987 21.5588 85.652 20.0491 88.294C18.7281 90.936 17.2184 93.7667 15.7087 96.7862C14.3877 99.8056 13.0667 102.636 11.9344 105.467C10.8021 108.298 9.85852 110.94 9.10366 113.204C8.3488 115.469 7.59394 117.356 7.21651 118.677C6.83908 119.998 6.65039 120.753 6.65039 120.753L19.483 124.527C19.483 124.527 19.6717 123.772 20.0491 122.64C20.4265 121.319 20.9927 119.621 21.7476 117.545C22.5024 115.469 23.446 113.016 24.3896 110.374C25.3331 107.732 26.6541 105.09 27.7864 102.448C28.9187 99.8056 30.4284 97.1636 31.7494 94.7103C33.0704 92.257 34.3914 89.9924 35.5237 88.1053C37.977 84.331 39.4867 81.8777 39.4867 81.8777L28.5413 74.3291Z" fill="white"></path>
    <path d="M79.1171 25.8286C79.1171 25.8286 78.3623 26.2061 77.23 26.9609C76.0977 27.7158 74.3993 28.8481 72.3234 30.1691C68.3604 32.9998 63.0764 36.7741 58.3585 40.9258C57.2262 42.0581 55.9053 43.0016 54.773 44.1339C53.6407 45.2662 52.5084 46.2098 51.3761 47.3421C49.1115 49.418 47.2244 51.4938 45.5259 53.1922C44.7711 54.1358 44.0162 54.8907 43.2614 55.6455C42.6952 56.4004 42.1291 56.9665 41.5629 57.5327C40.6194 58.665 40.0532 59.2311 40.0532 59.2311L50.2438 67.912C50.2438 67.912 50.8099 67.3458 51.5648 66.4023C51.9422 65.8361 52.5084 65.27 53.0745 64.7038C53.6407 64.1377 54.3955 63.3828 55.1504 62.4393C56.6601 60.7408 58.3585 58.8537 60.4344 56.9665C61.378 56.023 62.5103 55.0794 63.4538 53.9471C64.5861 53.0035 65.7184 52.06 66.8507 51.1164C71.3798 47.1534 76.0977 43.7565 79.6833 41.1145C81.5704 39.7935 83.0802 38.8499 84.2124 38.0951C85.3447 37.3402 85.9109 36.9628 85.9109 36.9628L79.1171 25.8286Z" fill="white"></path>
    <path d="M145.167 2.42822C145.167 2.42822 144.412 2.61692 142.903 2.61692C141.582 2.80563 139.506 3.18306 137.052 3.56049C135.92 3.74921 134.599 3.93794 133.278 4.31537C131.957 4.6928 130.447 4.88151 128.938 5.25894C127.428 5.63637 125.918 6.01378 124.409 6.39121C122.899 6.76864 121.389 7.33481 119.691 7.71224C113.463 9.41067 107.424 11.6752 102.895 13.5624C100.63 14.5059 98.932 15.2608 97.611 15.8269C96.29 16.3931 95.5352 16.7705 95.5352 16.7705L101.197 28.8483C101.197 28.8483 101.951 28.4708 103.084 28.0934C104.216 27.5273 105.914 26.7724 107.99 26.0176C112.142 24.3191 117.615 22.2432 123.276 20.5448C124.786 20.1674 126.107 19.79 127.617 19.4125C128.938 19.0351 130.447 18.6577 131.768 18.469C133.089 18.0915 134.41 17.9028 135.731 17.5254C137.052 17.3367 138.185 17.148 139.317 16.9592C141.582 16.5818 143.28 16.2044 144.601 16.0157C145.922 15.827 146.677 15.8269 146.677 15.8269L145.167 2.42822Z" fill="white"></path>
    <path d="M214.992 8.08962C214.992 8.08962 214.237 7.9009 212.916 7.52347C211.595 7.14604 209.708 6.57989 207.254 6.01375C204.801 5.4476 202.159 4.69274 199.14 4.1266C197.63 3.93789 196.12 3.56047 194.61 3.37175C193.101 2.99432 191.402 2.80559 189.893 2.61688C186.684 2.23945 183.476 1.6733 180.457 1.6733C177.437 1.48459 174.607 1.2959 172.153 1.10718C169.7 1.10718 167.813 0.918457 166.303 0.918457C164.982 0.918457 164.039 0.918457 164.039 0.918457L164.227 14.3172C164.227 14.3172 164.982 14.3172 166.303 14.3172C167.624 14.3172 169.511 14.3172 171.587 14.5059C173.852 14.5059 176.494 14.6946 179.136 14.8833C181.966 15.072 184.797 15.4495 187.817 15.8269C189.326 16.0156 190.836 16.2044 192.157 16.5818C193.667 16.7705 194.988 17.1479 196.309 17.3366C198.951 17.9028 201.593 18.4689 203.669 19.0351C205.745 19.6012 207.632 20.1673 208.764 20.5448C210.085 20.9222 210.651 21.1109 210.651 21.1109L214.992 8.08962Z" fill="white"></path>
    <path d="M276.324 42.2471C276.324 42.2471 275.757 41.681 274.625 40.7375C274.059 40.36 273.493 39.7939 272.738 39.039C271.983 38.4729 271.04 37.718 270.096 36.9632C268.209 35.4534 265.944 33.755 263.491 32.0566C262.17 31.113 261.038 30.3581 259.717 29.4146C258.396 28.471 257.075 27.7161 255.754 26.7726C250.281 23.187 244.62 20.1676 240.279 18.0917C238.203 16.9594 236.316 16.2045 234.995 15.6384C233.674 15.0723 232.919 14.6948 232.919 14.6948L227.635 26.9613C227.635 26.9613 228.39 27.3387 229.522 27.7161C230.655 28.2823 232.353 29.0371 234.429 29.9807C238.392 32.0566 243.676 34.6986 248.583 37.9067C249.904 38.6616 251.036 39.4164 252.357 40.36C253.489 41.1149 254.81 42.0584 255.942 42.8133C258.207 44.323 260.283 46.0215 261.981 47.3425C262.925 48.0973 263.68 48.6635 264.435 49.2296C265.189 49.7958 265.756 50.3619 266.133 50.7393C267.077 51.4942 267.643 52.0603 267.643 52.0603L276.324 42.2471Z" fill="white"></path>
    <path d="M318.218 98.295C318.218 98.295 316.897 95.2756 314.632 91.1239C314.066 89.9916 313.5 88.8593 312.745 87.727C311.99 86.5947 311.236 85.2737 310.669 83.9527C309.16 81.3107 307.461 78.6687 305.763 75.838C304.064 73.196 301.989 70.554 300.29 68.1007C298.403 65.6474 296.705 63.5715 295.195 61.6844C291.987 58.0988 289.911 55.6455 289.911 55.6455L280.098 64.7038C280.098 64.7038 281.985 66.9684 285.004 70.3653C286.325 72.0637 288.024 74.1395 289.722 76.4041C291.232 78.6687 293.119 81.122 294.629 83.5753C296.138 86.0286 297.837 88.4819 299.158 90.9351C299.913 92.0674 300.479 93.3884 301.234 94.332C301.8 95.4643 302.366 96.5966 302.932 97.5402C305.008 101.503 306.14 104.145 306.14 104.145L318.218 98.295Z" fill="white"></path>
    <path d="M333.127 166.799C333.127 166.799 333.127 163.591 332.938 158.684C332.749 156.231 332.561 153.4 332.372 150.381C331.994 147.362 331.617 144.153 331.051 140.945C329.919 134.529 328.598 128.301 327.277 123.584C326.522 121.319 326.144 119.243 325.767 117.922C325.389 116.601 325.012 115.846 325.012 115.846L312.368 119.998C312.368 119.998 312.557 120.753 312.934 121.885C313.312 123.206 313.878 124.905 314.444 126.98C315.576 131.321 316.897 136.982 317.841 142.832C318.218 145.852 318.596 148.683 318.973 151.513C319.162 154.344 319.351 156.797 319.539 159.062C319.728 163.591 319.728 166.422 319.728 166.422L333.127 166.799Z" fill="white"></path>
  </g>
</svg>
