<svg width="262" height="262" viewBox="0 0 262 262" fill="none" xmlns="http://www.w3.org/2000/svg">
<path d="M15.4633 90.7215C15.4633 90.7215 15.1426 91.2871 14.8218 92.4183C14.501 92.9839 14.5009 93.5495 14.1802 94.3979C13.8594 95.1049 13.8593 95.9533 13.5385 96.943C13.2178 97.9328 12.897 98.9226 12.5762 99.9123C12.2554 101.044 11.9346 102.175 11.9346 103.306C11.6138 104.437 11.2931 105.71 10.9723 106.982C10.6515 108.255 10.6515 109.527 10.3307 110.8C10.0099 112.072 10.0099 113.345 9.68915 114.618C9.36836 115.89 9.36834 117.163 9.36834 118.294C9.04755 120.698 9.04751 122.96 8.72673 124.94C8.72673 128.757 8.40602 131.444 8.40602 131.444C8.40602 131.444 6.48125 130.595 4.55652 129.747C2.6318 128.899 0.707031 127.909 0.707031 127.909C0.707031 127.909 0.707031 127.202 0.707031 126.071C0.707031 124.798 0.707051 123.101 1.02784 121.122C1.02784 120.132 1.02786 119.001 1.34865 117.87C1.34865 116.739 1.66945 115.466 1.66945 114.193C1.99024 111.648 2.6318 108.962 2.95258 106.275C4.87731 95.529 8.72673 85.3485 8.72673 85.3485C8.72673 85.3485 9.04757 85.7727 9.68915 86.1969C10.3307 86.7624 10.9722 87.4694 11.9346 88.1764C13.8593 89.3076 15.4633 90.7215 15.4633 90.7215Z" fill="white"/>
<path d="M39.8412 49.0091C39.8412 49.0091 39.5204 49.4333 38.558 50.2817C37.9165 51.13 36.6333 52.2612 35.671 53.8166C34.3878 55.372 33.1046 57.0687 31.8215 59.0482C31.1799 60.038 30.5383 61.0278 29.5759 62.0176C28.9344 63.1488 28.2929 64.1385 27.6513 65.2697L26.6889 66.8251C26.3681 67.3907 26.0473 67.9563 25.7265 68.5219C25.085 69.653 24.4434 70.6428 23.8018 71.774C22.8394 73.8949 21.5563 75.8745 20.9147 77.5712C20.2731 79.268 19.6316 80.8234 18.99 81.8132C18.3484 82.8029 18.3484 83.3685 18.3484 83.3685C18.3484 83.3685 16.7444 81.8132 15.4613 80.3992C14.1781 78.8438 12.5742 77.2884 12.5742 77.2884C12.5742 77.2884 12.895 76.7229 13.2158 75.5917C13.5366 74.4605 14.4989 72.9052 15.4613 71.2084C15.7821 70.36 16.4237 69.3702 17.0652 68.239C17.7068 67.2493 18.3484 66.1181 18.99 64.9869C20.2731 62.7246 21.877 60.4622 23.1602 58.1999C23.8018 57.0687 24.7642 55.9375 25.4057 54.8063C26.0473 53.6752 27.0097 52.544 27.6513 51.5542C29.2552 49.5747 30.5384 47.5951 32.1423 46.0398C33.4254 44.4844 34.7086 43.2118 35.3502 42.3634C36.3125 41.515 36.6333 40.9495 36.6333 40.9495C36.6333 40.9495 37.5957 42.929 38.2372 44.7672C38.558 45.7569 39.1996 46.6053 39.5204 47.4537C39.5204 48.5849 39.8412 49.0091 39.8412 49.0091Z" fill="white"/>
<path d="M78.0156 19.8808C78.0156 19.8808 75.7701 21.012 72.2414 22.8501C70.6375 23.8399 68.7127 24.8297 66.4672 26.2437C64.5425 27.5163 62.297 28.9303 60.3723 30.4856C56.202 33.455 52.3526 36.7071 49.4655 39.2522C47.8616 40.5248 46.8992 41.656 45.9368 42.5044C44.9744 43.2113 44.6537 43.7769 44.6537 43.7769C44.6537 43.7769 44.0121 41.7973 43.0497 39.8178C42.4082 37.8382 41.7666 35.8587 41.7666 35.8587C41.7666 35.8587 42.4082 35.4345 43.0497 34.5861C44.0121 33.7377 45.2953 32.7479 46.8992 31.334C48.5032 29.92 50.4278 28.5061 52.3526 26.9507C53.3149 26.1023 54.5981 25.3953 55.5604 24.6883C56.5228 23.9813 57.806 23.133 58.7683 22.2846C61.0138 20.8706 63.2594 19.3152 65.5049 18.0427C66.4672 17.3357 67.7504 16.7701 68.7128 16.2045C69.6751 15.6389 70.6375 15.2147 71.5998 14.6491C73.5246 13.6594 74.8077 12.9524 76.0908 12.5282C77.0532 12.104 77.6948 11.8212 77.6948 11.8212C77.6948 11.8212 77.6948 13.9422 77.6948 16.0631C78.0156 17.7599 78.0156 19.8808 78.0156 19.8808Z" fill="white"/>
<path d="M124.532 8.00347C124.532 8.00347 121.965 8.1449 118.116 8.56909C116.191 8.85188 113.946 9.13464 111.7 9.41744C110.417 9.70023 109.455 9.84163 108.171 10.1244C107.53 10.2658 106.888 10.4072 106.247 10.4072L104.322 10.8314C103.039 11.1142 101.756 11.397 100.472 11.6798C99.1893 11.9626 98.227 12.3868 96.9438 12.6696C94.6983 13.2352 92.4528 14.0836 90.8489 14.6491C88.9241 15.2147 87.641 15.7803 86.3578 16.2045C85.3955 16.6287 84.7539 16.9115 84.7539 16.9115C84.7539 16.9115 84.7539 14.7905 84.7539 12.6696C84.7539 10.5486 85.0747 8.42768 85.0747 8.42768C85.0747 8.42768 85.0747 8.42768 85.3955 8.28628C85.7163 8.14488 86.0371 8.0035 86.6787 7.86211C87.9618 7.43791 89.5657 6.87232 91.4905 6.30673C93.4152 5.59975 95.6607 5.03417 98.227 4.32718C100.793 3.7616 103.36 3.05459 105.926 2.6304C108.492 2.20621 111.379 1.64063 113.946 1.35784C115.229 1.21644 116.512 1.07502 117.474 0.933623C118.757 0.792227 119.72 0.792252 120.682 0.650856C122.607 0.509459 124.532 0.368044 125.494 0.368044C126.777 0.368044 127.419 0.368044 127.419 0.368044C127.419 0.368044 126.777 2.34763 125.815 4.32718C125.494 6.02395 124.532 8.00347 124.532 8.00347Z" fill="white"/>
<path d="M172.326 14.9331C172.326 14.9331 171.684 14.7917 170.722 14.3675C169.76 14.0847 168.156 13.3777 166.231 12.9535C164.306 12.5293 162.382 11.681 159.815 11.2568C158.532 10.974 157.57 10.6912 156.287 10.4084C155.003 10.1256 153.72 9.9842 152.437 9.7014C147.305 8.71163 142.172 8.28742 138.323 8.00462C136.398 7.86323 134.794 7.86326 133.511 7.86326C132.228 7.86326 131.586 7.86326 131.586 7.86326C131.586 7.86326 132.548 6.02508 133.19 4.04553C134.152 2.06597 135.115 0.227795 135.115 0.227795C135.115 0.227795 135.756 0.227795 137.039 0.227795C138.322 0.227795 139.926 0.510613 141.851 0.652011C146.021 0.934805 151.154 1.78319 156.607 2.77296C159.174 3.47995 162.061 3.90412 164.306 4.61111C166.873 5.31809 169.118 5.88367 171.043 6.59065C172.968 7.29764 174.571 7.72184 175.534 8.14603C176.496 8.57022 177.138 8.85301 177.138 8.85301C177.138 8.85301 175.534 10.4084 174.251 11.8224C173.609 12.5293 172.968 13.3777 172.326 13.9433C172.647 14.5089 172.326 14.9331 172.326 14.9331Z" fill="white"/>
<path d="M213.709 39.8182C213.709 39.8182 211.784 38.1214 208.897 35.5763C206.01 33.1725 201.84 30.0618 197.349 27.2339C193.179 24.4059 188.688 22.0022 185.159 20.3054C183.555 19.457 181.951 18.8915 180.989 18.3259C180.026 17.9017 179.385 17.6189 179.385 17.6189C179.385 17.6189 180.989 16.2049 182.272 14.791C183.876 13.377 185.48 11.963 185.48 11.963C185.48 11.963 186.121 12.2458 187.084 12.67C188.046 13.0942 189.65 13.9426 191.575 14.9324C195.103 16.7705 199.915 19.5984 204.406 22.5678C208.897 25.6785 213.067 28.9306 216.275 31.7586C217.879 33.1725 219.162 34.1623 219.804 35.0107C220.766 35.8591 221.087 36.2833 221.087 36.2833C221.087 36.2833 219.162 37.1317 217.238 37.98C215.313 38.9698 213.709 39.8182 213.709 39.8182Z" fill="white"/>
<path d="M242.26 78.7031C242.26 78.7031 242.26 78.5617 241.939 78.2789C241.939 77.9961 241.618 77.572 241.297 77.1478C240.656 76.158 240.014 74.744 239.052 73.0472C238.09 71.3505 237.127 69.3709 235.844 67.3914C235.202 66.4016 234.561 65.2704 233.919 64.2806C233.278 63.1495 232.636 62.1597 231.674 61.0285C231.032 60.0387 230.07 58.9076 229.428 57.9178C228.787 56.928 227.824 55.9382 227.183 54.9484C225.9 52.9689 224.296 51.2721 223.012 49.8581C221.729 48.3028 220.767 47.1716 219.805 46.4646C219.163 45.6162 218.521 45.1921 218.521 45.1921C218.521 45.1921 220.446 44.4851 222.371 43.6367C224.296 42.9297 226.22 42.2227 226.22 42.2227C226.22 42.2227 226.22 42.3641 226.541 42.6469C226.862 42.9297 227.183 43.2125 227.504 43.6367C228.145 44.4851 229.428 45.8991 230.711 47.4544C231.995 49.0098 233.598 50.9893 235.202 52.9689C235.844 53.9587 236.806 55.0898 237.448 56.221C238.09 57.3522 239.052 58.4834 239.693 59.6145C240.335 60.7457 241.297 61.8769 241.939 63.0081C242.581 64.1393 243.222 65.2704 243.864 66.4016C245.147 68.5226 246.109 70.7849 247.072 72.6231C248.034 74.4612 248.675 76.0166 249.317 77.1478C249.959 78.279 249.959 78.8445 249.959 78.8445C249.959 78.8445 247.713 78.8445 245.788 78.8445C244.185 78.5617 242.26 78.7031 242.26 78.7031Z" fill="white"/>
<path d="M253.809 125.646C253.809 125.646 253.488 115.324 251.242 105.285C250.601 102.74 250.28 100.336 249.318 97.9321C248.997 96.8009 248.676 95.6697 248.355 94.5386C248.035 93.5488 247.714 92.559 247.393 91.5692C246.751 89.7311 246.431 88.1757 245.789 87.1859C245.468 86.1961 245.147 85.4892 245.147 85.4892C245.147 85.4892 247.393 85.4892 249.318 85.6306C251.563 85.772 253.488 85.7719 253.488 85.7719C253.488 85.7719 254.45 88.3171 255.733 92.2762C256.375 94.2558 257.017 96.5181 257.658 99.0633C258.3 101.608 258.941 104.154 259.262 106.84C259.583 108.113 259.904 109.527 259.904 110.799C260.225 112.072 260.224 113.486 260.545 114.758C260.866 117.303 261.187 119.707 261.187 121.687C261.508 123.666 261.508 125.504 261.508 126.636C261.508 127.767 261.508 128.474 261.508 128.474C261.508 128.474 259.583 127.625 257.658 126.918C255.733 126.353 253.809 125.646 253.809 125.646Z" fill="white"/>
<path d="M246.431 173.438C246.431 173.438 247.393 171.034 248.355 167.358C248.676 165.52 249.639 163.399 249.959 160.995C250.601 158.591 251.243 156.188 251.563 153.642C251.884 152.37 251.884 151.097 252.205 149.825C252.205 148.552 252.526 147.28 252.526 146.148C252.846 143.745 252.846 141.482 253.167 139.644C253.488 137.665 253.488 136.109 253.488 134.978C253.488 133.847 253.488 133.14 253.488 133.14C253.488 133.14 255.413 133.988 257.337 134.837C259.262 135.685 261.187 136.675 261.187 136.675C261.187 136.675 261.187 136.816 261.187 137.099C261.187 137.382 261.187 137.947 261.187 138.513C261.187 139.644 260.866 141.482 260.866 143.462C260.866 145.441 260.225 147.845 259.904 150.39C259.583 152.935 258.941 155.622 258.621 158.308C257.979 160.995 257.337 163.682 256.696 166.085C256.375 167.358 256.054 168.489 255.733 169.62C255.413 170.751 255.092 171.741 254.771 172.731C254.13 174.711 253.488 176.266 253.167 177.397C252.846 178.528 252.526 179.094 252.526 179.094C252.526 179.094 250.922 177.68 249.639 176.124C248.035 174.852 246.431 173.438 246.431 173.438Z" fill="white"/>
<path d="M221.408 214.726C221.408 214.726 221.408 214.585 221.729 214.443C222.05 214.302 222.371 213.878 222.691 213.453C223.333 212.605 224.616 211.332 225.578 209.918C226.862 208.363 228.145 206.666 229.749 204.687C230.39 203.697 231.032 202.707 231.994 201.717C232.315 201.152 232.636 200.728 232.957 200.162L233.919 198.607C234.56 197.476 235.202 196.486 235.844 195.355C236.485 194.223 237.127 193.234 237.768 192.102C239.052 189.981 240.014 188.002 240.976 186.305C241.939 184.608 242.58 183.194 242.901 182.063C243.222 181.073 243.543 180.508 243.543 180.508C243.543 180.508 244.826 182.063 246.43 183.619C247.713 185.174 249.317 186.729 249.317 186.729C249.317 186.729 248.996 187.295 248.675 188.426C248.034 189.557 247.392 190.971 246.43 192.809C245.467 194.648 244.184 196.627 242.901 198.889C242.259 200.021 241.618 201.152 240.655 202.283C240.014 203.414 239.372 204.545 238.41 205.677C237.768 206.808 236.806 207.939 236.164 209.07C235.523 210.201 234.56 211.191 233.598 212.181C232.957 213.171 231.994 214.16 231.353 215.009C230.711 215.857 229.749 216.705 229.107 217.554C227.824 219.109 226.541 220.382 225.899 221.23C224.937 222.079 224.616 222.644 224.616 222.644C224.616 222.644 223.654 220.665 223.012 218.685C222.05 216.564 221.408 214.726 221.408 214.726Z" fill="white"/>
<path d="M182.274 243.147C182.274 243.147 182.916 242.864 183.878 242.44C184.841 242.015 186.445 241.167 188.049 240.319C189.653 239.47 191.577 238.339 193.823 237.066C194.785 236.501 195.748 235.794 197.031 235.087C197.993 234.38 199.276 233.673 200.239 232.966C202.163 231.411 204.409 229.997 206.334 228.441C207.296 227.734 208.258 227.027 208.9 226.32C209.862 225.613 210.504 224.906 211.145 224.341C212.749 223.068 213.712 222.078 214.674 221.23C215.636 220.382 215.957 219.957 215.957 219.957C215.957 219.957 216.599 221.937 217.561 223.917C218.203 225.896 218.844 227.876 218.844 227.876C218.844 227.876 216.92 229.714 213.712 232.4C210.504 234.946 206.334 238.339 201.522 241.167C197.031 244.136 192.219 246.681 188.69 248.52C186.765 249.509 185.162 250.075 184.199 250.641C183.237 251.206 182.595 251.489 182.595 251.489C182.595 251.489 182.595 249.368 182.595 247.247C182.274 245.267 182.274 243.147 182.274 243.147Z" fill="white"/>
<path d="M135.759 254.318C135.759 254.318 136.4 254.318 137.683 254.318C138.646 254.176 140.25 254.176 142.174 253.894C146.024 253.611 151.157 252.904 155.968 251.914C161.101 250.783 165.913 249.51 169.441 248.238C171.366 247.531 172.649 247.106 173.932 246.682C174.895 246.258 175.536 245.975 175.536 245.975C175.536 245.975 175.536 248.096 175.536 250.217C175.536 252.338 175.216 254.459 175.216 254.459C175.216 254.459 174.574 254.742 173.291 255.025C172.008 255.307 170.725 256.014 168.479 256.58C167.517 256.863 166.554 257.146 165.271 257.428C164.63 257.57 163.988 257.711 163.667 257.994C163.026 258.135 162.384 258.277 161.742 258.418C160.459 258.701 159.176 258.984 157.893 259.267C156.61 259.549 155.327 259.691 154.044 259.974C148.59 260.963 143.137 261.529 139.287 261.812C137.363 261.953 135.438 261.953 134.476 261.953C133.192 261.953 132.551 261.953 132.551 261.953C132.551 261.953 133.513 259.974 134.155 257.994C134.796 256.297 135.759 254.318 135.759 254.318Z" fill="white"/>
<path d="M87.9603 246.535C87.9603 246.535 97.5839 250.353 107.528 252.05C110.095 252.474 112.661 253.04 114.906 253.181C116.19 253.322 117.152 253.464 118.435 253.605C119.397 253.747 120.681 253.747 121.643 253.888C123.568 254.029 125.172 254.171 126.134 254.171C127.417 254.171 128.059 254.171 128.059 254.171C128.059 254.171 127.096 256.15 126.455 257.989C125.492 259.968 124.53 261.806 124.53 261.806C124.53 261.806 121.964 261.665 117.793 261.241C115.869 260.958 113.303 260.675 110.736 260.392C109.453 260.109 108.17 259.968 106.887 259.685C106.245 259.544 105.604 259.403 104.962 259.403L103.037 258.978C101.754 258.696 100.471 258.413 99.1878 258.13C97.9047 257.847 96.6215 257.423 95.3384 256.999C92.772 256.433 90.5266 255.585 88.6019 254.878C86.6772 254.312 85.0731 253.605 84.1108 253.181C83.1484 252.757 82.5068 252.474 82.5068 252.474C82.5068 252.474 84.1109 250.919 85.394 249.505C86.6772 248.091 87.9603 246.535 87.9603 246.535Z" fill="white"/>
<path d="M47.2209 220.949C47.2209 220.949 47.5417 221.373 48.5041 222.221C49.4665 222.928 50.4287 224.059 52.0327 225.332C53.3158 226.604 55.2406 227.877 57.1653 229.432C58.1277 230.281 59.09 230.846 60.0524 231.553C61.0147 232.26 61.9771 233.109 63.2603 233.816C65.5058 235.23 67.4305 236.644 69.676 237.775C70.6384 238.34 71.6008 238.906 72.5632 239.472C73.5255 240.037 74.4879 240.461 75.4503 240.886C77.0542 241.734 78.6581 242.441 79.6205 242.865C80.5828 243.289 81.2244 243.572 81.2244 243.572C81.2244 243.572 79.6205 244.986 78.0165 246.4C76.4126 247.814 74.8086 249.228 74.8086 249.228C74.8086 249.228 74.1671 248.945 73.2047 248.38C72.2423 247.814 70.6384 247.107 68.7137 246.117C67.1098 245.127 64.8643 243.996 62.6187 242.582C60.3732 241.168 58.1277 239.754 55.8822 238.199C54.9198 237.351 53.6367 236.644 52.6743 235.795C51.7119 234.947 50.4288 234.099 49.4664 233.392C48.5041 232.685 47.5417 231.836 46.5794 230.988C45.617 230.281 44.9754 229.432 44.013 228.867C42.409 227.594 41.4468 226.322 40.4844 225.473C39.522 224.625 39.2012 224.201 39.2012 224.201C39.2012 224.201 41.1259 223.352 43.0507 222.645C45.2962 221.797 47.2209 220.949 47.2209 220.949Z" fill="white"/>
<path d="M19.3117 181.64C19.3117 181.64 19.6324 182.205 19.9532 183.195C20.274 184.185 21.2364 185.599 21.878 187.296C22.1988 188.144 22.8403 189.134 23.1611 190.124C23.8027 191.113 24.4442 192.103 24.765 193.093C25.7274 195.214 27.3314 197.335 28.6145 199.456C29.2561 200.587 30.2185 201.577 30.8601 202.566C31.5017 203.556 32.1432 204.687 33.1055 205.536C34.7095 207.374 35.9927 209.212 37.2758 210.626C38.559 212.04 39.5214 213.313 40.4837 214.161C41.1253 215.009 41.7668 215.434 41.7668 215.434C41.7668 215.434 39.8421 216.141 37.9174 216.848C35.9926 217.555 34.068 218.12 34.068 218.12C34.068 218.12 33.7471 217.555 32.7847 216.706C32.1432 215.716 30.86 214.585 29.5769 212.888C28.2937 211.192 26.6898 209.495 25.4066 207.374C24.7651 206.384 23.8027 205.253 23.1611 204.122C22.5195 202.991 21.5572 201.86 20.9156 200.728C19.3117 198.466 18.0285 196.062 16.7453 193.8C15.4622 191.538 14.4998 189.417 13.5375 187.578C12.5751 185.74 11.9336 184.185 11.6128 183.054C11.292 182.488 11.292 182.064 10.9712 181.781C10.9712 181.498 10.6504 181.357 10.6504 181.357C10.6504 181.357 11.2919 181.357 11.9335 181.357C12.5751 181.357 13.8583 181.357 14.8207 181.357C17.387 181.64 19.3117 181.64 19.3117 181.64Z" fill="white"/>
<path d="M8.72673 134.554C8.72673 134.554 8.72673 135.261 8.72673 136.392C8.72673 137.524 9.04753 139.079 9.04753 141.059C9.04753 142.048 9.04755 143.038 9.36834 144.169C9.36834 145.3 9.68915 146.432 9.68915 147.563C10.0099 149.967 10.3307 152.512 10.9723 155.057C11.2931 157.602 11.9346 160.006 12.5762 162.409C13.2178 164.672 13.8594 166.934 14.501 168.772C15.1425 170.611 15.4633 172.166 16.1049 173.156C16.4257 173.721 16.4257 174.145 16.4257 174.428C16.4257 174.711 16.7464 174.852 16.7464 174.852C16.7464 174.852 14.5009 174.852 12.5762 174.711C10.6515 174.57 8.40602 174.428 8.40602 174.428C8.40602 174.428 8.08519 173.721 7.7644 172.59C7.44362 172.024 7.44358 171.317 7.12279 170.611C6.802 169.762 6.80206 168.914 6.48127 167.924C6.16048 166.934 5.83964 165.944 5.51885 164.813C5.19806 163.682 4.87731 162.409 4.55652 161.278C4.23574 160.006 3.91499 158.733 3.5942 157.461C3.27341 156.188 3.27337 154.774 2.95259 153.501L2.63178 151.522C2.63178 150.815 2.31097 150.108 2.31097 149.542C1.99018 148.27 1.99024 146.856 1.66945 145.583C1.34867 143.038 1.34863 140.634 1.02784 138.655C1.02784 134.554 0.707031 131.726 0.707031 131.726C0.707031 131.726 2.6318 132.575 4.55652 133.423C6.80204 133.706 8.72673 134.554 8.72673 134.554Z" fill="white"/>
</svg>
