<svg width="304" height="306" viewBox="0 0 304 306" fill="none" xmlns="http://www.w3.org/2000/svg">
<path fill-rule="evenodd" clip-rule="evenodd" d="M153.899 0.0576787C153.643 0.0487506 153.387 0.04052 153.13 0.034339L152.354 0.0154592C151.902 0.00447077 151.449 0.000686779 150.996 0C150.182 0.0436105 149.368 0.0738113 148.553 0.0937279L147.043 0.130817C146.459 0.145239 145.874 0.158976 145.29 0.175115C144.622 0.193658 143.954 0.214602 143.287 0.241043L142.763 0.285342L142.012 0.344429L141.725 0.36569C141.193 0.405523 140.66 0.441925 140.217 0.471457L140.1 0.481081C138.255 0.609165 136.406 0.727965 134.571 0.956662C129.336 1.6091 123.87 2.40613 118.731 3.60009C117.865 3.80132 116.998 4.00356 116.135 4.21749C116.065 4.23466 115.996 4.25183 115.927 4.269L116.941 7.91855L119.787 7.29083C124.835 6.02612 130.327 5.29233 135.4 4.73432C137.224 4.49326 139.055 4.34835 140.889 4.20756C141.431 4.16601 141.974 4.12411 142.516 4.07913C142.911 4.0465 143.306 4.01182 143.7 3.97336L143.807 3.96306L143.915 3.95757C146.232 3.84459 148.566 3.85934 150.876 3.71374L151.017 3.70482H151.157C152.045 3.70482 152.931 3.72853 153.817 3.75841L153.899 0.0576787ZM85.1404 15.1472L84.5611 15.4659L83.9467 15.7952L83.3736 16.0961L83.0237 16.2739L82.6147 16.4762C82.213 16.675 81.806 16.8635 81.396 17.0452C78.8223 18.3126 76.362 19.8798 73.8209 21.2304C72.9208 21.7613 72.0352 22.3169 71.1527 22.8763C69.6051 23.8577 68.0667 24.8542 66.4892 25.7872C64.412 27.2754 62.3218 28.785 60.1639 30.1541C59.4298 30.7272 58.6959 31.3027 57.9649 31.8816L60.246 34.7184C60.8418 34.2284 61.4345 33.7346 62.0241 33.2384L62.1364 33.144L62.2548 33.0568C63.0093 32.5025 63.7709 31.9575 64.5349 31.4164L65.7385 30.5637C66.5602 29.9817 67.3813 29.3996 68.1999 28.8135L68.3373 28.7153L68.4818 28.6274C68.8586 28.399 69.2318 28.1648 69.6037 27.9285C70.0216 27.6628 70.4375 27.3939 70.8533 27.125C72.4456 26.0955 74.0348 25.0781 75.7054 24.178C78.0871 22.8951 80.3532 21.4004 82.7741 20.191C83.9705 19.532 85.1678 18.8771 86.4185 18.326L89.4523 16.9892C90.329 16.5737 91.2139 16.1726 92.105 15.7866L90.9509 12.5983C90.0752 12.975 89.2023 13.3565 88.3329 13.7397L85.1404 15.1472ZM39.2076 50.0202C38.9637 50.3138 38.7079 50.5964 38.4493 50.8793C38.2718 51.0734 38.0912 51.2681 37.9236 51.471C37.8731 51.5321 37.8227 51.595 37.7763 51.6595C37.7639 51.6767 37.7519 51.6945 37.7402 51.7124L37.6115 51.9109L37.4628 52.095C36.8313 52.8748 36.16 53.623 35.4955 54.375L35.3993 54.4832C34.4028 55.6027 33.4012 56.7262 32.497 57.9226C32.257 58.2399 32.0173 58.5572 31.7749 58.8721C31.6207 59.0723 31.4658 59.2718 31.3096 59.4699C30.7739 60.1491 30.2224 60.8129 29.6469 61.4585L27.2401 64.9951L27.1903 65.063C23.9858 69.409 21.1514 74.0393 18.4891 78.7337C18.0311 79.5417 17.596 80.3583 17.1715 81.1814L20.4671 82.8156C20.8331 82.0962 21.1964 81.3754 21.5498 80.6485L21.5831 80.5798L21.6188 80.5122C24.1049 75.8153 26.9633 71.2135 30.1235 66.9417C30.9394 65.8384 31.7783 64.752 32.5506 63.6171L32.6134 63.5247L32.6811 63.4357C33.5045 62.3468 34.3864 61.3043 35.2095 60.2161L35.2465 60.167L35.285 60.1189C36.7853 58.2451 38.2399 56.3152 39.8133 54.5028C40.4262 53.723 41.0845 53.132 41.7428 52.4298L39.2076 50.0202ZM7.14628 105.611L7.13254 105.647C6.82487 106.503 6.51135 107.362 6.28266 108.244C5.98082 109.406 5.64602 110.56 5.32083 111.716C4.96164 112.992 4.63474 114.276 4.36792 115.575L4.29683 115.921C3.96924 117.518 3.62516 119.057 3.05994 120.551C3.0232 120.676 3.00054 120.831 2.99368 120.859L2.97478 120.967C2.93632 121.168 2.89752 121.37 2.85288 121.57C2.80378 121.79 2.7485 122.007 2.68531 122.222L2.44013 124.165L2.41437 124.3C1.88933 127.077 1.34335 129.888 1.06555 132.702L1.04253 132.935L0.995142 133.164C0.887662 133.687 0.837529 134.234 0.782586 134.765C0.696396 135.601 0.604018 136.426 0.433697 137.251L0.415153 137.338C0.222168 138.188 0.244497 139.196 0.244497 140.066V140.346L0.209471 140.624C0.0971826 141.516 0.0339956 142.4 0 143.287L3.8264 143.399C3.89404 142.58 3.95996 141.759 3.95996 140.933C3.95996 140.219 4.04101 139.52 4.12789 138.814C4.17596 138.421 4.24121 137.984 4.24121 137.589V137.09L4.35144 136.602C4.45274 136.156 4.49909 135.677 4.55129 135.222L4.59077 134.877L4.6337 134.523C4.68933 134.064 4.76179 133.607 4.85519 133.154C5.16699 130.406 5.72946 127.683 6.26584 124.972L6.61575 122.345L6.82385 121.889C6.83792 121.827 6.84993 121.763 6.86229 121.702C6.91827 121.43 6.977 121.16 7.0498 120.891C7.09959 120.709 7.15487 120.528 7.21737 120.35C7.35335 119.689 7.49036 119.028 7.63046 118.368C7.7503 117.804 7.8753 117.24 8.00098 116.677C8.06485 116.391 8.12907 116.105 8.19809 115.82C8.33339 115.261 8.48173 114.705 8.639 114.151C8.85739 113.383 9.09399 112.62 9.3299 111.857L9.59636 110.996C9.74814 110.505 9.88688 110.011 10.0246 109.516C10.2746 108.618 10.5417 107.719 10.8394 106.832L7.14628 105.611ZM190.142 5.16389C189.72 5.05332 189.298 4.94516 188.875 4.84146C188.354 4.71406 187.831 4.59042 187.308 4.47299L186.235 4.23228C185.665 4.10419 185.093 3.98435 184.521 3.86176C183.944 3.73814 183.366 3.61521 182.79 3.48815C181.912 3.29483 181.025 3.1451 180.141 2.99641L179.562 6.6796C179.806 6.7184 180.048 6.75686 180.289 6.79566L180.534 6.83345L182.406 7.13804L182.59 7.18405C182.963 7.2778 183.337 7.36605 183.712 7.45293C184.393 7.61055 185.075 7.76128 185.682 7.89555L185.806 7.9213C187.069 8.20116 188.331 8.47965 189.588 8.78699L189.685 8.81103L189.781 8.83883C190.161 8.95043 190.542 9.05929 190.925 9.16334L191.944 9.43976L192.179 9.50227C194.118 10.0184 196.055 10.5565 197.928 11.2831C200.552 12.1804 203.242 12.9973 205.78 14.1164C206.889 14.605 208.043 14.9907 209.151 15.479L212.242 16.8408C213.017 17.1822 213.81 17.5352 214.604 17.9009L216.291 14.4807C215.448 14.1003 214.605 13.7431 213.802 13.4124L213.75 13.3915L210.328 11.883C209.16 11.3682 207.914 10.9462 206.71 10.5221L206.55 10.4655L206.394 10.3968C205.372 9.94626 204.308 9.56785 203.251 9.20901C201.597 8.64723 199.928 8.13043 198.28 7.54907C196.464 6.90796 194.592 6.40626 192.737 5.89118L192.641 5.86442C191.807 5.63332 190.972 5.40667 190.142 5.16389ZM266.974 53.4668C266.379 52.7629 265.772 52.0754 265.124 51.4088L264.982 51.2632L264.854 51.1053C263.938 49.9735 262.869 48.9066 261.852 47.8637C261.136 47.1295 260.422 46.3947 259.722 45.6451C259.356 45.2529 258.982 44.8686 258.602 44.4895C258.294 44.1819 257.982 43.8773 257.667 43.5768L257.155 43.0889L256.767 42.7232L256.27 42.2589L254.067 40.2206L253.523 39.7137C253.042 39.2886 252.565 38.8587 252.085 38.4325L251.896 38.2649C251.049 37.5136 250.209 36.7537 249.353 36.0133C249.041 35.7438 248.727 35.477 248.41 35.2132C247.965 34.8413 247.514 34.4756 247.054 34.1209C245.16 32.6605 243.231 30.9236 241.219 29.6565L241.137 29.6046L241.057 29.5497C240.238 28.9824 239.432 28.377 238.622 27.7819L236.572 30.8542C237.367 31.415 238.154 31.9874 238.936 32.5619C240.905 34.0086 242.849 35.491 244.739 37.039C246.924 38.8267 249.106 40.6347 251.159 42.5738L251.211 42.6225L251.261 42.673C251.582 42.9969 251.91 43.3148 252.241 43.6294C252.73 44.095 253.226 44.5548 253.722 45.0135C254.946 46.1447 256.178 47.2803 257.298 48.5144L257.348 48.5687L257.395 48.6243C258.034 49.3763 258.736 50.0786 259.431 50.7784C260.429 51.7828 261.44 52.7982 262.276 53.9455C262.626 54.3476 262.974 54.7521 263.321 55.1566L263.334 55.169L263.446 55.3001C263.605 55.4856 263.764 55.6713 263.923 55.8571L266.974 53.4668ZM296.946 107.274C296.011 104.899 295.229 102.433 294.473 99.9957C294.03 98.9504 293.636 97.8856 293.243 96.8207C292.668 95.2638 292.09 93.6777 291.329 92.2008L291.243 92.0332L291.171 91.8591C290.426 90.0546 289.595 88.2827 288.767 86.5149C288.39 85.7087 288.013 84.9024 287.644 84.092C287.109 83.0986 286.591 82.0966 286.075 81.0928L285.944 80.838C285.348 79.6767 284.753 78.5081 284.109 77.3726C283.623 76.5155 283.129 75.6625 282.628 74.8143L279.56 76.7709C280.027 77.56 280.475 78.3536 280.905 79.1352C282.194 81.2762 283.357 83.4996 284.434 85.7543C285.231 87.4219 285.982 89.1113 286.736 90.7987C287.103 91.6211 287.47 92.4439 287.843 93.2639L287.876 93.3391C288.683 95.2079 289.365 97.1195 290.118 99.0095C290.377 99.6609 290.646 100.309 290.935 100.948L291.022 101.14L292.074 104.206C292.551 105.595 293.026 106.993 293.418 108.408C293.647 109.237 293.88 110.069 294.118 110.901L297.66 109.993C297.419 109.087 297.182 108.18 296.946 107.274ZM302.952 135.952L299.491 136.437C299.648 137.477 299.76 138.499 299.76 139.571C299.76 141.773 300.06 144.085 300.296 146.275L300.322 146.514V155.052C300.322 157.936 300.325 160.834 300.015 163.704C299.894 164.828 299.829 165.957 299.763 167.085C299.687 168.391 299.613 169.702 299.44 170.999C299.331 171.813 299.168 172.76 299.053 173.681L302.27 174.255C302.42 173.282 302.546 172.302 302.668 171.337C302.989 168.784 303.245 166.216 303.497 163.655C303.773 160.855 303.757 157.989 303.757 155.177V146.259C303.757 143.814 303.516 141.41 303.226 138.986L303.195 138.723V138.457C303.195 137.619 303.079 136.781 302.952 135.952ZM281.654 232.105C282.217 231.116 282.791 230.132 283.364 229.149C284.086 227.911 284.806 226.673 285.513 225.426C286.837 222.973 288.15 220.51 289.187 217.918C289.744 216.526 290.373 215.164 290.999 213.802L291.944 211.739L292.3 210.957C292.5 210.517 292.694 210.075 292.886 209.632C293.618 207.938 294.255 206.21 294.89 204.478C295.13 203.824 295.371 203.17 295.617 202.518C295.928 201.695 296.258 200.818 296.549 199.937L292.951 198.867C292.639 199.755 292.292 200.633 291.928 201.5C291.586 202.674 291.196 203.835 290.764 204.979C290.327 206.133 289.846 207.272 289.32 208.389C288.99 209.325 288.604 210.241 288.193 211.144C287.866 211.865 287.524 212.578 287.18 213.291C286.744 214.193 286.307 215.098 285.91 216.018C285.675 216.562 285.427 217.1 285.17 217.635C284.986 218.02 284.796 218.402 284.603 218.782C284.269 219.442 283.924 220.097 283.581 220.752L282.949 221.959C282.687 222.462 282.432 222.969 282.187 223.482L282.074 223.719L281.934 223.941C281.315 224.922 280.739 225.928 280.168 226.937L280.105 227.051L279.639 227.87C279.202 228.636 278.749 229.395 278.276 230.14C277.797 230.895 277.326 231.656 276.858 232.418L280.016 234.6C280.561 233.768 281.107 232.936 281.654 232.105ZM235.191 280.449C235.905 279.991 236.613 279.524 237.303 279.017L237.481 278.889C241.831 275.76 246.177 272.642 250.148 269.032L253.57 266.014C254.564 265.138 255.506 264.197 256.435 263.255C258.101 261.566 259.996 259.843 261.483 258.007L261.61 257.85L261.752 257.704C262.504 256.931 263.116 256.202 263.894 255.522L261.291 253.295C261.234 253.36 261.178 253.426 261.122 253.491C260.557 254.148 259.998 254.767 259.359 255.348C257.696 257.109 256.075 258.851 254.26 260.464C253.44 261.292 252.521 262.089 251.774 262.967L251.471 263.322L251.102 263.608C250.07 264.403 249.187 265.399 248.139 266.232C244.225 269.676 240.032 272.889 235.844 275.809C235.045 276.396 234.232 276.961 233.408 277.509L235.191 280.449ZM175.29 300.305L175.771 303.836C175.969 303.801 176.167 303.765 176.366 303.729C177.049 303.607 177.732 303.483 178.417 303.37C179.647 303.106 180.896 302.958 182.133 302.739C183.39 302.518 184.615 302.145 185.877 301.907C187.218 301.562 188.58 301.315 189.915 300.962C190.563 300.79 191.204 300.592 191.844 300.394C192.592 300.162 193.343 299.937 194.1 299.731C199.298 298.318 204.331 296.385 209.308 294.338L209.4 294.301C210.307 293.951 211.189 293.567 212.067 293.165L210.5 289.82L208.256 290.809L208.201 290.832C203.342 292.821 198.437 294.676 193.373 296.08C192.929 296.203 192.481 296.315 192.036 296.436C191.238 296.652 190.433 296.872 189.648 297.132L189.518 297.174L189.387 297.209C188.079 297.555 186.76 297.855 185.452 298.2L185.271 298.248L185.086 298.28C184.658 298.355 184.234 298.452 183.813 298.559L183.55 298.626L183.095 298.745L182.398 298.925L181.903 299.046L181.647 299.104C181.265 299.191 180.88 299.264 180.495 299.331L179.94 299.426C179.38 299.522 178.811 299.605 178.256 299.728L178.187 299.743L178.118 299.756C177.18 299.934 176.23 300.133 175.29 300.305ZM111.694 300.54C112.607 300.814 113.522 301.081 114.469 301.29C115.599 301.539 116.726 301.807 117.854 302.065L118.039 302.107C119.347 302.405 120.653 302.714 121.962 303.003L126.084 303.731C127.539 303.988 129.002 304.198 130.457 304.452C133.188 304.785 135.968 305.279 138.711 305.401L138.811 305.405L139.676 305.482C141.139 305.613 142.604 305.745 144.069 305.824C144.839 305.866 145.61 305.891 146.381 305.891C147.389 305.891 148.395 305.917 149.402 305.948L149.319 302.254C148.434 302.222 147.549 302.188 146.663 302.188C145.204 302.188 143.734 302.084 142.278 301.985H142.265L141.211 301.915C140.808 301.888 140.405 301.863 140.001 301.842L139.397 301.809C138.21 301.745 137.024 301.646 135.841 301.52C134.224 301.348 132.61 301.136 130.997 300.922C129.513 300.786 128.05 300.535 126.583 300.277L126.56 300.274L126.475 300.259C125.664 300.115 124.854 299.971 124.045 299.818C123.487 299.713 122.931 299.604 122.482 299.503C120.047 299.026 117.633 298.447 115.228 297.842C114.37 297.626 113.51 297.399 112.654 297.157L111.694 300.54ZM55.1357 271.118C55.353 271.292 55.5663 271.471 55.7802 271.652L55.797 271.667C56.0048 271.843 56.2129 272.02 56.4282 272.187C56.6047 272.325 56.7857 272.455 56.9718 272.578L57.1466 272.694L57.3097 272.826C59.2519 274.396 61.2521 275.919 63.2829 277.373L63.6404 277.629L63.6988 277.691C64.6689 278.436 65.6365 279.16 66.6818 279.805L66.8813 279.928L67.0671 280.072C67.5554 280.449 68.1021 280.782 68.6322 281.097L70.0408 281.933C70.2338 282.048 70.4251 282.165 70.6164 282.282L70.6754 282.319L70.7331 282.357C75.1766 285.296 79.9593 287.948 84.7808 290.215L84.9347 290.287L85.0827 290.371C85.903 290.836 86.7371 291.231 87.5894 291.604L89.0904 288.149C88.259 287.772 87.4442 287.37 86.6434 286.906C81.9843 284.535 77.3554 282.077 73.1145 279.154L69.7428 276.925C69.1233 276.516 68.5196 276.083 67.9163 275.65C67.6364 275.45 67.3559 275.25 67.0736 275.052C66.8408 274.889 66.6063 274.727 66.369 274.57C65.1901 273.79 64.0624 272.949 62.9581 272.067C62.4602 271.669 61.9674 271.265 61.475 270.86L60.8548 270.349L60.4816 270.046C59.6674 269.448 58.8302 268.841 58.0703 268.178L55.1357 271.118ZM15.1751 220.354C15.6163 221.203 16.0741 222.034 16.5212 222.823C17.1547 223.939 17.733 225.089 18.3109 226.236C18.9242 227.453 19.6701 228.541 20.2617 229.788C21.6459 232.214 23.1867 234.57 24.7581 236.878L24.8147 236.963C26.3782 239.377 28.0457 241.714 29.7204 244.051C30.5521 245.15 31.3989 246.238 32.246 247.325C32.9524 248.232 33.6591 249.138 34.353 250.054C34.9966 250.775 35.6397 251.497 36.2822 252.219L39.0853 249.636C38.518 248.971 37.9463 248.31 37.3725 247.652C36.5229 246.678 35.729 245.655 34.9426 244.63C34.2184 243.686 33.499 242.738 32.7556 241.809L32.6347 241.658L32.5276 241.498C31.5544 240.04 30.515 238.621 29.4821 237.204L29.47 237.188C28.9227 236.437 28.3757 235.686 27.8348 234.931L27.7267 234.78L27.6312 234.62C27.1333 233.786 26.6082 232.969 26.0842 232.151C25.0932 230.605 24.0915 229.048 23.2636 227.406C22.7458 226.379 21.9756 225.394 21.3994 224.378C21.2706 224.151 21.1439 223.922 21.0185 223.693L20.7603 223.219C20.4719 222.689 20.1803 222.14 19.852 221.634L19.7442 221.468L19.6515 221.293C19.2261 220.49 18.7968 219.668 18.3762 218.837L15.1751 220.354ZM0.312488 166.512C0.518865 167.854 0.631838 169.214 0.748247 170.567C0.854698 171.802 0.961154 173.038 1.12289 174.267C1.49787 177.118 1.85912 179.963 2.47138 182.775C3.62345 188.065 4.77381 193.506 6.29536 198.699C6.53711 199.524 6.78297 200.349 7.03605 201.17C7.06318 201.257 7.08997 201.344 7.1171 201.432L10.5702 200.21C10.5455 200.138 10.5208 200.067 10.4967 199.996C10.2316 199.223 9.96345 198.453 9.71999 197.673C8.16375 192.68 6.98558 187.41 6.03336 182.268C5.42282 179.698 5.04886 177.086 4.68212 174.472L4.59215 173.831C4.41496 172.566 4.29513 171.298 4.17975 170.026C4.08222 168.949 3.99224 167.851 3.81402 166.784L3.76526 166.491L3.75566 166.195C3.72853 165.358 3.6935 164.503 3.64474 163.644L0.0745129 163.796C0.146281 164.705 0.226984 165.612 0.312488 166.512Z" fill="#1A98FF"/>
</svg>
