<svg width="170" height="171" viewBox="0 0 170 171" fill="none" xmlns="http://www.w3.org/2000/svg">
<g filter="url(#filter05_d)">
<path opacity="0.33" d="M14.2828 60.5772C14.2828 60.5772 14.1489 60.9311 14.0151 61.521C13.8812 62.111 13.4798 62.9959 13.2121 63.9987C12.9444 65.0606 12.5429 66.2405 12.2752 67.5973C12.1414 68.2462 12.0075 68.9542 11.7399 69.6621C11.606 70.016 11.606 70.37 11.4722 70.7239L11.3383 71.7858C11.0706 73.2017 10.803 74.6175 10.6691 75.9743C10.5353 76.6233 10.5353 77.2722 10.4015 77.9211C10.2676 78.511 10.2676 79.101 10.2676 79.6909C10.1338 80.7528 10.1338 81.6966 10.1338 82.2866C10.1338 82.9355 10.1338 83.2895 10.1338 83.2895L16.1565 83.4664C16.1565 83.4664 16.1565 83.1125 16.1565 82.5225C16.1565 81.9326 16.2903 81.1067 16.2903 80.1038C16.2903 79.6319 16.4242 79.042 16.4242 78.511C16.558 77.9211 16.558 77.3312 16.6918 76.7412C16.8257 75.5024 17.0933 74.2045 17.361 72.8477L17.4949 71.8448C17.6287 71.5499 17.6287 71.1959 17.7626 70.9009C17.8964 70.252 18.0302 69.6031 18.1641 69.0131C18.4317 67.7743 18.8333 66.7124 19.1009 65.7095C19.3686 64.7656 19.6363 63.9398 19.904 63.4088C20.0378 62.8779 20.1716 62.5239 20.1716 62.5239L14.2828 60.5772Z" fill="#1A98FF"/>
<path opacity="0.33" d="M30.8788 33.7943C30.8788 33.7943 30.6112 34.0302 30.2096 34.5022C29.942 34.7381 29.6743 35.0331 29.4066 35.3281C29.1389 35.682 28.7374 36.036 28.4698 36.4489C27.8006 37.2748 26.8637 38.2187 26.0607 39.2806C25.6592 39.8115 25.2576 40.3425 24.7223 40.9324C24.3208 41.5223 23.9193 42.1123 23.5178 42.7022C21.7779 45.0619 20.3057 47.5396 19.235 49.4274C18.6996 50.3713 18.2981 51.1972 18.0304 51.7281C17.7627 52.3181 17.6289 52.613 17.6289 52.613L22.9824 55.2677C22.9824 55.2677 23.1162 54.9727 23.3839 54.4418C23.6516 53.9109 24.0531 53.144 24.4546 52.3181C25.3915 50.5483 26.7299 48.3065 28.3359 46.1238C28.7374 45.5928 29.1389 45.0619 29.5405 44.472C29.942 43.941 30.3435 43.4691 30.745 42.9382C31.548 41.9353 32.2172 41.0504 32.8864 40.2835C33.1541 39.9295 33.5556 39.5756 33.8233 39.2806C34.0909 38.9856 34.3586 38.7497 34.4925 38.5137C34.894 38.1007 35.1616 37.8648 35.1616 37.8648L30.8788 33.7943Z" fill="#1A98FF"/>
<path opacity="0.33" d="M56.8422 16.1554C56.8422 16.1554 55.5038 16.6863 53.4963 17.5712C52.9609 17.8072 52.4256 18.0432 51.8902 18.2791C51.3549 18.5741 50.8195 18.8691 50.1503 19.164C48.9458 19.754 47.7413 20.5209 46.4029 21.2288C45.1983 21.9367 43.9938 22.7626 42.7892 23.4705C41.7185 24.2374 40.6479 25.0043 39.711 25.5943C37.9711 26.9511 36.9004 27.836 36.9004 27.836L40.6479 32.4965C40.6479 32.4965 41.7186 31.6706 43.1908 30.4317C43.9938 29.8418 44.9307 29.1929 46.0014 28.4259C47.0721 27.777 48.1428 27.0101 49.3473 26.3612C50.5519 25.7123 51.6226 25.0043 52.6933 24.4734C53.2286 24.1784 53.7639 23.8835 54.2993 23.6475C54.8346 23.4115 55.37 23.1756 55.7715 22.9986C57.5114 22.1727 58.8498 21.7008 58.8498 21.7008L56.8422 16.1554Z" fill="#1A98FF"/>
<path opacity="0.33" d="M87.7593 10.905C87.7593 10.905 87.3578 10.905 86.8225 10.905C86.1533 10.905 85.3502 10.846 84.1457 10.846C83.075 10.905 81.8704 10.905 80.3982 10.964C79.0598 11.082 77.5877 11.141 76.1154 11.3179C73.3049 11.6719 70.3604 12.1438 68.3528 12.6158C67.2821 12.8517 66.4791 13.0877 65.8099 13.2057C65.1407 13.3827 64.873 13.5007 64.873 13.5007L66.4791 19.282C66.4791 19.282 66.7468 19.164 67.416 19.046C67.9513 18.928 68.7544 18.751 69.8251 18.5151C71.6988 18.0431 74.3755 17.6302 77.0523 17.3352C78.3907 17.1582 79.729 17.0992 80.9336 16.9813C82.1381 16.9223 83.3426 16.9223 84.2795 16.8633C85.2164 16.8633 86.1533 16.9223 86.6886 16.9223C87.224 16.9223 87.6255 16.9223 87.6255 16.9223L87.7593 10.905Z" fill="#1A98FF"/>
<path opacity="0.33" d="M118.141 18.928C118.141 18.928 116.937 18.2201 114.929 17.3942C114.394 17.1582 113.858 16.9222 113.323 16.6863C112.788 16.4503 112.118 16.2143 111.449 15.9783C110.245 15.4474 108.772 15.0345 107.434 14.5625C106.096 14.0906 104.623 13.7366 103.419 13.3826C102.081 13.0287 100.876 12.7927 99.8053 12.5567C98.7346 12.3208 97.7977 12.2028 97.2624 12.0848C96.5932 11.9668 96.3255 11.9078 96.3255 11.9078L95.3887 17.8661C95.3887 17.8661 95.6563 17.9251 96.3255 18.0431C96.8609 18.1611 97.6639 18.2791 98.7346 18.456C99.6715 18.692 100.876 18.928 102.081 19.2229C103.285 19.5769 104.623 19.8719 105.828 20.3438C107.033 20.7568 108.371 21.1697 109.442 21.6417C109.977 21.8776 110.646 22.1136 111.048 22.2906C111.583 22.5266 112.118 22.7625 112.52 22.9395C114.394 23.7654 115.464 24.3553 115.464 24.3553L118.141 18.928Z" fill="#1A98FF"/>
<path opacity="0.33" d="M142.5 38.7497C142.5 38.7497 142.232 38.4547 141.83 37.9828C141.429 37.5109 140.894 36.8029 140.091 35.977C139.421 35.1511 138.485 34.2662 137.548 33.2634C136.611 32.2605 135.54 31.3166 134.469 30.3137C133.399 29.3698 132.328 28.367 131.257 27.5411C130.187 26.7151 129.25 25.8892 128.313 25.2993C127.376 24.6504 126.707 24.1195 126.171 23.7655C125.636 23.4115 125.368 23.2346 125.368 23.2346L122.022 28.249C122.022 28.249 122.29 28.426 122.825 28.7799C123.361 29.1339 124.03 29.6058 124.833 30.1957C125.636 30.7857 126.573 31.4936 127.51 32.2605C128.447 33.0274 129.517 33.9123 130.454 34.7972C131.391 35.7411 132.462 36.626 133.265 37.5109C134.068 38.4548 135.005 39.2217 135.54 39.9886C136.209 40.7555 136.745 41.4044 137.146 41.8173C137.548 42.2893 137.681 42.5253 137.681 42.5253L142.5 38.7497Z" fill="#1A98FF"/>
<path opacity="0.33" d="M156.687 66.8893C156.687 66.8893 156.285 65.4735 155.75 63.4087C155.348 62.4058 154.947 61.167 154.545 59.8691C154.01 58.6303 153.609 57.2145 152.939 55.9166C152.404 54.6188 151.735 53.2619 151.199 52.0821C150.53 50.8432 149.995 49.7224 149.46 48.7785C148.389 46.8907 147.586 45.6518 147.586 45.6518L142.5 48.8964C142.5 48.8964 143.303 50.0173 144.24 51.7281C144.775 52.613 145.311 53.6159 145.846 54.7368C146.381 55.8576 146.917 57.0965 147.452 58.2763C147.987 59.5152 148.389 60.754 148.924 61.9339C149.326 63.1138 149.727 64.2346 149.995 65.1785C150.53 67.1253 150.932 68.3641 150.932 68.3641L156.687 66.8893Z" fill="#1A98FF"/>
<path opacity="0.33" d="M158.024 98.4506C158.024 98.4506 158.024 98.0966 158.158 97.4477C158.292 96.7988 158.426 95.9139 158.56 94.852C158.694 93.7901 158.828 92.4923 158.961 91.1354C159.095 89.7786 159.095 88.3038 159.095 86.8879V85.8261C159.095 85.4721 159.095 85.1181 159.095 84.7642C159.095 84.0563 159.095 83.3484 159.095 82.6404C159.095 81.2836 158.961 80.0448 158.828 78.9239C158.828 77.862 158.56 76.9181 158.56 76.3282C158.426 75.6793 158.426 75.3253 158.426 75.3253L152.537 76.1512C152.537 76.1512 152.537 76.5052 152.671 77.0361C152.671 77.626 152.939 78.4519 152.939 79.4548C152.939 80.4577 153.072 81.6376 153.206 82.8764C153.206 83.5253 153.206 84.1743 153.206 84.8232C153.206 85.1771 153.206 85.4721 153.206 85.8261V86.8289C153.206 88.1858 153.206 89.4836 153.073 90.7225C152.939 91.9613 152.939 93.1412 152.805 94.1441C152.671 95.147 152.537 95.9729 152.537 96.5628C152.403 97.1527 152.403 97.4477 152.403 97.4477L158.024 98.4506Z" fill="#1A98FF"/>
<path opacity="0.33" d="M146.247 127.711C146.247 127.711 147.05 126.472 148.254 124.644C148.79 123.7 149.459 122.579 150.128 121.399C150.797 120.16 151.467 118.921 152.002 117.564C152.537 116.267 153.206 114.91 153.742 113.671C154.277 112.432 154.679 111.252 155.08 110.19C155.482 109.128 155.749 108.302 155.883 107.713C156.017 107.123 156.151 106.769 156.151 106.769L150.396 105.058C150.396 105.058 150.262 105.353 150.128 105.943C149.994 106.533 149.727 107.3 149.325 108.243C149.058 109.187 148.656 110.308 148.121 111.429C147.719 112.609 147.05 113.789 146.515 115.028C145.979 116.267 145.31 117.387 144.775 118.508C144.106 119.57 143.57 120.632 143.035 121.458C141.964 123.169 141.295 124.29 141.295 124.29L146.247 127.711Z" fill="#1A98FF"/>
<path opacity="0.33" d="M123.628 149.538C123.628 149.538 123.896 149.361 124.431 149.008C124.966 148.654 125.769 148.182 126.573 147.592C128.312 146.353 130.721 144.642 132.863 142.695C133.398 142.223 133.934 141.751 134.469 141.279C135.004 140.807 135.54 140.277 135.941 139.864C136.878 138.92 137.815 138.035 138.484 137.209C138.886 136.796 139.153 136.442 139.555 136.147C139.822 135.793 140.09 135.498 140.358 135.262C140.759 134.79 141.027 134.495 141.027 134.495L136.476 130.602C136.476 130.602 136.209 130.838 135.941 131.31C135.807 131.546 135.54 131.782 135.272 132.077C135.004 132.371 134.737 132.725 134.335 133.079C133.666 133.787 132.863 134.672 131.926 135.498C131.524 135.911 130.989 136.383 130.588 136.855C130.052 137.268 129.651 137.74 129.115 138.153C127.108 139.923 124.966 141.515 123.36 142.636C122.557 143.226 121.888 143.639 121.353 143.993C120.817 144.288 120.55 144.465 120.55 144.465L123.628 149.538Z" fill="#1A98FF"/>
<path opacity="0.33" d="M94.1849 160.098C94.1849 160.098 94.5864 160.039 95.1217 159.98C95.7909 159.921 96.5939 159.744 97.6646 159.567C98.2 159.449 98.7353 159.39 99.4045 159.272C100.074 159.154 100.609 158.977 101.278 158.859C101.947 158.682 102.617 158.564 103.286 158.387C103.955 158.21 104.624 157.974 105.293 157.797C108.104 157.031 110.781 155.969 112.788 155.143C113.859 154.73 114.662 154.317 115.197 154.081C115.733 153.845 116.134 153.668 116.134 153.668L113.591 148.241C113.591 148.241 113.324 148.359 112.788 148.595C112.253 148.83 111.45 149.184 110.647 149.538C108.773 150.305 106.364 151.249 103.821 151.957C103.152 152.134 102.483 152.311 101.947 152.488C101.278 152.665 100.743 152.783 100.074 152.96C99.4045 153.078 98.8692 153.255 98.3338 153.373C97.7985 153.491 97.2631 153.55 96.7278 153.668C95.7909 153.845 94.9879 154.022 94.3187 154.081C93.7833 154.14 93.3818 154.199 93.3818 154.199L94.1849 160.098Z" fill="#1A98FF"/>
<path opacity="0.33" d="M62.8662 157.562C62.8662 157.562 63.2677 157.68 63.8031 157.857C64.4723 158.034 65.2753 158.329 66.346 158.565C67.4167 158.8 68.6213 159.095 69.9596 159.39C70.6288 159.508 71.298 159.626 71.9672 159.744C72.6364 159.862 73.4394 159.98 74.1086 160.098C75.5808 160.275 76.9192 160.511 78.2575 160.57C79.5959 160.688 80.8005 160.806 82.005 160.806C83.0757 160.806 84.0126 160.865 84.6818 160.865C85.351 160.865 85.6186 160.865 85.6186 160.865L85.4848 154.848C85.4848 154.848 85.2171 154.848 84.5479 154.848C84.0126 154.848 83.0757 154.789 82.1389 154.789C81.202 154.789 79.9975 154.671 78.7929 154.612C77.5884 154.553 76.25 154.376 74.9116 154.199C74.2424 154.14 73.5732 154.022 72.904 153.904C72.2348 153.786 71.5657 153.668 71.0303 153.55C69.8258 153.314 68.6212 153.019 67.6844 152.783C66.7475 152.547 65.9445 152.311 65.4092 152.134C64.8738 151.957 64.4723 151.898 64.4723 151.898L62.8662 157.562Z" fill="#1A98FF"/>
<path opacity="0.33" d="M35.4287 142.223C35.4287 142.223 35.6964 142.459 36.2317 142.872C36.4994 143.108 36.7671 143.344 37.0348 143.639C37.4363 143.934 37.704 144.229 38.2393 144.583C39.0423 145.232 40.1131 146.058 41.1838 146.825C41.7191 147.238 42.2544 147.651 42.9236 148.064C43.459 148.477 44.1282 148.83 44.7973 149.243C47.2064 150.836 49.7494 152.193 51.7569 153.137C52.6938 153.668 53.4968 153.963 54.166 154.258C54.7013 154.494 55.1029 154.671 55.1029 154.671L57.5119 149.125C57.5119 149.125 57.2443 149.007 56.7089 148.771C56.1736 148.536 55.3706 148.241 54.5675 147.769C52.8276 146.884 50.4185 145.645 48.2771 144.17C47.7418 143.816 47.2065 143.462 46.6711 143.108C46.1358 142.754 45.6004 142.341 45.065 141.987C43.9943 141.279 43.1913 140.571 42.3883 139.923C41.9868 139.628 41.5853 139.333 41.3176 139.097C41.0499 138.802 40.7822 138.625 40.5146 138.389C40.1131 138.035 39.8454 137.799 39.8454 137.799L35.4287 142.223Z" fill="#1A98FF"/>
<path opacity="0.33" d="M16.6924 116.915C16.6924 116.915 17.2277 118.272 18.2985 120.16C18.5661 120.632 18.8338 121.163 19.1015 121.694C19.3692 122.225 19.7706 122.815 20.0383 123.405C20.7075 124.584 21.5106 125.823 22.3136 127.003C23.1166 128.242 23.9196 129.363 24.7226 130.484C25.5257 131.546 26.3287 132.549 26.9979 133.433C28.4701 135.085 29.407 136.147 29.407 136.147L33.8236 132.077C33.8236 132.077 33.0206 131.074 31.6822 129.54C31.013 128.773 30.3438 127.829 29.5408 126.826C28.8716 125.823 28.0686 124.761 27.2656 123.641C26.5964 122.52 25.7934 121.399 25.258 120.337C24.9904 119.806 24.5888 119.275 24.3211 118.803C24.0535 118.331 23.7858 117.8 23.5181 117.387C22.5812 115.618 22.0459 114.379 22.0459 114.379L16.6924 116.915Z" fill="#1A98FF"/>
<path opacity="0.33" d="M10 86.121C10 86.121 10 87.5958 10.1338 89.7196C10.2677 90.7815 10.2677 92.0793 10.4015 93.4361C10.5354 94.793 10.6692 96.2088 10.9369 97.6836C11.4722 100.574 12.0076 103.406 12.5429 105.471C12.8106 106.533 13.0783 107.417 13.2121 108.007C13.346 108.597 13.4798 108.951 13.4798 108.951L19.2348 107.123C19.2348 107.123 19.101 106.828 18.9671 106.238C18.8333 105.648 18.5656 104.881 18.298 103.937C17.7626 101.99 17.2272 99.3944 16.8257 96.7397C16.5581 95.4419 16.4242 94.0851 16.2904 92.8462C16.1565 91.6074 16.1565 90.4275 16.0227 89.4246C16.0227 87.4188 15.8889 86.062 15.8889 86.062L10 86.121Z" fill="#1A98FF"/>
</g>
<defs>
<filter id="filter05_d" x="0" y="0.845947" width="169.095" height="170.019" filterUnits="userSpaceOnUse" color-interpolation-filters="sRGB">
<feFlood flood-opacity="0" result="BackgroundImageFix"/>
<feColorMatrix in="SourceAlpha" type="matrix" values="0 0 0 0 0 0 0 0 0 0 0 0 0 0 0 0 0 0 127 0"/>
<feOffset/>
<feGaussianBlur stdDeviation="5"/>
<feColorMatrix type="matrix" values="0 0 0 0 0.101961 0 0 0 0 0.596078 0 0 0 0 1 0 0 0 1 0"/>
<feBlend mode="normal" in2="BackgroundImageFix" result="effect1_dropShadow"/>
<feBlend mode="normal" in="SourceGraphic" in2="effect1_dropShadow" result="shape"/>
</filter>
</defs>
</svg>
