<svg width="269" height="134" viewBox="0 0 269 134" fill="none" xmlns="http://www.w3.org/2000/svg">
<path d="M16.6826 6.12305H15.8127C5.95392 25.1157 0.589589 46.718 1.02454 69.4802C1.45948 92.2424 7.54873 113.7 17.9874 132.402H18.8573C8.41863 113.7 2.18439 92.3874 1.74945 69.4802C1.45948 46.718 6.82382 25.1157 16.6826 6.12305Z" stroke="white" stroke-miterlimit="10"/>
<path d="M252.713 128.488H253.583C263.442 109.495 268.806 87.8929 268.371 65.1307C267.936 42.3686 261.847 20.9112 251.408 2.2085H250.538C260.977 20.9112 267.211 42.2236 267.646 65.1307C268.081 87.8929 262.572 109.495 252.713 128.488Z" stroke="white" stroke-miterlimit="10"/>
<path d="M16.6824 6.12283C16.8274 5.83287 16.9723 5.54289 17.1173 5.25293H16.2475C16.1025 5.54289 15.9575 5.83287 15.8125 6.12283H16.6824Z" stroke="white" stroke-miterlimit="10"/>
<path d="M18.8572 132.402H17.9873C18.1323 132.692 18.2773 132.982 18.4223 133.272H19.2921C19.1472 132.982 19.0022 132.692 18.8572 132.402Z" stroke="white" stroke-miterlimit="10"/>
<path d="M250.684 2.20826H251.554C251.409 1.91829 251.264 1.62834 251.119 1.33838H250.249C250.394 1.62834 250.539 1.91829 250.684 2.20826Z" stroke="white" stroke-miterlimit="10"/>
<path d="M252.713 128.488C252.568 128.778 252.423 129.068 252.278 129.358H253.148C253.293 129.068 253.438 128.778 253.583 128.488H252.713Z" stroke="white" stroke-miterlimit="10"/>
</svg>
