<svg width="150" height="151" viewBox="0 0 150 151" fill="none" xmlns="http://www.w3.org/2000/svg">
<path opacity="0.7" d="M4.28277 50.5772C4.28277 50.5772 4.14891 50.9311 4.01507 51.521C3.88124 52.111 3.47976 52.9959 3.21208 53.9987C2.94441 55.0606 2.54288 56.2405 2.2752 57.5973C2.14136 58.2462 2.00753 58.9542 1.73986 59.6621C1.60602 60.016 1.606 60.37 1.47217 60.7239L1.33832 61.7858C1.07064 63.2017 0.802969 64.6175 0.669132 65.9743C0.535294 66.6233 0.535318 67.2722 0.401481 67.9211C0.267643 68.511 0.267635 69.101 0.267635 69.6909C0.133797 70.7528 0.133789 71.6966 0.133789 72.2866C0.133789 72.9355 0.133789 73.2895 0.133789 73.2895L6.15649 73.4664C6.15649 73.4664 6.15649 73.1125 6.15649 72.5225C6.15649 71.9326 6.29033 71.1067 6.29033 70.1038C6.29033 69.6319 6.42418 69.042 6.42418 68.511C6.55801 67.9211 6.55799 67.3312 6.69183 66.7412C6.82567 65.5024 7.09334 64.2045 7.36102 62.8477L7.49486 61.8448C7.6287 61.5499 7.62872 61.1959 7.76255 60.9009C7.89639 60.252 8.03021 59.6031 8.16405 59.0131C8.43173 57.7743 8.83326 56.7124 9.10093 55.7095C9.36861 54.7656 9.63629 53.9398 9.90396 53.4088C10.0378 52.8779 10.1716 52.5239 10.1716 52.5239L4.28277 50.5772Z" fill="#1A98FF"/>
<path opacity="0.7" d="M20.8788 23.7943C20.8788 23.7943 20.6112 24.0302 20.2096 24.5022C19.942 24.7381 19.6743 25.0331 19.4066 25.3281C19.1389 25.682 18.7374 26.036 18.4698 26.4489C17.8006 27.2748 16.8637 28.2187 16.0607 29.2806C15.6592 29.8115 15.2576 30.3425 14.7223 30.9324C14.3208 31.5223 13.9193 32.1123 13.5178 32.7022C11.7779 35.0619 10.3057 37.5396 9.23497 39.4274C8.69962 40.3713 8.29808 41.1972 8.0304 41.7281C7.76273 42.3181 7.62891 42.613 7.62891 42.613L12.9824 45.2677C12.9824 45.2677 13.1162 44.9727 13.3839 44.4418C13.6516 43.9109 14.0531 43.144 14.4546 42.3181C15.3915 40.5483 16.7299 38.3065 18.3359 36.1238C18.7374 35.5928 19.1389 35.0619 19.5405 34.472C19.942 33.941 20.3435 33.4691 20.745 32.9382C21.548 31.9353 22.2172 31.0504 22.8864 30.2835C23.1541 29.9295 23.5556 29.5756 23.8233 29.2806C24.0909 28.9856 24.3586 28.7497 24.4925 28.5137C24.894 28.1007 25.1616 27.8648 25.1616 27.8648L20.8788 23.7943Z" fill="#1A98FF"/>
<path opacity="0.7" d="M46.8422 6.1554C46.8422 6.1554 45.5038 6.68635 43.4963 7.57124C42.9609 7.80721 42.4256 8.04317 41.8902 8.27915C41.3549 8.57411 40.8195 8.86908 40.1503 9.16404C38.9458 9.75397 37.7413 10.5209 36.4029 11.2288C35.1983 11.9367 33.9938 12.7626 32.7892 13.4705C31.7185 14.2374 30.6479 15.0043 29.711 15.5943C27.9711 16.9511 26.9004 17.836 26.9004 17.836L30.6479 22.4965C30.6479 22.4965 31.7186 21.6706 33.1908 20.4317C33.9938 19.8418 34.9307 19.1929 36.0014 18.4259C37.0721 17.777 38.1428 17.0101 39.3473 16.3612C40.5519 15.7123 41.6226 15.0043 42.6933 14.4734C43.2286 14.1784 43.7639 13.8835 44.2993 13.6475C44.8346 13.4115 45.37 13.1756 45.7715 12.9986C47.5114 12.1727 48.8498 11.7008 48.8498 11.7008L46.8422 6.1554Z" fill="#1A98FF"/>
<path opacity="0.7" d="M77.7593 0.904971C77.7593 0.904971 77.3578 0.904971 76.8225 0.904971C76.1533 0.904971 75.3502 0.845974 74.1457 0.845974C73.075 0.904967 71.8704 0.904975 70.3982 0.963968C69.0598 1.08195 67.5877 1.14095 66.1154 1.31793C63.3049 1.67189 60.3604 2.14382 58.3528 2.61576C57.2821 2.85174 56.4791 3.08771 55.8099 3.20569C55.1407 3.38267 54.873 3.50066 54.873 3.50066L56.4791 9.28198C56.4791 9.28198 56.7468 9.164 57.416 9.04601C57.9513 8.92803 58.7544 8.75103 59.8251 8.51506C61.6988 8.04312 64.3755 7.63017 67.0523 7.3352C68.3907 7.15822 69.729 7.09925 70.9336 6.98126C72.1381 6.92227 73.3426 6.92226 74.2795 6.86327C75.2164 6.86327 76.1533 6.92226 76.6886 6.92226C77.224 6.92226 77.6255 6.92226 77.6255 6.92226L77.7593 0.904971Z" fill="#1A98FF"/>
<path opacity="0.7" d="M108.141 8.92798C108.141 8.92798 106.937 8.22007 104.929 7.39416C104.394 7.15819 103.858 6.92223 103.323 6.68626C102.788 6.45029 102.118 6.21431 101.449 5.97834C100.245 5.4474 98.7724 5.03445 97.4341 4.56251C96.0957 4.09056 94.6235 3.73661 93.4189 3.38265C92.0806 3.02869 90.876 2.79272 89.8053 2.55675C88.7346 2.32078 87.7977 2.20278 87.2624 2.08479C86.5932 1.96681 86.3255 1.90782 86.3255 1.90782L85.3887 7.86612C85.3887 7.86612 85.6563 7.9251 86.3255 8.04309C86.8609 8.16108 87.6639 8.27907 88.7346 8.45605C89.6715 8.69202 90.876 8.92798 92.0806 9.22295C93.2851 9.57691 94.6235 9.87187 95.828 10.3438C97.0325 10.7568 98.3709 11.1697 99.4416 11.6417C99.977 11.8776 100.646 12.1136 101.048 12.2906C101.583 12.5266 102.118 12.7625 102.52 12.9395C104.394 13.7654 105.464 14.3553 105.464 14.3553L108.141 8.92798Z" fill="#1A98FF"/>
<path opacity="0.7" d="M132.5 28.7497C132.5 28.7497 132.232 28.4547 131.83 27.9828C131.429 27.5109 130.894 26.8029 130.091 25.977C129.421 25.1511 128.485 24.2662 127.548 23.2634C126.611 22.2605 125.54 21.3166 124.469 20.3137C123.399 19.3698 122.328 18.367 121.257 17.5411C120.187 16.7151 119.25 15.8892 118.313 15.2993C117.376 14.6504 116.707 14.1195 116.171 13.7655C115.636 13.4115 115.368 13.2346 115.368 13.2346L112.022 18.249C112.022 18.249 112.29 18.426 112.825 18.7799C113.361 19.1339 114.03 19.6058 114.833 20.1957C115.636 20.7857 116.573 21.4936 117.51 22.2605C118.447 23.0274 119.517 23.9123 120.454 24.7972C121.391 25.7411 122.462 26.626 123.265 27.5109C124.068 28.4548 125.005 29.2217 125.54 29.9886C126.209 30.7555 126.745 31.4044 127.146 31.8173C127.548 32.2893 127.681 32.5253 127.681 32.5253L132.5 28.7497Z" fill="#1A98FF"/>
<path opacity="0.7" d="M146.687 56.8893C146.687 56.8893 146.285 55.4735 145.75 53.4087C145.348 52.4058 144.947 51.167 144.545 49.8691C144.01 48.6303 143.609 47.2145 142.939 45.9166C142.404 44.6188 141.735 43.2619 141.199 42.0821C140.53 40.8432 139.995 39.7224 139.46 38.7785C138.389 36.8907 137.586 35.6518 137.586 35.6518L132.5 38.8964C132.5 38.8964 133.303 40.0173 134.24 41.7281C134.775 42.613 135.311 43.6159 135.846 44.7368C136.381 45.8576 136.917 47.0965 137.452 48.2763C137.987 49.5152 138.389 50.754 138.924 51.9339C139.326 53.1138 139.727 54.2346 139.995 55.1785C140.53 57.1253 140.932 58.3641 140.932 58.3641L146.687 56.8893Z" fill="#1A98FF"/>
<path opacity="0.7" d="M148.024 88.4506C148.024 88.4506 148.024 88.0966 148.158 87.4477C148.292 86.7988 148.426 85.9139 148.56 84.852C148.694 83.7901 148.828 82.4923 148.961 81.1354C149.095 79.7786 149.095 78.3038 149.095 76.8879V75.8261C149.095 75.4721 149.095 75.1181 149.095 74.7642C149.095 74.0563 149.095 73.3484 149.095 72.6404C149.095 71.2836 148.961 70.0448 148.828 68.9239C148.828 67.862 148.56 66.9181 148.56 66.3282C148.426 65.6793 148.426 65.3253 148.426 65.3253L142.537 66.1512C142.537 66.1512 142.537 66.5052 142.671 67.0361C142.671 67.626 142.939 68.4519 142.939 69.4548C142.939 70.4577 143.072 71.6376 143.206 72.8764C143.206 73.5253 143.206 74.1743 143.206 74.8232C143.206 75.1771 143.206 75.4721 143.206 75.8261V76.8289C143.206 78.1858 143.206 79.4836 143.073 80.7225C142.939 81.9613 142.939 83.1412 142.805 84.1441C142.671 85.147 142.537 85.9729 142.537 86.5628C142.403 87.1527 142.403 87.4477 142.403 87.4477L148.024 88.4506Z" fill="#1A98FF"/>
<path opacity="0.7" d="M136.247 117.711C136.247 117.711 137.05 116.472 138.254 114.644C138.79 113.7 139.459 112.579 140.128 111.399C140.797 110.16 141.467 108.921 142.002 107.564C142.537 106.267 143.206 104.91 143.742 103.671C144.277 102.432 144.679 101.252 145.08 100.19C145.482 99.1284 145.749 98.3025 145.883 97.7126C146.017 97.1226 146.151 96.7687 146.151 96.7687L140.396 95.0579C140.396 95.0579 140.262 95.3528 140.128 95.9428C139.994 96.5327 139.727 97.2996 139.325 98.2435C139.058 99.1874 138.656 100.308 138.121 101.429C137.719 102.609 137.05 103.789 136.515 105.028C135.979 106.267 135.31 107.387 134.775 108.508C134.106 109.57 133.57 110.632 133.035 111.458C131.964 113.169 131.295 114.29 131.295 114.29L136.247 117.711Z" fill="#1A98FF"/>
<path opacity="0.7" d="M113.628 139.538C113.628 139.538 113.896 139.361 114.431 139.008C114.966 138.654 115.769 138.182 116.573 137.592C118.312 136.353 120.721 134.642 122.863 132.695C123.398 132.223 123.934 131.751 124.469 131.279C125.004 130.807 125.54 130.277 125.941 129.864C126.878 128.92 127.815 128.035 128.484 127.209C128.886 126.796 129.153 126.442 129.555 126.147C129.822 125.793 130.09 125.498 130.358 125.262C130.759 124.79 131.027 124.495 131.027 124.495L126.476 120.602C126.476 120.602 126.209 120.838 125.941 121.31C125.807 121.546 125.54 121.782 125.272 122.077C125.004 122.371 124.737 122.725 124.335 123.079C123.666 123.787 122.863 124.672 121.926 125.498C121.524 125.911 120.989 126.383 120.588 126.855C120.052 127.268 119.651 127.74 119.115 128.153C117.108 129.923 114.966 131.515 113.36 132.636C112.557 133.226 111.888 133.639 111.353 133.993C110.817 134.288 110.55 134.465 110.55 134.465L113.628 139.538Z" fill="#1A98FF"/>
<path opacity="0.7" d="M84.1849 150.098C84.1849 150.098 84.5864 150.039 85.1217 149.98C85.7909 149.921 86.5939 149.744 87.6646 149.567C88.2 149.449 88.7353 149.39 89.4045 149.272C90.0737 149.154 90.6091 148.977 91.2783 148.859C91.9474 148.682 92.6166 148.564 93.2858 148.387C93.955 148.21 94.6242 147.974 95.2934 147.797C98.104 147.031 100.781 145.969 102.788 145.143C103.859 144.73 104.662 144.317 105.197 144.081C105.733 143.845 106.134 143.668 106.134 143.668L103.591 138.241C103.591 138.241 103.324 138.359 102.788 138.595C102.253 138.83 101.45 139.184 100.647 139.538C98.7732 140.305 96.3641 141.249 93.8212 141.957C93.152 142.134 92.4828 142.311 91.9474 142.488C91.2783 142.665 90.7429 142.783 90.0737 142.96C89.4045 143.078 88.8692 143.255 88.3338 143.373C87.7985 143.491 87.2631 143.55 86.7278 143.668C85.7909 143.845 84.9879 144.022 84.3187 144.081C83.7833 144.14 83.3818 144.199 83.3818 144.199L84.1849 150.098Z" fill="#1A98FF"/>
<path opacity="0.7" d="M52.8662 147.562C52.8662 147.562 53.2677 147.68 53.8031 147.857C54.4723 148.034 55.2753 148.329 56.346 148.565C57.4167 148.8 58.6213 149.095 59.9596 149.39C60.6288 149.508 61.298 149.626 61.9672 149.744C62.6364 149.862 63.4394 149.98 64.1086 150.098C65.5808 150.275 66.9192 150.511 68.2575 150.57C69.5959 150.688 70.8005 150.806 72.005 150.806C73.0757 150.806 74.0126 150.865 74.6818 150.865C75.351 150.865 75.6186 150.865 75.6186 150.865L75.4848 144.848C75.4848 144.848 75.2171 144.848 74.5479 144.848C74.0126 144.848 73.0757 144.789 72.1389 144.789C71.202 144.789 69.9975 144.671 68.7929 144.612C67.5884 144.553 66.25 144.376 64.9116 144.199C64.2424 144.14 63.5732 144.022 62.904 143.904C62.2348 143.786 61.5657 143.668 61.0303 143.55C59.8258 143.314 58.6212 143.019 57.6844 142.783C56.7475 142.547 55.9445 142.311 55.4092 142.134C54.8738 141.957 54.4723 141.898 54.4723 141.898L52.8662 147.562Z" fill="#1A98FF"/>
<path opacity="0.7" d="M25.4287 132.223C25.4287 132.223 25.6964 132.459 26.2317 132.872C26.4994 133.108 26.7671 133.344 27.0348 133.639C27.4363 133.934 27.704 134.229 28.2393 134.583C29.0423 135.232 30.1131 136.058 31.1838 136.825C31.7191 137.238 32.2544 137.651 32.9236 138.064C33.459 138.477 34.1282 138.83 34.7973 139.243C37.2064 140.836 39.7494 142.193 41.7569 143.137C42.6938 143.668 43.4968 143.963 44.166 144.258C44.7013 144.494 45.1029 144.671 45.1029 144.671L47.5119 139.125C47.5119 139.125 47.2443 139.007 46.7089 138.771C46.1736 138.536 45.3706 138.241 44.5675 137.769C42.8276 136.884 40.4185 135.645 38.2771 134.17C37.7418 133.816 37.2065 133.462 36.6711 133.108C36.1358 132.754 35.6004 132.341 35.065 131.987C33.9943 131.279 33.1913 130.571 32.3883 129.923C31.9868 129.628 31.5853 129.333 31.3176 129.097C31.0499 128.802 30.7822 128.625 30.5146 128.389C30.1131 128.035 29.8454 127.799 29.8454 127.799L25.4287 132.223Z" fill="#1A98FF"/>
<path opacity="0.7" d="M6.69238 106.915C6.69238 106.915 7.22775 108.272 8.29845 110.16C8.56613 110.632 8.83381 111.163 9.10149 111.694C9.36916 112.225 9.77065 112.815 10.0383 113.405C10.7075 114.584 11.5106 115.823 12.3136 117.003C13.1166 118.242 13.9196 119.363 14.7226 120.484C15.5257 121.546 16.3287 122.549 16.9979 123.433C18.4701 125.085 19.407 126.147 19.407 126.147L23.8236 122.077C23.8236 122.077 23.0206 121.074 21.6822 119.54C21.013 118.773 20.3438 117.829 19.5408 116.826C18.8716 115.823 18.0686 114.761 17.2656 113.641C16.5964 112.52 15.7934 111.399 15.258 110.337C14.9904 109.806 14.5888 109.275 14.3211 108.803C14.0535 108.331 13.7858 107.8 13.5181 107.387C12.5812 105.618 12.0459 104.379 12.0459 104.379L6.69238 106.915Z" fill="#1A98FF"/>
<path opacity="0.7" d="M0 76.121C0 76.121 8.16681e-06 77.5958 0.133846 79.7196C0.267684 80.7815 0.2677 82.0793 0.401538 83.4361C0.535375 84.793 0.669205 86.2088 0.93688 87.6836C1.47223 90.5743 2.0076 93.4059 2.54295 95.4707C2.81062 96.5326 3.0783 97.4175 3.21214 98.0074C3.34597 98.5973 3.47979 98.9513 3.47979 98.9513L9.23483 97.1225C9.23483 97.1225 9.10098 96.8275 8.96714 96.2376C8.8333 95.6477 8.56563 94.8808 8.29795 93.9369C7.7626 91.9901 7.22724 89.3944 6.82573 86.7397C6.55805 85.4419 6.42423 84.0851 6.29039 82.8462C6.15655 81.6074 6.15653 80.4275 6.0227 79.4246C6.0227 77.4188 5.88889 76.062 5.88889 76.062L0 76.121Z" fill="#1A98FF"/>
</svg>
