<svg class="dashedCircle3" width="421" height="421" viewBox="0 0 421 421" fill="none" xmlns="http://www.w3.org/2000/svg">
  <g opacity="0.5">
    <path d="M389.342 321.345C389.342 321.345 390.331 319.96 391.717 317.388C393.102 314.816 395.476 311.056 397.652 306.506C402.401 297.404 407.941 284.741 411.898 271.485C415.855 258.426 418.427 244.774 419.417 234.485C419.812 231.913 420.01 229.539 420.01 227.56C420.208 225.384 420.208 223.603 420.406 222.218C420.604 220.635 420.604 219.646 420.604 218.656C420.604 217.865 420.604 217.469 420.604 217.469L398.246 216.678C398.246 216.678 398.246 217.073 398.246 217.865C398.246 218.656 398.246 219.646 398.048 221.031C397.85 222.416 397.85 223.999 397.652 225.779C397.454 227.56 397.454 229.736 397.059 232.111C396.069 241.212 393.893 253.282 390.332 265.153C386.77 276.827 382.021 288.303 377.669 296.415C375.69 300.57 373.711 303.736 372.326 306.11C370.941 308.484 370.15 309.671 370.15 309.671L389.342 321.345Z" fill="white"></path>
    <path d="M288.632 405.83C288.632 405.83 290.215 405.237 292.985 404.05C294.37 403.456 295.953 402.665 297.931 401.873C299.91 401.082 302.086 400.092 304.263 398.905C313.562 394.354 325.434 387.429 336.316 379.119C347.396 371.007 357.289 361.51 364.412 353.991C366.193 352.211 367.775 350.43 369.161 348.847C370.546 347.264 371.733 345.879 372.722 344.692C374.701 342.318 375.69 340.933 375.69 340.933L358.08 327.083C358.08 327.083 357.091 328.27 355.508 330.446C354.717 331.435 353.53 332.623 352.343 334.008C351.155 335.393 349.77 336.975 348.187 338.756C342.054 345.483 332.952 353.991 323.257 361.312C313.364 368.633 302.878 374.964 294.568 378.921C292.589 379.911 290.611 380.9 288.83 381.692C287.049 382.483 285.664 383.077 284.477 383.67C281.905 384.659 280.52 385.253 280.52 385.253L288.632 405.83Z" fill="white"></path>
    <path d="M157.253 413.943C157.253 413.943 157.649 414.141 158.441 414.339C159.232 414.536 160.419 414.734 161.804 415.13C163.189 415.526 164.97 415.921 167.146 416.317C169.125 416.713 171.499 417.109 174.071 417.702C184.162 419.483 197.814 421.066 211.467 420.868C225.119 420.868 238.771 419.285 248.862 417.306C258.953 415.328 265.68 413.547 265.68 413.547L259.744 391.783C259.744 391.783 253.809 393.563 244.707 395.146C235.606 396.927 223.536 398.312 211.269 398.312C199.002 398.312 186.734 397.125 177.831 395.344C175.654 394.948 173.478 394.553 171.697 394.157C169.916 393.761 168.334 393.366 166.949 393.168C165.564 392.772 164.574 392.574 163.981 392.376C163.189 392.178 162.991 392.178 162.991 392.178L157.253 413.943Z" fill="white"></path>
    <path d="M46.8486 342.318C46.8486 342.318 47.0465 342.714 47.6401 343.307C48.0358 343.901 48.8272 344.89 49.8165 345.88C51.7951 348.056 54.5651 351.42 58.1266 355.179C65.2495 362.697 75.3403 371.997 86.4204 380.109C97.5005 388.221 109.372 395.146 118.671 399.499C123.42 401.676 127.179 403.456 129.949 404.644C132.719 405.831 134.302 406.424 134.302 406.424L142.414 385.451C142.414 385.451 141.029 384.858 138.457 383.868C135.885 382.879 132.521 381.296 128.366 379.318C120.056 375.36 109.372 369.227 99.4791 361.906C89.5861 354.783 80.4846 346.275 74.351 339.746C68.0195 333.019 64.2602 328.27 64.2602 328.27L46.8486 342.318Z" fill="white"></path>
    <path d="M0.549805 219.25C0.549805 219.25 0.549817 221.03 0.747676 223.998C0.945534 226.966 1.14338 231.319 1.93481 236.265C3.12196 246.554 5.69413 260.008 9.84916 273.067C13.8063 286.126 19.5443 298.789 24.2929 307.89C25.48 310.265 26.6672 312.243 27.6565 314.024C28.6458 315.805 29.6351 317.387 30.4265 318.773C31.2179 320.158 31.8115 320.949 32.2072 321.74C32.6029 322.334 32.8008 322.73 32.8008 322.73L51.7953 310.66C51.7953 310.66 51.0038 309.473 49.6188 307.099C49.0252 305.912 48.2338 304.527 47.2445 302.944C46.2552 301.361 45.2659 299.58 44.2766 297.404C39.9237 289.292 34.9772 278.014 31.4158 266.34C27.6565 254.666 25.48 242.597 24.2929 233.495C23.6993 228.945 23.5014 225.185 23.3036 222.415C23.1057 219.843 23.1057 218.26 23.1057 218.26L0.549805 219.25Z" fill="white"></path>
    <path d="M36.3624 92.6196C36.3624 92.6196 35.3731 94.0046 33.7902 96.5768C32.9988 97.764 32.0095 99.3468 30.8223 101.128C29.833 102.908 28.6459 104.887 27.2609 107.261C22.1165 116.165 16.1808 128.63 11.8279 141.689C7.27713 154.747 4.30926 168.202 2.72639 178.293C2.13281 183.437 1.53923 187.592 1.14351 190.56C0.945656 193.528 0.747803 195.308 0.747803 195.308L23.1059 196.891C23.1059 196.891 23.3037 195.308 23.5016 192.736C23.6994 190.164 24.293 186.207 24.8866 181.656C26.2716 172.555 29.0416 160.485 32.9988 149.009C36.956 137.336 42.2982 126.256 46.8489 118.341C48.0361 116.363 49.0253 114.582 50.0146 112.999C51.0039 111.416 51.9932 110.031 52.5868 108.844C53.9718 106.668 54.9611 105.283 54.9611 105.283L36.3624 92.6196Z" fill="white"></path>
    <path d="M140.436 12.2896C140.436 12.2896 140.04 12.4874 139.249 12.6853C138.457 12.8831 137.468 13.2788 136.083 13.8724C133.313 15.0596 129.158 16.4446 124.607 18.621C115.11 22.7761 103.041 29.3054 91.7626 37.0219C80.4846 44.7384 69.9981 53.8399 62.6774 60.9628C59.1159 64.5243 56.148 67.69 54.1694 69.8664C52.1908 72.0429 51.0037 73.4279 51.0037 73.4279L68.0195 88.0695C68.0195 88.0695 69.0088 86.8823 70.7895 84.9037C72.5703 82.9251 75.1425 80.1551 78.5061 76.7915C85.0354 70.2622 94.3347 62.3478 104.426 55.4227C114.516 48.4977 125.399 42.7598 133.709 39.0005C137.864 37.0219 141.425 35.8347 143.997 34.6476C145.184 34.2519 146.174 33.8562 146.965 33.4604C147.559 33.2626 147.954 33.0647 147.954 33.0647L140.436 12.2896Z" fill="white"></path>
    <path d="M272.012 9.32138C272.012 9.32138 270.429 8.92564 267.461 7.93635C266.076 7.54063 264.295 6.94706 262.317 6.55134C260.338 6.15562 257.964 5.56204 255.392 4.96847C245.301 2.79202 231.649 0.813454 217.996 0.417737C204.344 0.0220192 190.692 0.813455 180.403 2.39633C175.259 3.18776 171.104 3.97918 168.136 4.57275C165.168 5.16633 163.585 5.56205 163.585 5.56205L168.532 27.5244C168.532 27.5244 170.115 27.1287 172.687 26.5351C175.259 26.1394 179.018 25.3479 183.569 24.5565C192.67 23.1715 204.938 22.38 217.205 22.7758C229.472 23.1715 241.542 24.9522 250.643 26.9308C252.82 27.5244 254.996 27.9201 256.777 28.3158C258.557 28.7115 260.14 29.3051 261.525 29.503C264.097 30.2944 265.482 30.6901 265.482 30.6901L272.012 9.32138Z" fill="white"></path>
    <path d="M379.449 85.1012C379.449 85.1012 379.252 84.7055 378.658 84.1119C378.262 83.5183 377.471 82.529 376.482 81.3419C375.492 80.1547 374.503 78.7697 373.118 77.1868C371.733 75.604 370.15 73.8232 368.567 71.8447C361.84 64.1282 352.145 54.4331 341.263 45.9252C330.578 37.4172 318.905 30.0965 309.803 25.15C305.252 22.7757 301.493 20.7971 298.723 19.6099C295.953 18.4228 294.37 17.6313 294.37 17.6313L285.467 38.2087C285.467 38.2087 286.852 38.8022 289.226 39.9894C291.6 40.9787 295.162 42.7594 299.119 44.9359C307.231 49.2888 317.717 55.8181 327.215 63.5346C336.91 71.0532 345.616 79.759 351.551 86.6841C353.134 88.4648 354.519 90.0477 355.706 91.4327C356.894 92.8177 357.883 94.2027 358.674 95.192C359.466 96.1813 360.059 97.1706 360.653 97.5663C361.049 98.1599 361.246 98.3577 361.246 98.3577L379.449 85.1012Z" fill="white"></path>
    <path d="M421 209.95C421 209.95 421 208.169 420.802 205.202C420.802 203.619 420.802 201.838 420.604 199.859C420.406 197.683 420.208 195.506 420.011 192.934C419.219 182.646 417.241 168.993 413.481 155.737C409.92 142.48 404.973 129.619 400.423 120.32C398.246 115.769 396.268 111.812 394.685 109.24C393.102 106.668 392.31 105.085 392.31 105.085L372.92 116.363C372.92 116.363 373.712 117.748 375.097 119.924C376.482 122.299 378.065 125.662 380.241 129.817C384.198 138.127 388.749 149.603 391.915 161.475C395.08 173.346 396.861 185.416 397.653 194.715C397.85 197.089 398.048 199.068 398.048 201.046C398.048 202.827 398.048 204.608 398.246 205.795C398.246 208.565 398.444 209.95 398.444 209.95H421Z" fill="white"></path>
  </g>
</svg>
