<svg width="82" height="70" viewBox="0 0 82 70" fill="none" xmlns="http://www.w3.org/2000/svg">
<g filter="url(#filter25_d)">
<path d="M50.2507 43.0747C50.5057 43.2533 50.8033 43.3468 51.0924 43.3468C51.5515 43.3468 52.0021 43.1342 52.2827 42.7346C53.8896 40.4731 54.7398 37.7949 54.7398 34.9892C54.7398 32.1921 53.8896 29.5139 52.2827 27.2438C51.8151 26.5892 50.9053 26.4361 50.2507 26.8953C49.596 27.3629 49.443 28.2726 49.9021 28.9273C51.1604 30.6957 51.8236 32.7872 51.8236 34.9807C51.8236 37.1743 51.1604 39.2658 49.9021 41.0342C49.443 41.6974 49.596 42.6071 50.2507 43.0747Z" fill="white"/>
<path d="M55.6071 47.9547C55.8622 48.1333 56.1598 48.2268 56.4488 48.2268C56.9079 48.2268 57.3586 48.0142 57.6391 47.6146C60.2578 43.9247 61.6436 39.5547 61.6436 34.9891C61.6436 30.4234 60.2578 26.0619 57.6391 22.3635C57.1715 21.7088 56.2618 21.5558 55.6071 22.0149C54.9525 22.4825 54.7994 23.3922 55.2585 24.0469C57.5286 27.2437 58.7274 31.0271 58.7274 34.9806C58.7274 38.934 57.5286 42.7174 55.2585 45.9142C54.7994 46.5774 54.9525 47.4871 55.6071 47.9547Z" fill="white"/>
<path d="M24.4551 26.1215C21.998 26.1215 20 28.1195 20 30.5766V39.3762C20 41.8333 21.998 43.8313 24.4551 43.8313H33.4418L41.3062 49.5107C41.3487 49.5362 41.3912 49.5702 41.4337 49.5872C41.8588 49.8338 42.3435 49.9613 42.8281 49.9613C43.5508 49.9613 44.2479 49.6808 44.7751 49.1791C45.3277 48.652 45.6338 47.9293 45.6338 47.1641V22.8057C45.6338 21.2583 44.3755 20 42.8281 20C42.3435 20 41.8588 20.1275 41.4337 20.3741C41.3997 20.3911 41.3657 20.4166 41.3317 20.4336L33.1102 26.113H24.4551V26.1215ZM34.3855 28.7826L42.7091 23.0352V46.9431L34.7681 41.1957C34.5215 41.0171 34.224 40.9236 33.9179 40.9236H24.4551C23.6049 40.9236 22.9162 40.2349 22.9162 39.3847V30.5851C22.9162 29.7349 23.6049 29.0462 24.4551 29.0462H33.5608C33.8584 29.0377 34.1475 28.9527 34.3855 28.7826Z" fill="white"/>
</g>
<defs>
<filter id="filter25_d" x="0" y="0" width="81.6436" height="69.9613" filterUnits="userSpaceOnUse" color-interpolation-filters="sRGB">
<feFlood flood-opacity="0" result="BackgroundImageFix"/>
<feColorMatrix in="SourceAlpha" type="matrix" values="0 0 0 0 0 0 0 0 0 0 0 0 0 0 0 0 0 0 127 0"/>
<feOffset/>
<feGaussianBlur stdDeviation="10"/>
<feColorMatrix type="matrix" values="0 0 0 0 0.176471 0 0 0 0 0.611765 0 0 0 0 0.858824 0 0 0 1 0"/>
<feBlend mode="normal" in2="BackgroundImageFix" result="effect1_dropShadow"/>
<feBlend mode="normal" in="SourceGraphic" in2="effect1_dropShadow" result="shape"/>
</filter>
</defs>
</svg>
