<svg width="50" height="50" viewBox="0 0 50 50" fill="none" xmlns="http://www.w3.org/2000/svg">
<path d="M41.6578 1.12627C40.8612 1.12627 40.2155 1.77207 40.2155 2.56855V5.16006C35.8706 1.81387 30.575 0 25 0C18.3223 0 12.0442 2.60049 7.32227 7.32227C2.60039 12.0441 0 18.3223 0 25C0 31.6779 2.60049 37.9561 7.32246 42.6779C7.6041 42.9597 7.97324 43.1004 8.34229 43.1004C8.71133 43.1004 9.08057 42.9596 9.36221 42.6779C9.92539 42.1146 9.92539 41.2015 9.36221 40.6382C5.18506 36.461 2.88457 30.9074 2.88457 25C2.88457 12.8056 12.8056 2.88457 25 2.88457C29.6181 2.88457 34.0199 4.29053 37.717 6.8999H35.8886C35.092 6.8999 34.4463 7.5457 34.4463 8.34219C34.4463 9.13867 35.0921 9.78447 35.8886 9.78447H41.6578C41.7039 9.78447 41.7493 9.78174 41.7943 9.77754C41.7948 9.77754 41.7953 9.77754 41.7958 9.77744C41.8358 9.77363 41.8751 9.76738 41.9142 9.76045C41.921 9.75918 41.9279 9.75859 41.9348 9.75732C41.9729 9.7499 42.0101 9.74023 42.0471 9.72988C42.0551 9.72764 42.0632 9.72607 42.0712 9.72363C42.1071 9.71289 42.1422 9.7001 42.1769 9.68662C42.1859 9.6832 42.1951 9.68027 42.2042 9.67666C42.2384 9.66269 42.2713 9.64678 42.3041 9.63027C42.3135 9.62559 42.323 9.62158 42.3323 9.6167C42.3667 9.59853 42.3997 9.57842 42.4323 9.55752C42.4394 9.55303 42.4468 9.54912 42.4538 9.54453C42.6151 9.4375 42.7536 9.29902 42.8605 9.1377C42.8652 9.13066 42.8691 9.12324 42.8736 9.11611C42.8944 9.0835 42.9145 9.05049 42.9327 9.01631C42.9376 9.00693 42.9417 8.99736 42.9464 8.98799C42.9628 8.95527 42.9787 8.92236 42.9927 8.88828C42.9963 8.8792 42.9992 8.87002 43.0026 8.86084C43.0161 8.82617 43.0289 8.79111 43.0396 8.75518C43.042 8.74746 43.0435 8.73955 43.0456 8.73184C43.0561 8.69463 43.0658 8.65703 43.0732 8.61865C43.0744 8.6126 43.075 8.60635 43.0761 8.60029C43.0913 8.51631 43.1004 8.43037 43.1004 8.34209V2.56855C43.1001 1.77197 42.4543 1.12627 41.6578 1.12627Z" fill="white"/>
<path d="M16.5649 25.0003C17.8532 24.5305 18.726 23.3043 18.726 21.908C18.726 20.0923 17.2488 18.6152 15.4333 18.6152H10.6934C9.89678 18.6152 9.25107 19.261 9.25107 20.0575C9.25107 20.854 9.89687 21.4998 10.6934 21.4998H15.4333C15.6583 21.4998 15.8414 21.6829 15.8414 21.908C15.8414 22.0956 15.7143 22.2584 15.5322 22.3039L12.3853 23.0907C11.5073 23.3102 10.8943 24.0954 10.8943 25.0003C10.8943 25.9052 11.5074 26.6905 12.3853 26.9099L15.5322 27.6967C15.7143 27.7423 15.8413 27.905 15.8413 28.0926C15.8413 28.3177 15.6582 28.5008 15.4332 28.5008H10.6933C9.89668 28.5008 9.25098 29.1466 9.25098 29.9431C9.25098 30.7396 9.89678 31.3854 10.6933 31.3854H15.4332C17.2488 31.3854 18.726 29.9082 18.726 28.0926C18.726 26.6963 17.853 25.4701 16.5649 25.0003Z" fill="white"/>
<path d="M25.824 23.5579H23.1474V22.5289C23.1474 21.9615 23.609 21.4998 24.1765 21.4998H28.2954C29.092 21.4998 29.7377 20.854 29.7377 20.0575C29.7377 19.261 29.0919 18.6152 28.2954 18.6152H24.1765C22.0185 18.6152 20.2627 20.371 20.2627 22.529V27.4717C20.2627 29.6297 22.0184 31.3854 24.1765 31.3854H25.824C27.982 31.3854 29.7378 29.6297 29.7378 27.4717C29.7378 25.3137 27.9821 23.5579 25.824 23.5579ZM25.824 28.5007H24.1765C23.6091 28.5007 23.1474 28.039 23.1474 27.4716V26.4426H25.824C26.3914 26.4426 26.8531 26.9042 26.8531 27.4716C26.8531 28.039 26.3915 28.5007 25.824 28.5007Z" fill="white"/>
<path d="M36.8347 18.6152H35.1871C33.0291 18.6152 31.2734 20.371 31.2734 22.529V27.4717C31.2734 29.6297 33.0291 31.3854 35.1871 31.3854H36.8347C38.9927 31.3854 40.7483 29.6297 40.7483 27.4717V22.529C40.7483 20.371 38.9927 18.6152 36.8347 18.6152ZM37.8638 27.4717C37.8638 28.0391 37.4022 28.5008 36.8348 28.5008H35.1872C34.6198 28.5008 34.1582 28.0391 34.1582 27.4717V22.529C34.1582 21.9616 34.6198 21.4999 35.1872 21.4999H36.8348C37.4022 21.4999 37.8638 21.9616 37.8638 22.529V27.4717Z" fill="white"/>
<path d="M25.5681 47.1078C25.1966 47.1172 24.8165 47.1172 24.4451 47.1081C23.6491 47.0918 22.9872 47.7178 22.9673 48.5141C22.9474 49.3105 23.5769 49.972 24.3733 49.9918C24.5807 49.997 24.7916 49.9996 25.0002 49.9996C25.2133 49.9996 25.4289 49.9969 25.641 49.9915C26.4374 49.9714 27.0666 49.3096 27.0464 48.5133C27.0263 47.7169 26.362 47.0891 25.5681 47.1078Z" fill="white"/>
<path d="M49.3062 19.1261C49.2078 18.7171 49.0974 18.3052 48.9782 17.9019C48.7524 17.138 47.9502 16.702 47.1862 16.9276C46.4223 17.1535 45.986 17.9559 46.2119 18.7196C46.3173 19.0761 46.4148 19.44 46.502 19.8015C46.6611 20.4624 47.2518 20.9064 47.903 20.9064C48.0147 20.9064 48.1284 20.8933 48.2419 20.8659C49.0161 20.6795 49.4928 19.9005 49.3062 19.1261Z" fill="white"/>
<path d="M14.4312 44.4314C14.1043 44.2532 13.7779 44.0644 13.4611 43.8702C12.7821 43.4538 11.894 43.6666 11.4776 44.3457C11.0612 45.0247 11.2742 45.9128 11.9532 46.3292C12.3117 46.5491 12.6809 46.7627 13.0507 46.9642C13.27 47.0836 13.5064 47.1404 13.7397 47.1404C14.2506 47.1404 14.7457 46.8683 15.0074 46.3879C15.3886 45.6886 15.1305 44.8125 14.4312 44.4314Z" fill="white"/>
<path d="M19.82 46.5057C19.4577 46.4188 19.0933 46.3215 18.737 46.2164C17.9729 45.9914 17.1711 46.4281 16.9459 47.1921C16.7207 47.9562 17.1576 48.7582 17.9217 48.9834C18.3248 49.1021 18.7371 49.2122 19.147 49.3106C19.2601 49.3377 19.3734 49.3508 19.4847 49.3508C20.1363 49.3508 20.7273 48.9061 20.8861 48.2447C21.0719 47.4702 20.5947 46.6917 19.82 46.5057Z" fill="white"/>
<path d="M46.9545 13.0333C46.7532 12.6646 46.5393 12.2958 46.3192 11.937C45.9025 11.2582 45.0142 11.0456 44.3354 11.4624C43.6566 11.8791 43.4441 12.7673 43.8608 13.4462C44.0556 13.7635 44.2448 14.0898 44.4228 14.416C44.6848 14.8957 45.1793 15.1673 45.6899 15.1673C45.9236 15.1673 46.1606 15.1103 46.38 14.9904C47.0791 14.6086 47.3363 13.7324 46.9545 13.0333Z" fill="white"/>
<path d="M33.0641 47.1887C32.8388 46.4247 32.0367 45.9883 31.2726 46.2136C30.9149 46.3192 30.551 46.4165 30.1908 46.5031C29.4163 46.6892 28.9391 47.4679 29.1252 48.2424C29.2841 48.9037 29.8749 49.3483 30.5264 49.3483C30.6379 49.3483 30.7512 49.3352 30.8644 49.3079C31.2724 49.21 31.6845 49.0997 32.0891 48.9803C32.853 48.7548 33.2895 47.9526 33.0641 47.1887Z" fill="white"/>
<path d="M48.2465 29.1045C47.4717 28.9189 46.6933 29.3965 46.5079 30.1712C46.4213 30.5329 46.3241 30.8971 46.2192 31.2537C45.9943 32.0178 46.4315 32.8195 47.1957 33.0444C47.3315 33.0844 47.4685 33.1035 47.6035 33.1035C48.2267 33.1035 48.8016 32.6962 48.9865 32.0679C49.1052 31.6645 49.2151 31.2523 49.3132 30.843C49.4987 30.0684 49.0211 29.2901 48.2465 29.1045Z" fill="white"/>
<path d="M46.3926 34.9836C45.6931 34.6026 44.8171 34.8607 44.4361 35.5604C44.258 35.8871 44.0693 36.214 43.8745 36.5321C43.4586 37.2114 43.6722 38.0994 44.3516 38.5153C44.5865 38.6592 44.8465 38.7277 45.1032 38.7277C45.5886 38.7277 46.0627 38.4826 46.3348 38.0383C46.5548 37.6789 46.7684 37.3094 46.9693 36.94C47.3504 36.2405 47.0921 35.3645 46.3926 34.9836Z" fill="white"/>
<path d="M43.0738 40.1789C42.4962 39.6303 41.5834 39.6535 41.0346 40.2311C40.7783 40.5009 40.5117 40.7676 40.242 41.0242C39.665 41.5733 39.6422 42.4862 40.1914 43.0633C40.475 43.3613 40.8553 43.5114 41.2366 43.5114C41.5937 43.5114 41.9514 43.3795 42.2305 43.114C42.535 42.8242 42.8363 42.5229 43.1259 42.218C43.6746 41.6407 43.6513 40.7278 43.0738 40.1789Z" fill="white"/>
<path d="M49.9916 24.3528C49.9716 23.569 49.3301 22.9473 48.5505 22.9473C48.5381 22.9473 48.5256 22.9475 48.5131 22.9478C47.7167 22.9681 47.0876 23.63 47.1079 24.4263C47.1127 24.6162 47.1152 24.8093 47.1152 25.0004C47.1152 25.1828 47.113 25.3672 47.1086 25.5486C47.0892 26.345 47.7192 27.0061 48.5155 27.0255C48.5274 27.0258 48.5392 27.0259 48.5511 27.0259C49.3314 27.0259 49.9732 26.4029 49.9923 25.6184C49.9972 25.4139 49.9998 25.2059 49.9998 25.0003C49.9998 24.7849 49.997 24.567 49.9916 24.3528Z" fill="white"/>
<path d="M38.5291 44.3416C38.1127 43.6628 37.2246 43.4499 36.5455 43.8664C36.229 44.0607 35.9032 44.2493 35.5769 44.4273C34.8777 44.8089 34.6201 45.685 35.0017 46.3842C35.2635 46.8641 35.7583 47.136 36.269 47.136C36.5025 47.136 36.7393 47.0792 36.9586 46.9594C37.3275 46.7582 37.6959 46.5447 38.0539 46.3252C38.733 45.9088 38.9457 45.0207 38.5291 44.3416Z" fill="white"/>
</svg>
