<svg width="50" height="50" viewBox="0 0 50 50" fill="none" xmlns="http://www.w3.org/2000/svg">
  <path d="M25 0C11.215 0 0 11.2152 0 25.0002C0 38.7852 11.215 50 25 50C38.785 50 50 38.7852 50 25.0002C50 11.2152 38.785 0 25 0ZM25 45.4545C13.7212 45.4545 4.54545 36.2788 4.54545 25.0002C4.54545 13.7215 13.7212 4.54545 25 4.54545C36.2788 4.54545 45.4545 13.7215 45.4545 25.0002C45.4545 36.2788 36.2786 45.4545 25 45.4545Z" fill="white"/>
  <path d="M25.5 29.6387C23.1554 29.6387 21.248 27.7312 21.248 25.3867C21.248 23.0422 23.1555 21.1348 25.5 21.1348C27.8445 21.1348 29.752 23.0422 29.752 25.3867C29.752 27.7312 27.8446 29.6387 25.5 29.6387ZM25.5 23.2607C24.3277 23.2607 23.374 24.2145 23.374 25.3867C23.374 26.559 24.3277 27.5127 25.5 27.5127C26.6723 27.5127 27.626 26.559 27.626 25.3867C27.626 24.2145 26.6723 23.2607 25.5 23.2607Z" fill="white"/>
  <path d="M38.5835 22.2163L35.831 24.3254C35.9083 25.0549 35.9036 25.7615 35.831 26.4464L38.5835 28.5555C39.0102 28.8825 39.1256 29.4766 38.8523 29.9396L36.1868 34.4561C35.9213 34.9061 35.368 35.0964 34.8818 34.9049L31.616 33.6187C31.0196 34.0455 30.3812 34.4072 29.7078 34.6998L29.2175 38.0817C29.1417 38.6044 28.6937 38.9922 28.1655 38.9922H22.8344C22.3063 38.9922 21.8582 38.6044 21.7825 38.0816L21.2922 34.6997C20.6188 34.4071 19.9804 34.0455 19.384 33.6186L16.1182 34.9048C15.6319 35.0964 15.0788 34.9061 14.8132 34.4561L12.1476 29.9396C11.8744 29.4766 11.9898 28.8825 12.4165 28.5555L15.1691 26.4465C15.0917 25.717 15.0964 25.0104 15.1691 24.3254L12.4166 22.2163C11.9898 21.8893 11.8744 21.2952 12.1477 20.8322L14.8132 16.3157C15.0787 15.8657 15.6319 15.6755 16.1181 15.867L19.384 17.1531C19.9803 16.7264 20.6187 16.3647 21.2922 16.0721L21.7824 12.6902C21.8582 12.1674 22.3063 11.7797 22.8344 11.7797H28.1655C28.6937 11.7797 29.1417 12.1674 29.2175 12.6901L29.7078 16.072C30.3812 16.3646 31.0197 16.7263 31.616 17.1531L34.8818 15.8669C35.3681 15.6754 35.9213 15.8657 36.1868 16.3157L38.8523 20.8322C39.1256 21.2952 39.0101 21.8893 38.5835 22.2163ZM34.8169 18.1775L31.8381 19.3506C31.4811 19.4911 31.0765 19.4286 30.7788 19.1871C30.06 18.6039 29.2533 18.1477 28.381 17.831C28.0128 17.6973 27.748 17.372 27.6918 16.9843L27.2455 13.9056H23.7544L23.3082 16.9843C23.252 17.372 22.9872 17.6973 22.619 17.831C21.7467 18.1477 20.9399 18.604 20.2212 19.1871C19.9234 19.4286 19.5186 19.4911 19.1619 19.3506L16.183 18.1775L14.4572 21.1017L16.9531 23.0142C17.2668 23.2546 17.4213 23.6492 17.3541 24.0386C17.1977 24.9462 17.2028 25.8557 17.3541 26.7333C17.4213 27.1227 17.2668 27.5173 16.9531 27.7577L14.4572 29.6702L16.183 32.5944L19.1619 31.4213C19.5188 31.2807 19.9234 31.3433 20.2212 31.5848C20.94 32.168 21.7467 32.6242 22.619 32.9409C22.9872 33.0745 23.252 33.3999 23.3082 33.7875L23.7544 36.8662H27.2456L27.6918 33.7875C27.748 33.3999 28.0128 33.0745 28.381 32.9409C29.2532 32.6242 30.06 32.168 30.7788 31.5848C31.0765 31.3432 31.4813 31.2807 31.8381 31.4213L34.8169 32.5944L36.5427 29.6702L34.0468 27.7577C33.7331 27.5173 33.5786 27.1227 33.6458 26.7333C33.8022 25.8257 33.7971 24.9162 33.6458 24.0386C33.5786 23.6492 33.7331 23.2546 34.0468 23.0142L36.5427 21.1017L34.8169 18.1775Z" fill="white"/>
</svg>
