<svg width="48" height="47" viewBox="0 0 48 47" fill="none" xmlns="http://www.w3.org/2000/svg">
<path d="M42.6481 6.96296V0H0V40.9074H6.09259V47H47.8704V6.96296H42.6481ZM1.74074 39.1667V1.74074H40.9074V6.96296H6.09259V39.1667H1.74074ZM46.1296 45.2593H7.83333V40.9074V8.7037H42.6481H46.1296V45.2593Z" fill="white"/>
<path d="M34.3662 19.5961C34.0259 19.2557 33.4759 19.2557 33.1355 19.5961L26.9811 25.7504L20.8268 19.5961C20.4864 19.2557 19.9364 19.2557 19.5961 19.5961C19.2557 19.9364 19.2557 20.4864 19.5961 20.8268L25.7504 26.9812L19.5961 33.1355C19.2557 33.4759 19.2557 34.0259 19.5961 34.3662C19.7658 34.536 19.9886 34.6213 20.2114 34.6213C20.4342 34.6213 20.657 34.536 20.8268 34.3662L26.9811 28.2119L33.1355 34.3662C33.3053 34.536 33.5281 34.6213 33.7509 34.6213C33.9737 34.6213 34.1965 34.536 34.3662 34.3662C34.7066 34.0259 34.7066 33.4759 34.3662 33.1355L28.2119 26.9812L34.3662 20.8268C34.7066 20.4864 34.7066 19.9355 34.3662 19.5961Z" fill="white"/>
</svg>
