<svg width="94" height="94" viewBox="0 0 94 94" fill="none" xmlns="http://www.w3.org/2000/svg">
<g filter="url(#filter09_d)">
<path d="M41.0983 57.5358H48.077V61.6409H41.0983V57.5358ZM33.4009 57.0229C31.9837 57.0229 30.8353 58.1714 30.8353 59.5886C30.8353 61.0053 31.9837 62.1542 33.4009 62.1542C34.8181 62.1542 35.9666 61.0053 35.9666 59.5886C35.9666 58.1714 34.8181 57.0229 33.4009 57.0229ZM61.8292 44.5019H41.0983V48.607H61.8292V44.5019ZM33.4009 43.989C31.9837 43.989 30.8353 45.1375 30.8353 46.5546C30.8353 47.9718 31.9837 49.1203 33.4009 49.1203C34.8181 49.1203 35.9666 47.9718 35.9666 46.5546C35.9666 45.1375 34.8181 43.989 33.4009 43.989ZM61.8292 32.1865H41.0983V36.2916H61.8292V32.1865ZM33.4009 31.6732C31.9837 31.6732 30.8353 32.8221 30.8353 34.2389C30.8353 35.656 31.9837 36.8049 33.4009 36.8049C34.8181 36.8049 35.9666 35.656 35.9666 34.2389C35.9666 32.8221 34.8181 31.6732 33.4009 31.6732ZM24.6774 66.978V26.7472C24.6774 25.6152 25.5981 24.6945 26.7301 24.6945H66.9609C68.0925 24.6945 69.0132 25.6152 69.0132 26.7472V49.9415H73.1183V26.7472C73.1183 23.3519 70.3562 20.5894 66.9609 20.5894H26.7301C23.3348 20.5894 20.5723 23.3519 20.5723 26.7472V66.978C20.5723 70.3733 23.3348 73.1354 26.7301 73.1354H50.4373V69.0303H26.7301C25.5981 69.0303 24.6774 68.1096 24.6774 66.978ZM70.2303 73.1503L66.1424 69.0624C64.7593 69.8889 63.1437 70.3645 61.4189 70.3645C56.3257 70.3645 52.1821 66.2208 52.1821 61.128C52.1821 56.0348 56.3257 51.8912 61.4189 51.8912C66.5117 51.8912 70.6553 56.0348 70.6553 61.128C70.6553 63.0124 70.0875 64.7664 69.1151 66.2293L73.1332 70.2474L70.2303 73.1503ZM61.4189 66.2593C64.2484 66.2593 66.5502 63.9576 66.5502 61.128C66.5502 58.2985 64.2484 55.9963 61.4189 55.9963C58.5894 55.9963 56.2872 58.2985 56.2872 61.128C56.2872 63.9576 58.5894 66.2593 61.4189 66.2593Z" fill="white"/>
</g>
<defs>
<filter id="filter09_d" x="0.572266" y="0.589355" width="92.5609" height="92.5609" filterUnits="userSpaceOnUse" color-interpolation-filters="sRGB">
<feFlood flood-opacity="0" result="BackgroundImageFix"/>
<feColorMatrix in="SourceAlpha" type="matrix" values="0 0 0 0 0 0 0 0 0 0 0 0 0 0 0 0 0 0 127 0"/>
<feOffset/>
<feGaussianBlur stdDeviation="10"/>
<feColorMatrix type="matrix" values="0 0 0 0 0.176471 0 0 0 0 0.611765 0 0 0 0 0.858824 0 0 0 1 0"/>
<feBlend mode="normal" in2="BackgroundImageFix" result="effect1_dropShadow"/>
<feBlend mode="normal" in="SourceGraphic" in2="effect1_dropShadow" result="shape"/>
</filter>
</defs>
</svg>
