<svg width="46" height="46" viewBox="0 0 46 46" fill="none" xmlns="http://www.w3.org/2000/svg">
<path d="M25.3642 23.0114L29.3038 19.0721C29.9886 18.4062 29.9886 17.337 29.3226 16.6804C28.666 16.0239 27.5966 16.0239 26.9307 16.6804L22.991 20.6197L19.0514 16.6804C18.3948 16.0239 17.3254 16.0239 16.6594 16.6804C16.0028 17.337 16.0028 18.4062 16.6594 19.0721L20.5991 23.0114L16.6594 26.9507C16.0028 27.6073 16.0028 28.6765 16.6594 29.3424C16.9878 29.6707 17.4192 29.8395 17.8507 29.8395C18.2822 29.8395 18.7137 29.6707 19.042 29.3424L22.9816 25.4031L26.9213 29.3424C27.2496 29.6707 27.6811 29.8395 28.1125 29.8395C28.544 29.8395 28.9755 29.6707 29.3038 29.3424C29.9604 28.6859 29.9604 27.6167 29.3038 26.9507L25.3642 23.0114Z" fill="white"/>
<path d="M39.2651 6.7383C38.6085 6.08175 37.5392 6.08175 36.8825 6.7383L31.6297 11.9813C30.9731 12.6379 30.9731 13.7071 31.6297 14.373C32.2863 15.0296 33.3556 15.0296 34.0216 14.373L38.0269 10.3681C44.5179 18.0685 44.1334 29.6238 36.8825 36.874C33.1774 40.5788 28.2435 42.6235 23 42.6235C17.7565 42.6235 12.832 40.5882 9.11745 36.8833C1.4633 29.2298 1.4633 16.7835 9.11745 9.13002C13.8169 4.431 20.5237 2.43321 27.0428 3.80259C27.9527 3.99017 28.8532 3.40866 29.0408 2.49887C29.2284 1.58907 28.6468 0.688663 27.7369 0.501077C20.1016 -1.11216 12.2504 1.22328 6.73491 6.7383C2.39192 11.0809 0 16.8586 0 23.002C0 29.1454 2.39192 34.9231 6.73491 39.2657C11.0779 43.6083 16.856 46 23 46C29.144 46 34.9221 43.6083 39.2651 39.2657C43.6081 34.9231 46 29.1454 46 23.002C46 16.8586 43.6081 11.0809 39.2651 6.7383Z" fill="white"/>
</svg>
