<svg width="50" height="50" viewBox="0 0 50 50" fill="none" xmlns="http://www.w3.org/2000/svg">
  <path d="M25 0C11.215 0 0 11.2152 0 25.0002C0 38.7852 11.215 50 25 50C38.785 50 50 38.7852 50 25.0002C50 11.2152 38.785 0 25 0ZM25 45.4545C13.7212 45.4545 4.54545 36.2788 4.54545 25.0002C4.54545 13.7215 13.7212 4.54545 25 4.54545C36.2788 4.54545 45.4545 13.7215 45.4545 25.0002C45.4545 36.2788 36.2786 45.4545 25 45.4545Z" fill="white"/>
  <path fill-rule="evenodd" clip-rule="evenodd" d="M26.7578 19.7383C26.7578 25.7233 26.7616 26.4766 26.7916 26.4766C26.8102 26.4766 27.543 25.7589 28.42 24.8817L30.0146 23.2869L30.9018 24.1742C31.4798 24.7521 31.7891 25.0771 31.7891 25.1064C31.7891 25.1361 31.2638 25.6767 30.2505 26.69C29.4043 27.5362 28.7018 28.2285 28.6894 28.2285C28.6597 28.2285 27.1172 29.7713 27.1172 29.8011C27.1172 29.8313 26.7878 30.1602 26.7575 30.1602C26.7446 30.1602 26.6133 30.2814 26.4658 30.4297C26.3183 30.5779 26.1822 30.6992 26.1632 30.6992C26.1444 30.6992 26.1289 30.7093 26.1289 30.7217C26.1289 30.734 26.1087 30.7441 26.084 30.7441C26.0593 30.7441 26.0391 30.7542 26.0391 30.7666C26.0391 30.779 26.0188 30.7891 25.9941 30.7891C25.9694 30.7891 25.9492 30.7992 25.9492 30.8115C25.9492 30.8239 25.9088 30.834 25.8594 30.834C25.81 30.834 25.7695 30.8441 25.7695 30.8564C25.7695 30.8702 25.6647 30.8789 25.5 30.8789C25.3353 30.8789 25.2305 30.8702 25.2305 30.8564C25.2305 30.8441 25.19 30.834 25.1406 30.834C25.0912 30.834 25.0508 30.8239 25.0508 30.8115C25.0508 30.7992 25.0306 30.7891 25.0059 30.7891C24.9812 30.7891 24.9609 30.779 24.9609 30.7666C24.9609 30.7542 24.9407 30.7441 24.916 30.7441C24.8913 30.7441 24.8711 30.734 24.8711 30.7217C24.8711 30.7093 24.8553 30.6992 24.8359 30.6992C24.8166 30.6992 24.7516 30.6487 24.6914 30.5869C24.6312 30.5251 24.5712 30.4746 24.5581 30.4746C24.5449 30.4746 23.3364 29.2769 21.8725 27.813C20.1094 26.0499 19.2109 25.1362 19.2109 25.1064C19.2109 25.0771 19.5204 24.7519 20.0982 24.1742L20.9854 23.2869L22.58 24.8817C23.457 25.7589 24.1898 26.4766 24.2084 26.4766C24.2384 26.4766 24.2422 25.7233 24.2422 19.7383V13H25.5H26.7578V19.7383ZM37 31.0361C37 32.833 36.9924 33.7539 36.9775 33.7539C36.9651 33.7539 36.9551 33.8138 36.9551 33.8887C36.9551 33.9635 36.9451 34.0234 36.9326 34.0234C36.9203 34.0234 36.9102 34.0639 36.9102 34.1133C36.9102 34.1627 36.9 34.2031 36.8877 34.2031C36.8753 34.2031 36.8652 34.2233 36.8652 34.248C36.8652 34.2728 36.8551 34.293 36.8428 34.293C36.8304 34.293 36.8203 34.3233 36.8203 34.3604C36.8203 34.3974 36.8102 34.4277 36.7979 34.4277C36.7855 34.4277 36.7754 34.4479 36.7754 34.4727C36.7754 34.4974 36.7653 34.5176 36.7529 34.5176C36.7406 34.5176 36.7305 34.5378 36.7305 34.5625C36.7305 34.5872 36.7204 34.6074 36.708 34.6074C36.6957 34.6074 36.6855 34.6276 36.6855 34.6523C36.6855 34.6771 36.6754 34.6973 36.6631 34.6973C36.6507 34.6973 36.6406 34.7153 36.6406 34.7372C36.6406 34.7592 36.6204 34.7918 36.5957 34.8096C36.571 34.8274 36.5508 34.8577 36.5508 34.877C36.5508 34.8962 36.5306 34.9265 36.5059 34.9443C36.4812 34.9621 36.4609 34.9898 36.4609 35.0057C36.4609 35.0436 36.0436 35.4609 36.0057 35.4609C35.9898 35.4609 35.9621 35.4812 35.9443 35.5059C35.9265 35.5306 35.8962 35.5508 35.877 35.5508C35.8577 35.5508 35.8274 35.571 35.8096 35.5957C35.7918 35.6204 35.7592 35.6406 35.7372 35.6406C35.7153 35.6406 35.6973 35.6507 35.6973 35.6631C35.6973 35.6754 35.6771 35.6855 35.6523 35.6855C35.6276 35.6855 35.6074 35.6957 35.6074 35.708C35.6074 35.7204 35.5872 35.7305 35.5625 35.7305C35.5378 35.7305 35.5176 35.7406 35.5176 35.7529C35.5176 35.7653 35.4974 35.7754 35.4727 35.7754C35.4479 35.7754 35.4277 35.7855 35.4277 35.7979C35.4277 35.8102 35.3974 35.8203 35.3604 35.8203C35.3233 35.8203 35.293 35.8304 35.293 35.8428C35.293 35.8551 35.2728 35.8652 35.248 35.8652C35.2233 35.8652 35.2031 35.8753 35.2031 35.8877C35.2031 35.9 35.1627 35.9102 35.1133 35.9102C35.0639 35.9102 35.0234 35.9203 35.0234 35.9326C35.0234 35.9451 34.9635 35.9551 34.8887 35.9551C34.8138 35.9551 34.7539 35.9651 34.7539 35.9775C34.7539 35.9925 31.6543 36 25.5 36C19.3457 36 16.2461 35.9925 16.2461 35.9775C16.2461 35.9651 16.1862 35.9551 16.1113 35.9551C16.0365 35.9551 15.9766 35.9451 15.9766 35.9326C15.9766 35.9203 15.9361 35.9102 15.8867 35.9102C15.8373 35.9102 15.7969 35.9 15.7969 35.8877C15.7969 35.8753 15.7767 35.8652 15.752 35.8652C15.7272 35.8652 15.707 35.8551 15.707 35.8428C15.707 35.8304 15.6767 35.8203 15.6396 35.8203C15.6026 35.8203 15.5723 35.8102 15.5723 35.7979C15.5723 35.7855 15.5521 35.7754 15.5273 35.7754C15.5026 35.7754 15.4824 35.7653 15.4824 35.7529C15.4824 35.7406 15.4622 35.7305 15.4375 35.7305C15.4128 35.7305 15.3926 35.7204 15.3926 35.708C15.3926 35.6957 15.3724 35.6855 15.3477 35.6855C15.3229 35.6855 15.3027 35.6754 15.3027 35.6631C15.3027 35.6507 15.2847 35.6406 15.2628 35.6406C15.2408 35.6406 15.2082 35.6204 15.1904 35.5957C15.1726 35.571 15.1423 35.5508 15.123 35.5508C15.1038 35.5508 15.0735 35.5306 15.0557 35.5059C15.0379 35.4812 15.0102 35.4609 14.9943 35.4609C14.9564 35.4609 14.5391 35.0436 14.5391 35.0057C14.5391 34.9898 14.5188 34.9621 14.4941 34.9443C14.4694 34.9265 14.4492 34.8962 14.4492 34.877C14.4492 34.8577 14.429 34.8274 14.4043 34.8096C14.3796 34.7918 14.3594 34.7592 14.3594 34.7372C14.3594 34.7153 14.3493 34.6973 14.3369 34.6973C14.3246 34.6973 14.3145 34.6771 14.3145 34.6523C14.3145 34.6276 14.3043 34.6074 14.292 34.6074C14.2796 34.6074 14.2695 34.5872 14.2695 34.5625C14.2695 34.5378 14.2594 34.5176 14.2471 34.5176C14.2347 34.5176 14.2246 34.4974 14.2246 34.4727C14.2246 34.4479 14.2145 34.4277 14.2021 34.4277C14.1898 34.4277 14.1797 34.3974 14.1797 34.3604C14.1797 34.3233 14.1696 34.293 14.1572 34.293C14.1449 34.293 14.1348 34.2728 14.1348 34.248C14.1348 34.2233 14.1247 34.2031 14.1123 34.2031C14.1 34.2031 14.0898 34.1627 14.0898 34.1133C14.0898 34.0639 14.0797 34.0234 14.0674 34.0234C14.0549 34.0234 14.0449 33.9635 14.0449 33.8887C14.0449 33.8138 14.0349 33.7539 14.0225 33.7539C14.0076 33.7539 14 32.833 14 31.0361V28.3184H15.2803H16.5605V30.8789V33.4395H25.5H34.4395V30.8789V28.3184H35.7197H37V31.0361Z" fill="white"/>
</svg>
