<svg width="50" height="49" viewBox="0 0 50 49" fill="none" xmlns="http://www.w3.org/2000/svg">
<path d="M25.022 0C11.709 0 0.87793 10.8312 0.87793 24.1442C0.87793 37.4573 11.709 48.2881 25.022 48.2881C38.335 48.2881 49.1661 37.4573 49.1661 24.1442C49.1661 10.8312 38.335 0 25.022 0ZM25.022 43.8983C14.1294 43.8983 5.26776 35.0367 5.26776 24.1442C5.26776 13.2517 14.1294 4.38983 25.022 4.38983C35.9146 4.38983 44.7762 13.2517 44.7762 24.1442C44.7762 35.0367 35.9145 43.8983 25.022 43.8983Z" fill="white"/>
<path d="M25.0217 10.2432C23.4083 10.2432 22.0957 11.5566 22.0957 13.171C22.0957 14.784 23.4083 16.0963 25.0217 16.0963C26.6351 16.0963 27.9476 14.784 27.9476 13.171C27.9476 11.5566 26.6351 10.2432 25.0217 10.2432Z" fill="white"/>
<path d="M25.0211 20.4854C23.8089 20.4854 22.8262 21.4681 22.8262 22.6803V35.8498C22.8262 37.0619 23.8089 38.0447 25.0211 38.0447C26.2333 38.0447 27.216 37.0619 27.216 35.8498V22.6803C27.216 21.4681 26.2333 20.4854 25.0211 20.4854Z" fill="white"/>
</svg>
