<svg width="78" height="110" viewBox="0 0 78 110" fill="none" xmlns="http://www.w3.org/2000/svg">
<g filter="url(#filter23_d)">
<path d="M20.3223 87.2578L33.4907 33.5649C33.6696 32.8348 34.3239 32.322 35.0753 32.322H37.232V26.5272C36.1538 25.9448 35.4195 24.8043 35.4195 23.4956C35.4195 21.5967 36.9647 20.0516 38.8636 20.0516C40.7625 20.0516 42.3076 21.5967 42.3076 23.4956C42.3076 24.8046 41.5734 25.9448 40.4952 26.5272V32.322H42.9812C43.7361 32.322 44.3925 32.8397 44.5679 33.5739L57.407 87.267C57.6167 88.1435 57.0761 89.0237 56.1996 89.2333C55.3229 89.4419 54.4427 88.9021 54.2333 88.026L52.0075 78.7183H40.4949V87.6464C40.4949 88.5473 39.7642 89.2779 38.8633 89.2779C37.9624 89.2779 37.2317 88.5473 37.2317 87.6464V78.7183H25.7762L23.4912 88.035C23.3087 88.7798 22.6416 89.2782 21.908 89.2782C21.7793 89.2782 21.6485 89.263 21.518 89.2309C20.6432 89.0163 20.1075 88.1329 20.3223 87.2578ZM48.1885 62.7457L42.9401 65.0712L49.4413 67.9851L48.1885 62.7457ZM30.4918 59.4921L37.232 62.5129V52.3517L31.6348 54.8319L30.4918 59.4921ZM34.901 49.8157L33.0668 48.9937L32.617 50.8278L34.901 49.8157ZM33.857 45.7714L37.232 47.2841V40.632H35.1174L33.857 45.7714ZM40.4952 47.3368L44.1198 45.7308L42.9004 40.632H40.4952V47.3368ZM44.8915 48.9578L42.9176 49.8325L45.3628 50.9284L44.8915 48.9578ZM46.3178 54.923C46.2667 54.9058 46.2158 54.8868 46.1655 54.8642L40.4952 52.3228V62.5855L47.4167 59.5188L46.3178 54.923ZM29.7016 62.7139L28.4211 67.9357L34.9235 65.0543L29.7016 62.7139ZM36.3553 35.5851L35.9177 37.3689H42.1203L41.6939 35.5851H36.3553ZM51.2276 75.4552L50.3903 71.9539C50.2932 71.9305 50.1967 71.8998 50.1023 71.8576L40.4952 67.5517V75.4552H51.2276ZM37.232 75.4552V67.6006L27.6183 71.8603C27.5601 71.8862 27.5014 71.9077 27.4424 71.9261L26.5768 75.4555H37.232V75.4552Z" fill="white"/>
</g>
<defs>
<filter id="filter23_d" x="0.275391" y="0.0516357" width="77.1772" height="109.227" filterUnits="userSpaceOnUse" color-interpolation-filters="sRGB">
<feFlood flood-opacity="0" result="BackgroundImageFix"/>
<feColorMatrix in="SourceAlpha" type="matrix" values="0 0 0 0 0 0 0 0 0 0 0 0 0 0 0 0 0 0 127 0"/>
<feOffset/>
<feGaussianBlur stdDeviation="10"/>
<feColorMatrix type="matrix" values="0 0 0 0 0.176471 0 0 0 0 0.611765 0 0 0 0 0.858824 0 0 0 1 0"/>
<feBlend mode="normal" in2="BackgroundImageFix" result="effect1_dropShadow"/>
<feBlend mode="normal" in="SourceGraphic" in2="effect1_dropShadow" result="shape"/>
</filter>
</defs>
</svg>
