<svg width="81" height="70" viewBox="0 0 81 70" fill="none" xmlns="http://www.w3.org/2000/svg">
<g filter="url(#filter24_d)">
<path d="M24.4551 26.1215C21.998 26.1215 20 28.1195 20 30.5766V39.3762C20 41.8333 21.998 43.8313 24.4551 43.8313H33.4418L41.3062 49.5107C41.3487 49.5362 41.3912 49.5702 41.4337 49.5872C41.8588 49.8338 42.3435 49.9613 42.8281 49.9613C43.5508 49.9613 44.2479 49.6808 44.7751 49.1791C45.3277 48.652 45.6338 47.9293 45.6338 47.1641V22.8057C45.6338 21.2583 44.3755 20 42.8281 20C42.3435 20 41.8588 20.1275 41.4337 20.3741C41.3997 20.3911 41.3657 20.4166 41.3317 20.4336L33.1102 26.113H24.4551V26.1215ZM34.3855 28.7826L42.7091 23.0352V46.9431L34.7681 41.1957C34.5215 41.0171 34.224 40.9236 33.9179 40.9236H24.4551C23.6049 40.9236 22.9162 40.2349 22.9162 39.3847V30.5851C22.9162 29.7349 23.6049 29.0462 24.4551 29.0462H33.5608C33.8584 29.0377 34.1475 28.9527 34.3855 28.7826Z" fill="white"/>
<path fill-rule="evenodd" clip-rule="evenodd" d="M51.4438 29.2904C51.9692 28.8497 52.7524 28.9183 53.1931 29.4438L55.966 32.7494L58.7388 29.4438C59.1795 28.9183 59.9628 28.8497 60.4882 29.2904C61.0136 29.7312 61.0823 30.5144 60.6415 31.0398L57.5867 34.6816L60.6414 38.3232C61.0822 38.8486 61.0135 39.6318 60.4881 40.0726C59.9627 40.5133 59.1794 40.4447 58.7387 39.9192L55.966 36.6138L53.1933 39.9192C52.7525 40.4447 51.9693 40.5133 51.4439 40.0726C50.9184 39.6318 50.8498 38.8486 51.2905 38.3232L54.3452 34.6816L51.2904 31.0398C50.8497 30.5144 50.9183 29.7312 51.4438 29.2904Z" fill="white"/>
</g>
<defs>
<filter id="filter24_d" x="0" y="0" width="80.9319" height="69.9613" filterUnits="userSpaceOnUse" color-interpolation-filters="sRGB">
<feFlood flood-opacity="0" result="BackgroundImageFix"/>
<feColorMatrix in="SourceAlpha" type="matrix" values="0 0 0 0 0 0 0 0 0 0 0 0 0 0 0 0 0 0 127 0"/>
<feOffset/>
<feGaussianBlur stdDeviation="10"/>
<feColorMatrix type="matrix" values="0 0 0 0 0.921569 0 0 0 0 0.14902 0 0 0 0 0.160784 0 0 0 1 0"/>
<feBlend mode="normal" in2="BackgroundImageFix" result="effect1_dropShadow"/>
<feBlend mode="normal" in="SourceGraphic" in2="effect1_dropShadow" result="shape"/>
</filter>
</defs>
</svg>
