<svg width="86" height="86" viewBox="0 0 86 86" fill="none" xmlns="http://www.w3.org/2000/svg">
<g filter="url(#filter42_d)">
<path d="M45.3642 43.0114L49.3038 39.0721C49.9886 38.4062 49.9886 37.337 49.3226 36.6804C48.666 36.0239 47.5966 36.0239 46.9307 36.6804L42.991 40.6197L39.0514 36.6804C38.3948 36.0239 37.3254 36.0239 36.6594 36.6804C36.0028 37.337 36.0028 38.4062 36.6594 39.0721L40.5991 43.0114L36.6594 46.9507C36.0028 47.6073 36.0028 48.6765 36.6594 49.3424C36.9878 49.6707 37.4192 49.8395 37.8507 49.8395C38.2822 49.8395 38.7137 49.6707 39.042 49.3424L42.9816 45.4031L46.9213 49.3424C47.2496 49.6707 47.6811 49.8395 48.1125 49.8395C48.544 49.8395 48.9755 49.6707 49.3038 49.3424C49.9604 48.6859 49.9604 47.6167 49.3038 46.9507L45.3642 43.0114Z" fill="white"/>
<path d="M59.2651 26.7383C58.6085 26.0818 57.5392 26.0818 56.8825 26.7383L51.6297 31.9813C50.9731 32.6379 50.9731 33.7071 51.6297 34.373C52.2863 35.0296 53.3556 35.0296 54.0216 34.373L58.0269 30.3681C64.5179 38.0685 64.1334 49.6238 56.8825 56.874C53.1774 60.5788 48.2435 62.6235 43 62.6235C37.7565 62.6235 32.832 60.5882 29.1175 56.8833C21.4633 49.2298 21.4633 36.7835 29.1175 29.13C33.8169 24.431 40.5237 22.4332 47.0428 23.8026C47.9527 23.9902 48.8532 23.4087 49.0408 22.4989C49.2284 21.5891 48.6468 20.6887 47.7369 20.5011C40.1016 18.8878 32.2504 21.2233 26.7349 26.7383C22.3919 31.0809 20 36.8586 20 43.002C20 49.1454 22.3919 54.9231 26.7349 59.2657C31.0779 63.6083 36.856 66 43 66C49.144 66 54.9221 63.6083 59.2651 59.2657C63.6081 54.9231 66 49.1454 66 43.002C66 36.8586 63.6081 31.0809 59.2651 26.7383Z" fill="white"/>
</g>
<defs>
<filter id="filter42_d" x="0" y="0" width="86" height="86" filterUnits="userSpaceOnUse" color-interpolation-filters="sRGB">
<feFlood flood-opacity="0" result="BackgroundImageFix"/>
<feColorMatrix in="SourceAlpha" type="matrix" values="0 0 0 0 0 0 0 0 0 0 0 0 0 0 0 0 0 0 127 0"/>
<feOffset/>
<feGaussianBlur stdDeviation="10"/>
<feColorMatrix type="matrix" values="0 0 0 0 0.176471 0 0 0 0 0.611765 0 0 0 0 0.858824 0 0 0 1 0"/>
<feBlend mode="normal" in2="BackgroundImageFix" result="effect1_dropShadow"/>
<feBlend mode="normal" in="SourceGraphic" in2="effect1_dropShadow" result="shape"/>
</filter>
</defs>
</svg>
