<svg width="109" height="109" viewBox="0 0 109 109" fill="none" xmlns="http://www.w3.org/2000/svg">
<g filter="url(#filter11_d)">
<path d="M81.7564 66.8528L75.8668 60.962L73.5135 62.3733L72.8503 59.7127H69.7865V57.5093H34.5322V72.933H54.3628V78.2002L57.0233 78.8645L55.6132 81.2167L61.5028 87.1074L63.8561 85.6962L64.5193 88.3568H72.8503L73.5146 85.6951L75.8679 87.1063L81.7575 81.2156L80.3474 78.8634L83.0068 78.2002V69.8692L80.3451 69.2049L81.7564 66.8528ZM69.7865 74.0347C69.7865 74.6418 69.2929 75.1364 68.6848 75.1364C68.0767 75.1364 67.5831 74.6418 67.5831 74.0347C67.5831 73.4277 68.0767 72.933 68.6848 72.933C69.2929 72.933 69.7865 73.4277 69.7865 74.0347ZM67.5831 70.7296H45.5492V66.3228H67.5831V70.7296ZM63.3041 72.933H65.5835C65.459 73.279 65.3797 73.6469 65.3797 74.0347C65.3797 75.8569 66.8626 77.3398 68.6848 77.3398C70.507 77.3398 71.9899 75.8569 71.9899 74.0347C71.9899 72.6003 71.0656 71.3884 69.7865 70.9323V68.6375C72.2973 69.1498 74.1933 71.3741 74.1933 74.0347C74.1933 77.0721 71.7222 79.5432 68.6848 79.5432C65.6474 79.5432 63.1763 77.0721 63.1763 74.0347C63.1763 73.6667 63.227 73.2988 63.3041 72.933ZM67.5831 64.1195H45.5492V59.7127H67.5831V64.1195ZM43.3458 59.7127V64.1195H36.7356V59.7127H43.3458ZM36.7356 66.3228H43.3458V70.7296H36.7356V66.3228ZM80.8035 71.5901V76.4794L78.6562 77.0159L78.0679 77.2384L77.5557 78.4966L78.9835 80.8762L75.5252 84.3334L73.1467 82.9056L71.8026 83.4597L71.1295 86.1534H66.2401L65.567 83.4586L64.2229 82.9045L61.8444 84.3323L58.3861 80.8751L59.8139 78.4955L59.2675 77.1536L56.5661 76.4794V72.933H61.0688C61.0148 73.2988 60.9729 73.6656 60.9729 74.0347C60.9729 78.2873 64.4334 81.7466 68.6848 81.7466C72.9362 81.7466 76.3967 78.2873 76.3967 74.0347C76.3967 70.1578 73.5168 66.9486 69.7865 66.411V61.9161H71.1295L71.8026 64.6108L73.1467 65.165L75.5252 63.7372L78.9835 67.1943L77.5557 69.5717L78.1021 70.9158L80.8035 71.5901Z" fill="white"/>
<path d="M53.2607 42.0856V53.1025H88.515V42.0856H53.2607ZM55.4641 44.289H62.0743V50.8991H55.4641V44.289ZM86.3116 50.8991H64.2777V44.289H86.3116V50.8991Z" fill="white"/>
<path d="M49.9561 75.1365H52.1594V77.3399H49.9561V75.1365Z" fill="white"/>
<path d="M45.5488 75.1365H47.7522V77.3399H45.5488V75.1365Z" fill="white"/>
<path d="M22.4134 71.8313V52.0008C22.4134 50.1786 23.8962 48.6957 25.7184 48.6957H40.0405V53.7833L52.4191 47.594L40.0405 41.4047V46.4923H25.7184C22.6811 46.4923 20.21 48.9634 20.21 52.0008V71.8313C20.21 74.8687 22.6811 77.3398 25.7184 77.3398H43.3456V75.1364H25.7184C23.8962 75.1364 22.4134 73.6535 22.4134 71.8313ZM42.2439 44.9698L47.4924 47.594L42.2439 50.2182V44.9698Z" fill="white"/>
<path d="M62.0746 20.0516H26.8203V35.4754H62.0746V20.0516ZM59.8712 26.6618H37.8373V22.255H59.8712V26.6618ZM35.6339 22.255V26.6618H29.0237V22.255H35.6339ZM29.0237 28.8652H35.6339V33.272H29.0237V28.8652ZM37.8373 33.272V28.8652H59.8712V33.272H37.8373Z" fill="white"/>
<path d="M73.0918 46.4923H75.2952V48.6957H73.0918V46.4923Z" fill="white"/>
<path d="M77.498 46.4923H79.7014V48.6957H77.498V46.4923Z" fill="white"/>
<path d="M81.9053 46.4923H84.1087V48.6957H81.9053V46.4923Z" fill="white"/>
<path d="M64.2773 26.6619H66.4807V28.8653H64.2773V26.6619Z" fill="white"/>
<path d="M79.7015 29.967V33.272H75.2947L80.8032 40.617L86.3117 33.272H81.9049V29.967C81.9049 28.1447 80.422 26.6619 78.5998 26.6619H68.6846V28.8653H78.5998C79.208 28.8653 79.7015 29.3599 79.7015 29.967ZM80.8032 36.944L79.7015 35.4754H81.9049L80.8032 36.944Z" fill="white"/>
</g>
<defs>
<filter id="filter11_d" x="0.209961" y="0.0516357" width="108.305" height="108.305" filterUnits="userSpaceOnUse" color-interpolation-filters="sRGB">
<feFlood flood-opacity="0" result="BackgroundImageFix"/>
<feColorMatrix in="SourceAlpha" type="matrix" values="0 0 0 0 0 0 0 0 0 0 0 0 0 0 0 0 0 0 127 0"/>
<feOffset/>
<feGaussianBlur stdDeviation="10"/>
<feColorMatrix type="matrix" values="0 0 0 0 0.176471 0 0 0 0 0.611765 0 0 0 0 0.858824 0 0 0 1 0"/>
<feBlend mode="normal" in2="BackgroundImageFix" result="effect1_dropShadow"/>
<feBlend mode="normal" in="SourceGraphic" in2="effect1_dropShadow" result="shape"/>
</filter>
</defs>
</svg>
