<svg width="103" height="103" viewBox="0 0 103 103" fill="none" xmlns="http://www.w3.org/2000/svg">
<g filter="url(#filter22_d)">
<path d="M61.2143 20H75.6714C79.6854 20 82.9512 23.2657 82.9512 27.2797V41.7369C82.9512 45.7509 79.6854 49.0166 75.6714 49.0166H61.2143C57.2003 49.0166 53.9345 45.7509 53.9345 41.7369V27.2797C53.9345 23.2657 57.2003 20 61.2143 20ZM58.8526 41.7369C58.8526 43.0391 59.9121 44.0986 61.2143 44.0986H75.6714C76.9736 44.0986 78.0331 43.0391 78.0331 41.7369V27.2797C78.0331 25.9775 76.9736 24.9181 75.6714 24.9181H61.2143C59.9121 24.9181 58.8526 25.9775 58.8526 27.2797V41.7369Z" fill="white"/>
<path d="M27.3771 20H41.6395C45.7072 20 49.0166 23.3094 49.0166 27.3771V41.6395C49.0166 45.7073 45.7072 49.0166 41.6395 49.0166H27.3771C23.3093 49.0166 20 45.7073 20 41.6395V27.3771C20 23.3094 23.3093 20 27.3771 20ZM24.9181 41.6395C24.9181 42.9954 26.0212 44.0986 27.3771 44.0986H41.6395C42.9954 44.0986 44.0985 42.9954 44.0985 41.6395V27.3771C44.0985 26.0212 42.9954 24.9181 41.6395 24.9181H27.3771C26.0212 24.9181 24.9181 26.0212 24.9181 27.3771V41.6395Z" fill="white"/>
<path d="M61.2143 53.9346H75.6714C79.6854 53.9346 82.9512 57.2003 82.9512 61.2143V75.6715C82.9512 79.6855 79.6854 82.9512 75.6714 82.9512H61.2143C57.2003 82.9512 53.9345 79.6855 53.9345 75.6715V61.2143C53.9345 57.2003 57.2003 53.9346 61.2143 53.9346ZM58.8526 75.6715C58.8526 76.9736 59.9121 78.0331 61.2143 78.0331H75.6714C76.9736 78.0331 78.0331 76.9736 78.0331 75.6715V61.2143C78.0331 59.9121 76.9736 58.8526 75.6714 58.8526H61.2143C59.9121 58.8526 58.8526 59.9121 58.8526 61.2143V75.6715Z" fill="white"/>
<path d="M27.3771 53.9346H41.6395C45.7072 53.9346 49.0166 57.2439 49.0166 61.3117V75.5741C49.0166 79.6418 45.7072 82.9512 41.6395 82.9512H27.3771C23.3093 82.9512 20 79.6418 20 75.5741V61.3117C20 57.2439 23.3093 53.9346 27.3771 53.9346ZM24.9181 75.5741C24.9181 76.93 26.0212 78.0331 27.3771 78.0331H41.6395C42.9954 78.0331 44.0985 76.93 44.0985 75.5741V61.3117C44.0985 59.9558 42.9954 58.8526 41.6395 58.8526H27.3771C26.0212 58.8526 24.9181 59.9558 24.9181 61.3117V75.5741Z" fill="white"/>
</g>
<defs>
<filter id="filter22_d" x="0" y="0" width="102.951" height="102.951" filterUnits="userSpaceOnUse" color-interpolation-filters="sRGB">
<feFlood flood-opacity="0" result="BackgroundImageFix"/>
<feColorMatrix in="SourceAlpha" type="matrix" values="0 0 0 0 0 0 0 0 0 0 0 0 0 0 0 0 0 0 127 0"/>
<feOffset/>
<feGaussianBlur stdDeviation="10"/>
<feColorMatrix type="matrix" values="0 0 0 0 0.176471 0 0 0 0 0.611765 0 0 0 0 0.858824 0 0 0 1 0"/>
<feBlend mode="normal" in2="BackgroundImageFix" result="effect1_dropShadow"/>
<feBlend mode="normal" in="SourceGraphic" in2="effect1_dropShadow" result="shape"/>
</filter>
</defs>
</svg>
