<svg width="65" height="102" viewBox="0 0 65 102" fill="none" xmlns="http://www.w3.org/2000/svg">
<g filter="url(#filter21_d)">
<path d="M26.9858 43.099C27.1342 43.1774 27.2933 43.2146 27.4502 43.2146C27.8076 43.2146 28.1533 43.0216 28.3319 42.6835C28.589 42.197 28.4029 41.5944 27.9164 41.3374C24.6621 39.6182 22.6404 36.2715 22.6404 32.6035C22.6404 30.0146 23.6394 27.5666 25.453 25.7103C27.2637 23.8571 29.6815 22.8014 32.2668 22.7372C32.4291 22.7323 32.5857 22.7322 32.76 22.7374C35.339 22.8012 37.7566 23.8571 39.5674 25.7103C41.3814 27.5669 42.3805 30.0148 42.3805 32.6035C42.3805 36.2714 40.3589 39.6176 37.1047 41.3361C36.6182 41.593 36.4321 42.1956 36.689 42.6821C36.946 43.1685 37.5487 43.3547 38.035 43.0977C41.9443 41.0333 44.3728 37.0121 44.3728 32.6035C44.3728 29.4913 43.1722 26.5488 40.9924 24.318C38.8166 22.0912 35.9104 20.8227 32.8151 20.7459C32.6119 20.7398 32.4032 20.7399 32.212 20.7457C29.1103 20.8227 26.2039 22.0912 24.0283 24.318C21.8487 26.5487 20.6484 29.4913 20.6484 32.6035C20.6483 37.0122 23.0767 41.0338 26.9858 43.099Z" fill="white"/>
<path d="M40.9128 32.6035C40.9128 28.478 37.8382 24.9059 33.7607 24.2944C32.9404 24.1714 32.0818 24.1714 31.2616 24.2944C27.1842 24.9059 24.1094 28.478 24.1094 32.6035C24.1094 35.3429 25.455 37.9187 27.7089 39.4939C28.1601 39.8091 28.7808 39.6989 29.096 39.2481C29.4112 38.7972 29.3011 38.1761 28.8502 37.8609C27.1291 36.6581 26.1016 34.6927 26.1016 32.6035C26.1016 29.4562 28.4469 26.7311 31.557 26.2646C32.1822 26.1708 32.84 26.1708 33.4652 26.2646C36.5753 26.7311 38.9204 29.4561 38.9204 32.6035C38.9204 34.6927 37.893 36.6581 36.1719 37.8609C35.721 38.1761 35.6109 38.7972 35.9261 39.2481C36.1198 39.5253 36.429 39.6736 36.7434 39.6736C36.9404 39.6736 37.1393 39.6153 37.3132 39.4939C39.5673 37.9186 40.9128 35.3427 40.9128 32.6035Z" fill="white"/>
<path d="M41.4535 74.7555H40.229L33.6722 37.4052C35.8377 36.8811 37.4514 34.9278 37.4514 32.6034C37.4514 29.8789 35.235 27.6625 32.5105 27.6625C29.786 27.6625 27.5695 29.8789 27.5695 32.6034C27.5695 34.9278 29.1832 36.8811 31.3487 37.4052L24.7919 74.7555H23.5674C23.0172 74.7555 22.5713 75.2015 22.5713 75.7516V80.1199C22.5713 80.67 23.0172 81.116 23.5674 81.116H41.4535C42.0038 81.116 42.4496 80.67 42.4496 80.1199V75.7516C42.4496 75.2015 42.0038 74.7555 41.4535 74.7555ZM29.5618 32.6034C29.5618 30.9775 30.8845 29.6547 32.5105 29.6547C34.1364 29.6547 35.4592 30.9775 35.4592 32.6034C35.4592 34.2294 34.1364 35.5521 32.5105 35.5521C30.8845 35.5521 29.5618 34.2294 29.5618 32.6034ZM37.4027 70.1776H27.6182L32.5105 42.3094L37.4027 70.1776ZM27.2685 72.1699H37.7525L38.2064 74.7555H26.8146L27.2685 72.1699ZM40.4574 79.1237H24.5636V76.7477H40.4574V79.1237Z" fill="white"/>
</g>
<defs>
<filter id="filter21_d" x="0.648438" y="0.741333" width="63.7243" height="100.375" filterUnits="userSpaceOnUse" color-interpolation-filters="sRGB">
<feFlood flood-opacity="0" result="BackgroundImageFix"/>
<feColorMatrix in="SourceAlpha" type="matrix" values="0 0 0 0 0 0 0 0 0 0 0 0 0 0 0 0 0 0 127 0"/>
<feOffset/>
<feGaussianBlur stdDeviation="10"/>
<feColorMatrix type="matrix" values="0 0 0 0 0.176471 0 0 0 0 0.611765 0 0 0 0 0.858824 0 0 0 1 0"/>
<feBlend mode="normal" in2="BackgroundImageFix" result="effect1_dropShadow"/>
<feBlend mode="normal" in="SourceGraphic" in2="effect1_dropShadow" result="shape"/>
</filter>
</defs>
</svg>
