<svg width="89" height="105" viewBox="0 0 89 105" fill="none" xmlns="http://www.w3.org/2000/svg">
<g filter="url(#filter07_d)">
<path d="M27.2109 28.4378H28.3536V27.2951C28.3535 23.4759 31.4606 20.3688 35.2798 20.3688H53.4352C57.2544 20.3688 60.3615 23.4759 60.3615 27.2951V28.4378H61.5042C65.3234 28.4378 68.4307 31.545 68.4307 35.3643V82.7694C68.4307 83.8095 67.5874 84.6528 66.5473 84.6528H22.1679C21.1278 84.6528 20.2846 83.8095 20.2846 82.7694V35.3643C20.2846 31.545 23.3917 28.4378 27.2109 28.4378ZM56.5949 27.2951C56.5949 25.5528 55.1775 24.1354 53.4352 24.1354H35.2798C33.5375 24.1354 32.1201 25.5528 32.1201 27.2951V28.4378H56.5949V27.2951ZM41.3316 72.5493C39.5893 72.5493 38.1719 73.9668 38.1719 75.7091V80.8861H42.4742V72.5493H41.3316ZM46.2409 80.8861H50.5433V75.7091C50.5433 73.9668 49.1258 72.5493 47.3834 72.5493H46.2409V80.8861ZM24.0512 80.8861H34.4054V75.7091C34.4054 71.8899 37.5125 68.7826 41.3317 68.7826H47.3834C51.2027 68.7826 54.3099 71.8899 54.3099 75.7091V80.8861H64.6639V35.3643C64.6639 33.6219 63.2464 32.2044 61.5041 32.2044H27.2108C25.4685 32.2044 24.0511 33.6219 24.0511 35.3643V80.8861H24.0512Z" fill="white"/>
<path d="M56.4604 36.5061C56.9564 36.5061 57.441 36.7071 57.7924 37.0574C58.1427 37.409 58.3438 37.8949 58.3438 38.3894C58.3438 38.8854 58.1427 39.3701 57.7924 39.7216C57.4409 40.0719 56.9564 40.2727 56.4604 40.2727C55.9645 40.2727 55.4797 40.0719 55.1283 39.7216C54.778 39.3713 54.5771 38.8854 54.5771 38.3894C54.5771 37.8949 54.778 37.4088 55.1283 37.0574C55.4798 36.7071 55.9645 36.5061 56.4604 36.5061Z" fill="white"/>
<path d="M48.3911 36.5061C48.887 36.5061 49.3729 36.7071 49.7232 37.0574C50.0735 37.409 50.2744 37.8949 50.2744 38.3894C50.2744 38.8854 50.0735 39.3701 49.7232 39.7216C49.3729 40.0719 48.887 40.2727 48.3911 40.2727C47.8953 40.2727 47.4105 40.0719 47.0602 39.7216C46.7087 39.37 46.5078 38.8854 46.5078 38.3894C46.5078 37.8949 46.7088 37.4088 47.0602 37.0574C47.4105 36.7071 47.8964 36.5061 48.3911 36.5061Z" fill="white"/>
<path d="M56.4604 44.5759C56.9564 44.5759 57.441 44.7768 57.7924 45.1271C58.1427 45.4788 58.3438 45.9633 58.3438 46.4592C58.3438 46.9552 58.1427 47.4411 57.7924 47.7914C57.4409 48.1417 56.9564 48.3426 56.4604 48.3426C55.9645 48.3426 55.4797 48.1417 55.1283 47.7914C54.778 47.4411 54.5771 46.9552 54.5771 46.4592C54.5771 45.9633 54.778 45.4787 55.1283 45.1271C55.4798 44.7767 55.9645 44.5759 56.4604 44.5759Z" fill="white"/>
<path d="M48.3911 44.5759C48.887 44.5759 49.3729 44.7768 49.7232 45.1271C50.0735 45.4788 50.2744 45.9633 50.2744 46.4592C50.2744 46.9552 50.0735 47.4411 49.7232 47.7914C49.3729 48.1417 48.887 48.3426 48.3911 48.3426C47.8965 48.3426 47.4105 48.1417 47.0591 47.7914C46.7088 47.4411 46.5078 46.9552 46.5078 46.4592C46.5078 45.9633 46.7088 45.4787 47.0591 45.1271C47.4105 44.7767 47.8964 44.5759 48.3911 44.5759Z" fill="white"/>
<path d="M56.4604 52.645C56.9564 52.645 57.441 52.846 57.7924 53.1963C58.1427 53.5466 58.3438 54.0325 58.3438 54.5283C58.3438 55.023 58.1427 55.509 57.7924 55.8593C57.4409 56.2109 56.9564 56.4117 56.4604 56.4117C55.9645 56.4117 55.4797 56.2108 55.1283 55.8593C54.778 55.509 54.5771 55.0232 54.5771 54.5283C54.5771 54.0325 54.778 53.5466 55.1283 53.1963C55.4798 52.846 55.9645 52.645 56.4604 52.645Z" fill="white"/>
<path d="M48.3911 52.645C48.887 52.645 49.3729 52.846 49.7232 53.1963C50.0735 53.5466 50.2744 54.0325 50.2744 54.5283C50.2744 55.023 50.0735 55.509 49.7232 55.8593C49.3729 56.2109 48.887 56.4117 48.3911 56.4117C47.8965 56.4117 47.4105 56.2108 47.0591 55.8593C46.7088 55.509 46.5078 55.0232 46.5078 54.5283C46.5078 54.0325 46.7088 53.5466 47.0591 53.1963C47.4105 52.846 47.8964 52.645 48.3911 52.645Z" fill="white"/>
<path d="M56.4604 60.7133C56.9564 60.7133 57.441 60.9141 57.7924 61.2656C58.1427 61.6159 58.3438 62.1005 58.3438 62.5966C58.3438 63.0924 58.1427 63.5783 57.7924 63.9286C57.4409 64.2789 56.9564 64.4799 56.4604 64.4799C55.9645 64.4799 55.4786 64.2789 55.1283 63.9286C54.778 63.5783 54.5771 63.0924 54.5771 62.5966C54.5771 62.1006 54.778 61.6159 55.1283 61.2656C55.4786 60.9141 55.9645 60.7133 56.4604 60.7133Z" fill="white"/>
<path d="M48.3911 60.7133C48.887 60.7133 49.3729 60.9141 49.7232 61.2656C50.0735 61.6159 50.2744 62.1005 50.2744 62.5966C50.2744 63.0924 50.0735 63.5783 49.7232 63.9286C49.3729 64.2789 48.887 64.4799 48.3911 64.4799C47.8953 64.4799 47.4105 64.2789 47.0602 63.9286C46.7087 63.5783 46.5078 63.0924 46.5078 62.5966C46.5078 62.1006 46.7088 61.6159 47.0602 61.2656C47.4105 60.9141 47.8953 60.7133 48.3911 60.7133Z" fill="white"/>
<path d="M40.3229 36.5061C40.8176 36.5061 41.3036 36.7071 41.6538 37.0574C42.0041 37.409 42.2051 37.8936 42.2051 38.3894C42.2051 38.8854 42.0041 39.3713 41.6538 39.7216C41.3036 40.0719 40.819 40.2727 40.3229 40.2727C39.8269 40.2727 39.3411 40.0719 38.9908 39.7216C38.6405 39.3713 38.4396 38.8854 38.4396 38.3894C38.4396 37.8949 38.6405 37.4088 38.9908 37.0574C39.3411 36.7071 39.8269 36.5061 40.3229 36.5061Z" fill="white"/>
<path d="M32.2534 36.5061C32.7492 36.5061 33.234 36.7071 33.5854 37.0574C33.9357 37.409 34.1367 37.8949 34.1367 38.3894C34.1367 38.8854 33.9357 39.3713 33.5854 39.7216C33.2351 40.0719 32.7492 40.2727 32.2534 40.2727C31.7575 40.2727 31.2727 40.0719 30.9213 39.7216C30.571 39.3713 30.3701 38.8854 30.3701 38.3894C30.3701 37.8936 30.571 37.4088 30.9213 37.0574C31.2727 36.7071 31.7573 36.5061 32.2534 36.5061Z" fill="white"/>
<path d="M40.3227 44.5759C40.8174 44.5759 41.3034 44.7768 41.6536 45.1271C42.0053 45.4788 42.2061 45.9633 42.2061 46.4592C42.2061 46.9552 42.0052 47.4411 41.6536 47.7914C41.3034 48.1417 40.8175 48.3426 40.3227 48.3426C39.8268 48.3426 39.3422 48.1417 38.9906 47.7914C38.6403 47.4411 38.4394 46.9552 38.4394 46.4592C38.4394 45.9633 38.6403 45.4787 38.9906 45.1271C39.3422 44.7767 39.8268 44.5759 40.3227 44.5759Z" fill="white"/>
<path d="M32.2534 44.5759C32.7492 44.5759 33.234 44.7768 33.5854 45.1271C33.9357 45.4788 34.1367 45.9633 34.1367 46.4592C34.1367 46.9552 33.9357 47.4398 33.5854 47.7914C33.2339 48.1417 32.7492 48.3426 32.2534 48.3426C31.7575 48.3426 31.2727 48.1417 30.9213 47.7914C30.571 47.4397 30.3701 46.9552 30.3701 46.4592C30.3701 45.9633 30.571 45.4787 30.9213 45.1271C31.2727 44.7767 31.7573 44.5759 32.2534 44.5759Z" fill="white"/>
<path d="M40.3229 52.645C40.8176 52.645 41.3036 52.846 41.6538 53.1963C42.0041 53.5466 42.2051 54.0325 42.2051 54.5283C42.2051 55.0243 42.0041 55.509 41.6538 55.8593C41.3036 56.2109 40.8177 56.4117 40.3229 56.4117C39.8269 56.4117 39.3411 56.2108 38.9908 55.8593C38.6405 55.509 38.4396 55.0232 38.4396 54.5283C38.4396 54.0325 38.6405 53.5466 38.9908 53.1963C39.3411 52.846 39.8269 52.645 40.3229 52.645Z" fill="white"/>
<path d="M32.2534 52.645C32.7492 52.645 33.234 52.846 33.5854 53.1963C33.9357 53.5466 34.1367 54.0325 34.1367 54.5283C34.1367 55.023 33.9357 55.509 33.5854 55.8593C33.2339 56.2109 32.7492 56.4117 32.2534 56.4117C31.7575 56.4117 31.2727 56.2108 30.9213 55.8593C30.571 55.509 30.3701 55.0232 30.3701 54.5283C30.3701 54.0325 30.571 53.5466 30.9213 53.1963C31.2727 52.846 31.7573 52.645 32.2534 52.645Z" fill="white"/>
<path d="M40.3227 60.7133C40.8174 60.7133 41.3034 60.9141 41.6536 61.2656C42.0053 61.6159 42.2061 62.1005 42.2061 62.5966C42.2061 63.0924 42.0052 63.5783 41.6536 63.9286C41.3034 64.2789 40.8175 64.4799 40.3227 64.4799C39.8268 64.4799 39.3409 64.2789 38.9906 63.9286C38.6403 63.5783 38.4394 63.0924 38.4394 62.5966C38.4394 62.1006 38.6403 61.6159 38.9906 61.2656C39.3409 60.9141 39.8268 60.7133 40.3227 60.7133Z" fill="white"/>
<path d="M32.2534 60.7133C32.7492 60.7133 33.234 60.9141 33.5854 61.2656C33.9357 61.6159 34.1367 62.1005 34.1367 62.5966C34.1367 63.0924 33.9357 63.5783 33.5854 63.9286C33.2339 64.2789 32.7492 64.4799 32.2534 64.4799C31.7575 64.4799 31.2727 64.2789 30.9213 63.9286C30.571 63.5783 30.3701 63.0924 30.3701 62.5966C30.3701 62.1006 30.571 61.6159 30.9213 61.2656C31.2727 60.9141 31.7573 60.7133 32.2534 60.7133Z" fill="white"/>
</g>
<defs>
<filter id="filter07_d" x="0.28418" y="0.368774" width="88.1461" height="104.284" filterUnits="userSpaceOnUse" color-interpolation-filters="sRGB">
<feFlood flood-opacity="0" result="BackgroundImageFix"/>
<feColorMatrix in="SourceAlpha" type="matrix" values="0 0 0 0 0 0 0 0 0 0 0 0 0 0 0 0 0 0 127 0"/>
<feOffset/>
<feGaussianBlur stdDeviation="10"/>
<feColorMatrix type="matrix" values="0 0 0 0 0.176471 0 0 0 0 0.611765 0 0 0 0 0.858824 0 0 0 1 0"/>
<feBlend mode="normal" in2="BackgroundImageFix" result="effect1_dropShadow"/>
<feBlend mode="normal" in="SourceGraphic" in2="effect1_dropShadow" result="shape"/>
</filter>
</defs>
</svg>
