<svg width="95" height="95" viewBox="0 0 95 95" fill="none" xmlns="http://www.w3.org/2000/svg">
<g filter="url(#filter08_d)">
<path d="M72.7673 71.5363H67.4158V39.8564L69.0445 40.5258C69.2403 40.6065 69.4427 40.6446 69.6418 40.6446C70.2607 40.6446 70.8477 40.2767 71.0976 39.6688C71.4278 38.8655 71.044 37.9463 70.2407 37.6161L67.4158 36.4552V34.3971L69.0445 35.0665C69.2399 35.1468 69.4427 35.1849 69.6418 35.1849C70.2607 35.1849 70.8473 34.8174 71.0972 34.2095C71.4278 33.4062 71.044 32.487 70.2403 32.1568L43.3609 21.1084C42.5576 20.7783 41.6384 21.1621 41.3078 21.9654C40.9776 22.7691 41.3615 23.6879 42.1648 24.0185L43.8353 24.7051V26.7627L43.3609 26.5677C42.5576 26.2379 41.6384 26.6214 41.3082 27.4247C40.9776 28.2284 41.3615 29.1476 42.1652 29.4778L43.8353 30.1643V33.2973L30.4691 40.2099C28.6962 41.1267 27.5951 42.9369 27.5951 44.9339V71.5363H22.2215C21.3526 71.5363 20.6484 72.2405 20.6484 73.1093C20.6484 73.9782 21.3526 74.6824 22.2215 74.6824H72.7673C73.6362 74.6824 74.3403 73.9782 74.3403 73.1093C74.3403 72.2405 73.6362 71.5363 72.7673 71.5363ZM46.9813 25.9979L64.2698 33.1039V35.1619L46.9813 28.0559V25.9979ZM38.861 71.5363V66.5326C38.861 65.6641 38.1569 64.9596 37.288 64.9596C36.4196 64.9596 35.715 65.6641 35.715 66.5326V71.5363H30.7411V61.8016H37.288C38.1569 61.8016 38.861 61.0971 38.861 60.2286C38.861 59.3598 38.1569 58.6556 37.288 58.6556H30.7411V56.0269H37.288C38.1569 56.0269 38.861 55.3228 38.861 54.4539C38.861 53.5855 38.1569 52.8809 37.288 52.8809H30.7411V50.1703H37.288C38.1569 50.1703 38.861 49.4662 38.861 48.5973C38.861 47.7285 38.1569 47.0243 37.288 47.0243H30.7411V44.9339C30.7411 44.1179 31.1905 43.3785 31.9144 43.0041L43.8353 36.839V71.5363H38.861ZM60.3446 71.5363V66.5326C60.3446 65.6641 59.6404 64.9596 58.7716 64.9596C57.9027 64.9596 57.1986 65.6641 57.1986 66.5326V71.5363H54.0525V66.5326C54.0525 65.6641 53.3483 64.9596 52.4795 64.9596C51.6107 64.9596 50.9065 65.6641 50.9065 66.5326V71.5363H46.9813V31.4572L64.2698 38.5632V71.5363H60.3446Z" fill="white"/>
<path d="M52.4558 53.3586C53.3247 53.3586 54.0288 52.6544 54.0288 51.7856V48.5969C54.0288 47.7281 53.3247 47.0239 52.4558 47.0239C51.5874 47.0239 50.8828 47.7281 50.8828 48.5969V51.7856C50.8828 52.6544 51.587 53.3586 52.4558 53.3586Z" fill="white"/>
<path d="M58.7752 53.3586C59.644 53.3586 60.3482 52.6544 60.3482 51.7856V48.5969C60.3482 47.7281 59.644 47.0239 58.7752 47.0239C57.9063 47.0239 57.2021 47.7281 57.2021 48.5969V51.7856C57.2021 52.6544 57.9063 53.3586 58.7752 53.3586Z" fill="white"/>
<path d="M52.4763 55.4659C51.6075 55.4659 50.9033 56.1701 50.9033 57.039V60.2276C50.9033 61.0964 51.6075 61.8006 52.4763 61.8006C53.3452 61.8006 54.0494 61.0964 54.0494 60.2276V57.039C54.0494 56.1701 53.3452 55.4659 52.4763 55.4659Z" fill="white"/>
<path d="M58.7966 55.4659C57.9282 55.4659 57.2236 56.1701 57.2236 57.039V60.2276C57.2236 61.0964 57.9282 61.8006 58.7966 61.8006C59.6655 61.8006 60.3697 61.0964 60.3697 60.2276V57.039C60.3697 56.1701 59.6655 55.4659 58.7966 55.4659Z" fill="white"/>
<path d="M52.4675 44.9455C53.3364 44.9455 54.0406 44.2409 54.0406 43.3725V40.1839C54.0406 39.315 53.3364 38.6108 52.4675 38.6108C51.5987 38.6108 50.8945 39.315 50.8945 40.1839V43.3725C50.8945 44.2409 51.5987 44.9455 52.4675 44.9455Z" fill="white"/>
<path d="M58.7869 44.945C59.6553 44.945 60.3599 44.2404 60.3599 43.372V40.1834C60.3599 39.3145 59.6553 38.6104 58.7869 38.6104C57.918 38.6104 57.2139 39.3145 57.2139 40.1834V43.372C57.2139 44.2404 57.918 44.945 58.7869 44.945Z" fill="white"/>
</g>
<defs>
<filter id="filter08_d" x="0.648438" y="0.98999" width="93.6919" height="93.6924" filterUnits="userSpaceOnUse" color-interpolation-filters="sRGB">
<feFlood flood-opacity="0" result="BackgroundImageFix"/>
<feColorMatrix in="SourceAlpha" type="matrix" values="0 0 0 0 0 0 0 0 0 0 0 0 0 0 0 0 0 0 127 0"/>
<feOffset/>
<feGaussianBlur stdDeviation="10"/>
<feColorMatrix type="matrix" values="0 0 0 0 0.176471 0 0 0 0 0.611765 0 0 0 0 0.858824 0 0 0 1 0"/>
<feBlend mode="normal" in2="BackgroundImageFix" result="effect1_dropShadow"/>
<feBlend mode="normal" in="SourceGraphic" in2="effect1_dropShadow" result="shape"/>
</filter>
</defs>
</svg>
