<svg width="51" height="52" viewBox="0 0 51 52" fill="none" xmlns="http://www.w3.org/2000/svg">
<path d="M50.2985 48.0282L38.0564 35.7861C41.091 32.0865 42.92 27.3476 42.92 22.1827C42.92 10.3355 33.3072 0.722656 21.46 0.722656C9.60244 0.722656 0 10.3355 0 22.1827C0 34.0298 9.60244 43.6427 21.46 43.6427C26.625 43.6427 31.3534 41.824 35.0531 38.7895L47.2951 51.0212C48.1265 51.8525 49.4671 51.8525 50.2985 51.0212C51.1299 50.2002 51.1299 48.8492 50.2985 48.0282ZM21.46 39.3714C11.9719 39.3714 4.26082 31.6604 4.26082 22.1827C4.26082 12.7049 11.9719 4.98348 21.46 4.98348C30.9377 4.98348 38.6592 12.7049 38.6592 22.1827C38.6592 31.6604 30.9377 39.3714 21.46 39.3714Z" fill="white"/>
</svg>
