<svg width="63" height="63" viewBox="0 0 63 63" fill="none" xmlns="http://www.w3.org/2000/svg">
<path d="M41.2143 0H55.6714C59.6854 0 62.9512 3.26572 62.9512 7.27973V21.7369C62.9512 25.7509 59.6854 29.0166 55.6714 29.0166H41.2143C37.2003 29.0166 33.9345 25.7509 33.9345 21.7369V7.27973C33.9345 3.26572 37.2003 0 41.2143 0ZM38.8526 21.7369C38.8526 23.0391 39.9121 24.0986 41.2143 24.0986H55.6714C56.9736 24.0986 58.0331 23.0391 58.0331 21.7369V7.27973C58.0331 5.97755 56.9736 4.91807 55.6714 4.91807H41.2143C39.9121 4.91807 38.8526 5.97755 38.8526 7.27973V21.7369Z" fill="white"/>
<path d="M7.37709 0H21.6395C25.7072 0 29.0166 3.30937 29.0166 7.37711V21.6395C29.0166 25.7073 25.7072 29.0166 21.6395 29.0166H7.37709C3.30935 29.0166 -2.09808e-05 25.7073 -2.09808e-05 21.6395V7.37711C-2.09808e-05 3.30937 3.30935 0 7.37709 0ZM4.91805 21.6395C4.91805 22.9954 6.02117 24.0986 7.37709 24.0986H21.6395C22.9954 24.0986 24.0985 22.9954 24.0985 21.6395V7.37711C24.0985 6.02119 22.9954 4.91807 21.6395 4.91807H7.37709C6.02117 4.91807 4.91805 6.02119 4.91805 7.37711V21.6395Z" fill="white"/>
<path d="M41.2143 33.9346H55.6714C59.6854 33.9346 62.9512 37.2003 62.9512 41.2143V55.6715C62.9512 59.6855 59.6854 62.9512 55.6714 62.9512H41.2143C37.2003 62.9512 33.9345 59.6855 33.9345 55.6715V41.2143C33.9345 37.2003 37.2003 33.9346 41.2143 33.9346ZM38.8526 55.6715C38.8526 56.9736 39.9121 58.0331 41.2143 58.0331H55.6714C56.9736 58.0331 58.0331 56.9736 58.0331 55.6715V41.2143C58.0331 39.9121 56.9736 38.8526 55.6714 38.8526H41.2143C39.9121 38.8526 38.8526 39.9121 38.8526 41.2143V55.6715Z" fill="white"/>
<path d="M7.37709 33.9346H21.6395C25.7072 33.9346 29.0166 37.2439 29.0166 41.3117V55.5741C29.0166 59.6418 25.7072 62.9512 21.6395 62.9512H7.37709C3.30935 62.9512 -2.09808e-05 59.6418 -2.09808e-05 55.5741V41.3117C-2.09808e-05 37.2439 3.30935 33.9346 7.37709 33.9346ZM4.91805 55.5741C4.91805 56.93 6.02117 58.0331 7.37709 58.0331H21.6395C22.9954 58.0331 24.0985 56.93 24.0985 55.5741V41.3117C24.0985 39.9558 22.9954 38.8526 21.6395 38.8526H7.37709C6.02117 38.8526 4.91805 39.9558 4.91805 41.3117V55.5741Z" fill="white"/>
</svg>
