<svg width="46" height="46" viewBox="0 0 46 46" fill="none" xmlns="http://www.w3.org/2000/svg">
<path d="M17.9638 32.3346H24.0715V35.9273H17.9638V32.3346ZM11.2273 31.8858C9.98705 31.8858 8.98192 32.8909 8.98192 34.1311C8.98192 35.3711 9.98705 36.3765 11.2273 36.3765C12.4676 36.3765 13.4727 35.3711 13.4727 34.1311C13.4727 32.8909 12.4676 31.8858 11.2273 31.8858ZM36.107 20.9276H17.9638V24.5203H36.107V20.9276ZM11.2273 20.4788C9.98705 20.4788 8.98192 21.4839 8.98192 22.7242C8.98192 23.9644 9.98705 24.9695 11.2273 24.9695C12.4676 24.9695 13.4727 23.9644 13.4727 22.7242C13.4727 21.4839 12.4676 20.4788 11.2273 20.4788ZM36.107 10.1495H17.9638V13.7422H36.107V10.1495ZM11.2273 9.70032C9.98705 9.70032 8.98192 10.7058 8.98192 11.9457C8.98192 13.186 9.98705 14.1915 11.2273 14.1915C12.4676 14.1915 13.4727 13.186 13.4727 11.9457C13.4727 10.7058 12.4676 9.70032 11.2273 9.70032ZM3.5927 40.5981V5.38922C3.5927 4.39848 4.39848 3.5927 5.38922 3.5927H40.5981C41.5885 3.5927 42.3943 4.39848 42.3943 5.38922V25.6883H45.987V5.38922C45.987 2.41771 43.5697 0 40.5981 0H5.38922C2.41771 0 0 2.41771 0 5.38922V40.5981C0 43.5697 2.41771 45.987 5.38922 45.987H26.1372V42.3943H5.38922C4.39848 42.3943 3.5927 41.5885 3.5927 40.5981ZM43.4595 46L39.8819 42.4224C38.6714 43.1457 37.2574 43.5619 35.748 43.5619C31.2905 43.5619 27.6642 39.9355 27.6642 35.4785C27.6642 31.021 31.2905 27.3946 35.748 27.3946C40.2051 27.3946 43.8315 31.021 43.8315 35.4785C43.8315 37.1276 43.3345 38.6626 42.4835 39.9429L46 43.4595L43.4595 46ZM35.748 39.9692C38.2243 39.9692 40.2388 37.9548 40.2388 35.4785C40.2388 33.0021 38.2243 30.9873 35.748 30.9873C33.2717 30.9873 31.2569 33.0021 31.2569 35.4785C31.2569 37.9548 33.2717 39.9692 35.748 39.9692Z" fill="white"/>
</svg>
