<svg class="logo" width="140" height="149" viewBox="0 0 140 149" fill="none" xmlns="http://www.w3.org/2000/svg">
  <g filter="url(#filter15_d)">
    <path fill-rule="evenodd" clip-rule="evenodd" d="M124.812 10.2871H14.9695C12.2194 10.343 10 12.5986 10 15.3625V133.638C10 136.436 12.2764 138.713 15.0744 138.713H124.707C127.504 138.713 129.78 136.436 129.78 133.638V15.3625C129.78 12.5986 127.56 10.343 124.812 10.2871ZM15.0744 13.1856C13.8756 13.1856 12.8996 14.1616 12.8996 15.3625V133.638C12.8996 134.838 13.8756 135.814 15.0744 135.814H124.707C125.905 135.814 126.88 134.838 126.88 133.638V15.3625C126.88 14.1616 125.905 13.1856 124.707 13.1856H15.0744Z" fill="white" />
  </g>
  <path d="M67.4934 24.3955H72.5623L50.1953 58.5062H45.1241L67.4934 24.3955ZM74.372 24.3955H79.5076L57.1405 58.5062H52.0694L74.372 24.3955ZM110.77 56.7659H65.3364L86.4525 24.3955H81.3181L59.0187 58.5747H109.59L110.77 56.7659ZM67.4934 108.761L81.6606 87.1255H78.1894V87.0541H31.0214L29.8423 88.8625H75.4102L67.4934 100.975V108.761ZM83.5343 87.0541L67.4934 111.541V119.466L88.7507 87.0541H83.5343ZM90.8311 87.0541H96.039L67.4934 130.643V122.72L90.8311 87.0541Z" fill="#EB2629" />
  <g filter="url(#filter16_d)">
    <path d="M110.421 70.2456V70.5193L110.355 70.6613V70.7994L110.281 70.9382L110.216 71.0784L110.144 71.2151L110.076 71.3541L108.127 74.7609L107.993 74.9661L107.851 75.1745L107.643 75.3829L107.501 75.5937L107.364 75.7304L107.158 75.9409L107.016 76.0778L106.813 76.221L106.6 76.358L106.463 76.4968L106.251 76.5632L106.048 76.6367L105.976 76.7052H105.911L105.834 76.7748H105.627L105.56 76.8422H99.7914L99.7249 76.7748H99.585L99.4451 76.7052H99.3778L99.3061 76.6367L99.2396 76.5632L99.1694 76.4968H99.1029L99.0312 76.4262V76.358L98.9556 76.2895V76.221L98.8892 76.1472V76.0778L98.8207 76.0094V75.7989L98.7522 75.7304V75.5937L98.8207 75.4546V75.1745L98.8892 75.1083L98.9556 74.9661V74.8976L99.0312 74.7609L101.182 71.0784L101.32 70.8676L101.462 70.6613L101.599 70.4508L101.739 70.2456L101.88 70.1056L102.018 69.8969L102.156 69.7602L102.295 69.618L102.435 69.4813L102.569 69.3434L102.711 69.2708L102.849 69.2023L102.919 69.1326H102.986L103.131 69.0644H103.268L103.336 68.9927H109.59L109.66 69.0644H109.794L109.865 69.1326H109.936L110.007 69.2023L110.076 69.2708L110.144 69.3434L110.216 69.4116V69.4813L110.281 69.5506L110.355 69.618V69.6864L110.421 69.7602V70.2456ZM113.202 68.6485V68.5065L113.131 68.3686V68.2316L113.06 68.0896L112.993 68.0199L112.921 67.8833V67.8148L112.856 67.6725L112.714 67.601L112.642 67.5358L112.575 67.4641L112.506 67.3956L112.437 67.3303H112.369L112.23 67.2556H112.158L112.092 67.1871H112.021L111.95 67.1198H102.782L102.711 67.1871H102.435L102.363 67.2556H102.221L102.084 67.3303L102.018 67.3956L101.88 67.4641L101.806 67.5358L101.671 67.601L101.533 67.6725L101.462 67.7442L101.32 67.8148L101.254 67.9515L101.117 68.0199L100.905 68.2316L100.697 68.5065L100.489 68.7169L100.281 68.9927L100.069 69.2708L99.9336 69.5506L99.7249 69.8969L99.5165 70.1771L96.3226 75.6619L96.2529 75.7989L96.1773 75.9409L96.1121 76.1472L96.0404 76.2895V76.4262L95.9739 76.5632V77.3287L96.0404 77.4707V77.6074L96.1121 77.6779L96.1773 77.8161L96.2529 77.8863L96.3226 78.0233L96.3899 78.095L96.4593 78.1603L96.5278 78.2338L96.5995 78.3035L96.6668 78.3717L96.8047 78.4402L96.8752 78.5107L97.0152 78.5804H97.0857L97.2227 78.6507H97.4311L97.569 78.7191H105.834L105.976 78.6507H106.185L106.325 78.5804H106.463L106.6 78.5107L106.742 78.4402L106.879 78.3717L107.016 78.3035L107.158 78.2338L107.297 78.1603L107.435 78.095L107.576 78.0233L107.713 77.8863L107.851 77.8161L107.993 77.6779L108.062 77.6074L108.199 77.4707L108.341 77.3287L108.479 77.259L108.616 77.122L108.756 76.98L108.893 76.8422L108.963 76.7052L109.101 76.5632L109.243 76.4262L109.311 76.2895L109.45 76.1472L109.517 75.9409L109.66 75.7989L109.728 75.6619L112.642 70.593L112.786 70.3823L112.856 70.1771L112.993 69.9654L113.06 69.7602V69.618L113.131 69.4116L113.202 69.2708V68.6485ZM114.523 68.3001V68.6485L114.451 68.8528V69.0644L114.379 69.2708L114.244 69.4813L114.172 69.7602L114.034 69.9654L113.895 70.2456L110.493 76.0778L110.421 76.2895L110.281 76.4968L110.144 76.6367L110.007 76.8422L109.936 76.98L109.794 77.122L109.66 77.3287L109.517 77.4707L109.38 77.6074L109.243 77.8161L109.03 77.9548L108.893 78.095L108.756 78.2338L108.616 78.3717L108.479 78.4402L108.265 78.5804L108.127 78.7191L107.993 78.7876L107.851 78.9276L107.643 78.9972L107.501 79.136L107.364 79.2066L107.158 79.273L107.016 79.3447L106.879 79.4129L106.742 79.4867H106.6L106.391 79.552L106.251 79.6213H96.1121L95.9739 79.552L95.8373 79.4867H95.6973L95.555 79.4129L95.4886 79.3447L95.3466 79.273L95.2761 79.2066L95.1382 79.136L95.0718 78.9972L95.0012 78.9276L94.9309 78.7876L94.7907 78.7191V78.5804L94.7222 78.4402L94.654 78.3717L94.5876 78.2338V78.095L94.5117 77.9548V77.3287L94.5876 77.122V76.98L94.654 76.8422L94.7222 76.6367L94.7907 76.4968L94.8613 76.2895L94.9309 76.0778L98.682 69.7602L98.8892 69.3434L99.1029 68.9927L99.1694 68.8528L99.3061 68.7169L99.4451 68.5065L99.5165 68.3686L99.6535 68.2316L99.7914 68.0199L99.8672 67.8833L100.004 67.7442L100.141 67.601L100.281 67.4641L100.418 67.3956L100.489 67.2556L100.626 67.1198L100.768 66.982L100.905 66.9082L101.045 66.84L101.117 66.6997L101.254 66.6336L101.391 66.563L101.533 66.4925L101.671 66.4228L101.806 66.3526L101.946 66.2841H102.084L102.156 66.2156H113.131L113.273 66.2841H113.338L113.478 66.3526L113.547 66.4228H113.62L113.757 66.4925L113.824 66.563L113.895 66.6997L114.034 66.7682L114.106 66.84L114.172 66.982L114.244 67.1198L114.309 67.1871L114.379 67.3303L114.451 67.4641V67.601L114.523 67.7442V68.3001ZM117.508 66.4925L117.438 66.2841L117.366 66.0736V65.8673L117.301 65.6586L117.229 65.5186L117.09 65.3828L117.021 65.2429L116.886 65.105L116.816 64.966L116.674 64.826L116.605 64.7575L116.465 64.6176L116.325 64.5491L116.188 64.4786L116.05 64.4089L115.974 64.3386H115.84L115.701 64.2701H115.495L115.352 64.2017H102.018L101.88 64.2701H101.533L101.32 64.3386H101.182L100.972 64.4089L100.834 64.4786L100.626 64.6176L100.489 64.6858L100.281 64.7575L100.141 64.8942L100.004 65.0345L99.7914 65.1712L99.6535 65.2429L99.5165 65.4501L99.3061 65.5904L99.1694 65.7302L99.0312 65.8673L98.8207 66.0736L98.682 66.2156L98.5409 66.4228L98.4039 66.6336L98.1943 66.84L98.0564 67.0513L97.9197 67.2556L97.7765 67.4641L97.6396 67.6725L97.5025 67.8833L97.2227 68.3001L96.947 68.7843L92.1568 77.0538L92.0104 77.259L91.8757 77.5392L91.8072 77.7464L91.7335 77.9548L91.6674 78.1603L91.5968 78.3717V79.6213L91.6674 79.7604L91.7335 79.9688L91.8072 80.1087L91.8757 80.2448L91.9443 80.3856L92.0809 80.5247L92.1568 80.6626L92.2947 80.8016L92.4316 80.9415L92.4978 81.0818L92.6401 81.152L92.7767 81.2205L92.9872 81.3575L93.1242 81.4269H93.2621L93.4024 81.5007L93.6096 81.5692H93.9612L94.097 81.6374H106.251L106.463 81.5692H106.813L106.949 81.5007L107.158 81.4269H107.364L107.576 81.3575L107.78 81.2205L107.993 81.152L108.199 81.0818L108.407 80.9415L108.544 80.8016L108.756 80.6626L108.963 80.5247L109.172 80.3856L109.38 80.2448L109.59 80.1087L109.794 79.9688L110.007 79.7604L110.216 79.6213L110.421 79.4129L110.558 79.2066L110.771 78.9972L110.977 78.7876L111.117 78.5804L111.325 78.3717L111.464 78.1603L111.673 77.9548L111.81 77.7464L111.95 77.5392L112.092 77.259L112.23 77.0538L116.674 69.4116L116.816 69.1326L117.021 68.7843L117.161 68.5065L117.229 68.2316L117.301 67.9515L117.366 67.6725L117.438 67.3956L117.508 67.1198V66.4925ZM80.8997 67.3303H77.634L76.4528 69.2708H82.1493L74.7137 81.6374H77.3571L86.5276 67.3303H80.8997ZM89.5817 67.3303H96.1121L95.0012 69.2708H89.0943L81.4565 81.6374H78.5382L87.6374 67.3303H89.5817ZM84.5137 66.4228H96.5995L97.9197 64.2017H79.4395L78.1193 66.4228H84.5137ZM51.797 73.7165H68.1874L67.3537 74.8294L67.0747 75.3147L66.801 75.6619L66.4515 76.1472L66.102 76.5632L65.7537 76.9115L65.5482 77.0538L65.3377 77.259L65.1301 77.3969L64.8524 77.5392L64.7154 77.6779L64.504 77.7464L64.3659 77.8863L64.225 77.9548L64.0175 78.0233L63.81 78.095L63.5354 78.1603L63.2544 78.3035L62.9078 78.3717L62.6259 78.4402L62.2099 78.5107H47.8335L49.0176 76.7748H62.7699L63.1153 76.7052L63.5354 76.4968L63.81 76.358L64.1586 76.0778L64.3659 75.8727L64.7154 75.4546L64.7859 75.3829H49.9189L51.098 73.7165H51.797ZM56.2407 67.3956H67.979L68.2538 67.4641H68.8803L69.0887 67.5358L69.2971 67.601L69.5791 67.6725L69.716 67.7442L69.9962 67.8148L70.1329 67.9515L70.2699 68.0199L70.4098 68.1599L70.4815 68.3001L70.5468 68.4368L70.6173 68.5791L70.6858 68.7843V69.2708L70.5468 69.4813L70.4098 69.8255L70.1329 70.3141L69.7833 70.8676L68.8118 72.6785H51.797L53.1128 70.7297H67.7685L67.839 70.593L67.9096 70.5193L67.979 70.3823L68.0475 70.3141V70.1771L68.1189 70.0339V69.618L68.0475 69.5506L67.979 69.4116L67.839 69.3434H67.7012L67.4936 69.2708H54.0847L55.3352 67.3956H56.2407ZM57.9062 64.2017H70.7584L70.9669 64.2701H71.2447L71.5195 64.4089L71.8679 64.4786L72.2124 64.6176L72.4943 64.7575L72.8397 64.8942L73.0481 65.0345L73.3271 65.2429L73.5344 65.4501L73.6754 65.5904L73.8839 65.8673L74.0903 66.2841L74.2284 66.4925L74.2986 66.9082L74.3724 67.3303L74.4397 67.7442L74.3724 68.2316V68.4368L74.2986 68.7169L74.1599 69.1326L74.0229 69.4116L73.8839 69.8255L73.6754 70.2456L73.4641 70.6613L73.2586 71.1466L73.1187 71.4973L72.9112 71.9109L72.6334 72.3962L72.4249 72.8134L72.009 73.508L71.8679 73.7829L71.7321 73.9966L71.593 74.2723L71.3816 74.6239L71.1741 74.9661L71.0342 75.1745L70.8257 75.4546L70.6858 75.6619L70.4815 76.0094L70.2699 76.358L70.0614 76.7052L69.8539 76.98L69.716 77.122L69.5791 77.3969L69.2971 77.6779L69.2307 77.8863L69.019 78.095L68.8803 78.3035L68.6698 78.5804L68.4655 78.7876L68.2538 79.0707L68.0475 79.3447L67.7685 79.6213L67.6315 79.7604L67.4189 79.9688L67.2831 80.1087L67.2147 80.1772L67.0747 80.3195L66.9377 80.3856L66.801 80.5247L66.5874 80.6626L66.4515 80.7352L66.3136 80.8016L66.2399 80.8731L66.102 80.9415L65.9662 81.01L65.8231 81.0818H65.7537L65.6881 81.152L65.4797 81.2205H65.3377L65.2007 81.289L65.0608 81.3575H64.9229L64.7859 81.4269L64.4364 81.5007L64.0175 81.5692H63.3943L63.1859 81.6374H45.6805L47.068 79.6213H62.2099L62.4216 79.552H62.7014L62.9742 79.4867H63.2544L63.3943 79.4129H63.6016L63.6721 79.3447H63.9502V79.273H64.1586L64.225 79.2066H64.2997L64.3659 79.136H64.504L64.6407 79.0707L64.7154 78.9972H64.8524L64.9229 78.9276L65.0608 78.857L65.2007 78.7876H65.2672L65.4091 78.6507L65.4797 78.5804L65.6175 78.5107L65.7537 78.4402L65.8231 78.3717L65.9662 78.3035L66.102 78.1603L66.1734 78.095L66.3136 78.0233L66.4515 77.8863L66.5177 77.8161L66.6559 77.6779L66.7293 77.6074L66.8663 77.3969L67.0042 77.3287L67.0747 77.1905L67.2147 77.0538L67.2831 76.9115L68.1874 75.7304L68.3958 75.3829L68.6034 75.1083L68.7433 74.8294L68.9517 74.5504L69.2971 74.0619L69.5076 73.7165L69.6455 73.4395L69.9962 72.8836L70.3434 72.2595L70.7584 71.5625L71.0342 71.0784L71.2447 70.6613L71.593 70.0339L71.8679 69.4116V69.2708L71.9355 68.9927L71.8679 68.7843V68.5065L71.7985 68.2316L71.6615 67.9515L71.5195 67.6725L71.3111 67.3956L71.1027 67.2556L70.7584 66.982L70.4815 66.7682L70.0614 66.6336L69.6455 66.4925L69.2971 66.4228H68.9517L68.3958 66.3526H56.0293L57.4914 64.2017H57.9062ZM39.3588 75.3829H26.578L27.8268 73.4395H40.8882L41.162 73.508L41.4441 73.5798L41.7219 73.7165L41.9262 73.9269L42.0673 74.1333L42.1379 74.2723L42.2073 74.5504L42.2758 74.8976V75.3829L42.2073 75.5937L41.9262 76.0778L41.7884 76.2895L41.582 76.6367L41.162 77.0538L40.7463 77.4707L40.1933 77.8161L39.566 78.1603L38.6659 78.5107L38.0415 78.7191H24.2137L25.5347 76.8422H38.3164L38.5945 76.7052L38.8058 76.6367L38.9437 76.5632L39.148 76.4968L39.3588 76.358L39.4955 76.1472L39.6374 76.0094V75.8727L39.7745 75.5937V75.3829H39.3588ZM43.2506 69.2708H30.6724L31.9282 67.3956H44.7045L44.9867 67.4641L45.2657 67.5358L45.5394 67.6725L45.752 67.8148L45.8898 68.0896L45.9562 68.2316L46.0268 68.5065L46.0962 68.8528V69.3434L46.0268 69.5506L45.752 69.9654L45.6099 70.2456L45.4024 70.593L44.9867 70.9382L44.5687 71.3541L44.0128 71.771L43.3884 72.1164L42.5539 72.4668L41.8589 72.6785H28.3142L29.7005 70.7297H42.2073L42.4874 70.6613L42.6906 70.593L42.8349 70.5193L42.9728 70.4508L43.2506 70.3141L43.3884 70.1056L43.459 69.9654L43.5245 69.8255L43.596 69.5506V69.2708H43.2506ZM22.2732 81.5692L23.5207 79.552H38.3164L39.0101 79.4129L39.3588 79.3447L39.7745 79.2066L40.1228 79.0707L40.6093 78.7876L40.9576 78.5804L41.2366 78.3717L41.5115 78.1603L41.7884 77.9548L42.0673 77.6074L42.4116 77.259L42.6241 76.9115L42.8349 76.5632L42.9728 76.221L43.1106 75.8727L43.1771 75.5937L43.2506 75.245L43.3182 74.9661V74.5504L43.2506 74.2723L43.1771 74.0619L43.0392 73.8587L42.9031 73.6458L42.7623 73.4395H42.9031L43.2506 73.2996L43.596 73.1638L44.0128 73.0239L44.2897 72.8134L44.7045 72.607L44.9867 72.3962L45.2657 72.1911L45.6099 71.9109L45.8898 71.6319L46.0962 71.3541L46.3049 71.0784L46.5163 70.7994L46.6521 70.5193L46.8575 70.1771L46.931 69.8255L47.068 69.5506L47.1386 69.2708V68.2316L47.068 67.9515L47.0028 67.7442L46.8575 67.5358L46.7206 67.3303L46.5827 67.1198L46.4416 66.982L46.3049 66.9082L46.1667 66.7682L45.9562 66.6997L45.8184 66.6336L45.6099 66.563L45.4024 66.4925L45.1919 66.4228H32.48L33.941 64.2017H46.5827L47.2059 64.3386L47.7659 64.4786L48.3891 64.7575L48.7345 64.966L49.2219 65.4501L49.5693 65.9387L49.7105 66.4228L49.8483 66.9082L49.9189 67.4641V67.9515L49.781 68.6485L49.6399 69.1326L49.4335 69.8255L49.1534 70.5193L48.805 71.2151L48.3891 71.8427L47.9037 72.4668L47.0028 73.2996L46.3752 73.7829L45.6805 74.1333L45.47 74.2723L45.1919 74.342L45.4024 74.6239L45.5394 75.1745V75.6619L45.2657 76.4968L45.0541 77.0538L44.7045 77.7464L44.2897 78.3717L44.0825 78.6507L43.5245 79.273L43.2506 79.552L42.9031 79.8289L42.5539 80.1087L42.2073 80.3856L41.8589 80.5932L41.4441 80.8016L40.6093 81.152L40.1228 81.3575L39.6374 81.4269L39.148 81.5007L38.6659 81.5692H22.2732Z" fill="white" />
  </g>
  <defs>
    <filter id="filter15_d" x="0" y="0.287109" width="139.78" height="148.426" filterUnits="userSpaceOnUse" color-interpolation-filters="sRGB">
      <feFlood flood-opacity="0" result="BackgroundImageFix" />
      <feColorMatrix in="SourceAlpha" type="matrix" values="0 0 0 0 0 0 0 0 0 0 0 0 0 0 0 0 0 0 127 0" />
      <feOffset />
      <feGaussianBlur stdDeviation="5" />
      <feColorMatrix type="matrix" values="0 0 0 0 0.101961 0 0 0 0 0.607843 0 0 0 0 1 0 0 0 1 0" />
      <feBlend mode="normal" in2="BackgroundImageFix" result="effect1_dropShadow" />
      <feBlend mode="normal" in="SourceGraphic" in2="effect1_dropShadow" result="shape" />
    </filter>
    <filter id="filter16_d" x="12.2732" y="54.2017" width="115.235" height="37.4357" filterUnits="userSpaceOnUse" color-interpolation-filters="sRGB">
      <feFlood flood-opacity="0" result="BackgroundImageFix" />
      <feColorMatrix in="SourceAlpha" type="matrix" values="0 0 0 0 0 0 0 0 0 0 0 0 0 0 0 0 0 0 127 0" />
      <feOffset />
      <feGaussianBlur stdDeviation="5" />
      <feColorMatrix type="matrix" values="0 0 0 0 0.0980392 0 0 0 0 0.65098 0 0 0 0 1 0 0 0 1 0" />
      <feBlend mode="normal" in2="BackgroundImageFix" result="effect1_dropShadow" />
      <feBlend mode="normal" in="SourceGraphic" in2="effect1_dropShadow" result="shape" />
    </filter>
  </defs>
</svg>
