<svg width="74" height="71" viewBox="0 0 74 71" fill="none" xmlns="http://www.w3.org/2000/svg">
<path fill-rule="evenodd" clip-rule="evenodd" d="M67.4734 0H6.74737C5.22699 0.0309053 4 1.27789 4 2.80591V68.1946C4 69.7415 5.25853 71 6.80538 71H67.4154C68.9618 71 70.2201 69.7415 70.2201 68.1946V2.80591C70.2201 1.27789 68.9926 0.0309053 67.4734 0ZM6.80538 1.60243C6.14264 1.60243 5.60306 2.14201 5.60306 2.80591V68.1946C5.60306 68.858 6.14264 69.3976 6.80538 69.3976H67.4154C68.0782 69.3976 68.6171 68.858 68.6171 68.1946V2.80591C68.6171 2.14201 68.0782 1.60243 67.4154 1.60243H6.80538Z" fill="white"/>
<path d="M35.7851 7.7998H38.5874L26.2219 26.6578H23.4183L35.7851 7.7998ZM39.5879 7.7998H42.4271L30.0615 26.6578H27.2579L39.5879 7.7998ZM59.7106 25.6957H34.5926L46.2666 7.7998H43.428L31.0999 26.6957H59.0583L59.7106 25.6957ZM35.7851 54.4409L43.6174 42.48H41.6984V42.4405H15.6216L14.9697 43.4403H40.1619L35.7851 50.1367V54.4409ZM44.6533 42.4405L35.7851 55.9778V60.3593L47.5372 42.4405H44.6533ZM48.6873 42.4405H51.5665L35.7851 66.5386V62.1584L48.6873 42.4405Z" fill="#EB2629"/>
<g filter="url(#filter0_d)">
<path d="M59.5177 33.148V33.2993L59.4809 33.3778V33.4542L59.4403 33.5309L59.4041 33.6084L59.3646 33.684L59.3267 33.7609L58.2495 35.6443L58.1754 35.7577L58.0969 35.873L57.9817 35.9882L57.9032 36.1047L57.8275 36.1803L57.7134 36.2967L57.6349 36.3724L57.5231 36.4515L57.4049 36.5272L57.3292 36.604L57.2123 36.6407L57.0999 36.6813L57.0604 36.7192H57.0243L56.9819 36.7577H56.8671L56.8304 36.7949H53.641L53.6042 36.7577H53.5269L53.4495 36.7192H53.4123L53.3727 36.6813L53.3359 36.6407L53.2971 36.604H53.2603L53.2207 36.565V36.5272L53.1789 36.4894V36.4515L53.1422 36.4107V36.3724L53.1043 36.3345V36.2182L53.0665 36.1803V36.1047L53.1043 36.0278V35.873L53.1422 35.8364L53.1789 35.7577V35.7199L53.2207 35.6443L54.4099 33.6084L54.4861 33.4919L54.5646 33.3778L54.6403 33.2615L54.7176 33.148L54.7957 33.0706L54.8719 32.9553L54.9483 32.8797L55.025 32.801L55.1025 32.7255L55.1764 32.6492L55.2549 32.6091L55.3312 32.5712L55.3702 32.5327H55.4069L55.4872 32.495H55.5628L55.6006 32.4553H59.0584L59.0969 32.495H59.1708L59.2103 32.5327H59.2493L59.2888 32.5712L59.3267 32.6091L59.3646 32.6492L59.4041 32.687V32.7255L59.4403 32.7638L59.4809 32.801V32.8389L59.5177 32.8797V33.148ZM61.0548 32.2651V32.1866L61.0158 32.1103V32.0346L60.9768 31.9561L60.9395 31.9176L60.8999 31.842V31.8042L60.8638 31.7255L60.7853 31.686L60.7456 31.6499L60.7084 31.6103L60.6701 31.5724L60.6322 31.5363H60.5943L60.5175 31.495H60.478L60.4412 31.4572H60.4022L60.3627 31.4199H55.2944L55.2549 31.4572H55.1025L55.0629 31.495H54.9844L54.9086 31.5363L54.8719 31.5724L54.7957 31.6103L54.755 31.6499L54.6799 31.686L54.6036 31.7255L54.5646 31.7652L54.4861 31.8042L54.4494 31.8797L54.3738 31.9176L54.2567 32.0346L54.1415 32.1866L54.0268 32.3029L53.9116 32.4553L53.7947 32.6091L53.7196 32.7638L53.6042 32.9553L53.489 33.1101L51.7232 36.1424L51.6847 36.2182L51.643 36.2967L51.6069 36.4107L51.5672 36.4894V36.565L51.5305 36.6407V37.0639L51.5672 37.1424V37.218L51.6069 37.257L51.643 37.3334L51.6847 37.3722L51.7232 37.4479L51.7605 37.4876L51.7988 37.5236L51.8367 37.5643L51.8764 37.6028L51.9136 37.6405L51.9898 37.6784L52.0288 37.7174L52.1061 37.7559H52.1451L52.2209 37.7948H52.3361L52.4123 37.8326H56.9819L57.0604 37.7948H57.1756L57.2529 37.7559H57.3292L57.4049 37.7174L57.4834 37.6784L57.5591 37.6405L57.6349 37.6028L57.7134 37.5643L57.7907 37.5236L57.8665 37.4876L57.945 37.4479L58.0207 37.3722L58.0969 37.3334L58.1754 37.257L58.2133 37.218L58.289 37.1424L58.3675 37.0639L58.4437 37.0254L58.5195 36.9496L58.5968 36.8711L58.6725 36.7949L58.7115 36.7192L58.7878 36.6407L58.8663 36.565L58.9037 36.4894L58.981 36.4107L59.0177 36.2967L59.0969 36.2182L59.1346 36.1424L60.7456 33.3401L60.8248 33.2236L60.8638 33.1101L60.9395 32.9931L60.9768 32.8797V32.801L61.0158 32.687L61.0548 32.6091V32.2651ZM61.7851 32.0725V32.2651L61.7456 32.378V32.495L61.7059 32.6091L61.6309 32.7255L61.5914 32.8797L61.5152 32.9931L61.4383 33.148L59.5571 36.3724L59.5177 36.4894L59.4403 36.604L59.3646 36.6813L59.2888 36.7949L59.2493 36.8711L59.1708 36.9496L59.0969 37.0639L59.0177 37.1424L58.942 37.218L58.8663 37.3334L58.7483 37.4101L58.6725 37.4876L58.5968 37.5643L58.5195 37.6405L58.4437 37.6784L58.3257 37.7559L58.2495 37.8326L58.1754 37.8705L58.0969 37.9478L57.9817 37.9863L57.9032 38.063L57.8275 38.1021L57.7134 38.1388L57.6349 38.1785L57.5591 38.2162L57.4834 38.257H57.4049L57.2897 38.293L57.2123 38.3314H51.6069L51.5305 38.293L51.455 38.257H51.3776L51.2989 38.2162L51.2622 38.1785L51.1837 38.1388L51.1447 38.1021L51.0685 38.063L51.0317 37.9863L50.9927 37.9478L50.9539 37.8705L50.8764 37.8326V37.7559L50.8385 37.6784L50.8008 37.6405L50.7641 37.5643V37.4876L50.7221 37.4101V37.0639L50.7641 36.9496V36.8711L50.8008 36.7949L50.8385 36.6813L50.8764 36.604L50.9154 36.4894L50.9539 36.3724L53.0276 32.8797L53.1422 32.6492L53.2603 32.4553L53.2971 32.378L53.3727 32.3029L53.4495 32.1866L53.489 32.1103L53.5648 32.0346L53.641 31.9176L53.6829 31.842L53.7585 31.7652L53.8342 31.686L53.9116 31.6103L53.9873 31.5724L54.0268 31.495L54.1025 31.4199L54.181 31.3437L54.2567 31.3029L54.3341 31.2652L54.3738 31.1877L54.4494 31.1511L54.5251 31.1121L54.6036 31.0731L54.6799 31.0346L54.755 30.9958L54.8324 30.9579H54.9086L54.9483 30.92H61.0158L61.0942 30.9579H61.1305L61.2078 30.9958L61.2457 31.0346H61.2863L61.3621 31.0731L61.3988 31.1121L61.4383 31.1877L61.5152 31.2256L61.5547 31.2652L61.5914 31.3437L61.6309 31.4199L61.6671 31.4572L61.7059 31.5363L61.7456 31.6103V31.686L61.7851 31.7652V32.0725ZM63.4358 31.0731L63.3968 30.9579L63.3572 30.8415V30.7275L63.3211 30.6121L63.2816 30.5347L63.2042 30.4596L63.1663 30.3823L63.0918 30.3061L63.0528 30.2292L62.9743 30.1518L62.9364 30.1139L62.859 30.0366L62.7817 29.9987L62.7059 29.9597L62.6297 29.9212L62.5878 29.8824H62.5134L62.4365 29.8445H62.3229L62.2439 29.8066H54.8719L54.7957 29.8445H54.6036L54.4861 29.8824H54.4099L54.2935 29.9212L54.2172 29.9597L54.1025 30.0366L54.0268 30.0743L53.9116 30.1139L53.8342 30.1895L53.7585 30.2671L53.641 30.3426L53.5648 30.3823L53.489 30.4968L53.3727 30.5744L53.2971 30.6517L53.2207 30.7275L53.1043 30.8415L53.0276 30.92L52.9496 31.0346L52.8739 31.1511L52.758 31.2652L52.6818 31.3821L52.6062 31.495L52.5271 31.6103L52.4514 31.7255L52.3756 31.842L52.2209 32.0725L52.0684 32.3401L49.4202 36.9119L49.3393 37.0254L49.2648 37.1803L49.227 37.2948L49.1862 37.4101L49.1496 37.5236L49.1106 37.6405V38.3314L49.1496 38.4082L49.1862 38.5235L49.227 38.6008L49.2648 38.6761L49.3027 38.7539L49.3783 38.8308L49.4202 38.907L49.4964 38.9839L49.5722 39.0612L49.6087 39.1388L49.6874 39.1776L49.7629 39.2155L49.8793 39.2912L49.9551 39.3296H50.0313L50.1088 39.3704L50.2234 39.4082H50.4178L50.4928 39.4459H57.2123L57.3292 39.4082H57.5231L57.5981 39.3704L57.7134 39.3296H57.8275L57.945 39.2912L58.0574 39.2155L58.1754 39.1776L58.289 39.1388L58.4042 39.0612L58.48 38.9839L58.5968 38.907L58.7115 38.8308L58.8268 38.7539L58.942 38.6761L59.0584 38.6008L59.1708 38.5235L59.2888 38.4082L59.4041 38.3314L59.5177 38.2162L59.5934 38.1021L59.7109 37.9863L59.825 37.8705L59.9023 37.7559L60.0171 37.6405L60.0944 37.5236L60.2096 37.4101L60.2854 37.2948L60.3627 37.1803L60.4412 37.0254L60.5175 36.9119L62.9743 32.687L63.0528 32.5327L63.1663 32.3401L63.2437 32.1866L63.2816 32.0346L63.3211 31.8797L63.3572 31.7255L63.3968 31.5724L63.4358 31.4199V31.0731ZM43.1967 31.5363H41.3913L40.7383 32.6091H43.8876L39.7768 39.4459H41.2382L46.3081 31.5363H43.1967ZM47.9965 31.5363H51.6069L50.9927 32.6091H47.7271L43.5045 39.4459H41.8912L46.9217 31.5363H47.9965ZM45.1947 31.0346H51.8764L52.6062 29.8066H42.3895L41.6596 31.0346H45.1947ZM27.1074 35.0669H36.1687L35.7079 35.6822L35.5536 35.9505L35.4023 36.1424L35.2091 36.4107L35.0159 36.6407L34.8233 36.8333L34.7097 36.9119L34.5933 37.0254L34.4786 37.1016L34.325 37.1803L34.2493 37.257L34.1324 37.2948L34.056 37.3722L33.9782 37.4101L33.8634 37.4479L33.7487 37.4876L33.5969 37.5236L33.4415 37.6028L33.2499 37.6405L33.0941 37.6784L32.8641 37.7174H24.9161L25.5708 36.7577H33.1737L33.3647 36.7192L33.5969 36.604L33.7487 36.5272L33.9415 36.3724L34.056 36.259L34.2493 36.0278L34.2883 35.9882H26.069L26.7209 35.0669H27.1074ZM29.564 31.5724H36.0535L36.2055 31.6103H36.5518L36.667 31.6499L36.7823 31.686L36.9381 31.7255L37.0139 31.7652L37.1687 31.8042L37.2443 31.8797L37.3201 31.9176L37.3974 31.9949L37.4371 32.0725L37.4731 32.148L37.5121 32.2267L37.55 32.3401V32.6091L37.4731 32.7255L37.3974 32.9158L37.2443 33.1859L37.0511 33.4919L36.514 34.493H27.1074L27.8348 33.4157H35.9372L35.9762 33.3401L36.0152 33.2993L36.0535 33.2236L36.0914 33.1859V33.1101L36.1309 33.031V32.801L36.0914 32.7638L36.0535 32.687L35.9762 32.6492H35.9L35.7852 32.6091H28.3721L29.0634 31.5724H29.564ZM30.4848 29.8066H37.5901L37.7054 29.8445H37.859L38.0109 29.9212L38.2035 29.9597L38.394 30.0366L38.5498 30.1139L38.7408 30.1895L38.856 30.2671L39.0102 30.3823L39.1248 30.4968L39.2028 30.5744L39.3181 30.7275L39.4321 30.9579L39.5085 31.0731L39.5474 31.3029L39.5882 31.5363L39.6254 31.7652L39.5882 32.0346V32.148L39.5474 32.3029L39.4707 32.5327L39.3949 32.687L39.3181 32.9158L39.2028 33.148L39.086 33.3778L38.9724 33.6461L38.895 33.84L38.7803 34.0687L38.6267 34.337L38.5115 34.5676L38.2815 34.9516L38.2035 35.1036L38.1284 35.2218L38.0515 35.3742L37.9347 35.5685L37.82 35.7577L37.7426 35.873L37.6274 36.0278L37.55 36.1424L37.4371 36.3345L37.3201 36.5272L37.2048 36.7192L37.0901 36.8711L37.0139 36.9496L36.9381 37.1016L36.7823 37.257L36.7455 37.3722L36.6285 37.4876L36.5518 37.6028L36.4355 37.7559L36.3225 37.8705L36.2055 38.027L36.0914 38.1785L35.9372 38.3314L35.8615 38.4082L35.7439 38.5235L35.6688 38.6008L35.631 38.6387L35.5536 38.7174L35.4779 38.7539L35.4023 38.8308L35.2842 38.907L35.2091 38.9472L35.1329 38.9839L35.0921 39.0234L35.0159 39.0612L34.9408 39.0991L34.8616 39.1388H34.8233L34.787 39.1776L34.6718 39.2155H34.5933L34.5176 39.2534L34.4402 39.2912H34.364L34.2883 39.3296L34.095 39.3704L33.8634 39.4082H33.5189L33.4037 39.4459H23.7259L24.4929 38.3314H32.8641L32.9811 38.293H33.1358L33.2867 38.257H33.4415L33.5189 38.2162H33.6335L33.6725 38.1785H33.8262V38.1388H33.9415L33.9782 38.1021H34.0195L34.056 38.063H34.1324L34.208 38.027L34.2493 37.9863H34.325L34.364 37.9478L34.4402 37.9088L34.5176 37.8705H34.5543L34.6328 37.7948L34.6718 37.7559L34.748 37.7174L34.8233 37.6784L34.8616 37.6405L34.9408 37.6028L35.0159 37.5236L35.0553 37.4876L35.1329 37.4479L35.2091 37.3722L35.2457 37.3334L35.3221 37.257L35.3627 37.218L35.4384 37.1016L35.5146 37.0639L35.5536 36.9875L35.631 36.9119L35.6688 36.8333L36.1687 36.1803L36.284 35.9882L36.3987 35.8364L36.4761 35.6822L36.5913 35.5279L36.7823 35.2578L36.8986 35.0669L36.9749 34.9138L37.1687 34.6064L37.3607 34.2614L37.5901 33.8761L37.7426 33.6084L37.859 33.3778L38.0515 33.031L38.2035 32.687V32.6091L38.2409 32.4553L38.2035 32.3401V32.1866L38.1651 32.0346L38.0894 31.8797L38.0109 31.7255L37.8957 31.5724L37.7805 31.495L37.5901 31.3437L37.4371 31.2256L37.2048 31.1511L36.9749 31.0731L36.7823 31.0346H36.5913L36.284 30.9958H29.4472L30.2555 29.8066H30.4848ZM20.2309 35.9882H13.1651L13.8554 34.9138H21.0765L21.2278 34.9516L21.3838 34.9913L21.5374 35.0669L21.6503 35.1832L21.7283 35.2973L21.7674 35.3742L21.8057 35.5279L21.8436 35.7199V35.9882L21.8057 36.1047L21.6503 36.3724L21.5741 36.4894L21.46 36.6813L21.2278 36.9119L20.998 37.1424L20.6923 37.3334L20.3455 37.5236L19.8478 37.7174L19.5026 37.8326H11.8579L12.5883 36.7949H19.6546L19.8084 36.7192L19.9252 36.6813L20.0014 36.6407L20.1144 36.604L20.2309 36.5272L20.3065 36.4107L20.385 36.3345V36.259L20.4607 36.1047V35.9882H20.2309ZM22.3825 32.6091H15.4286L16.1229 31.5724H23.1863L23.3423 31.6103L23.4965 31.6499L23.6478 31.7255L23.7654 31.8042L23.8416 31.9561L23.8783 32.0346L23.9173 32.1866L23.9556 32.378V32.6492L23.9173 32.7638L23.7654 32.9931L23.6868 33.148L23.5721 33.3401L23.3423 33.5309L23.1112 33.7609L22.8039 33.9913L22.4587 34.1823L21.9973 34.376L21.6131 34.493H14.1249L14.8913 33.4157H21.8057L21.9606 33.3778L22.0729 33.3401L22.1527 33.2993L22.2289 33.2615L22.3825 33.1859L22.4587 33.0706L22.4977 32.9931L22.5339 32.9158L22.5734 32.7638V32.6091H22.3825ZM10.7852 39.4082L11.4749 38.293H19.6546L20.0381 38.2162L20.2309 38.1785L20.4607 38.1021L20.6533 38.027L20.9222 37.8705L21.1148 37.7559L21.2691 37.6405L21.421 37.5236L21.5741 37.4101L21.7283 37.218L21.9186 37.0254L22.0361 36.8333L22.1527 36.6407L22.2289 36.4515L22.3051 36.259L22.3418 36.1047L22.3825 35.912L22.4199 35.7577V35.5279L22.3825 35.3742L22.3418 35.2578L22.2656 35.1455L22.1904 35.0278L22.1125 34.9138H22.1904L22.3825 34.8364L22.5734 34.7614L22.8039 34.684L22.957 34.5676L23.1863 34.4535L23.3423 34.337L23.4965 34.2236L23.6868 34.0687L23.8416 33.9144L23.9556 33.7609L24.071 33.6084L24.1879 33.4542L24.263 33.2993L24.3766 33.1101L24.4172 32.9158L24.4929 32.7638L24.5319 32.6091V32.0346L24.4929 31.8797L24.4569 31.7652L24.3766 31.6499L24.3009 31.5363L24.2246 31.4199L24.1466 31.3437L24.071 31.3029L23.9947 31.2256L23.8783 31.1877L23.8021 31.1511L23.6868 31.1121L23.5721 31.0731L23.4557 31.0346H16.4279L17.2357 29.8066H24.2246L24.5691 29.8824L24.8788 29.9597L25.2233 30.1139L25.4143 30.2292L25.6837 30.4968L25.8758 30.767L25.9538 31.0346L26.03 31.3029L26.069 31.6103V31.8797L25.9928 32.2651L25.9148 32.5327L25.8007 32.9158L25.6458 33.2993L25.4533 33.684L25.2233 34.031L24.955 34.376L24.4569 34.8364L24.1099 35.1036L23.7259 35.2973L23.6095 35.3742L23.4557 35.4127L23.5721 35.5685L23.6478 35.873V36.1424L23.4965 36.604L23.3795 36.9119L23.1863 37.2948L22.957 37.6405L22.8424 37.7948L22.5339 38.1388L22.3825 38.293L22.1904 38.4461L21.9973 38.6008L21.8057 38.7539L21.6131 38.8687L21.3838 38.9839L20.9222 39.1776L20.6533 39.2912L20.385 39.3296L20.1144 39.3704L19.8478 39.4082H10.7852Z" fill="white"/>
</g>
<defs>
<filter id="filter0_d" x="0.785156" y="19.8066" width="72.6506" height="29.6393" filterUnits="userSpaceOnUse" color-interpolation-filters="sRGB">
<feFlood flood-opacity="0" result="BackgroundImageFix"/>
<feColorMatrix in="SourceAlpha" type="matrix" values="0 0 0 0 0 0 0 0 0 0 0 0 0 0 0 0 0 0 127 0"/>
<feOffset/>
<feGaussianBlur stdDeviation="5"/>
<feColorMatrix type="matrix" values="0 0 0 0 0.0980392 0 0 0 0 0.65098 0 0 0 0 1 0 0 0 1 0"/>
<feBlend mode="normal" in2="BackgroundImageFix" result="effect1_dropShadow"/>
<feBlend mode="normal" in="SourceGraphic" in2="effect1_dropShadow" result="shape"/>
</filter>
</defs>
</svg>
