<svg width="100" height="100" viewBox="0 0 100 100" fill="none" xmlns="http://www.w3.org/2000/svg">
<g clip-path="url(#clip0)">
<path d="M75.8358 48.7445L39.5405 24.0145C39.034 23.6716 38.3807 23.6337 37.8396 23.9189C37.3001 24.2041 36.9619 24.7647 36.9619 25.3763V74.8362C36.9619 75.4478 37.3001 76.0084 37.8413 76.2936C38.0821 76.4222 38.3477 76.4848 38.6117 76.4848C38.9367 76.4848 39.2617 76.3876 39.5405 76.198L75.8358 51.4681C76.2862 51.1614 76.5568 50.652 76.5568 50.1063C76.5568 49.5606 76.2862 49.0511 75.8358 48.7445ZM40.2615 71.7153V28.4972L71.9786 50.1063L40.2615 71.7153Z" fill="white"/>
<path d="M50.1606 0.646484C22.8698 0.646484 0.666992 22.8342 0.666992 50.1063C0.666992 77.3785 22.8698 99.5662 50.1606 99.5662C77.4514 99.5662 99.6543 77.3785 99.6543 50.1063C99.6543 22.8342 77.4514 0.646484 50.1606 0.646484ZM50.1606 96.2688C24.6896 96.2688 3.96657 75.56 3.96657 50.1063C3.96657 24.6526 24.6896 3.94381 50.1606 3.94381C75.6317 3.94381 96.3547 24.6526 96.3547 50.1063C96.3547 75.56 75.6317 96.2688 50.1606 96.2688Z" fill="white"/>
</g>
<defs>
<clipPath id="clip0">
<rect width="98.9873" height="98.9197" fill="white" transform="translate(0.666992 0.646484)"/>
</clipPath>
</defs>
</svg>
