<svg class="decor2" width="82" height="49" viewBox="0 0 82 49" fill="none" xmlns="http://www.w3.org/2000/svg">
  <path d="M73.533 30.7886V40.0986H75.0846V30.7886H73.533Z" fill="white"></path>
  <path d="M70.9194 30.7886V40.0986H72.4711V30.7886H70.9194Z" fill="white"></path>
  <path d="M68.3064 30.7886V40.0986H69.8581V30.7886H68.3064Z" fill="white"></path>
  <path d="M65.6111 30.7886V40.0986H67.1627V30.7886H65.6111Z" fill="white"></path>
  <path d="M62.998 30.7886V40.0986H64.5497V30.7886H62.998Z" fill="white"></path>
  <path d="M60.3027 30.7886V40.0986H61.8544V30.7886H60.3027Z" fill="white"></path>
  <path d="M57.6897 30.7886V40.0986H59.2414V30.7886H57.6897Z" fill="white"></path>
  <path d="M55.0767 30.7886V40.0986H56.6283V30.7886H55.0767Z" fill="white"></path>
  <path d="M73.533 20.1719V29.4819H75.0846V20.1719H73.533Z" fill="white"></path>
  <path d="M70.9194 20.1719V29.4819H72.4711V20.1719H70.9194Z" fill="white"></path>
  <path opacity="0.31" d="M68.3064 20.1719V29.4819H69.8581V20.1719H68.3064Z" fill="white"></path>
  <path opacity="0.31" d="M65.6111 20.1719V29.4819H67.1627V20.1719H65.6111Z" fill="white"></path>
  <path opacity="0.31" d="M62.998 20.1719V29.4819H64.5497V20.1719H62.998Z" fill="white"></path>
  <path opacity="0.31" d="M60.3027 20.1719V29.4819H61.8544V20.1719H60.3027Z" fill="white"></path>
  <path opacity="0.31" d="M57.6897 20.1719V29.4819H59.2414V20.1719H57.6897Z" fill="white"></path>
  <path opacity="0.31" d="M55.0762 20.1719V29.4819H56.6279V20.1719H55.0762Z" fill="white"></path>
  <path d="M73.533 9.55523V18.8652H75.0846V9.55523H73.533Z" fill="white"></path>
  <path d="M70.9194 9.55523V18.8652H72.4711V9.55523H70.9194Z" fill="white"></path>
  <path d="M68.3064 9.55523V18.8652H69.8581V9.55523H68.3064Z" fill="white"></path>
  <path d="M65.6111 9.55523V18.8652H67.1627V9.55523H65.6111Z" fill="white"></path>
  <path opacity="0.29" d="M62.998 9.55523V18.8652H64.5497V9.55523H62.998Z" fill="white"></path>
  <path opacity="0.29" d="M60.3027 9.55523V18.8652H61.8544V9.55523H60.3027Z" fill="white"></path>
  <path opacity="0.29" d="M57.6897 9.55523V18.8652H59.2414V9.55523H57.6897Z" fill="white"></path>
  <path opacity="0.29" d="M55.0762 9.55523V18.8652H56.6279V9.55523H55.0762Z" fill="white"></path>
  <path d="M44.2959 2.61314V46.5498H79.0042V2.61314H44.2959Z" stroke="white" stroke-miterlimit="10"></path>
  <path d="M58.7513 46.6317L57.118 49H41.6013V34.3L43.9697 32.0133V46.55L58.7513 46.6317Z" fill="white"></path>
  <path d="M64.5496 2.36848L66.1829 0.000146866H81.6996V14.7001L79.3312 16.9868V2.45015L64.5496 2.36848Z" fill="white"></path>
  <path opacity="0.52" d="M6.40265 17.8852C6.40265 17.1636 5.81763 16.5786 5.09598 16.5786C4.37433 16.5786 3.78931 17.1636 3.78931 17.8852C3.78931 18.6069 4.37433 19.1919 5.09598 19.1919C5.81763 19.1919 6.40265 18.6069 6.40265 17.8852Z" fill="white"></path>
  <path d="M9.09805 17.8851C9.09805 15.675 7.30645 13.8834 5.09639 13.8834C2.88633 13.8834 1.09473 15.675 1.09473 17.8851C1.09473 20.0951 2.88633 21.8867 5.09639 21.8867C7.30645 21.8867 9.09805 20.0951 9.09805 17.8851Z" stroke="white" stroke-miterlimit="10"></path>
  <path opacity="0.44" d="M33.7613 17.8847C33.7613 17.1631 33.1763 16.5781 32.4546 16.5781C31.733 16.5781 31.1479 17.1631 31.1479 17.8847C31.1479 18.6064 31.733 19.1914 32.4546 19.1914C33.1763 19.1914 33.7613 18.6064 33.7613 17.8847Z" fill="white"></path>
  <path opacity="0.41" d="M36.3745 17.0683C36.4562 17.3133 36.4562 17.6399 36.4562 17.9666C36.4562 20.1716 34.6595 21.9683 32.4545 21.9683C31.9645 21.9683 31.5562 21.8866 31.0662 21.7233" stroke="white" stroke-miterlimit="10"></path>
  <path d="M31.0663 21.7231C29.5147 21.1515 28.3713 19.6815 28.3713 17.9665C28.3713 15.7615 30.168 13.9648 32.373 13.9648C34.333 13.9648 35.8847 15.2715 36.293 17.1498" stroke="white" stroke-miterlimit="10"></path>
  <path d="M20.1231 17.8847C20.1231 17.1631 19.5381 16.5781 18.8164 16.5781C18.0948 16.5781 17.5098 17.1631 17.5098 17.8847C17.5098 18.6064 18.0948 19.1914 18.8164 19.1914C19.5381 19.1914 20.1231 18.6064 20.1231 17.8847Z" fill="white"></path>
  <path d="M21.2665 21.0699C20.6132 21.6416 19.7148 21.9683 18.7348 21.9683C16.5298 21.9683 14.7332 20.1716 14.7332 17.9666C14.7332 15.7616 16.5298 13.9649 18.7348 13.9649C19.3881 13.9649 20.0415 14.1283 20.6132 14.4549" stroke="white" stroke-miterlimit="10"></path>
  <path opacity="0.35" d="M20.6948 14.373C22.0015 15.0264 22.8181 16.4147 22.8181 17.9664C22.8181 19.273 22.2465 20.4164 21.2665 21.1514" stroke="white" stroke-miterlimit="10"></path>
  <path d="M32.8635 44.4265V48.7549H37.1918V44.4265H32.8635Z" fill="white"></path>
  <path opacity="0.83" d="M25.5137 44.4265V48.7549H29.842V44.4265H25.5137Z" fill="white"></path>
  <path opacity="0.67" d="M18.1636 44.4265V48.7549H22.4919V44.4265H18.1636Z" fill="white"></path>
  <path opacity="0.57" d="M10.8137 44.4265V48.7549H15.142V44.4265H10.8137Z" fill="white"></path>
  <path opacity="0.48" d="M3.46387 44.4265L3.46387 48.7549H7.79219V44.4265H3.46387Z" fill="white"></path>
  <path d="M32.8633 42.6296V43.7729H37.1916V42.6296H32.8633Z" fill="white"></path>
  <path opacity="0.83" d="M25.5134 42.6296V43.7729H29.8418V42.6296H25.5134Z" fill="white"></path>
  <path opacity="0.67" d="M18.1633 42.6296V43.7729H22.4917V42.6296H18.1633Z" fill="white"></path>
  <path opacity="0.57" d="M10.8135 42.6296V43.7729H15.1418V42.6296H10.8135Z" fill="white"></path>
  <path opacity="0.48" d="M3.46362 42.6296V43.7729H7.79195V42.6296H3.46362Z" fill="white"></path>
  <path d="M32.8633 41.4867V41.895H37.1916V41.4867H32.8633Z" fill="white"></path>
  <path opacity="0.83" d="M25.5134 41.4867V41.895H29.8418V41.4867H25.5134Z" fill="white"></path>
  <path opacity="0.67" d="M18.1633 41.4867V41.895H22.4917V41.4867H18.1633Z" fill="white"></path>
  <path opacity="0.57" d="M10.8135 41.4867V41.895H15.1418V41.4867H10.8135Z" fill="white"></path>
  <path opacity="0.48" d="M3.46362 41.4867V41.895H7.79195V41.4867H3.46362Z" fill="white"></path>
</svg>
