<svg width="427" height="91" viewBox="0 0 427 91" fill="none" xmlns="http://www.w3.org/2000/svg">
  <g filter="url(#filter12_d)">
    <path class="path-1" d="M222.2 80.3903H224.485V78.3335H222.543V78.7906L221.514 79.819L222.2 80.3903ZM226.771 80.3903H229.056V78.3335H226.771V80.3903ZM231.342 80.3903H233.627V78.3335H231.342V80.3903ZM235.912 80.3903H238.198V78.3335H235.912V80.3903ZM240.483 80.3903H242.769V78.3335H240.483V80.3903ZM245.054 80.3903H247.339V78.3335H245.054V80.3903ZM249.625 80.3903H251.91V78.3335H249.625V80.3903ZM254.196 80.3903H256.481V78.3335H254.196V80.3903ZM258.766 80.3903H261.052V78.3335H258.766V80.3903ZM263.337 80.3903H265.623V78.3335H263.337V80.3903ZM267.908 80.3903H270.193V78.3335H267.908V80.3903ZM272.479 80.3903H274.764V78.3335H272.479V80.3903ZM277.05 80.3903H279.335V78.3335H277.05V80.3903ZM281.62 80.3903H283.906V78.3335H281.62V80.3903ZM286.191 80.3903H288.477V78.3335H286.191V80.3903ZM290.762 80.3903H293.047V78.3335H290.762V80.3903ZM295.333 80.3903H297.618V78.3335H295.333V80.3903ZM299.904 80.3903H302.189V78.3335H299.904V80.3903ZM304.474 80.3903H306.76V78.3335H304.474V80.3903ZM309.045 80.3903H311.331V78.3335H309.045V80.3903ZM313.616 80.3903H315.901V78.3335H313.616V80.3903ZM318.187 80.3903H320.472V78.3335H318.187V80.3903ZM322.758 80.3903H325.043V78.3335H322.758V80.3903ZM327.328 80.3903H329.614V78.3335H327.328V80.3903ZM331.899 80.3903H334.185V78.3335H331.899V80.3903ZM336.47 80.3903H338.755V78.3335H336.47V80.3903ZM341.041 80.3903H343.326V78.3335H341.041V80.3903ZM345.612 80.3903H347.897V78.3335H345.612V80.3903ZM350.182 80.3903H352.468V78.3335H350.182V80.3903ZM354.753 80.3903H357.039V78.3335H354.753V80.3903ZM359.324 80.3903H361.609V78.3335H359.324V80.3903ZM363.895 80.3903H366.18V78.3335H363.895V80.3903ZM368.466 80.3903H370.751V78.3335H368.466V80.3903ZM373.036 80.3903H375.322V78.3335H373.036V80.3903ZM377.607 80.3903H379.893V78.3335H377.607V80.3903ZM382.178 80.3903H384.463V78.3335H382.178V80.3903ZM386.749 80.3903H389.034V78.3335H386.749V80.3903ZM391.32 80.3903H393.605V78.3335H391.32V80.3903ZM395.89 80.3903H398.176V78.3335H395.89V80.3903ZM400.461 80.3903H402.747V78.3335H400.461V80.3903ZM405.032 80.3903H407.317V78.3335H405.032V80.3903ZM409.603 80.3903H411.888V78.3335H409.603V80.3903ZM414.174 80.3903H416.459V78.3335H414.174V80.3903ZM220.029 78.1049L221.514 76.6194L219.915 75.0197L218.429 76.5052L220.029 78.1049ZM216.715 74.9054L218.2 73.4199L216.601 71.8201L215.115 73.3056L216.715 74.9054ZM213.515 71.7058L215.001 70.2203L213.401 68.6205L211.916 70.106L213.515 71.7058ZM210.316 68.5063L211.801 67.0208L210.202 65.421L208.716 66.9065L210.316 68.5063ZM207.116 65.1924L208.602 63.7069L207.002 62.1071L205.517 63.5927L207.116 65.1924ZM203.802 61.9929L205.288 60.5074L203.688 58.9076L202.203 60.3931L203.802 61.9929ZM200.603 58.7933L202.088 57.3078L200.489 55.708L199.003 57.1935L200.603 58.7933ZM197.403 55.4795L198.889 53.994L197.289 52.3942L195.804 53.8797L197.403 55.4795ZM194.09 52.2799L195.575 50.7944L193.975 49.1946L192.49 50.6801L194.09 52.2799ZM190.89 49.0804L192.375 47.5948L190.776 45.9951L189.29 47.4806L190.89 49.0804ZM187.69 45.8808L189.176 44.3953L187.576 42.7955L186.091 44.281L187.69 45.8808ZM184.491 42.567L185.976 41.0814L184.377 39.4817L182.891 40.9672L184.491 42.567ZM181.177 39.3674L182.663 37.8819L181.063 36.2821L179.577 37.7676L181.177 39.3674ZM177.977 36.1678L179.463 34.6823L177.863 33.0825L176.378 34.5681L177.977 36.1678ZM174.778 32.854L176.263 31.3685L174.664 29.7687L173.178 31.2542L174.778 32.854ZM171.464 29.6544L172.95 28.1689L171.35 26.5692L169.864 28.0547L171.464 29.6544ZM168.264 26.4549L169.75 24.9694L168.15 23.3696L166.665 24.8551L168.264 26.4549ZM165.065 23.2553L166.55 21.7698L164.951 20.17L163.465 21.6555L165.065 23.2553ZM161.865 19.9415L163.351 18.456L161.751 16.8562L160.266 18.3417L161.865 19.9415ZM158.551 16.7419L160.037 15.2564L158.437 13.6566L156.952 15.1422L158.551 16.7419ZM155.352 13.5424L156.837 12.0569L155.238 10.4571L153.752 11.9426L155.352 13.5424ZM10.0004 12.0569H10.5718V10H10.0004V12.0569ZM12.8572 12.0569H15.1426V10H12.8572V12.0569ZM17.428 12.0569H19.7134V10H17.428V12.0569ZM21.9988 12.0569H24.2842V10H21.9988V12.0569ZM26.5696 12.0569H28.855V10H26.5696V12.0569ZM31.1404 12.0569H33.4258V10H31.1404V12.0569ZM35.7112 12.0569H37.9966V10H35.7112V12.0569ZM40.282 12.0569H42.5674V10H40.282V12.0569ZM44.8528 12.0569H47.1382V10H44.8528V12.0569ZM49.4236 12.0569H51.709V10H49.4236V12.0569ZM53.9944 12.0569H56.2798V10H53.9944V12.0569ZM58.5652 12.0569H60.8506V10H58.5652V12.0569ZM63.136 12.0569H65.4214V10H63.136V12.0569ZM67.7068 12.0569H69.9922V10H67.7068V12.0569ZM72.2776 12.0569H74.563V10H72.2776V12.0569ZM76.8484 12.0569H79.1338V10H76.8484V12.0569ZM81.4192 12.0569H83.7046V10H81.4192V12.0569ZM85.99 12.0569H88.2754V10H85.99V12.0569ZM90.5608 12.0569H92.8462V10H90.5608V12.0569ZM95.1316 12.0569H97.417V10H95.1316V12.0569ZM99.7024 12.0569H101.988V10H99.7024V12.0569ZM104.273 12.0569H106.559V10H104.273V12.0569ZM108.844 12.0569H111.129V10H108.844V12.0569ZM113.415 12.0569H115.7V10H113.415V12.0569ZM117.986 12.0569H120.271V10H117.986V12.0569ZM122.556 12.0569H124.842V10H122.556V12.0569ZM127.127 12.0569H129.413V10H127.127V12.0569ZM131.698 12.0569H133.983V10H131.698V12.0569ZM136.269 12.0569H138.554V10H136.269V12.0569ZM140.84 12.0569H143.125V10H140.84V12.0569ZM145.41 12.0569H147.696V10H145.41V12.0569ZM149.981 12.0569H152.267V10H149.981V12.0569Z" fill="#ffffff"/>
    <path class="path-2 path-2-1" d="M193.766 19.3328H185.768V11.3339H193.766V19.3328Z" fill="#ffffff"/>
    <path class="path-2 path-2-2" d="M189.747 14.9136H254.31V15.8277H189.747V14.9136Z" fill="#ffffff"/>
    <path class="path-3 path-3-1" d="M209.918 35.3701H201.919V27.3712H209.918V35.3701Z" fill="#ffffff"/>
    <path class="path-3 path-3-2" d="M205.859 31.0256H270.422V31.9398H205.859V31.0256Z" fill="#ffffff"/>
    <path class="path-4 path-4-1" d="M226.069 51.522H218.07V43.5231H226.069V51.522Z" fill="#ffffff"/>
    <path class="path-4 path-4-2" d="M222.085 47.1377H286.647V48.0519H222.085V47.1377Z" fill="#ffffff"/>
    <path class="path-5 path-5-1" d="M242.107 67.6738H234.108V59.6749H242.107V67.6738Z" fill="#ffffff"/>
    <path class="path-5 path-5-2" d="M238.197 63.2498H302.76V64.1639H238.197V63.2498Z" fill="#ffffff"/>
    <path class="path-6" d="M125.07 34.6824H157.637L150.209 23.1411H117.756L125.07 34.6824Z" fill="#ffffff"/>
    <path class="path-7" d="M83.475 34.6824H115.928L108.614 23.1411H76.0475L83.475 34.6824Z" fill="#ffffff"/>
  </g>
  <defs>
    <filter id="filter12_d" x="0" y="0" width="426.459" height="90.3903" filterUnits="userSpaceOnUse" color-interpolation-filters="sRGB">
      <feFlood flood-opacity="0" result="BackgroundImageFix"/>
      <feColorMatrix in="SourceAlpha" type="matrix" values="0 0 0 0 0 0 0 0 0 0 0 0 0 0 0 0 0 0 127 0"/>
      <feOffset/>
      <feGaussianBlur stdDeviation="5"/>
      <feColorMatrix type="matrix" values="0 0 0 0 0.921569 0 0 0 0 0.14902 0 0 0 0 0.160784 0 0 0 1 0"/>
      <feBlend mode="normal" in2="BackgroundImageFix" result="effect1_dropShadow"/>
      <feBlend mode="normal" in="SourceGraphic" in2="effect1_dropShadow" result="shape"/>
    </filter>
  </defs>
</svg>
