<svg width="427" height="91" viewBox="0 0 427 91" fill="none" xmlns="http://www.w3.org/2000/svg">
<g filter="url(#filter0_d)">
<path class="path-1" d="M222.199 80.3903H224.485V78.3335H222.542V78.7906L221.514 79.819L222.199 80.3903ZM226.77 80.3903H229.056V78.3335H226.77V80.3903ZM231.341 80.3903H233.626V78.3335H231.341V80.3903ZM235.912 80.3903H238.197V78.3335H235.912V80.3903ZM240.483 80.3903H242.768V78.3335H240.483V80.3903ZM245.053 80.3903H247.339V78.3335H245.053V80.3903ZM249.624 80.3903H251.91V78.3335H249.624V80.3903ZM254.195 80.3903H256.48V78.3335H254.195V80.3903ZM258.766 80.3903H261.051V78.3335H258.766V80.3903ZM263.337 80.3903H265.622V78.3335H263.337V80.3903ZM267.907 80.3903H270.193V78.3335H267.907V80.3903ZM272.478 80.3903H274.764V78.3335H272.478V80.3903ZM277.049 80.3903H279.334V78.3335H277.049V80.3903ZM281.62 80.3903H283.905V78.3335H281.62V80.3903ZM286.191 80.3903H288.476V78.3335H286.191V80.3903ZM290.761 80.3903H293.047V78.3335H290.761V80.3903ZM295.332 80.3903H297.618V78.3335H295.332V80.3903ZM299.903 80.3903H302.188V78.3335H299.903V80.3903ZM304.474 80.3903H306.759V78.3335H304.474V80.3903ZM309.045 80.3903H311.33V78.3335H309.045V80.3903ZM313.615 80.3903H315.901V78.3335H313.615V80.3903ZM318.186 80.3903H320.472V78.3335H318.186V80.3903ZM322.757 80.3903H325.042V78.3335H322.757V80.3903ZM327.328 80.3903H329.613V78.3335H327.328V80.3903ZM331.899 80.3903H334.184V78.3335H331.899V80.3903ZM336.469 80.3903H338.755V78.3335H336.469V80.3903ZM341.04 80.3903H343.326V78.3335H341.04V80.3903ZM345.611 80.3903H347.896V78.3335H345.611V80.3903ZM350.182 80.3903H352.467V78.3335H350.182V80.3903ZM354.753 80.3903H357.038V78.3335H354.753V80.3903ZM359.323 80.3903H361.609V78.3335H359.323V80.3903ZM363.894 80.3903H366.18V78.3335H363.894V80.3903ZM368.465 80.3903H370.75V78.3335H368.465V80.3903ZM373.036 80.3903H375.321V78.3335H373.036V80.3903ZM377.607 80.3903H379.892V78.3335H377.607V80.3903ZM382.177 80.3903H384.463V78.3335H382.177V80.3903ZM386.748 80.3903H389.034V78.3335H386.748V80.3903ZM391.319 80.3903H393.604V78.3335H391.319V80.3903ZM395.89 80.3903H398.175V78.3335H395.89V80.3903ZM400.461 80.3903H402.746V78.3335H400.461V80.3903ZM405.031 80.3903H407.317V78.3335H405.031V80.3903ZM409.602 80.3903H411.888V78.3335H409.602V80.3903ZM414.173 80.3903H416.458V78.3335H414.173V80.3903ZM220.028 78.1049L221.514 76.6194L219.914 75.0197L218.429 76.5052L220.028 78.1049ZM216.714 74.9054L218.2 73.4199L216.6 71.8201L215.115 73.3056L216.714 74.9054ZM213.515 71.7058L215 70.2203L213.401 68.6205L211.915 70.106L213.515 71.7058ZM210.315 68.5063L211.801 67.0208L210.201 65.421L208.716 66.9065L210.315 68.5063ZM207.116 65.1924L208.601 63.7069L207.002 62.1071L205.516 63.5927L207.116 65.1924ZM203.802 61.9929L205.287 60.5074L203.688 58.9076L202.202 60.3931L203.802 61.9929ZM200.602 58.7933L202.088 57.3078L200.488 55.708L199.003 57.1935L200.602 58.7933ZM197.403 55.4795L198.888 53.994L197.289 52.3942L195.803 53.8797L197.403 55.4795ZM194.089 52.2799L195.575 50.7944L193.975 49.1946L192.489 50.6801L194.089 52.2799ZM190.889 49.0804L192.375 47.5948L190.775 45.9951L189.29 47.4806L190.889 49.0804ZM187.69 45.8808L189.175 44.3953L187.576 42.7955L186.09 44.281L187.69 45.8808ZM184.49 42.567L185.976 41.0814L184.376 39.4817L182.891 40.9672L184.49 42.567ZM181.176 39.3674L182.662 37.8819L181.062 36.2821L179.577 37.7676L181.176 39.3674ZM177.977 36.1678L179.462 34.6823L177.863 33.0825L176.377 34.5681L177.977 36.1678ZM174.777 32.854L176.263 31.3685L174.663 29.7687L173.178 31.2542L174.777 32.854ZM171.464 29.6544L172.949 28.1689L171.349 26.5692L169.864 28.0547L171.464 29.6544ZM168.264 26.4549L169.749 24.9694L168.15 23.3696L166.664 24.8551L168.264 26.4549ZM165.064 23.2553L166.55 21.7698L164.95 20.17L163.465 21.6555L165.064 23.2553ZM161.865 19.9415L163.35 18.456L161.751 16.8562L160.265 18.3417L161.865 19.9415ZM158.551 16.7419L160.036 15.2564L158.437 13.6566L156.951 15.1422L158.551 16.7419ZM155.351 13.5424L156.837 12.0569L155.237 10.4571L153.752 11.9426L155.351 13.5424ZM9.99994 12.0569H10.5713V10H9.99994V12.0569ZM12.8567 12.0569H15.1421V10H12.8567V12.0569ZM17.4275 12.0569H19.7129V10H17.4275V12.0569ZM21.9983 12.0569H24.2837V10H21.9983V12.0569ZM26.5691 12.0569H28.8545V10H26.5691V12.0569ZM31.1399 12.0569H33.4253V10H31.1399V12.0569ZM35.7107 12.0569H37.9961V10H35.7107V12.0569ZM40.2815 12.0569H42.5669V10H40.2815V12.0569ZM44.8523 12.0569H47.1377V10H44.8523V12.0569ZM49.4231 12.0569H51.7085V10H49.4231V12.0569ZM53.9939 12.0569H56.2793V10H53.9939V12.0569ZM58.5647 12.0569H60.8501V10H58.5647V12.0569ZM63.1355 12.0569H65.4209V10H63.1355V12.0569ZM67.7063 12.0569H69.9917V10H67.7063V12.0569ZM72.2771 12.0569H74.5625V10H72.2771V12.0569ZM76.8479 12.0569H79.1333V10H76.8479V12.0569ZM81.4187 12.0569H83.7041V10H81.4187V12.0569ZM85.9895 12.0569H88.2749V10H85.9895V12.0569ZM90.5603 12.0569H92.8457V10H90.5603V12.0569ZM95.1311 12.0569H97.4165V10H95.1311V12.0569ZM99.7019 12.0569H101.987V10H99.7019V12.0569ZM104.273 12.0569H106.558V10H104.273V12.0569ZM108.844 12.0569H111.129V10H108.844V12.0569ZM113.414 12.0569H115.7V10H113.414V12.0569ZM117.985 12.0569H120.271V10H117.985V12.0569ZM122.556 12.0569H124.841V10H122.556V12.0569ZM127.127 12.0569H129.412V10H127.127V12.0569ZM131.698 12.0569H133.983V10H131.698V12.0569ZM136.268 12.0569H138.554V10H136.268V12.0569ZM140.839 12.0569H143.125V10H140.839V12.0569ZM145.41 12.0569H147.695V10H145.41V12.0569ZM149.981 12.0569H152.266V10H149.981V12.0569Z" fill="white"/>
</g>
<g filter="url(#filter1_d)">
<path class="path-2 path-2-2" d="M193.766 19.3328H185.768V11.3339H193.766V19.3328Z" fill="white"/>
<path class="path-2 path-2-2" d="M189.747 14.9136H254.31V15.8277H189.747V14.9136Z" fill="white"/>
<path class="path-3 path-3-1" d="M209.918 35.3702H201.919V27.3713H209.918V35.3702Z" fill="white"/>
<path class="path-3 path-3-2" d="M205.859 31.0256H270.422V31.9398H205.859V31.0256Z" fill="white"/>
<path class="path-4 path-4-1" d="M226.069 51.522H218.07V43.5231H226.069V51.522Z" fill="white"/>
<path class="path-4 path-4-2" d="M222.085 47.1377H286.647V48.0519H222.085V47.1377Z" fill="white"/>
<path class="path-5 path-5-1" d="M242.107 67.674H234.108V59.675H242.107V67.674Z" fill="white"/>
<path class="path-5 path-5-2" d="M238.197 63.2498H302.76V64.1639H238.197V63.2498Z" fill="white"/>
</g>
<g filter="url(#filter2_d)">
<path class="path-6" d="M125.07 34.6823H157.637L150.209 23.141H117.756L125.07 34.6823Z" fill="white"/>
</g>
<g filter="url(#filter3_d)">
<path class="path-7" d="M83.4755 34.6823H115.928L108.615 23.141H76.0479L83.4755 34.6823Z" fill="white"/>
</g>
<defs>
<filter id="filter0_d" x="0" y="0" width="426.459" height="90.3903" filterUnits="userSpaceOnUse" color-interpolation-filters="sRGB">
<feFlood flood-opacity="0" result="BackgroundImageFix"/>
<feColorMatrix in="SourceAlpha" type="matrix" values="0 0 0 0 0 0 0 0 0 0 0 0 0 0 0 0 0 0 127 0"/>
<feOffset/>
<feGaussianBlur stdDeviation="5"/>
<feColorMatrix type="matrix" values="0 0 0 0 0.101961 0 0 0 0 0.596078 0 0 0 0 1 0 0 0 1 0"/>
<feBlend mode="normal" in2="BackgroundImageFix" result="effect1_dropShadow"/>
<feBlend mode="normal" in="SourceGraphic" in2="effect1_dropShadow" result="shape"/>
</filter>
<filter id="filter1_d" x="175.768" y="1.33386" width="136.992" height="76.3401" filterUnits="userSpaceOnUse" color-interpolation-filters="sRGB">
<feFlood flood-opacity="0" result="BackgroundImageFix"/>
<feColorMatrix in="SourceAlpha" type="matrix" values="0 0 0 0 0 0 0 0 0 0 0 0 0 0 0 0 0 0 127 0"/>
<feOffset/>
<feGaussianBlur stdDeviation="5"/>
<feColorMatrix type="matrix" values="0 0 0 0 0.101961 0 0 0 0 0.596078 0 0 0 0 1 0 0 0 1 0"/>
<feBlend mode="normal" in2="BackgroundImageFix" result="effect1_dropShadow"/>
<feBlend mode="normal" in="SourceGraphic" in2="effect1_dropShadow" result="shape"/>
</filter>
<filter id="filter2_d" x="107.756" y="13.141" width="59.8803" height="31.5413" filterUnits="userSpaceOnUse" color-interpolation-filters="sRGB">
<feFlood flood-opacity="0" result="BackgroundImageFix"/>
<feColorMatrix in="SourceAlpha" type="matrix" values="0 0 0 0 0 0 0 0 0 0 0 0 0 0 0 0 0 0 127 0"/>
<feOffset/>
<feGaussianBlur stdDeviation="5"/>
<feColorMatrix type="matrix" values="0 0 0 0 0.921569 0 0 0 0 0.14902 0 0 0 0 0.160784 0 0 0 1 0"/>
<feBlend mode="normal" in2="BackgroundImageFix" result="effect1_dropShadow"/>
<feBlend mode="normal" in="SourceGraphic" in2="effect1_dropShadow" result="shape"/>
</filter>
<filter id="filter3_d" x="66.0479" y="13.141" width="59.8803" height="31.5413" filterUnits="userSpaceOnUse" color-interpolation-filters="sRGB">
<feFlood flood-opacity="0" result="BackgroundImageFix"/>
<feColorMatrix in="SourceAlpha" type="matrix" values="0 0 0 0 0 0 0 0 0 0 0 0 0 0 0 0 0 0 127 0"/>
<feOffset/>
<feGaussianBlur stdDeviation="5"/>
<feColorMatrix type="matrix" values="0 0 0 0 0.921569 0 0 0 0 0.14902 0 0 0 0 0.160784 0 0 0 1 0"/>
<feBlend mode="normal" in2="BackgroundImageFix" result="effect1_dropShadow"/>
<feBlend mode="normal" in="SourceGraphic" in2="effect1_dropShadow" result="shape"/>
</filter>
</defs>
</svg>
