<svg width="152" height="54" viewBox="0 0 152 54" fill="none" xmlns="http://www.w3.org/2000/svg">
  <path d="M144 0H7.80002C3.50002 0 0 3.50002 0 7.80002V11.6H151.8V7.80002C151.8 3.50002 148.3 0 144 0ZM8.39999 10H6.10001V1.60001H8.39999V10ZM11.8 10H9.60001V1.60001H11.9V10H11.8ZM15.2 10H12.9V1.60001H15.2V10ZM18.7 10H16.4V1.60001H18.7V10ZM22.1 10H19.8V1.60001H22.1V10ZM25.5 10H23.2V1.60001H25.5V10ZM28.9 10H26.6V1.60001H28.9V10ZM32.3 10H30V1.60001H32.3V10ZM35.7 10H33.4V1.60001H35.7V10ZM39.1 10H36.8V1.60001H39.1V10ZM42.5 10H40.2V1.60001H42.5V10ZM46 10H43.7V1.60001H46V10ZM49.4 10H47.1V1.60001H49.4V10ZM52.8 10H50.5V1.60001H52.8V10ZM56.2 10H53.9V1.60001H56.2V10ZM59.6 10H57.3V1.60001H59.6V10ZM63 10H60.7V1.60001H63V10ZM66.4 10H64.1V1.60001H66.4V10ZM69.8 10H67.6V1.60001H69.9V10H69.8ZM73.3 10H71V1.60001H73.3V10ZM76.7 10H74.4V1.60001H76.7V10ZM80.1 10H77.8V1.60001H80.1V10ZM83.5 10H81.2V1.60001H83.5V10ZM86.9 10H84.6V1.60001H86.9V10ZM90.3 10H88V1.60001H90.3V10ZM93.7 10H91.4V1.60001H93.7V10ZM97.1 10H94.8V1.60001H97.1V10ZM100.6 10H98.3V1.60001H100.6V10ZM104 10H101.7V1.60001H104V10ZM107.4 10H105.1V1.60001H107.4V10ZM110.8 10H108.5V1.60001H110.8V10ZM114.2 10H111.9V1.60001H114.2V10ZM117.6 10H115.3V1.60001H117.6V10ZM120.9 10H118.6V1.60001H120.9V10ZM124.3 10H122V1.60001H124.3V10ZM127.8 10H125.5V1.60001H127.8V10ZM131.2 10H128.9V1.60001H131.2V10ZM134.6 10H132.3V1.60001H134.6V10ZM138 10H135.7V1.60001H138V10ZM141.4 10H139.1V1.60001H141.4V10ZM144.8 10H142.5V1.60001H144.8V10Z" fill="white" fill-opacity="0.5"/>
  <path d="M150.8 15C151.352 15 151.8 14.5523 151.8 14C151.8 13.4477 151.352 13 150.8 13C150.248 13 149.8 13.4477 149.8 14C149.8 14.5523 150.248 15 150.8 15Z" fill="white" fill-opacity="0.5"/>
  <path d="M146.7 15C147.252 15 147.7 14.5523 147.7 14C147.7 13.4477 147.252 13 146.7 13C146.148 13 145.7 13.4477 145.7 14C145.7 14.5523 146.148 15 146.7 15Z" fill="white" fill-opacity="0.5"/>
  <path d="M142.6 15C143.152 15 143.6 14.5523 143.6 14C143.6 13.4477 143.152 13 142.6 13C142.048 13 141.6 13.4477 141.6 14C141.6 14.5523 142.048 15 142.6 15Z" fill="white" fill-opacity="0.5"/>
  <path d="M138.5 15C139.052 15 139.5 14.5523 139.5 14C139.5 13.4477 139.052 13 138.5 13C137.948 13 137.5 13.4477 137.5 14C137.5 14.5523 137.948 15 138.5 15Z" fill="white" fill-opacity="0.5"/>
  <path d="M134.4 15C134.952 15 135.4 14.5523 135.4 14C135.4 13.4477 134.952 13 134.4 13C133.848 13 133.4 13.4477 133.4 14C133.4 14.5523 133.848 15 134.4 15Z" fill="white" fill-opacity="0.5"/>
  <path d="M130.4 15C130.952 15 131.4 14.5523 131.4 14C131.4 13.4477 130.952 13 130.4 13C129.848 13 129.4 13.4477 129.4 14C129.4 14.5523 129.848 15 130.4 15Z" fill="white" fill-opacity="0.5"/>
  <path d="M126.3 15C126.852 15 127.3 14.5523 127.3 14C127.3 13.4477 126.852 13 126.3 13C125.748 13 125.3 13.4477 125.3 14C125.3 14.5523 125.748 15 126.3 15Z" fill="white" fill-opacity="0.5"/>
  <path d="M122.2 15C122.752 15 123.2 14.5523 123.2 14C123.2 13.4477 122.752 13 122.2 13C121.648 13 121.2 13.4477 121.2 14C121.2 14.5523 121.648 15 122.2 15Z" fill="white" fill-opacity="0.5"/>
  <path d="M13.2002 31.5999C13.3002 31.5999 13.3002 31.5999 13.3002 31.5999V32.5999H13.8002V32.6999H13.2002V31.5999Z" fill="white" fill-opacity="0.5"/>
  <path d="M14.3004 32.7999C14.2004 32.7999 14.2004 32.7999 14.1004 32.7999L14.0004 32.6999L13.9004 32.5999C13.9004 32.4999 13.9004 32.4999 13.9004 32.3999C13.9004 32.2999 13.9004 32.2999 13.9004 32.1999C13.9004 32.0999 13.9004 32.0999 14.0004 32.0999L14.1004 31.9999C14.1004 31.9999 14.2004 31.9999 14.3004 31.9999C14.4004 31.9999 14.4004 31.9999 14.5004 31.9999L14.6004 32.0999L14.7004 32.1999C14.7004 32.2999 14.7004 32.2999 14.7004 32.3999C14.7004 32.4999 14.7004 32.4999 14.7004 32.5999C14.7004 32.6999 14.7004 32.6999 14.6004 32.6999L14.5004 32.7999C14.4004 32.7999 14.4004 32.7999 14.3004 32.7999ZM14.3004 32.6999C14.4004 32.6999 14.4004 32.6999 14.5004 32.5999C14.5004 32.4999 14.6004 32.4999 14.6004 32.3999C14.6004 32.2999 14.6004 32.1999 14.5004 32.1999C14.5004 32.0999 14.4004 32.0999 14.3004 32.0999C14.2004 32.0999 14.2004 32.0999 14.1004 32.1999C14.1004 32.2999 14.0004 32.2999 14.0004 32.3999C14.0004 32.4999 14.0004 32.5999 14.1004 32.5999C14.2004 32.6999 14.2004 32.6999 14.3004 32.6999Z" fill="white" fill-opacity="0.5"/>
  <path d="M14.9004 31.9999C15.0004 31.9999 15.0004 31.9999 14.9004 31.9999C15.0004 31.9999 15.0004 31.9999 15.0004 31.9999C15.0004 31.9999 15.0004 31.9999 15.0004 32.0999C15.0004 32.0999 15.0004 32.0999 15.0004 32.1999L15.1004 32.0999H15.2004H15.1004H15.0004C15.0004 32.0999 15.0004 32.0999 14.9004 32.1999V32.2999V32.6999V31.9999Z" fill="white" fill-opacity="0.5"/>
  <path d="M15.6 32.3999C15.6 32.4999 15.6 32.5999 15.7 32.5999C15.7 32.5999 15.8 32.6999 15.9 32.6999C16 32.6999 16.1 32.6999 16.1 32.6999C16.1 32.6999 16.1 32.6999 16.1 32.7999C16.1 32.7999 16.1 32.7999 16.1 32.8999H16H15.9C15.8 32.8999 15.8 32.8999 15.7 32.8999C15.6 32.8999 15.6 32.7999 15.6 32.7999L15.5 32.6999C15.5 32.5999 15.5 32.5998 15.5 32.4998C15.5 32.3998 15.5 32.3999 15.5 32.2999C15.5 32.1999 15.5 32.1999 15.6 32.1999L15.7 32.0999C15.7 32.0999 15.8 32.0999 15.9 32.0999C16 32.0999 16 32.0999 16.1 32.0999C16.1 32.0999 16.2 32.0999 16.2 32.1999L16.3 32.2999C16.3 32.2999 16.3 32.3998 16.3 32.4998H15.6V32.3999ZM16.1 32.2999C16.1 32.2999 16 32.2999 16.1 32.2999C16.1 32.1999 16.1 32.1999 16.1 32.0999C16.1 32.0999 16.1 32.0999 16 32.0999H15.9C15.8 32.0999 15.8 32.0999 15.7 32.1999C15.7 32.1999 15.6 32.2999 15.6 32.3999H16.1V32.2999Z" fill="white" fill-opacity="0.5"/>
  <path d="M16.4004 31.9999C16.5004 31.9999 16.5004 31.9999 16.4004 31.9999C16.5004 31.9999 16.5004 31.9999 16.5004 31.9999C16.5004 31.9999 16.5004 31.9999 16.5004 32.0999C16.5004 32.0999 16.5004 32.0999 16.5004 32.1999C16.5004 32.1999 16.5004 32.1999 16.5004 32.0999C16.5004 32.0999 16.5004 32.0999 16.6004 32.0999C16.6004 32.0999 16.6004 32.0999 16.7004 32.0999H16.8004C16.9004 32.0999 16.9004 32.0999 17.0004 32.0999L17.1004 32.1999C17.1004 32.1999 17.1004 32.1999 17.1004 32.0999C17.1004 32.0999 17.1004 32.0999 17.2004 32.0999C17.2004 32.0999 17.2004 32.0999 17.3004 32.0999H17.4004C17.5004 32.0999 17.6004 32.0999 17.6004 32.1999C17.6004 32.2999 17.7004 32.2999 17.7004 32.3999V32.8999V32.3999C17.7004 32.2999 17.7004 32.2999 17.7004 32.1999L17.6004 32.0999C17.5004 32.0999 17.5004 32.0999 17.5004 32.1999C17.5004 32.1999 17.4004 32.2999 17.4004 32.3999V32.8999V32.3999C17.4004 32.2999 17.4004 32.2999 17.4004 32.1999L17.3004 32.0999H17.2004C17.2004 32.0999 17.2004 32.0999 17.1004 32.1999V32.2999V32.3999V32.7999V31.9999H16.4004Z" fill="white" fill-opacity="0.5"/>
  <path d="M18.3002 32.0998H18.2002H18.5002V32.8998V32.0998H18.3002ZM18.2002 31.7998C18.2002 31.6998 18.2002 31.6998 18.2002 31.7998C18.2002 31.6998 18.2002 31.6998 18.2002 31.6998C18.3002 31.7998 18.3002 31.7998 18.2002 31.7998C18.3002 31.7998 18.3002 31.7998 18.2002 31.7998C18.2002 31.7998 18.3002 31.7998 18.2002 31.7998Z" fill="white" fill-opacity="0.5"/>
  <path d="M18.7002 31.9999C18.8002 31.9999 18.8002 31.9999 18.8002 31.9999C18.8002 31.9999 18.8002 31.9999 18.8002 31.8999C18.8002 31.8999 18.8002 31.8999 18.9002 31.8999C18.9002 31.8999 18.9002 31.8999 19.0002 31.8999H19.1002H19.2002C19.2002 31.8999 19.3002 31.8999 19.3002 31.9999L19.4002 32.0999C19.4002 32.1999 19.4002 32.1999 19.4002 32.2999C19.4002 32.3999 19.4002 32.5999 19.3002 32.5999C19.2002 32.6999 19.1002 32.6999 19.0002 32.6999C19.0002 32.6999 19.0002 32.6999 18.9002 32.6999C18.9002 32.6999 18.9002 32.6999 18.8002 32.6999V33.0999V31.9999H18.7002ZM18.9002 32.6999C19.0002 32.6999 19.0002 32.6999 19.0002 32.6999H19.1002C19.1002 32.6999 19.2002 32.6999 19.2002 32.5999C19.2002 32.5999 19.2002 32.4999 19.3002 32.4999V32.3999C19.3002 32.2999 19.3002 32.1999 19.3002 32.1999C19.3002 32.1999 19.2002 32.0999 19.1002 32.0999H19.0002C19.0002 32.0999 19.0002 32.0999 18.9002 32.0999C18.9002 32.0999 18.9002 32.0999 18.9002 32.1999V32.2999V32.6999Z" fill="white" fill-opacity="0.5"/>
  <path d="M19.6001 32.6999C19.7001 32.6999 19.7001 32.6999 19.6001 32.6999C19.7001 32.6999 19.8001 32.6999 19.8001 32.6999C19.8001 32.6999 19.8001 32.6999 19.9001 32.6999C19.9001 32.6999 19.9001 32.6999 20.0001 32.6999C20.0001 32.6999 20.0001 32.6999 20.0001 32.5999C20.0001 32.5999 20.0001 32.5999 20.0001 32.4999C20.0001 32.4999 20.0001 32.4999 19.9001 32.4999H19.8001C19.7001 32.4999 19.7001 32.3999 19.6001 32.3999V32.2999C19.6001 32.1999 19.6001 32.1999 19.7001 32.0999C19.8001 32.0999 19.8001 31.9999 19.9001 31.9999H20.0001H20.1001C20.1001 31.9999 20.1001 31.9999 20.1001 32.0999C20.1001 32.0999 20.1001 32.0999 20.1001 32.1999H20.0001H19.9001H19.8001C19.8001 32.1999 19.8001 32.1999 19.8001 32.2999C19.8001 32.2999 19.8001 32.2999 19.9001 32.2999H20.0001H20.1001C20.1001 32.2999 20.1001 32.2999 20.2001 32.2999C20.2001 32.2999 20.2001 32.2999 20.2001 32.3999V32.4999V32.5999C20.2001 32.5999 20.2001 32.6999 20.1001 32.6999C20.1001 32.6999 20.0001 32.6999 20.0001 32.7999H19.9001C19.8001 32.7999 19.8001 32.7999 19.8001 32.7999H19.7001C19.6001 32.7999 19.6001 32.7999 19.6001 32.6999Z" fill="white" fill-opacity="0.5"/>
  <path d="M20.4001 31.9999C20.5001 31.9999 20.5001 31.9999 20.4001 31.9999C20.5001 31.9999 20.5001 31.9999 20.5001 31.9999V32.4999C20.5001 32.5999 20.5001 32.5999 20.5001 32.5999V32.6999C20.5001 32.6999 20.5001 32.6999 20.6001 32.6999H20.7001C20.8001 32.6999 20.8001 32.6999 20.8001 32.6999V31.9999V32.7999H20.7001C20.6001 32.7999 20.6001 32.7999 20.5001 32.7999C20.4001 32.7999 20.4001 32.7999 20.3001 32.7999C20.3001 32.7999 20.2001 32.7999 20.2001 32.6999L20.1001 32.5999C20.1001 32.4999 20.1001 32.4999 20.1001 32.3999V31.9999H20.4001Z" fill="white" fill-opacity="0.5"/>
  <path d="M21.3003 31.9999C21.4003 31.9999 21.4003 31.9999 21.3003 31.9999C21.4003 31.9999 21.4003 31.9999 21.3003 31.9999C21.4003 31.9999 21.4003 31.9999 21.4003 31.9999C21.4003 31.9999 21.4003 31.9999 21.4003 32.0999C21.4003 32.0999 21.4003 32.0999 21.4003 32.1999C21.4003 32.1999 21.4003 32.1999 21.4003 32.0999C21.4003 32.0999 21.4003 32.0999 21.5003 32.0999C21.5003 32.0999 21.5003 32.0999 21.6003 32.0999H21.7003C21.8003 32.0999 21.8003 32.0999 21.9003 32.0999L22.0003 32.1999C22.0003 32.1999 22.0003 32.1999 22.0003 32.0999C22.0003 32.0999 22.0003 32.0999 22.1003 32.0999C22.1003 32.0999 22.1003 32.0999 22.2003 32.0999H22.3003C22.4003 32.0999 22.5003 32.0999 22.5003 32.1999C22.5003 32.2999 22.6003 32.2999 22.6003 32.3999V32.8999V32.3999C22.6003 32.2999 22.6003 32.2999 22.6003 32.1999L22.5003 32.0999C22.4003 32.0999 22.4003 32.0999 22.4003 32.1999C22.4003 32.1999 22.3003 32.2999 22.3003 32.3999V32.8999V32.3999C22.3003 32.2999 22.3003 32.2999 22.3003 32.1999L22.2003 32.0999H22.1003C22.1003 32.0999 22.1003 32.0999 22.0003 32.1999V32.2999V32.3999V32.7999V31.9999H21.3003Z" fill="white" fill-opacity="0.5"/>
  <path d="M23.7001 31.5999C23.8001 31.5999 23.8001 31.5999 23.8001 31.5999V32.7999H23.7001C23.6001 32.7999 23.6001 32.7999 23.5001 32.7999C23.4001 32.7999 23.4001 32.7999 23.3001 32.7999C23.2001 32.7999 23.2001 32.7999 23.2001 32.6999L23.1001 32.5999C23.1001 32.4999 23.1001 32.4999 23.1001 32.3999C23.1001 32.2999 23.1001 32.2999 23.1001 32.1999C23.1001 32.0999 23.1001 32.0999 23.2001 32.0999L23.3001 31.9998C23.4001 31.9998 23.4001 31.9998 23.5001 31.9998H23.6001H23.7001V31.5999ZM23.7001 32.0999C23.7001 32.0999 23.6001 32.0999 23.7001 32.0999C23.6001 32.0999 23.6001 32.0999 23.5001 32.0999H23.4001C23.4001 32.0999 23.3001 32.0999 23.3001 32.1999V32.2999V32.3999C23.3001 32.4999 23.3001 32.5999 23.4001 32.5999C23.4001 32.5999 23.5001 32.6999 23.6001 32.6999H23.7001C23.7001 32.6999 23.7001 32.6999 23.8001 32.6999V32.0999H23.7001Z" fill="white" fill-opacity="0.5"/>
  <path d="M24.4 32.7999C24.3 32.7999 24.3 32.7999 24.2 32.7999L24.1 32.6999L24 32.5999C24 32.4999 24 32.4999 24 32.3999C24 32.2999 24 32.2999 24 32.1999C24 32.0999 24 32.0999 24.1 32.0999L24.2 31.9999C24.2 31.9999 24.3 31.9999 24.4 31.9999C24.5 31.9999 24.5 31.9999 24.6 31.9999L24.7 32.0999L24.8 32.1999C24.8 32.2999 24.8 32.2999 24.8 32.3999C24.8 32.4999 24.8 32.4999 24.8 32.5999C24.8 32.6999 24.8 32.6999 24.7 32.6999L24.6 32.7999C24.6 32.7999 24.5 32.7999 24.4 32.7999ZM24.4 32.6999C24.5 32.6999 24.5 32.6999 24.6 32.5999C24.6 32.4999 24.7 32.4999 24.7 32.3999C24.7 32.2999 24.7 32.1999 24.6 32.1999C24.6 32.0999 24.5 32.0999 24.4 32.0999C24.3 32.0999 24.3 32.0999 24.2 32.1999C24.2 32.2999 24.1 32.2999 24.1 32.3999C24.1 32.4999 24.1 32.5999 24.2 32.5999C24.3 32.6999 24.4 32.6999 24.4 32.6999Z" fill="white" fill-opacity="0.5"/>
  <path d="M25.0002 31.5999C25.1002 31.5999 25.1002 31.5999 25.0002 31.5999C25.1002 31.5999 25.1002 31.5999 25.0002 31.5999C25.1002 31.5999 25.1002 31.5999 25.1002 31.5999V32.4998V32.5999V32.6999C25.1002 32.6999 25.1002 32.6999 25.0002 32.6999C25.0002 32.6999 25.0002 32.6999 24.9002 32.6999H24.8002H24.7002C24.7002 32.6999 24.7002 32.6999 24.7002 32.5999V32.4998V31.5999H25.0002Z" fill="white" fill-opacity="0.5"/>
  <path d="M25.9 32.7999C25.8 32.7999 25.8 32.7999 25.7 32.7999L25.6 32.6999L25.5 32.5999C25.5 32.4999 25.5 32.4999 25.5 32.3999C25.5 32.2999 25.5 32.2999 25.5 32.1999C25.5 32.0999 25.5 32.0999 25.6 32.0999L25.7 31.9999C25.7 31.9999 25.8 31.9999 25.9 31.9999C26 31.9999 26 31.9999 26.1 31.9999L26.2 32.0999L26.3 32.1999C26.3 32.2999 26.3 32.2999 26.3 32.3999C26.3 32.4999 26.3 32.4999 26.3 32.5999C26.3 32.6999 26.3 32.6999 26.2 32.6999L26.1 32.7999C26 32.7999 25.9 32.7999 25.9 32.7999ZM25.9 32.6999C26 32.6999 26 32.6999 26.1 32.5999C26.1 32.4999 26.2 32.4999 26.2 32.3999C26.2 32.2999 26.2 32.1999 26.1 32.1999C26.1 32.0999 26 32.0999 25.9 32.0999C25.8 32.0999 25.8 32.0999 25.7 32.1999C25.7 32.2999 25.6 32.2999 25.6 32.3999C25.6 32.4999 25.6 32.5999 25.7 32.5999C25.7 32.6999 25.8 32.6999 25.9 32.6999Z" fill="white" fill-opacity="0.5"/>
  <path d="M26.5 31.9999C26.6 31.9999 26.6 31.9999 26.6 31.9999C26.6 31.9999 26.6 31.9999 26.6 32.0999C26.6 32.0999 26.6 32.0999 26.6 32.1999L26.7 32.0999H26.8H26.7H26.6C26.6 32.0999 26.6 32.0999 26.5 32.1999V32.2999V32.6999V31.9999Z" fill="white" fill-opacity="0.5"/>
  <path d="M27.5003 32.6999C27.6003 32.6999 27.7003 32.6999 27.7003 32.6999C27.7003 32.6999 27.7003 32.6999 27.8003 32.6999C27.8003 32.6999 27.8002 32.6999 27.9002 32.6999C27.9002 32.6999 27.9002 32.6999 27.9002 32.5999C27.9002 32.5999 27.9002 32.5999 27.9002 32.4999C27.9002 32.4999 27.9003 32.4999 27.8003 32.4999H27.7003C27.6003 32.4999 27.6003 32.3999 27.5003 32.3999V32.2999C27.5003 32.1999 27.5003 32.1999 27.6003 32.0999C27.7003 32.0999 27.7003 31.9999 27.8003 31.9999H27.9002H28.0003C28.0003 31.9999 28.0003 31.9999 28.0003 32.0999C28.0003 32.0999 28.0003 32.0999 28.0003 32.1999H27.9002H27.8003H27.7003C27.7003 32.1999 27.7003 32.1999 27.7003 32.2999C27.7003 32.2999 27.7003 32.2999 27.8003 32.2999H27.9002H28.0003C28.0003 32.2999 28.0003 32.2999 28.1003 32.2999C28.1003 32.2999 28.1003 32.2999 28.1003 32.3999V32.4999V32.5999C28.1003 32.5999 28.1003 32.6999 28.0003 32.6999C28.0003 32.6999 27.9002 32.6999 27.9002 32.7999H27.8003C27.7003 32.7999 27.7003 32.7999 27.7003 32.7999H27.6003C27.4003 32.7999 27.4003 32.7999 27.5003 32.6999Z" fill="white" fill-opacity="0.5"/>
  <path d="M28.3002 32.0998H28.2002H28.5002V32.8998V32.0998H28.3002ZM28.2002 31.7998C28.2002 31.6998 28.2002 31.6998 28.2002 31.7998C28.2002 31.6998 28.2002 31.6998 28.2002 31.6998C28.4002 31.7998 28.3002 31.7998 28.2002 31.7998C28.3002 31.7998 28.3002 31.7998 28.2002 31.7998C28.3002 31.7998 28.3002 31.7998 28.2002 31.7998Z" fill="white" fill-opacity="0.5"/>
  <path d="M28.7001 32.0998H28.6001L28.9001 31.7998V31.9998H29.1001C29.1001 31.9998 29.1001 31.9998 29.1001 32.0998H28.9001V32.4998V32.5998C28.9001 32.5998 28.9001 32.5998 28.9001 32.6998C28.9001 32.6998 28.9001 32.6998 29.0001 32.6998C29.0001 32.6998 29.0001 32.6998 29.1001 32.6998C29.1001 32.6998 29.1001 32.6998 29.1001 32.7998C29.1001 32.7998 29.1001 32.7998 29.1001 32.8998C29.1001 32.8998 29.1001 32.8998 29.0001 32.8998C29.0001 32.8998 29.0001 32.8998 28.9001 32.8998C28.8001 32.8998 28.8001 32.8998 28.7001 32.7998C28.7001 32.7998 28.6001 32.6998 28.6001 32.5998V32.0998H28.7001Z" fill="white" fill-opacity="0.5"/>
  <path d="M30.1002 32.2999C30.1002 32.1999 30.1002 32.1999 30.1002 32.1999H30.0002H29.9002H29.8002V32.0999H29.9002H30.0002C30.1002 32.0999 30.2002 32.0999 30.3002 32.1999C30.4002 32.1999 30.4002 32.2999 30.4002 32.3999V32.8999H30.3002C30.2002 32.8999 30.2002 32.8999 30.1002 32.8999C30.0002 32.8999 30.0002 32.8999 30.0002 32.8999H29.9002C29.9002 32.8999 29.8002 32.8999 29.8002 32.7999V32.6999V32.5999C29.8002 32.5999 29.8002 32.4998 29.9002 32.4998C29.9002 32.4998 30.0002 32.4999 30.0002 32.3999H30.1002C30.0002 32.2999 30.0002 32.2999 30.1002 32.2999ZM30.1002 32.3999C30.0002 32.3999 30.0002 32.3999 30.0002 32.3999C29.9002 32.3999 29.9002 32.3999 29.8002 32.3999L29.7002 32.4998V32.5999C29.7002 32.5999 29.7002 32.5999 29.8002 32.5999C29.8002 32.5999 29.8002 32.5999 29.9002 32.5999H30.0002H30.1002V32.3999Z" fill="white" fill-opacity="0.5"/>
  <path d="M30.5 31.9999C30.5 31.9999 30.6 31.9999 30.5 31.9999C30.6 31.9999 30.6 31.9999 30.5 31.9999C30.6 31.9999 30.6 31.9999 30.6 31.9999C30.6 31.9999 30.6 31.9999 30.6 32.0999C30.6 32.0999 30.6 32.0999 30.6 32.1999C30.6 32.1999 30.6 32.1999 30.6 32.0999C30.6 32.0999 30.6 32.0999 30.7 32.0999C30.7 32.0999 30.7 32.0999 30.8 32.0999H30.9C31 32.0999 31 32.0999 31.1 32.0999L31.2 32.1999C31.2 32.1999 31.2 32.1999 31.2 32.0999C31.2 32.0999 31.2 32.0999 31.3 32.0999C31.3 32.0999 31.3 32.0999 31.4 32.0999H31.5C31.6 32.0999 31.7 32.0999 31.7 32.1999C31.7 32.2999 31.8 32.2999 31.8 32.3999V32.8999V32.3999C31.8 32.2999 31.8 32.2999 31.8 32.1999L31.7 32.0999C31.6 32.0999 31.6 32.0999 31.6 32.1999C31.6 32.1999 31.5 32.2999 31.5 32.3999V32.8999V32.3999C31.5 32.2999 31.5 32.2999 31.5 32.1999L31.4 32.0999H31.3C31.3 32.0999 31.3 32.0999 31.2 32.1999V32.2999V32.3999V32.7999V31.9999H30.5Z" fill="white" fill-opacity="0.5"/>
  <path d="M32.1 32.3999C32.1 32.4999 32.1 32.5999 32.2 32.5999C32.2 32.5999 32.3 32.6999 32.4 32.6999C32.5 32.6999 32.6 32.6999 32.6 32.6999C32.6 32.6999 32.6 32.6999 32.6 32.7999C32.6 32.7999 32.6 32.7999 32.6 32.8999H32.5H32.4C32.3 32.8999 32.3 32.8999 32.2 32.8999C32.1 32.8999 32.1 32.7999 32.1 32.7999L32 32.6999C32 32.5999 32 32.5998 32 32.4998C32 32.3998 32 32.3999 32 32.2999C32 32.1999 32 32.1999 32.1 32.1999L32.2 32.0999C32.2 32.0999 32.3 32.0999 32.4 32.0999C32.5 32.0999 32.5 32.0999 32.6 32.0999C32.6 32.0999 32.7 32.0999 32.7 32.1999L32.8 32.2999C32.8 32.2999 32.8 32.3998 32.8 32.4998H32.1V32.3999ZM32.5 32.2999C32.5 32.1999 32.5 32.1999 32.5 32.0999C32.5 32.0999 32.5 32.0999 32.4 32.0999H32.3C32.2 32.0999 32.2 32.0999 32.1 32.1999C32.1 32.1999 32 32.2999 32 32.3999H32.5V32.2999Z" fill="white" fill-opacity="0.5"/>
  <path d="M32.9003 32.0998H32.8003L33.1003 31.7998V31.9998H33.3003C33.3003 31.9998 33.3003 31.9998 33.3003 32.0998H33.1003V32.4998V32.5998C33.1003 32.5998 33.1003 32.5998 33.1003 32.6998C33.1003 32.6998 33.1003 32.6998 33.2003 32.6998C33.2003 32.6998 33.2003 32.6998 33.3003 32.6998C33.3003 32.6998 33.3003 32.6998 33.3003 32.7998C33.3003 32.7998 33.3003 32.7998 33.3003 32.8998C33.3003 32.8998 33.3003 32.8998 33.2003 32.8998C33.2003 32.8998 33.2003 32.8998 33.1003 32.8998C33.0003 32.8998 33.0003 32.8998 32.9003 32.7998C32.9003 32.7998 32.8003 32.6998 32.8003 32.5998V32.0998H32.9003Z" fill="white" fill-opacity="0.5"/>
  <path d="M33.4004 32.5999C33.4004 32.5999 33.5004 32.5999 33.4004 32.5999C33.5004 32.5999 33.5004 32.5999 33.4004 32.5999C33.5004 32.5999 33.5004 32.5999 33.6004 32.5999L33.5004 32.9998L33.4004 32.5999Z" fill="white" fill-opacity="0.5"/>
  <path d="M34.7001 32.6999C34.7001 32.6999 34.8001 32.6999 34.7001 32.6999C34.7001 32.7999 34.7001 32.7999 34.7001 32.7999C34.6001 32.7999 34.6001 32.7999 34.5001 32.7999C34.4001 32.7999 34.3001 32.7999 34.2001 32.6999C34.1001 32.5999 34.1001 32.4999 34.1001 32.3999C34.1001 32.2999 34.1001 32.2999 34.1001 32.1999C34.1001 32.0999 34.1001 32.0999 34.2001 32.0999L34.3001 31.9999C34.4001 31.9999 34.4001 31.9999 34.5001 31.9999H34.6001H34.7001C34.7001 31.9999 34.7001 31.9999 34.7001 32.0999C34.7001 32.0999 34.7001 32.0999 34.7001 32.1999C34.6001 32.1999 34.6001 32.1999 34.5001 32.1999C34.4001 32.1999 34.4001 32.1999 34.3001 32.2999C34.3001 32.3999 34.2001 32.3999 34.2001 32.4999C34.2001 32.5999 34.2001 32.6999 34.3001 32.6999C34.3001 32.6999 34.4001 32.7999 34.5001 32.7999C34.6001 32.6999 34.6001 32.6999 34.7001 32.6999Z" fill="white" fill-opacity="0.5"/>
  <path d="M35.3004 32.7999C35.2004 32.7999 35.2004 32.7999 35.1004 32.7999L35.0004 32.6999L34.9004 32.5999C34.9004 32.4999 34.9004 32.4999 34.9004 32.3999C34.9004 32.2999 34.9004 32.2999 34.9004 32.1999C34.9004 32.0999 34.9004 32.0999 35.0004 32.0999L35.1004 31.9999C35.1004 31.9999 35.2004 31.9999 35.3004 31.9999C35.4004 31.9999 35.4004 31.9999 35.5004 31.9999L35.6004 32.0999L35.7004 32.1999C35.7004 32.2999 35.7004 32.2999 35.7004 32.3999C35.7004 32.4999 35.7004 32.4999 35.7004 32.5999C35.7004 32.6999 35.7004 32.6999 35.6004 32.6999L35.5004 32.7999C35.4004 32.7999 35.3004 32.7999 35.3004 32.7999ZM35.3004 32.6999C35.4004 32.6999 35.4004 32.6999 35.5004 32.5999C35.5004 32.4999 35.6004 32.4999 35.6004 32.3999C35.6004 32.2999 35.6004 32.1999 35.5004 32.1999C35.5004 32.0999 35.4004 32.0999 35.3004 32.0999C35.2004 32.0999 35.2004 32.0999 35.1004 32.1999C35.1004 32.2999 35.0004 32.2999 35.0004 32.3999C35.0004 32.4999 35.0004 32.5999 35.1004 32.5999C35.1004 32.6999 35.2004 32.6999 35.3004 32.6999Z" fill="white" fill-opacity="0.5"/>
  <path d="M35.9004 31.9999C36.0004 31.9999 36.0004 31.9999 36.0004 31.9999C36.0004 31.9999 36.0004 31.9999 36.0004 32.0999V32.1999C36.0004 32.1999 36.0004 32.1999 36.0004 32.0999C36.0004 32.0999 36.0004 32.0999 36.1004 32.0999C36.1004 32.0999 36.1004 32.0999 36.2004 32.0999H36.3004C36.4004 32.0999 36.5004 32.0999 36.5004 32.1999C36.5004 32.2999 36.6004 32.2999 36.6004 32.3999V32.8999V32.3999C36.6004 32.2999 36.6004 32.2999 36.6004 32.1999L36.5004 32.0999H36.4004C36.4004 32.0999 36.3004 32.0999 36.3004 32.1999V32.2999V32.3999V32.7999V31.9999H35.9004Z" fill="white" fill-opacity="0.5"/>
  <path d="M36.8003 32.6999C36.8003 32.6999 36.9003 32.6999 36.8003 32.6999C36.9003 32.6999 37.0003 32.6999 37.0003 32.6999C37.0003 32.6999 37.0003 32.6999 37.1003 32.6999C37.1003 32.6999 37.1003 32.6999 37.2003 32.6999C37.2003 32.6999 37.2003 32.6999 37.2003 32.5999C37.2003 32.5999 37.2003 32.5999 37.2003 32.4999C37.2003 32.4999 37.2003 32.4999 37.1003 32.4999H37.0003C36.9003 32.4999 36.9003 32.3999 36.8003 32.3999V32.2999C36.8003 32.1999 36.8003 32.1999 36.9003 32.0999C37.0003 32.0999 37.0003 31.9999 37.1003 31.9999H37.2003H37.3003C37.3003 31.9999 37.3003 31.9999 37.3003 32.0999C37.3003 32.0999 37.3003 32.0999 37.3003 32.1999H37.2003H37.1003H37.0003C37.0003 32.1999 37.0003 32.1999 37.0003 32.2999C37.0003 32.2999 37.0003 32.2999 37.1003 32.2999H37.2003H37.3003C37.3003 32.2999 37.3003 32.2999 37.4003 32.2999C37.4003 32.2999 37.4003 32.2999 37.4003 32.3999V32.4999V32.5999C37.4003 32.5999 37.4003 32.6999 37.3003 32.6999C37.3003 32.6999 37.2003 32.6999 37.2003 32.7999H37.1003C37.0003 32.7999 37.0003 32.7999 37.0003 32.7999H36.9003C36.8003 32.7999 36.8003 32.7999 36.8003 32.6999Z" fill="white" fill-opacity="0.5"/>
  <path d="M37.7001 32.3999C37.7001 32.4999 37.7001 32.5999 37.8001 32.5999C37.8001 32.5999 37.9001 32.6999 38.0001 32.6999C38.1001 32.6999 38.2001 32.6999 38.2001 32.6999C38.2001 32.6999 38.2001 32.6999 38.2001 32.7999C38.2001 32.7999 38.2001 32.7999 38.2001 32.8999H38.1001H38.0001C37.9001 32.8999 37.9001 32.8999 37.8001 32.8999C37.7001 32.8999 37.7001 32.7999 37.7001 32.7999L37.6001 32.6999C37.6001 32.5999 37.6001 32.5998 37.6001 32.4998C37.6001 32.3998 37.6001 32.3999 37.6001 32.2999C37.6001 32.1999 37.6001 32.1999 37.7001 32.1999L37.8001 32.0999C37.8001 32.0999 37.9001 32.0999 38.0001 32.0999C38.1001 32.0999 38.1001 32.0999 38.2001 32.0999C38.2001 32.0999 38.3001 32.0999 38.3001 32.1999L38.4001 32.2999C38.4001 32.2999 38.4001 32.3998 38.4001 32.4998H37.7001V32.3999ZM38.1001 32.2999C38.1001 32.1999 38.1001 32.1999 38.1001 32.0999C38.1001 32.0999 38.1001 32.0999 38.0001 32.0999H37.9001C37.8001 32.0999 37.8001 32.0999 37.7001 32.1999C37.7001 32.1999 37.6001 32.2999 37.6001 32.3999H38.1001V32.2999Z" fill="white" fill-opacity="0.5"/>
  <path d="M39.1 32.6999C39.1 32.7999 39.1 32.7999 39.1 32.7999C39 32.7999 39 32.7999 38.9 32.7999C38.8 32.7999 38.7 32.7999 38.6 32.6999C38.5 32.5999 38.5 32.4999 38.5 32.3999C38.5 32.2999 38.5 32.2999 38.5 32.1999C38.5 32.0999 38.5 32.0999 38.6 32.0999L38.7 31.9999C38.8 31.9999 38.8 31.9999 38.9 31.9999H39H39.1C39.1 31.9999 39.1 31.9999 39.1 32.0999C39.1 32.0999 39.1 32.0999 39.1 32.1999C39 32.1999 39 32.1999 38.9 32.1999C38.8 32.1999 38.8 32.1999 38.7 32.2999C38.7 32.3999 38.6 32.3999 38.6 32.4999C38.6 32.5999 38.6 32.6999 38.7 32.6999C38.7 32.6999 38.8 32.7999 38.9 32.7999C38.9 32.6999 38.9 32.6999 39.1 32.6999C39 32.6999 39 32.6999 39.1 32.6999Z" fill="white" fill-opacity="0.5"/>
  <path d="M39.3002 32.0998H39.2002L39.5002 31.7998V31.9998H39.7002C39.7002 31.9998 39.7002 31.9998 39.7002 32.0998H39.5002V32.4998V32.5998C39.5002 32.5998 39.5002 32.5998 39.5002 32.6998C39.5002 32.6998 39.5002 32.6998 39.6002 32.6998C39.6002 32.6998 39.6002 32.6998 39.7002 32.6998C39.8002 32.6998 39.7002 32.6998 39.7002 32.6998C39.7002 32.6998 39.7002 32.6998 39.7002 32.7998C39.7002 32.7998 39.7002 32.7998 39.7002 32.8998C39.7002 32.8998 39.7002 32.8998 39.6002 32.8998H39.5002C39.4002 32.8998 39.4002 32.8998 39.3002 32.7998C39.3002 32.7998 39.2002 32.6998 39.2002 32.5998V32.0998H39.3002Z" fill="white" fill-opacity="0.5"/>
  <path d="M40.0004 32.3999C40.0004 32.4999 40.0004 32.5999 40.1004 32.5999C40.1004 32.5999 40.2004 32.6999 40.3004 32.6999C40.4004 32.6999 40.5004 32.6999 40.5004 32.6999C40.5004 32.6999 40.5004 32.6999 40.5004 32.7999C40.5004 32.7999 40.5004 32.7999 40.5004 32.8999H40.4004H40.3004C40.2004 32.8999 40.2004 32.8999 40.1004 32.8999C40.0004 32.8999 40.0004 32.7999 40.0004 32.7999L39.9004 32.6999C39.9004 32.5999 39.9004 32.5998 39.9004 32.4998C39.9004 32.3998 39.9004 32.3999 39.9004 32.2999C39.9004 32.1999 39.9004 32.1999 40.0004 32.1999L40.1004 32.0999C40.1004 32.0999 40.2004 32.0999 40.3004 32.0999C40.4004 32.0999 40.4004 32.0999 40.5004 32.0999C40.5004 32.0999 40.6004 32.0999 40.6004 32.1999L40.7004 32.2999C40.7004 32.2999 40.7004 32.3998 40.7004 32.4998H40.0004V32.3999ZM40.4004 32.2999C40.4004 32.1999 40.4004 32.1999 40.4004 32.0999C40.4004 32.0999 40.4004 32.0999 40.3004 32.0999H40.2004C40.1004 32.0999 40.1004 32.0999 40.0004 32.1999C40.0004 32.1999 39.9004 32.2999 39.9004 32.3999H40.4004V32.2999Z" fill="white" fill-opacity="0.5"/>
  <path d="M40.8002 32.0998H40.7002L41.0002 31.7998V31.9998H41.2002C41.2002 31.9998 41.2002 31.9998 41.2002 32.0998H41.0002V32.4998V32.5998C41.0002 32.5998 41.0002 32.5998 41.0002 32.6998C41.0002 32.6998 41.0002 32.6998 41.1002 32.6998C41.1002 32.6998 41.1002 32.6998 41.2002 32.6998C41.3002 32.6998 41.2002 32.6998 41.2002 32.6998C41.2002 32.6998 41.2002 32.6998 41.2002 32.7998C41.2002 32.7998 41.2002 32.7998 41.2002 32.8998C41.2002 32.8998 41.2002 32.8998 41.1002 32.8998H41.0002C40.9002 32.8998 40.9002 32.8998 40.8002 32.7998C40.8002 32.7998 40.7002 32.6998 40.7002 32.5998V32.0998H40.8002Z" fill="white" fill-opacity="0.5"/>
  <path d="M41.4001 31.9999C41.5001 31.9999 41.5001 31.9999 41.5001 31.9999V32.4999C41.5001 32.5999 41.5001 32.5999 41.5001 32.5999V32.6999C41.5001 32.6999 41.5001 32.6999 41.6001 32.6999H41.7001C41.8001 32.6999 41.8001 32.6999 41.8001 32.6999V31.9999V32.7999H41.7001C41.6001 32.7999 41.6001 32.7999 41.5001 32.7999C41.4001 32.7999 41.4001 32.7999 41.3001 32.7999C41.3001 32.7999 41.2001 32.7999 41.2001 32.6999C41.2001 32.5999 41.1001 32.5999 41.1001 32.5999C41.1001 32.4999 41.1001 32.4999 41.1001 32.3999V31.9999H41.4001Z" fill="white" fill-opacity="0.5"/>
  <path d="M42.3003 31.9999C42.4003 31.9999 42.4003 31.9999 42.3003 31.9999C42.4003 31.9999 42.4003 31.9999 42.4003 31.9999C42.4003 31.9999 42.4003 31.9999 42.4003 32.0999C42.4003 32.0999 42.4003 32.0999 42.4003 32.1999L42.5003 32.0999H42.6003H42.5003H42.4003C42.4003 32.0999 42.4003 32.0999 42.3003 32.1999V32.2999V32.6999V31.9999Z" fill="white" fill-opacity="0.5"/>
  <path d="M43.3004 32.2999C43.3004 32.1999 43.3004 32.1999 43.3004 32.1999H43.2004H43.1004H43.0004V32.0999H43.1004H43.2004C43.3004 32.0999 43.4004 32.0999 43.4004 32.1999C43.5004 32.1999 43.5004 32.2999 43.5004 32.3999V32.8999H43.4004C43.3004 32.8999 43.3004 32.8999 43.2004 32.8999C43.1004 32.8999 43.1004 32.8999 43.1004 32.8999H43.0004C43.0004 32.8999 42.9004 32.8999 42.9004 32.7999V32.6999V32.5999C42.9004 32.5999 42.9004 32.4998 43.0004 32.4998C43.0004 32.4998 43.1004 32.4999 43.1004 32.3999H43.2004C43.2004 32.2999 43.3004 32.2999 43.3004 32.2999ZM43.3004 32.3999C43.2004 32.3999 43.2004 32.3999 43.2004 32.3999C43.1004 32.3999 43.1004 32.3999 43.0004 32.3999L42.9004 32.4998V32.5999C42.9004 32.5999 42.9004 32.5999 43.0004 32.5999C43.0004 32.5999 43.0004 32.5999 43.1004 32.5999H43.2004H43.3004V32.3999Z" fill="white" fill-opacity="0.5"/>
  <path d="M44.3002 31.5999C44.3002 31.5999 44.4002 31.5999 44.3002 31.5999C44.4002 31.5999 44.4002 31.5999 44.4002 31.5999V32.7999H44.3002C44.2002 32.7999 44.2002 32.7999 44.1002 32.7999C44.0002 32.7999 44.0002 32.7999 43.9002 32.7999C43.8002 32.7999 43.8002 32.7999 43.8002 32.6999L43.7002 32.5999C43.7002 32.4999 43.7002 32.4999 43.7002 32.3999C43.7002 32.2999 43.7002 32.2999 43.7002 32.1999C43.7002 32.0999 43.7002 32.0999 43.8002 32.0999L43.9002 31.9998C44.0002 31.9998 44.0002 31.9998 44.1002 31.9998H44.2002H44.3002V31.5999ZM44.3002 32.0999C44.3002 32.0999 44.2002 32.0999 44.3002 32.0999C44.2002 32.0999 44.2002 32.0999 44.1002 32.0999H44.0002C44.0002 32.0999 43.9002 32.0999 43.9002 32.1999V32.2999V32.3999C43.9002 32.4999 43.9002 32.5999 44.0002 32.5999C44.0002 32.5999 44.1002 32.6999 44.2002 32.6999H44.3002C44.3002 32.6999 44.3002 32.6999 44.4002 32.6999V32.0999H44.3002Z" fill="white" fill-opacity="0.5"/>
  <path d="M44.8002 32.0998H44.7002H45.0002V32.8998V32.0998H44.8002ZM44.7002 31.7998C44.7002 31.6998 44.7002 31.6998 44.7002 31.7998C44.7002 31.6998 44.7002 31.6998 44.7002 31.6998C44.8002 31.7998 44.8002 31.7998 44.7002 31.7998C44.8002 31.7998 44.8002 31.7998 44.7002 31.7998C44.7002 31.7998 44.8002 31.7998 44.7002 31.7998Z" fill="white" fill-opacity="0.5"/>
  <path d="M45.2002 31.9999C45.3002 31.9999 45.3002 31.9999 45.3002 31.9999C45.3002 31.9999 45.3002 31.9999 45.3002 31.8999C45.3002 31.8999 45.3002 31.8999 45.4002 31.8999C45.4002 31.8999 45.4002 31.8999 45.5002 31.8999H45.6002H45.7002C45.7002 31.8999 45.8002 31.8999 45.8002 31.9999L45.9002 32.0999C45.9002 32.1999 45.9002 32.1999 45.9002 32.2999C45.9002 32.3999 45.9002 32.5999 45.8002 32.5999C45.7002 32.6999 45.6002 32.6999 45.5002 32.6999C45.5002 32.6999 45.5002 32.6999 45.4002 32.6999C45.4002 32.6999 45.4002 32.6999 45.3002 32.6999V33.0999V31.9999H45.2002ZM45.3002 32.6999C45.4002 32.6999 45.4002 32.6999 45.3002 32.6999C45.4002 32.6999 45.4002 32.6999 45.4002 32.6999H45.5002C45.5002 32.6999 45.6002 32.6999 45.6002 32.5999C45.6002 32.4999 45.6002 32.4999 45.7002 32.4999V32.3999C45.7002 32.2999 45.7002 32.1999 45.7002 32.1999C45.7002 32.0999 45.6002 32.0999 45.5002 32.0999H45.4002C45.4002 32.0999 45.4002 32.0999 45.3002 32.0999C45.3002 32.0999 45.3002 32.0999 45.3002 32.1999V32.2999V32.6999Z" fill="white" fill-opacity="0.5"/>
  <path d="M46.2001 32.0998H46.1001H46.4001V32.8998V32.0998H46.2001ZM46.2001 31.7998C46.2001 31.6998 46.2001 31.6998 46.2001 31.7998C46.2001 31.6998 46.2001 31.6998 46.2001 31.6998C46.3001 31.7998 46.3001 31.7998 46.2001 31.7998Z" fill="white" fill-opacity="0.5"/>
  <path d="M46.6001 32.6999C46.6001 32.6999 46.7001 32.6999 46.6001 32.6999C46.7001 32.6999 46.8001 32.6999 46.8001 32.6999C46.8001 32.6999 46.8001 32.6999 46.9001 32.6999C46.9001 32.6999 46.9001 32.6999 47.0001 32.6999C47.0001 32.6999 47.0001 32.6999 47.0001 32.5999C47.0001 32.5999 47.0001 32.5999 47.0001 32.4999C47.0001 32.4999 47.0001 32.4999 46.9001 32.4999H46.8001C46.7001 32.4999 46.7001 32.3999 46.6001 32.3999V32.2999C46.6001 32.1999 46.6001 32.1999 46.7001 32.0999C46.8001 32.0999 46.8001 31.9999 46.9001 31.9999H47.0001H47.1001C47.1001 31.9999 47.1001 31.9999 47.1001 32.0999C47.1001 32.0999 47.1001 32.0999 47.1001 32.1999H47.0001H46.9001H46.8001C46.8001 32.1999 46.8001 32.1999 46.8001 32.2999C46.8001 32.2999 46.8001 32.2999 46.9001 32.2999H47.0001H47.1001C47.1001 32.2999 47.1001 32.2999 47.2001 32.2999C47.2001 32.2999 47.2001 32.2999 47.2001 32.3999V32.4999V32.5999C47.2001 32.5999 47.2001 32.6999 47.1001 32.6999C47.1001 32.6999 47.0001 32.6999 47.0001 32.7999H46.9001C46.8001 32.7999 46.8001 32.7999 46.8001 32.7999H46.7001C46.6001 32.7999 46.6001 32.7999 46.6001 32.6999Z" fill="white" fill-opacity="0.5"/>
  <path d="M47.4003 32.0998H47.3003H47.6003V32.8998V32.0998H47.4003ZM47.4003 31.7998C47.4003 31.6998 47.4003 31.6998 47.4003 31.7998C47.4003 31.6998 47.4003 31.6998 47.4003 31.6998C47.5003 31.7998 47.5003 31.7998 47.4003 31.7998C47.4003 31.7998 47.5003 31.7998 47.4003 31.7998Z" fill="white" fill-opacity="0.5"/>
  <path d="M48.4003 32.6999C48.4003 32.7999 48.4003 32.7999 48.4003 32.7999C48.3003 32.7999 48.3003 32.7999 48.2003 32.7999C48.1003 32.7999 48.0003 32.7999 47.9003 32.6999C47.8003 32.5999 47.8003 32.4999 47.8003 32.3999C47.8003 32.2999 47.8003 32.2999 47.8003 32.1999C47.8003 32.0999 47.8003 32.0999 47.9003 32.0999L48.0003 31.9999C48.1003 31.9999 48.1003 31.9999 48.2003 31.9999H48.3003H48.4003C48.4003 31.9999 48.4003 31.9999 48.4003 32.0999C48.4003 32.0999 48.4003 32.0999 48.4003 32.1999C48.3003 32.1999 48.3003 32.1999 48.2003 32.1999C48.1003 32.1999 48.1003 32.1999 48.0003 32.2999C48.0003 32.3999 47.9003 32.3999 47.9003 32.4999C47.9003 32.5999 47.9003 32.6999 48.0003 32.6999C48.0003 32.6999 48.1003 32.7999 48.2003 32.7999C48.3003 32.6999 48.3003 32.6999 48.4003 32.6999Z" fill="white" fill-opacity="0.5"/>
  <path d="M48.7001 32.0998H48.6001H48.9001V32.8998V32.0998H48.7001ZM48.6001 31.7998C48.6001 31.6998 48.6001 31.6998 48.6001 31.7998C48.6001 31.6998 48.6001 31.6998 48.6001 31.6998C48.8001 31.7998 48.7001 31.7998 48.6001 31.7998C48.7001 31.7998 48.7001 31.7998 48.6001 31.7998C48.7001 31.7998 48.7001 31.7998 48.6001 31.7998Z" fill="white" fill-opacity="0.5"/>
  <path d="M49.1001 31.9999C49.2001 31.9999 49.2001 31.9999 49.1001 31.9999C49.2001 31.9999 49.2001 31.9999 49.2001 31.9999C49.2001 31.9999 49.2001 31.9999 49.2001 32.0999V32.1999C49.2001 32.1999 49.2001 32.1999 49.2001 32.0999C49.2001 32.0999 49.2001 32.0999 49.3001 32.0999C49.3001 32.0999 49.3001 32.0999 49.4001 32.0999H49.5001C49.6001 32.0999 49.7001 32.0999 49.7001 32.1999C49.7001 32.2999 49.8001 32.2999 49.8001 32.3999V32.8999V32.3999C49.8001 32.2999 49.8001 32.2999 49.8001 32.1999L49.7001 32.0999H49.6001C49.6001 32.0999 49.5001 32.0999 49.5001 32.1999V32.2999V32.3999V32.7999V31.9999H49.1001Z" fill="white" fill-opacity="0.5"/>
  <path d="M50.5 32.6999C50.6 32.6999 50.7 32.6999 50.7 32.7999C50.7 32.7999 50.8 32.8999 50.8 32.9999V33.0999L50.7 33.1999C50.7 33.1999 50.6 33.1999 50.6 33.2999C50.5 33.2999 50.5 33.2999 50.4 33.2999C50.3 33.2999 50.2 33.2999 50.1 33.1999C50 33.1999 50 33.0999 50 32.9999V32.8999L50.1 32.7999C50.1 32.7999 50.1 32.7999 50 32.6999C50 32.6999 50 32.6999 50 32.5999V32.4999C50 32.4999 50 32.3999 50.1 32.3999L50 32.2999V32.1999V32.0999C50 32.0999 50 31.9999 50.1 31.9999C50.1 31.9999 50.2 31.9999 50.2 31.8999H50.3H50.4C50.4 31.8999 50.5 31.8999 50.5 31.9999H50.6H50.7C50.7 31.9999 50.7 31.9999 50.7 32.0999H50.6C50.6 32.0999 50.6 32.0999 50.6 32.1999C50.6 32.1999 50.6 32.1999 50.6 32.2999V32.3999C50.6 32.3999 50.6 32.4999 50.5 32.4999C50.5 32.4999 50.4 32.4999 50.4 32.5999H50.3H50.2C50.2 32.5999 50.2 32.5999 50.2 32.6999C50.2 32.6999 50.2 32.6999 50.2 32.7999C50.2 32.7999 50.2 32.7999 50.3 32.7999L50.5 32.6999ZM50.3 32.8999H50.2V32.9999C50.2 32.9999 50.2 32.9999 50.2 33.0999C50.2 33.0999 50.2 33.0999 50.3 33.0999H50.4C50.5 33.0999 50.6 33.0999 50.6 33.0999L50.7 32.9999V32.8999H50.6H50.3ZM50.4 32.3999C50.5 32.3999 50.5 32.3999 50.5 32.3999V32.2999C50.5 32.1999 50.5 32.1999 50.5 32.1999H50.4H50.3V32.2999C50.3 32.3999 50.3 32.3999 50.3 32.3999C50.3 32.3999 50.3 32.3999 50.4 32.3999Z" fill="white" fill-opacity="0.5"/>
  <path d="M51.5004 32.3999C51.5004 32.4999 51.5004 32.5999 51.6004 32.5999C51.6004 32.5999 51.7004 32.6999 51.8004 32.6999C51.9004 32.6999 52.0004 32.6999 52.0004 32.6999C52.0004 32.6999 52.0004 32.6999 52.0004 32.7999C52.0004 32.7999 52.0004 32.7999 52.0004 32.8999H51.9004H51.8004C51.7004 32.8999 51.7004 32.8999 51.6004 32.8999C51.5004 32.8999 51.5004 32.7999 51.5004 32.7999L51.4004 32.6999C51.4004 32.5999 51.4004 32.5998 51.4004 32.4998C51.4004 32.3998 51.4004 32.3999 51.4004 32.2999C51.4004 32.1999 51.4004 32.1999 51.5004 32.1999L51.6004 32.0999C51.6004 32.0999 51.7004 32.0999 51.8004 32.0999C51.9004 32.0999 51.9004 32.0999 52.0004 32.0999C52.0004 32.0999 52.1004 32.0999 52.1004 32.1999L52.2004 32.2999C52.2004 32.2999 52.2004 32.3998 52.2004 32.4998H51.5004V32.3999ZM51.9004 32.2999C51.9004 32.1999 51.9004 32.1999 51.9004 32.0999C51.9004 32.0999 51.9004 32.0999 51.8004 32.0999H51.7004C51.6004 32.0999 51.6004 32.0999 51.5004 32.1999C51.5004 32.1999 51.4004 32.2999 51.4004 32.3999H51.9004V32.2999Z" fill="white" fill-opacity="0.5"/>
  <path d="M52.3 31.5999C52.4 31.5999 52.4 31.5999 52.4 31.5999V32.4998V32.5999V32.6999C52.4 32.6999 52.4 32.6999 52.3 32.6999C52.3 32.6999 52.3 32.6999 52.2 32.6999H52.1H52C52 32.6999 52 32.6999 52 32.5999V32.4998V31.5999H52.3Z" fill="white" fill-opacity="0.5"/>
  <path d="M52.8002 32.0998H52.7002H53.0002V32.8998V32.0998H52.8002ZM52.8002 31.7998C52.8002 31.6998 52.8002 31.6998 52.8002 31.7998C52.8002 31.6998 52.8002 31.6998 52.8002 31.6998C52.9002 31.7998 52.9002 31.7998 52.8002 31.7998Z" fill="white" fill-opacity="0.5"/>
  <path d="M53.3002 32.0998H53.2002L53.5002 31.7998V31.9998H53.7002C53.7002 31.9998 53.7002 31.9998 53.7002 32.0998H53.5002V32.4998V32.5998C53.5002 32.5998 53.5002 32.5998 53.5002 32.6998C53.5002 32.6998 53.5002 32.6998 53.6002 32.6998C53.6002 32.6998 53.6002 32.6998 53.7002 32.6998C53.7002 32.6998 53.7002 32.6998 53.7002 32.7998C53.7002 32.7998 53.7002 32.7998 53.7002 32.8998C53.7002 32.8998 53.7002 32.8998 53.6002 32.8998C53.6002 32.8998 53.6002 32.8998 53.5002 32.8998C53.4002 32.8998 53.4002 32.8998 53.3002 32.7998C53.3002 32.7998 53.2002 32.6998 53.2002 32.5998V32.0998H53.3002Z" fill="white" fill-opacity="0.5"/>
  <path d="M53.8003 32.6999C53.8003 32.5999 53.8003 32.5999 53.9003 32.5999C54.0003 32.5999 54.0003 32.5999 54.0003 32.6999C54.0003 32.7999 54.0003 32.7999 53.9003 32.7999C53.8003 32.7999 53.8003 32.7999 53.8003 32.6999Z" fill="white" fill-opacity="0.5"/>
  <path d="M0.5 19.7V34.7L5.5 39.7V29.9999H10.3V25.2H22.9V19.8H5.5H0.5V19.7ZM8.60001 24.8C8.60001 26.5 7.20001 27.8 5.60001 27.8C4.00001 27.8 2.60001 26.4 2.60001 24.8C2.60001 23.1 4.00001 21.8 5.60001 21.8C7.20001 21.8 8.60001 23.1 8.60001 24.8Z" fill="white" fill-opacity="0.5"/>
  <path d="M29.1998 19.7H23.7998V25.0999H29.1998V19.7Z" fill="white" fill-opacity="0.5"/>
  <path d="M35.6002 19.7H30.2002V25.0999H35.6002V19.7Z" fill="white" fill-opacity="0.5"/>
  <path d="M35.6002 25.8999H30.2002V28.5999H35.6002V25.8999Z" fill="white" fill-opacity="0.5"/>
  <path d="M41.7999 19.7H36.3999V25.0999H41.7999V19.7Z" fill="white" fill-opacity="0.5"/>
  <path d="M5.5 25.7999C6.05228 25.7999 6.5 25.3522 6.5 24.7999C6.5 24.2476 6.05228 23.7999 5.5 23.7999C4.94772 23.7999 4.5 24.2476 4.5 24.7999C4.5 25.3522 4.94772 25.7999 5.5 25.7999Z" fill="white" fill-opacity="0.5"/>
  <path d="M2.49991 40.4C3.10742 40.4 3.59991 39.9075 3.59991 39.3C3.59991 38.6924 3.10742 38.2 2.49991 38.2C1.8924 38.2 1.3999 38.6924 1.3999 39.3C1.3999 39.9075 1.8924 40.4 2.49991 40.4Z" fill="white" fill-opacity="0.5"/>
  <path d="M2.49991 44.7C3.10742 44.7 3.59991 44.2075 3.59991 43.6C3.59991 42.9925 3.10742 42.5 2.49991 42.5C1.8924 42.5 1.3999 42.9925 1.3999 43.6C1.3999 44.2075 1.8924 44.7 2.49991 44.7Z" fill="white" fill-opacity="0.5"/>
  <path d="M2.49991 48.9999C3.10742 48.9999 3.59991 48.5074 3.59991 47.8999C3.59991 47.2924 3.10742 46.7999 2.49991 46.7999C1.8924 46.7999 1.3999 47.2924 1.3999 47.8999C1.3999 48.5074 1.8924 48.9999 2.49991 48.9999Z" fill="white" fill-opacity="0.5"/>
  <path d="M2.49991 53.3C3.10742 53.3 3.59991 52.8075 3.59991 52.2C3.59991 51.5925 3.10742 51.1 2.49991 51.1C1.8924 51.1 1.3999 51.5925 1.3999 52.2C1.3999 52.8075 1.8924 53.3 2.49991 53.3Z" fill="white" fill-opacity="0.5"/>
  <path d="M46.4998 21.8999H43.2998V25.0999H46.4998V21.8999Z" fill="white" fill-opacity="0.5"/>
  <path d="M51.3001 21.8999H48.1001V25.0999H51.3001V21.8999Z" fill="white" fill-opacity="0.5"/>
  <path d="M56.0999 21.8999H52.8999V25.0999H56.0999V21.8999Z" fill="white" fill-opacity="0.5"/>
  <path d="M60.8001 21.8999H57.6001V25.0999H60.8001V21.8999Z" fill="white" fill-opacity="0.5"/>
  <path d="M65.5999 21.8999H62.3999V25.0999H65.5999V21.8999Z" fill="white" fill-opacity="0.5"/>
  <path d="M70.3001 21.8999H67.1001V25.0999H70.3001V21.8999Z" fill="white" fill-opacity="0.5"/>
  <path d="M75.0999 21.8999H71.8999V25.0999H75.0999V21.8999Z" fill="white" fill-opacity="0.5"/>
  <path d="M79.9002 21.8999H76.7002V25.0999H79.9002V21.8999Z" fill="white" fill-opacity="0.5"/>
  <path d="M84.5999 21.8999H81.3999V25.0999H84.5999V21.8999Z" fill="white" fill-opacity="0.5"/>
  <path d="M86.2002 21.8999V25.0999H89.3002L86.2002 21.8999Z" fill="white" fill-opacity="0.5"/>
  <path d="M91.7002 18V25.2H126.7V18H91.7002ZM125.7 24.2H92.7002V19H125.7V24.2Z" fill="white" fill-opacity="0.5"/>
  <path d="M125.2 19.7H123.7V23.4H125.2V19.7Z" fill="white" fill-opacity="0.5"/>
  <path d="M122.9 19.7H121.4V23.4H122.9V19.7Z" fill="white" fill-opacity="0.5"/>
  <path d="M120.6 19.7H119.1V23.4H120.6V19.7Z" fill="white" fill-opacity="0.5"/>
  <path d="M118.3 19.7H116.8V23.4H118.3V19.7Z" fill="white" fill-opacity="0.5"/>
  <path d="M116 19.7H114.5V23.4H116V19.7Z" fill="white" fill-opacity="0.5"/>
  <path d="M113.8 19.7H112.3V23.4H113.8V19.7Z" fill="white" fill-opacity="0.5"/>
  <path d="M111.5 19.7H110V23.4H111.5V19.7Z" fill="white" fill-opacity="0.5"/>
  <path d="M109.2 19.7H107.7V23.4H109.2V19.7Z" fill="white" fill-opacity="0.5"/>
  <path d="M106.7 19.7H105.2V23.4H106.7V19.7Z" fill="white" fill-opacity="0.5"/>
  <path d="M104.5 19.7H103V23.4H104.5V19.7Z" fill="white" fill-opacity="0.5"/>
  <path d="M102.2 19.7H100.7V23.4H102.2V19.7Z" fill="white" fill-opacity="0.5"/>
</svg>
