<svg width="59" height="189" viewBox="0 0 59 189" fill="none" xmlns="http://www.w3.org/2000/svg">
<g filter="url(#filter26_d)">
<path d="M20.3467 40.6585V38.5299L38.7522 20.5V22.6285L20.3467 40.6585Z" fill="#E3E3E3"/>
<path d="M20.3467 44.7903V42.6618L38.7522 24.6318V26.7604L20.3467 44.7903Z" fill="#E3E3E3"/>
<path d="M20.3467 48.9221V46.7936L38.7522 28.7637V30.8922L20.3467 48.9221Z" fill="#E3E3E3"/>
<path d="M20.3467 53.054V50.9254L38.7522 32.8955V35.024L20.3467 53.054Z" fill="#E3E3E3"/>
<path d="M20.3467 57.1858V55.0573L38.7522 37.0273V39.1559L20.3467 57.1858Z" fill="#E3E3E3"/>
<path d="M20.3467 61.3176V59.1891L38.7522 41.1592V43.2877L20.3467 61.3176Z" fill="#E3E3E3"/>
<path d="M20.3467 65.4495V63.321L38.7522 45.291V47.4196L20.3467 65.4495Z" fill="#E3E3E3"/>
<path d="M20.3467 69.5818V67.4533L38.7522 49.4233V51.5519L20.3467 69.5818Z" fill="#E3E3E3"/>
<path d="M20.3467 73.7132V71.5846L38.7522 53.5547V55.6832L20.3467 73.7132Z" fill="#E3E3E3"/>
<path d="M20.3467 77.845V75.7164L38.7522 57.6865V59.8151L20.3467 77.845Z" fill="#E3E3E3"/>
<path d="M20.3467 81.9768V79.8483L38.7522 61.8184V63.9469L20.3467 81.9768Z" fill="#E3E3E3"/>
<path d="M20.3467 86.1087V83.9801L38.7522 65.9502V68.0787L20.3467 86.1087Z" fill="#E3E3E3"/>
<path d="M20.3467 90.241V88.1125L38.7522 70.0825V72.211L20.3467 90.241Z" fill="#E3E3E3"/>
<path d="M20.3467 94.3723V92.2438L38.7522 74.2139V76.3424L20.3467 94.3723Z" fill="#E3E3E3"/>
<path d="M20.3467 98.5042V96.3756L38.7522 78.3457V80.4742L20.3467 98.5042Z" fill="#E3E3E3"/>
<path d="M20.3467 102.636V100.508L38.7522 82.478V84.6066L20.3467 102.636Z" fill="white"/>
<path d="M20.3467 106.768V104.64L38.7522 86.6099V88.7384L20.3467 106.768Z" fill="white"/>
<path d="M20.3467 110.9V108.772L38.7522 90.7417V92.8702L20.3467 110.9Z" fill="white"/>
<path d="M20.3467 115.032V112.903L38.7522 94.873V97.0016L20.3467 115.032Z" fill="white"/>
<path d="M20.3467 119.164V117.035L38.7522 99.0054V101.134L20.3467 119.164Z" fill="white"/>
<path d="M20.3467 123.296V121.167L38.7522 103.137V105.266L20.3467 123.296Z" fill="white"/>
<path d="M20.3467 127.428V125.299L38.7522 107.269V109.398L20.3467 127.428Z" fill="white"/>
<path d="M20.3467 131.559V129.431L38.7522 111.401V113.529L20.3467 131.559Z" fill="white"/>
<path d="M20.3467 135.691V133.563L38.7522 115.533V117.661L20.3467 135.691Z" fill="white"/>
<path d="M20.3467 139.823V137.694L38.7522 119.665V121.793L20.3467 139.823Z" fill="white"/>
<path d="M20.3467 143.955V141.826L38.7522 123.796V125.925L20.3467 143.955Z" fill="white"/>
<path d="M20.3467 148.087V145.958L38.7522 127.928V130.057L20.3467 148.087Z" fill="white"/>
<path d="M20.3467 152.219V150.09L38.7522 132.06V134.189L20.3467 152.219Z" fill="white"/>
<path d="M20.3467 156.35V154.222L38.7522 136.192V138.32L20.3467 156.35Z" fill="white"/>
<path d="M20.3467 160.482V158.354L38.7522 140.324V142.452L20.3467 160.482Z" fill="white"/>
<path d="M20.3467 164.614V162.485L38.7522 144.456V146.584L20.3467 164.614Z" fill="white"/>
<path d="M20.3467 168.746V166.617L38.7522 148.587V150.716L20.3467 168.746Z" fill="white"/>
</g>
<defs>
<filter id="filter26_d" x="0.34668" y="0.5" width="58.4056" height="188.246" filterUnits="userSpaceOnUse" color-interpolation-filters="sRGB">
<feFlood flood-opacity="0" result="BackgroundImageFix"/>
<feColorMatrix in="SourceAlpha" type="matrix" values="0 0 0 0 0 0 0 0 0 0 0 0 0 0 0 0 0 0 127 0"/>
<feOffset/>
<feGaussianBlur stdDeviation="10"/>
<feColorMatrix type="matrix" values="0 0 0 0 0.184314 0 0 0 0 0.501961 0 0 0 0 0.929412 0 0 0 0.81 0"/>
<feBlend mode="normal" in2="BackgroundImageFix" result="effect1_dropShadow"/>
<feBlend mode="normal" in="SourceGraphic" in2="effect1_dropShadow" result="shape"/>
</filter>
</defs>
</svg>
