<svg width="497" height="497" viewBox="0 0 497 497" fill="none" xmlns="http://www.w3.org/2000/svg">
<g opacity="0.27">
<path opacity="0.27" d="M206.616 478.376C206.616 478.376 207.851 478.582 209.911 478.994C210.941 479.2 212.177 479.406 213.619 479.612C215.061 479.818 216.709 480.024 218.563 480.23C220.416 480.436 222.27 480.642 224.33 481.054C226.39 481.26 228.656 481.466 230.922 481.672C233.187 481.878 235.453 482.084 237.925 482.084C240.397 482.084 242.663 482.29 245.134 482.29C247.606 482.496 250.078 482.29 252.344 482.29C254.816 482.29 257.082 482.084 259.347 482.084C263.879 481.672 268.205 481.466 271.912 481.26C279.122 480.436 284.065 479.818 284.065 479.818C284.065 479.818 283.035 483.526 282.006 487.44C280.976 491.353 279.74 495.061 279.74 495.061C279.74 495.061 278.504 495.267 276.238 495.473C273.972 495.885 270.676 496.091 266.969 496.297C265.115 496.503 262.849 496.709 260.789 496.709C258.523 496.709 256.258 496.709 253.786 496.915C248.842 497.121 243.693 496.915 238.543 496.709C217.739 496.091 197.552 491.559 197.552 491.559C197.552 491.559 198.17 490.735 198.994 489.5C199.818 488.264 201.054 486.616 202.084 484.968C204.35 481.672 206.616 478.376 206.616 478.376Z" fill="white"/>
<path opacity="0.27" d="M121.544 444.389C121.544 444.389 122.574 445.007 124.428 446.243C126.282 447.273 128.753 449.127 132.049 450.775C135.345 452.423 138.847 454.894 142.966 456.748C145.026 457.778 147.086 458.808 149.352 459.838C151.618 460.868 153.677 461.692 155.943 462.722L159.239 464.164C160.269 464.576 161.505 464.988 162.535 465.4C164.8 466.223 166.86 467.047 169.126 467.871C173.452 469.313 177.571 470.755 180.867 471.785C184.369 472.815 187.253 473.639 189.313 474.051C191.372 474.669 192.608 474.875 192.608 474.875C192.608 474.875 190.342 478.17 187.871 481.26C185.399 484.35 182.927 487.44 182.927 487.44C182.927 487.44 181.691 487.028 179.425 486.41C177.16 485.792 174.07 484.762 170.568 483.526C168.714 482.908 166.654 482.29 164.595 481.466C162.535 480.642 160.269 479.818 158.003 478.994C153.471 477.347 148.734 475.081 143.996 473.021C141.524 471.991 139.464 470.755 136.993 469.519C134.727 468.283 132.461 467.253 130.401 466.017C126.282 463.546 122.162 461.486 118.866 459.426C115.57 457.366 112.893 455.718 110.833 454.482C108.979 453.246 107.949 452.423 107.949 452.423C107.949 452.423 111.245 450.363 114.746 448.303C116.394 447.273 118.042 446.037 119.278 445.213C120.72 445.007 121.544 444.389 121.544 444.389Z" fill="white"/>
<path opacity="0.27" d="M55.8352 380.328C55.8352 380.328 58.719 384.242 63.0446 390.215C65.3104 393.099 67.9882 396.395 70.872 399.897C73.9618 403.192 77.0515 407.106 80.5532 410.402C87.1447 417.611 94.5601 423.997 100.122 428.734C102.799 431.206 105.477 432.854 107.125 434.296C108.773 435.532 109.803 436.356 109.803 436.356C109.803 436.356 106.301 438.416 103.005 440.269C99.5037 442.123 96.002 444.183 96.002 444.183C96.002 444.183 94.9721 443.359 93.1183 441.917C91.2644 440.475 88.9986 438.416 85.9088 435.944C82.8191 433.472 79.7293 430.176 76.0216 427.086C74.1678 425.439 72.5199 423.585 70.666 421.731C69.0181 419.877 66.9583 418.023 65.3105 416.169C62.0147 412.256 58.307 408.548 55.4232 404.634C53.9813 402.78 52.5395 400.927 51.0976 399.279C49.8617 397.425 48.6258 395.777 47.3899 394.129C45.124 391.039 43.2702 388.361 42.0343 386.508C40.7984 384.654 40.1804 383.624 40.1804 383.624C40.1804 383.624 44.0941 383.006 48.0078 382.388C51.9215 381.152 55.8352 380.328 55.8352 380.328Z" fill="white"/>
<path opacity="0.27" d="M20.2003 296.081C20.2003 296.081 21.2302 300.818 23.0841 308.028C24.114 311.529 25.1439 315.649 26.5858 319.975C27.4097 322.035 28.0277 324.3 28.8516 326.566C29.2636 327.802 29.6756 328.832 30.0875 330.068L31.5294 333.364C32.3533 335.63 33.3833 337.895 34.2072 340.161C35.2371 342.427 36.267 344.487 37.091 346.547C38.9448 350.666 41.0047 354.374 42.6525 357.67C44.3004 360.966 45.7423 363.437 46.9782 365.291C48.0081 367.145 48.6261 368.175 48.6261 368.175C48.6261 368.175 44.7124 368.793 40.7987 369.205C36.885 369.617 32.7653 370.029 32.7653 370.029C32.7653 370.029 32.5593 369.823 32.3534 369.205C31.9414 368.587 31.5294 367.969 31.1174 366.939C30.0875 364.879 28.6456 361.996 26.7918 358.7C24.9379 355.198 23.2901 351.078 21.2302 346.753C19.3764 342.221 17.3165 337.483 15.6687 332.54C14.0208 327.596 12.1669 322.859 10.931 318.121C10.3131 315.855 9.69515 313.589 9.07719 311.324C8.66523 309.058 8.04728 306.998 7.63531 305.144C6.81138 301.436 5.98744 298.141 5.57548 295.875C5.16351 293.609 4.95752 292.373 4.95752 292.373C4.95752 292.373 8.87122 293.197 12.7849 294.227C16.2866 295.463 20.2003 296.081 20.2003 296.081Z" fill="white"/>
<path opacity="0.27" d="M19.582 204.418C19.582 204.418 19.376 205.654 18.9641 207.714C18.7581 209.774 17.9341 212.864 17.5222 216.365C17.1102 220.073 16.2863 224.193 16.0803 228.724C15.8743 230.99 15.6683 233.256 15.4623 235.728C15.2563 238.2 15.2564 240.465 15.2564 242.937C14.8444 252.618 15.4623 262.506 16.0803 269.715C16.2863 273.423 16.9042 276.307 17.1102 278.572C17.3162 280.632 17.5222 281.868 17.5222 281.868C17.5222 281.868 13.6085 280.838 9.90076 279.808C5.98707 278.572 2.27937 277.542 2.27937 277.542C2.27937 277.542 2.0734 276.306 1.86741 274.041C1.66143 271.775 1.45543 268.479 1.04346 264.565C0.425507 256.738 0.425513 246.439 0.631497 236.14C1.04346 230.99 1.24946 225.841 1.86741 221.103C2.48536 216.365 2.89732 211.834 3.72125 207.92C4.3392 204.212 4.95716 200.916 5.36913 198.651C5.7811 196.385 6.19305 195.149 6.19305 195.149C6.19305 195.149 9.4888 197.415 12.5786 199.681C14.2264 200.71 15.8743 201.946 17.1102 202.77C18.5521 203.8 19.582 204.418 19.582 204.418Z" fill="white"/>
<path opacity="0.27" d="M54.1873 119.553C54.1873 119.553 51.5096 123.673 47.8019 129.852C44.0942 136.238 39.3565 144.683 35.6488 153.746C31.5291 162.604 28.4394 171.873 26.1736 178.67C24.9377 182.172 24.3197 185.056 23.7017 187.116C23.0838 189.176 22.8778 190.411 22.8778 190.411C22.8778 190.411 19.7881 187.94 16.6983 185.468C13.6086 182.996 10.5188 180.524 10.5188 180.524C10.5188 180.524 10.9308 179.288 11.5487 177.022C12.1667 174.757 13.1966 171.873 14.4325 168.165C16.9043 160.75 20.818 151.275 25.1437 141.799C29.6753 132.53 34.6189 123.467 38.9446 116.875C41.0044 113.579 42.6523 110.902 44.0942 109.048C45.3301 107.194 46.154 106.164 46.154 106.164C46.154 106.164 48.2138 109.46 50.2737 112.962C51.9215 116.257 54.1873 119.553 54.1873 119.553Z" fill="white"/>
<path opacity="0.27" d="M118.866 54.6678C118.866 54.6678 118.66 54.8738 118.042 55.0798C117.63 55.2858 116.806 55.9037 115.982 56.5217C114.334 57.7576 111.863 59.6114 108.773 61.6712C105.889 63.9371 102.593 66.6148 98.8856 69.2926C97.2378 70.7345 95.3839 72.3824 93.5301 74.0303C91.6762 75.6781 89.8223 77.12 88.1745 78.9739C86.3206 80.6218 84.6728 82.2696 83.0249 84.1235C81.377 85.7714 79.7292 87.6252 78.0813 89.2731C74.7855 92.5688 72.1078 95.8646 69.8419 98.5424C67.3701 101.22 65.5163 103.692 64.2804 105.34C63.0445 106.988 62.2205 108.018 62.2205 108.018C62.2205 108.018 60.3667 104.516 58.3068 101.014C56.453 97.5124 54.5991 94.0107 54.5991 94.0107C54.5991 94.0107 54.8051 93.8047 55.2171 93.1868C55.629 92.7748 56.041 91.9509 56.865 91.1269C58.3068 89.4791 60.3667 87.0073 63.0445 83.9175C65.5163 81.0337 68.812 77.738 72.1077 74.2363C73.7556 72.5884 75.6095 70.7345 77.4633 69.0867C79.3172 67.2328 81.171 65.5849 83.0249 63.7311C84.8787 62.0832 86.9386 60.2294 88.7924 58.5815C90.6463 56.9336 92.7061 55.4917 94.56 53.8439C98.2677 50.7541 101.975 48.0763 105.065 45.8105C108.155 43.5447 110.833 41.6908 112.893 40.4549C114.746 39.219 115.776 38.6011 115.776 38.6011C115.776 38.6011 116.394 42.5148 117.012 46.4285C118.042 50.7541 118.866 54.6678 118.866 54.6678Z" fill="white"/>
<path opacity="0.27" d="M203.32 19.6509C203.32 19.6509 183.957 23.1526 165.831 30.3621C161.299 32.2159 156.767 33.8638 152.648 35.9236C150.588 36.9535 148.528 37.7775 146.674 38.6014C144.82 39.6313 143.172 40.4553 141.524 41.2792C138.229 42.9271 135.551 44.369 133.697 45.3989C131.843 46.4288 130.813 47.0468 130.813 47.0468C130.813 47.0468 130.401 43.1331 129.783 39.2194C129.371 35.3057 128.959 31.186 128.959 31.186C128.959 31.186 133.491 28.9202 140.495 25.2125C143.996 23.7706 148.116 21.7107 152.648 19.8569C157.179 18.209 161.917 15.9432 166.86 14.5013C169.332 13.6774 171.804 12.8535 174.07 12.0295C176.542 11.4116 179.014 10.5877 181.279 9.9697C185.811 8.52781 190.343 7.70387 194.05 6.67395C197.758 5.64403 201.054 5.23207 203.32 4.82011C205.585 4.40814 206.821 4.20215 206.821 4.20215C206.821 4.20215 205.791 8.11585 204.967 12.0295C204.144 15.7372 203.32 19.6509 203.32 19.6509Z" fill="white"/>
<path opacity="0.27" d="M294.982 19.6506C294.982 19.6506 290.244 18.8267 283.035 17.5908C279.327 17.1788 275.208 16.5609 270.676 16.1489C266.144 15.9429 261.201 15.325 256.463 15.325C253.991 15.325 251.52 15.119 249.254 15.119C246.782 15.119 244.516 15.325 242.25 15.325C237.719 15.325 233.393 15.7369 229.685 15.9429C225.978 16.1489 223.094 16.5609 220.828 16.7668C218.768 16.9728 217.532 17.1788 217.532 17.1788C217.532 17.1788 218.562 13.2651 219.592 9.55741C220.828 5.64372 221.858 1.93602 221.858 1.93602C221.858 1.93602 222.27 1.93604 222.682 1.73006C223.3 1.73006 224.124 1.52406 225.36 1.52406C227.625 1.31808 230.921 1.11209 234.835 0.906102C238.749 0.700118 243.28 0.700124 248.018 0.494141C252.961 0.494141 258.111 0.700118 263.261 0.906102C268.41 1.31807 273.56 1.52405 278.297 2.34798C280.769 2.55397 283.035 2.96595 285.301 3.17194C287.567 3.5839 289.627 3.99587 291.48 4.20185C295.394 4.8198 298.484 5.43774 300.75 6.05569C303.015 6.46766 304.251 6.87965 304.251 6.87965C304.251 6.87965 301.986 10.1754 299.514 13.2651C297.248 16.3549 294.982 19.6506 294.982 19.6506Z" fill="white"/>
<path opacity="0.27" d="M379.641 55.08C379.641 55.08 379.435 54.874 379.023 54.6681C378.612 54.2561 377.788 53.8441 376.964 53.2262C375.11 51.9903 372.638 50.5484 369.548 48.4885C366.458 46.6347 362.751 44.5749 358.631 42.309C356.571 41.2791 354.511 40.2492 352.246 39.2193C351.216 38.6013 350.186 38.1894 348.95 37.5714L345.654 36.1295C343.388 35.0996 341.122 34.0697 339.063 33.2457C336.797 32.4218 334.531 31.5979 332.471 30.7739C328.351 28.9201 324.232 27.8902 320.73 26.6543C317.228 25.4184 314.345 24.8004 312.285 24.1825C310.225 23.5645 308.989 23.3585 308.989 23.3585C308.989 23.3585 311.461 20.2688 313.933 17.179C316.404 14.0893 319.082 10.9995 319.082 10.9995C319.082 10.9995 320.318 11.2055 322.584 12.0294C324.644 12.6474 327.734 13.6773 331.441 14.9132C335.149 16.1491 339.269 18.003 343.8 19.6508C346.066 20.6807 348.332 21.7107 350.598 22.7406C352.864 23.7705 355.335 24.8004 357.601 26.0363C359.867 27.2722 362.133 28.3021 364.605 29.538C366.87 30.568 368.93 32.0098 371.196 33.2457C373.256 34.4816 375.316 35.5116 377.17 36.7475C379.023 37.9834 380.877 39.0133 382.525 40.0432C385.821 42.103 388.499 43.9569 390.353 45.1928C392.206 46.4287 393.236 47.2526 393.236 47.2526C393.236 47.2526 389.735 49.3125 386.439 51.3723C382.937 53.0202 379.641 55.08 379.641 55.08Z" fill="white"/>
<path opacity="0.27" d="M444.114 120.376C444.114 120.376 443.496 119.346 442.261 117.492C441.025 115.639 439.171 113.373 437.111 110.283C435.051 107.193 432.167 104.104 429.49 100.396C428.048 98.542 426.4 96.8941 424.958 95.0402C423.31 93.1864 421.868 91.3325 420.22 89.6847C416.719 86.1829 413.629 82.4752 410.127 79.5914C408.479 77.9436 406.831 76.5017 405.389 75.0598C403.742 73.6179 402.3 72.382 400.858 71.1461C398.18 68.6743 395.708 66.8205 394.06 65.5846C392.413 64.3487 391.383 63.5247 391.383 63.5247C391.383 63.5247 394.884 61.6709 398.386 59.611C401.888 57.7572 405.595 55.9033 405.595 55.9033C405.595 55.9033 409.509 59.1991 415.483 64.3487C421.25 69.7042 428.666 76.7077 435.463 84.5351C442.467 92.1565 448.646 100.602 452.972 106.781C455.238 109.871 456.885 112.755 458.121 114.609C459.357 116.463 459.975 117.492 459.975 117.492C459.975 117.492 456.061 118.11 451.942 118.728C448.028 119.552 444.114 120.376 444.114 120.376Z" fill="white"/>
<path opacity="0.27" d="M478.307 205.036C478.307 205.036 478.101 203.8 477.689 201.74C477.277 199.68 476.454 196.591 475.63 193.089C473.982 185.879 471.098 176.61 468.008 167.547C464.507 158.484 460.593 149.626 457.297 143.035C455.649 139.739 454.207 137.061 453.177 135.207C452.147 133.354 451.53 132.324 451.53 132.324C451.53 132.324 455.443 131.912 459.563 131.294C463.683 130.882 467.596 130.676 467.596 130.676C467.596 130.676 468.214 131.912 469.244 133.766C470.274 135.825 471.922 138.503 473.364 142.211C474.188 144.065 475.012 145.919 476.042 147.978C476.454 149.008 477.072 150.038 477.484 151.068C477.895 152.098 478.307 153.334 478.719 154.364C479.543 156.63 480.573 158.896 481.397 161.367C482.427 163.633 483.045 166.311 483.869 168.577C487.371 178.258 489.842 188.351 491.49 195.973C492.52 199.68 492.726 202.976 493.344 205.242C493.756 207.508 493.962 208.744 493.962 208.744C493.962 208.744 490.048 207.714 486.135 206.89C482.221 206.066 478.307 205.036 478.307 205.036Z" fill="white"/>
<path opacity="0.27" d="M477.484 296.699C477.484 296.699 481.809 277.748 482.221 258.18C482.221 253.236 482.633 248.499 482.221 243.967C482.221 241.701 482.221 239.435 482.015 237.376C481.809 235.316 481.603 233.256 481.603 231.402C481.397 227.694 481.191 224.605 480.779 222.545C480.573 220.485 480.367 219.249 480.367 219.249C480.367 219.249 484.281 220.279 487.989 221.515C491.902 222.751 495.61 223.987 495.61 223.987C495.61 223.987 496.022 229.136 496.64 236.964C496.64 240.877 496.846 245.409 496.846 250.147C496.846 252.618 496.64 255.09 496.64 257.562C496.64 258.798 496.64 260.034 496.64 261.476L496.228 265.389C496.022 268.067 495.816 270.539 495.61 273.011C495.404 275.483 494.992 277.954 494.786 280.426C494.374 285.164 493.344 289.695 492.726 293.403C492.108 297.317 491.285 300.407 490.873 302.672C490.461 304.938 490.049 306.174 490.049 306.174C490.049 306.174 486.753 303.702 483.663 301.437C480.779 299.171 477.484 296.699 477.484 296.699Z" fill="white"/>
<path opacity="0.27" d="M441.23 380.947C441.23 380.947 441.848 379.917 443.084 378.269C444.32 376.415 445.762 373.943 447.822 370.853C449.882 367.764 451.735 364.056 454.001 360.142C455.237 358.288 456.061 356.022 457.297 353.963C458.327 351.903 459.563 349.637 460.593 347.371C462.447 342.839 464.712 338.514 466.154 334.188C466.978 332.128 467.802 330.069 468.626 328.009C469.244 325.949 469.862 324.095 470.48 322.447C471.716 318.945 472.54 316.062 473.158 314.002C473.776 311.942 473.982 310.706 473.982 310.706C473.982 310.706 477.071 313.178 480.161 315.65C483.251 318.327 486.341 320.799 486.341 320.799C486.341 320.799 485.929 322.035 485.311 324.095C484.693 326.155 483.663 329.245 482.427 332.952C480.985 336.454 479.543 340.78 477.483 345.311C475.424 349.637 473.57 354.581 471.098 359.112C469.862 361.378 468.832 363.85 467.596 365.91C466.36 368.175 465.124 370.235 463.888 372.501C462.653 374.561 461.623 376.621 460.387 378.475C459.151 380.329 458.121 382.182 457.091 383.83C455.031 387.126 452.971 389.598 451.735 391.658C450.5 393.511 449.676 394.541 449.676 394.541C449.676 394.541 447.616 391.04 445.556 387.744C443.496 384.242 441.23 380.947 441.23 380.947Z" fill="white"/>
<path opacity="0.27" d="M375.522 444.801C375.522 444.801 376.552 444.183 378.406 442.947C380.26 441.917 382.731 440.064 385.615 437.798C387.057 436.768 388.705 435.532 390.353 434.296C392.001 433.06 393.649 431.618 395.502 430.176C399.21 427.499 402.712 423.997 406.42 420.907C408.273 419.259 409.921 417.611 411.569 415.964C413.217 414.316 415.071 412.668 416.513 411.02C419.602 407.724 422.692 404.634 424.958 401.751C427.224 398.867 429.284 396.601 430.726 394.953C431.961 393.305 432.785 392.275 432.785 392.275C432.785 392.275 434.639 395.777 436.699 399.279C438.553 402.781 440.407 406.282 440.407 406.282C440.407 406.282 439.583 407.312 438.141 408.96C436.699 410.608 434.639 413.286 431.961 415.964C429.284 418.847 426.4 422.143 422.692 425.439C421.044 427.087 419.19 428.94 417.337 430.588C415.483 432.236 413.423 433.884 411.569 435.738C407.861 439.24 403.536 442.329 399.828 445.419C395.914 448.303 392.207 450.981 389.117 453.247C385.821 455.306 383.143 457.16 381.289 458.396C380.26 459.014 379.642 459.426 379.024 459.838C378.406 460.044 378.2 460.25 378.2 460.25C378.2 460.25 377.994 459.22 377.788 457.778C377.582 456.336 377.17 454.276 376.964 452.217C376.346 448.921 375.522 444.801 375.522 444.801Z" fill="white"/>
<path opacity="0.27" d="M290.45 478.376C290.45 478.376 291.686 478.17 293.746 477.758C295.806 477.552 298.895 476.728 302.397 475.904C304.251 475.493 306.105 475.081 308.165 474.669C310.225 474.051 312.284 473.433 314.55 472.815C319.082 471.785 323.614 469.931 328.145 468.489C332.677 466.841 337.208 464.987 341.534 463.34C345.654 461.28 349.567 459.838 352.863 458.19C356.159 456.542 358.837 455.1 360.691 454.07C361.72 453.658 362.338 453.246 362.75 452.834C363.162 452.628 363.574 452.422 363.574 452.422C363.574 452.422 363.986 456.336 364.398 460.456C364.81 464.369 365.016 468.283 365.016 468.283C365.016 468.283 363.78 468.901 361.926 469.931C360.897 470.549 359.661 471.167 358.219 471.785C356.777 472.403 355.129 473.227 353.481 474.051C351.627 474.875 349.773 475.699 347.714 476.728C345.654 477.758 343.388 478.376 341.328 479.406C339.062 480.23 336.796 481.26 334.325 482.084C331.853 482.908 329.381 483.732 327.115 484.556L323.408 485.792C322.172 486.204 320.936 486.41 319.7 486.822C317.228 487.44 314.756 488.264 312.49 488.882C307.753 490.117 303.427 490.941 299.513 491.971C291.892 493.413 286.742 494.237 286.742 494.237C286.742 494.237 287.772 490.323 288.802 486.41C289.626 482.29 290.45 478.376 290.45 478.376Z" fill="white"/>
</g>
</svg>
